G04 (created by PCBNEW (2013-07-07 BZR 4022)-stable) date 2015/08/15 16:03:12*
%MOIN*%
G04 Gerber Fmt 3.4, Leading zero omitted, Abs format*
%FSLAX34Y34*%
G01*
G70*
G90*
G04 APERTURE LIST*
%ADD10C,0.00590551*%
%ADD11C,0.01*%
%ADD12C,0.00787402*%
G04 APERTURE END LIST*
G54D10*
X119685Y-73031D02*
X115748Y-73031D01*
G54D11*
X119316Y-74615D02*
X119316Y-75615D01*
X118116Y-74615D02*
X118116Y-75615D01*
X117316Y-74615D02*
X117316Y-75615D01*
X116116Y-74615D02*
X116116Y-75615D01*
X117516Y-74015D02*
G75*
G03X117516Y-74015I-800J0D01*
G74*
G01*
X119516Y-74015D02*
G75*
G03X119516Y-74015I-800J0D01*
G74*
G01*
X115716Y-74015D02*
X115716Y-75615D01*
X115716Y-75615D02*
X116316Y-75615D01*
X116316Y-75615D02*
X119516Y-75615D01*
X119516Y-75615D02*
X119716Y-75615D01*
X119716Y-75615D02*
X119716Y-74015D01*
X115716Y-72015D02*
X119716Y-72015D01*
X119716Y-72015D02*
X119716Y-74015D01*
X115716Y-72015D02*
X115716Y-74015D01*
G54D10*
X124409Y-73031D02*
X120472Y-73031D01*
G54D11*
X124040Y-74615D02*
X124040Y-75615D01*
X122840Y-74615D02*
X122840Y-75615D01*
X122040Y-74615D02*
X122040Y-75615D01*
X120840Y-74615D02*
X120840Y-75615D01*
X122240Y-74015D02*
G75*
G03X122240Y-74015I-800J0D01*
G74*
G01*
X124240Y-74015D02*
G75*
G03X124240Y-74015I-800J0D01*
G74*
G01*
X120440Y-74015D02*
X120440Y-75615D01*
X120440Y-75615D02*
X121040Y-75615D01*
X121040Y-75615D02*
X124240Y-75615D01*
X124240Y-75615D02*
X124440Y-75615D01*
X124440Y-75615D02*
X124440Y-74015D01*
X120440Y-72015D02*
X124440Y-72015D01*
X124440Y-72015D02*
X124440Y-74015D01*
X120440Y-72015D02*
X120440Y-74015D01*
G54D12*
X119192Y-75992D02*
X119108Y-76020D01*
X119080Y-76048D01*
X119052Y-76105D01*
X119052Y-76189D01*
X119080Y-76245D01*
X119108Y-76273D01*
X119164Y-76302D01*
X119389Y-76302D01*
X119389Y-75711D01*
X119192Y-75711D01*
X119136Y-75739D01*
X119108Y-75767D01*
X119080Y-75823D01*
X119080Y-75880D01*
X119108Y-75936D01*
X119136Y-75964D01*
X119192Y-75992D01*
X119389Y-75992D01*
X118827Y-76133D02*
X118546Y-76133D01*
X118883Y-76302D02*
X118686Y-75711D01*
X118489Y-76302D01*
X118377Y-75711D02*
X118039Y-75711D01*
X118208Y-76302D02*
X118208Y-75711D01*
X117927Y-75711D02*
X117589Y-75711D01*
X117758Y-76302D02*
X117758Y-75711D01*
X117393Y-75992D02*
X117196Y-75992D01*
X117111Y-76302D02*
X117393Y-76302D01*
X117393Y-75711D01*
X117111Y-75711D01*
X116521Y-76302D02*
X116718Y-76020D01*
X116858Y-76302D02*
X116858Y-75711D01*
X116633Y-75711D01*
X116577Y-75739D01*
X116549Y-75767D01*
X116521Y-75823D01*
X116521Y-75908D01*
X116549Y-75964D01*
X116577Y-75992D01*
X116633Y-76020D01*
X116858Y-76020D01*
X116155Y-76020D02*
X116155Y-76302D01*
X116352Y-75711D02*
X116155Y-76020D01*
X115958Y-75711D01*
X123776Y-76302D02*
X123776Y-75711D01*
X123579Y-76133D01*
X123383Y-75711D01*
X123383Y-76302D01*
X122989Y-75711D02*
X122876Y-75711D01*
X122820Y-75739D01*
X122764Y-75795D01*
X122736Y-75908D01*
X122736Y-76105D01*
X122764Y-76217D01*
X122820Y-76273D01*
X122876Y-76302D01*
X122989Y-76302D01*
X123045Y-76273D01*
X123101Y-76217D01*
X123129Y-76105D01*
X123129Y-75908D01*
X123101Y-75795D01*
X123045Y-75739D01*
X122989Y-75711D01*
X122567Y-75711D02*
X122230Y-75711D01*
X122398Y-76302D02*
X122398Y-75711D01*
X121920Y-75711D02*
X121808Y-75711D01*
X121751Y-75739D01*
X121695Y-75795D01*
X121667Y-75908D01*
X121667Y-76105D01*
X121695Y-76217D01*
X121751Y-76273D01*
X121808Y-76302D01*
X121920Y-76302D01*
X121976Y-76273D01*
X122033Y-76217D01*
X122061Y-76105D01*
X122061Y-75908D01*
X122033Y-75795D01*
X121976Y-75739D01*
X121920Y-75711D01*
X121077Y-76302D02*
X121273Y-76020D01*
X121414Y-76302D02*
X121414Y-75711D01*
X121189Y-75711D01*
X121133Y-75739D01*
X121105Y-75767D01*
X121077Y-75823D01*
X121077Y-75908D01*
X121105Y-75964D01*
X121133Y-75992D01*
X121189Y-76020D01*
X121414Y-76020D01*
M02*
