G04 (created by PCBNEW (2013-07-07 BZR 4022)-stable) date 2015/08/15 16:03:12*
%MOIN*%
G04 Gerber Fmt 3.4, Leading zero omitted, Abs format*
%FSLAX34Y34*%
G01*
G70*
G90*
G04 APERTURE LIST*
%ADD10C,0.00590551*%
%ADD11C,0.00984252*%
%ADD12C,0.00787402*%
G04 APERTURE END LIST*
G54D10*
G54D11*
X120472Y-81299D02*
X115748Y-81299D01*
X115748Y-81299D02*
X115748Y-76181D01*
X120472Y-76181D02*
X120472Y-81299D01*
X115748Y-76181D02*
X120472Y-76181D01*
G54D12*
X121470Y-79527D02*
X121498Y-79443D01*
X121498Y-79302D01*
X121470Y-79246D01*
X121442Y-79218D01*
X121386Y-79190D01*
X121330Y-79190D01*
X121273Y-79218D01*
X121245Y-79246D01*
X121217Y-79302D01*
X121189Y-79415D01*
X121161Y-79471D01*
X121133Y-79499D01*
X121077Y-79527D01*
X121020Y-79527D01*
X120964Y-79499D01*
X120936Y-79471D01*
X120908Y-79415D01*
X120908Y-79274D01*
X120936Y-79190D01*
X120908Y-78993D02*
X121498Y-78852D01*
X121077Y-78740D01*
X121498Y-78627D01*
X120908Y-78487D01*
X121498Y-77952D02*
X121498Y-78290D01*
X121498Y-78121D02*
X120908Y-78121D01*
X120992Y-78177D01*
X121048Y-78233D01*
X121077Y-78290D01*
M02*
