G04 (created by PCBNEW (2013-07-07 BZR 4022)-stable) date 2015/08/15 16:03:12*
%MOIN*%
G04 Gerber Fmt 3.4, Leading zero omitted, Abs format*
%FSLAX34Y34*%
G01*
G70*
G90*
G04 APERTURE LIST*
%ADD10C,0.00590551*%
%ADD11C,0.11811*%
%ADD12C,0.110236*%
%ADD13C,0.0708661*%
%ADD14C,0.0275591*%
G04 APERTURE END LIST*
G54D10*
G54D11*
X117165Y-80551D03*
X117165Y-78740D03*
X117165Y-76929D03*
X119055Y-80551D03*
X119055Y-78740D03*
X119055Y-76929D03*
G54D10*
G36*
X122244Y-84448D02*
X122244Y-82480D01*
X124212Y-82480D01*
X124212Y-84448D01*
X122244Y-84448D01*
X122244Y-84448D01*
G37*
G36*
X115944Y-84448D02*
X115944Y-82480D01*
X117913Y-82480D01*
X117913Y-84448D01*
X115944Y-84448D01*
X115944Y-84448D01*
G37*
G54D12*
X121574Y-82755D03*
G54D10*
G36*
X121299Y-83799D02*
X121299Y-83602D01*
X122086Y-83602D01*
X122086Y-83799D01*
X121299Y-83799D01*
X121299Y-83799D01*
G37*
G36*
X121299Y-84429D02*
X121299Y-84232D01*
X122086Y-84232D01*
X122086Y-84429D01*
X121299Y-84429D01*
X121299Y-84429D01*
G37*
G36*
X121299Y-84114D02*
X121299Y-83917D01*
X122086Y-83917D01*
X122086Y-84114D01*
X121299Y-84114D01*
X121299Y-84114D01*
G37*
G54D13*
X118716Y-74015D03*
X116716Y-74015D03*
X123440Y-74015D03*
X121440Y-74015D03*
G54D14*
X117165Y-76929D02*
X117185Y-76929D01*
X118110Y-79606D02*
X119055Y-80551D01*
X118110Y-77854D02*
X118110Y-79606D01*
X117185Y-76929D02*
X118110Y-77854D01*
X123228Y-77263D02*
X123228Y-83464D01*
X122893Y-76929D02*
X123228Y-77263D01*
X119055Y-76929D02*
X122893Y-76929D01*
M02*
