  0
SECTION
  2
HEADER
  9
$ACADVER
  1
AC1009
  9
$INSBASE
 10
0
 20
0
 30
0
  9
$EXTMIN
 10
0
 20
0
  9
$EXTMAX
 10
420
 20
297
  9
$LIMMIN
 10
0
 20
0
  9
$LIMMAX
 10
420
 20
297
  9
$LTSCALE
 40
1
  0
ENDSEC
  0
SECTION
  2
TABLES
  0
TABLE
  2
LTYPE
 70
     9
  0
LTYPE
  2
CONTINUOUS
 70
    64
  3
実線
 72
    65
 73
     0
 40
0.0
  0
LTYPE
  2
DASHED1
 70
    64
  3
--  --  --  --  --  --  --  --  
 72
    65
 73
     2
 40
2.5
 49
1.25
 49
-1.25
  0
LTYPE
  2
DASHED2
 70
    64
  3
----    ----    ----    ----    
 72
    65
 73
     2
 40
5.0
 49
2.5
 49
-2.5
  0
LTYPE
  2
DASHED3
 70
    64
  3
------  ------  ------  ------  
 72
    65
 73
     2
 40
5.0
 49
3.75
 49
-1.25
  0
LTYPE
  2
CENTER1
 70
    64
  3
----- - ----- - ----- - ----- - 
 72
    65
 73
     4
 40
10.0
 49
6.25
 49
-1.25
 49
1.25
 49
-1.25
  0
LTYPE
  2
CENTER2
 70
    64
  3
----------  --  ----------  --  
 72
    65
 73
     4
 40
20.0
 49
12.5
 49
-2.5
 49
2.5
 49
-2.5
  0
LTYPE
  2
PHANTOM1
 70
    64
  3
--- - - --- - - --- - - --- - - 
 72
    65
 73
     6
 40
10.0
 49
3.25
 49
-1.25
 49
1.25
 49
-1.25
 49
1.25
 49
-1.25
  0
LTYPE
  2
PHANTOM2
 70
    64
  3
--------  -  -  --------  -  -  
 72
    65
 73
     6
 40
20.0
 49
10.0
 49
-2.5
 49
1.25
 49
-2.5
 49
1.25
 49
-2.5
  0
LTYPE
  2
DOT
 70
    64
  3
-   -   -   -   -   -   -   -   
 72
    65
 73
     2
 40
2.5
 49
0.625
 49
-1.875
  0
LTYPE
  2
DUMMY
 70
    64
  3
ダミー
 72
    65
 73
     0
 40
0.0
  0
LTYPE
  2
RAND1
 70
    64
  3
ランダム線1
 72
    65
 73
     4
 40
10.0
 49
1.0
 49
-2.0
 49
3.0
 49
-4.0
  0
LTYPE
  2
RAND2
 70
    64
  3
ランダム線2
 72
    65
 73
     4
 40
14.0
 49
2.0
 49
-3.0
 49
4.0
 49
-5.0
  0
LTYPE
  2
RAND3
 70
    64
  3
ランダム線3
 72
    65
 73
     4
 40
18.0
 49
3.0
 49
-4.0
 49
5.0
 49
-6.0
  0
LTYPE
  2
RAND4
 70
    64
  3
ランダム線4
 72
    65
 73
     4
 40
22.0
 49
4.0
 49
-5.0
 49
6.0
 49
-7.0
  0
LTYPE
  2
RAND5
 70
    64
  3
ランダム線5
 72
    65
 73
     4
 40
26.0
 49
5.0
 49
-6.0
 49
7.0
 49
-8.0
  0
LTYPE
  2
LONG1
 70
    64
  3
----------  --  ----------  --  
 72
    65
 73
     4
 40
40.0
 49
32.5
 49
-2.5
 49
2.5
 49
-2.5
  0
LTYPE
  2
LONG2
 70
    64
  3
--------  -  -  --------  -  -  
 72
    65
 73
     6
 40
40.0
 49
30.0
 49
-2.5
 49
1.25
 49
-2.5
 49
1.25
 49
-2.5
  0
LTYPE
  2
LONG3
 70
    64
  3
+++++++++++++++..+++++++++++++++
 72
    65
 73
     2
 40
40.0
 49
37.5
 49
-2.5
  0
LTYPE
  2
LONG4
 70
    64
  3
+++++++++++++++..+++++++++++++++
 72
    65
 73
     2
 40
80.0
 49
75.0
 49
-5.0
  0
LTYPE
  2
LONG5
 70
    64
  3
----------  --  ----------  --  
 72
    65
 73
     4
 40
60.0
 49
37.5
 49
-7.5
 49
7.5
 49
-7.5
  0
LTYPE
  2
dashed
 70
   64
  3
-------   -------------   ------
 72
   65
 73
    2
 40
7.5
 49
6
 49
-1.5
  0
LTYPE
  2
dashed_spaced
 70
   64
  3
----        --------        ----
 72
   65
 73
    2
 40
12
 49
6
 49
-6
  0
LTYPE
  2
long_dashed_dotted
 70
   64
  3
------------- --- --------------
 72
   65
 73
    4
 40
15.25
 49
12
 49
-1.5
 49
0.25
 49
-1.5
  0
LTYPE
  2
long_dashed_double-dotted
 70
   64
  3
----------- --- --- ------------
 72
   65
 73
    6
 40
17
 49
12
 49
-1.5
 49
0.25
 49
-1.5
 49
0.25
 49
-1.5
  0
LTYPE
  2
long_dashed_triplicate-dotted
 70
   64
  3
--------- --- --- --- ----------
 72
   65
 73
    8
 40
18.75
 49
12
 49
-1.5
 49
0.25
 49
-1.5
 49
0.25
 49
-1.5
 49
0.25
 49
-1.5
  0
LTYPE
  2
dotted
 70
   64
  3
   -       -       -       -    
 72
   65
 73
    2
 40
1.75
 49
0.25
 49
-1.5
  0
LTYPE
  2
chain
 70
   64
  3
-------------- -- --------------
 72
   65
 73
    4
 40
18.5
 49
12
 49
-1.5
 49
3.5
 49
-1.5
  0
LTYPE
  2
chain_double_dash
 70
   64
  3
------------ -- -- -------------
 72
   65
 73
    6
 40
23.5
 49
12
 49
-1.5
 49
3.5
 49
-1.5
 49
3.5
 49
-1.5
  0
LTYPE
  2
dashed_dotted
 70
   64
  3
-----------     -     ----------
 72
   65
 73
    4
 40
9.25
 49
6
 49
-1.5
 49
0.25
 49
-1.5
  0
LTYPE
  2
double-dashed_dotted
 70
   64
  3
------   -----------   -   -----
 72
   65
 73
    6
 40
16.75
 49
6
 49
-1.5
 49
6
 49
-1.5
 49
0.25
 49
-1.5
  0
LTYPE
  2
dashed_double-dotted
 70
   64
  3
---------    -    -    ---------
 72
   65
 73
    6
 40
11
 49
6
 49
-1.5
 49
0.25
 49
-1.5
 49
0.25
 49
-1.5
  0
LTYPE
  2
double-dashed_double-dotted
 70
   64
  3
-----   ---------   -   -   ----
 72
   65
 73
    8
 40
18.5
 49
6
 49
-1.5
 49
6
 49
-1.5
 49
0.25
 49
-1.5
 49
0.25
 49
-1.5
  0
LTYPE
  2
dashed_triplicate-dotted
 70
   64
  3
-------    -    -    -    ------
 72
   65
 73
    8
 40
12.75
 49
6
 49
-1.5
 49
0.25
 49
-1.5
 49
0.25
 49
-1.5
 49
0.25
 49
-1.5
  0
LTYPE
  2
double-dashed_triplicate-dotted
 70
   64
  3
-----  ---------  -  -  -  -----
 72
   65
 73
   10
 40
20.25
 49
6
 49
-1.5
 49
6
 49
-1.5
 49
0.25
 49
-1.5
 49
0.25
 49
-1.5
 49
0.25
 49
-1.5
  0
LTYPE
  2
undefined
 70
   64
  3
--------------------------------
 72
   65
 73
    0
 40
0
  0
ENDTAB
  0
TABLE
  2
STYLE
  5
3
100
AcDbSymbolTable
 70
     1
  0
STYLE
  5
10
100
AcDbSymbolTableRecord
100
AcDbTextStyleTableRecord
  2
STANDARD
 70
     0
 40
0.0
 41
1.0
 50
0.0
 71
     0
 42
0.2
  3
txt
  4
bigfont.shx
  0
STYLE
  5
26
100
AcDbSymbolTableRecord
100
AcDbTextStyleTableRecord
  2
TATEGAKI
 70
    68
 40
0.0
 41
1.0
 50
0.0
 71
     0
 42
1.0
  3
txt
  4
bigfont.shx
  0
ENDTAB
  0
TABLE
  2
LAYER
 70
    2
  0
LAYER
  2
_1-4_1-4___
 70
   64
 62
    7
  6
CONTINUOUS
  0
LAYER
  2
ADD_LINE
 70
   64
 62
    7
  6
CONTINUOUS
  0
ENDTAB
  0
ENDSEC
  0
SECTION
  2
BLOCKS
  0
ENDSEC
  0
SECTION
  2
ENTITIES
  0
LINE
  8
_1-4_1-4___
  6
CONTINUOUS
 62
   18
 10
117.53829253315186
 20
70.194415676254977
 11
117.53829253315186
 21
67.994415676254988
  0
LINE
  8
_1-4_1-4___
  6
CONTINUOUS
 62
   18
 10
112.83829253315187
 20
67.994415676254988
 11
117.53829253315186
 21
67.994415676254988
  0
LINE
  8
_1-4_1-4___
  6
CONTINUOUS
 62
   18
 10
112.83829253315187
 20
70.194415676254977
 11
117.53829253315186
 21
70.194415676254977
  0
LINE
  8
_1-4_1-4___
  6
CONTINUOUS
 62
   18
 10
164.13829253315188
 20
70.194415676254977
 11
164.13829253315188
 21
67.994415676254988
  0
LINE
  8
_1-4_1-4___
  6
CONTINUOUS
 62
   18
 10
168.8382925331519
 20
67.994415676254988
 11
164.13829253315188
 21
67.994415676254988
  0
LINE
  8
_1-4_1-4___
  6
CONTINUOUS
 62
   18
 10
168.8382925331519
 20
70.194415676254977
 11
164.13829253315188
 21
70.194415676254977
  0
LINE
  8
_1-4_1-4___
  6
CONTINUOUS
 62
   18
 10
163.8382925331519
 20
10.194415676254977
 11
117.83829253315187
 21
10.194415676254977
  0
LINE
  8
_1-4_1-4___
  6
CONTINUOUS
 62
   18
 10
175.8382925331519
 20
52.194415676254977
 11
175.8382925331519
 21
62.194415676254977
  0
LINE
  8
_1-4_1-4___
  6
CONTINUOUS
 62
   18
 10
175.8382925331519
 20
32.194415676254977
 11
175.8382925331519
 21
42.194415676254977
  0
LINE
  8
_1-4_1-4___
  6
CONTINUOUS
 62
   18
 10
105.83829253315187
 20
52.194415676254977
 11
105.83829253315187
 21
62.194415676254977
  0
LINE
  8
_1-4_1-4___
  6
CONTINUOUS
 62
   18
 10
105.83829253315187
 20
32.194415676254977
 11
105.83829253315187
 21
42.194415676254977
  0
LINE
  8
_1-4_1-4___
  6
CONTINUOUS
 62
   18
 10
168.8382925331519
 20
70.194415676254977
 11
168.8382925331519
 21
67.994415676254988
  0
LINE
  8
_1-4_1-4___
  6
CONTINUOUS
 62
   18
 10
112.83829253315187
 20
70.194415676254977
 11
112.83829253315187
 21
67.994415676254988
  0
LINE
  8
_1-4_1-4___
  6
CONTINUOUS
 62
   18
 10
175.8382925331519
 20
62.194415676254977
 11
173.73829253315188
 21
62.194415676254977
  0
LINE
  8
_1-4_1-4___
  6
CONTINUOUS
 62
   18
 10
173.73829253315188
 20
72.194415676254977
 11
173.73829253315188
 21
62.194415676254977
  0
LINE
  8
_1-4_1-4___
  6
CONTINUOUS
 62
   18
 10
175.8382925331519
 20
52.194415676254977
 11
173.73829253315188
 21
52.194415676254977
  0
LINE
  8
_1-4_1-4___
  6
CONTINUOUS
 62
   18
 10
175.8382925331519
 20
42.194415676254977
 11
173.73829253315188
 21
42.194415676254977
  0
LINE
  8
_1-4_1-4___
  6
CONTINUOUS
 62
   18
 10
173.73829253315188
 20
52.194415676254977
 11
173.73829253315188
 21
42.194415676254977
  0
LINE
  8
_1-4_1-4___
  6
CONTINUOUS
 62
   18
 10
175.8382925331519
 20
32.194415676254977
 11
173.73829253315188
 21
32.194415676254977
  0
LINE
  8
_1-4_1-4___
  6
CONTINUOUS
 62
   18
 10
175.8382925331519
 20
22.194415676254977
 11
173.73829253315188
 21
22.194415676254977
  0
LINE
  8
_1-4_1-4___
  6
CONTINUOUS
 62
   18
 10
173.73829253315188
 20
32.194415676254977
 11
173.73829253315188
 21
22.194415676254977
  0
LINE
  8
_1-4_1-4___
  6
CONTINUOUS
 62
   18
 10
163.8382925331519
 20
10.194415676254977
 11
163.8382925331519
 21
12.294415676254971
  0
LINE
  8
_1-4_1-4___
  6
CONTINUOUS
 62
   18
 10
175.8382925331519
 20
22.194415676254977
 11
175.8382925331519
 21
12.294415676254971
  0
LINE
  8
_1-4_1-4___
  6
CONTINUOUS
 62
   18
 10
175.8382925331519
 20
12.294415676254971
 11
163.8382925331519
 21
12.294415676254971
  0
LINE
  8
_1-4_1-4___
  6
CONTINUOUS
 62
   18
 10
117.83829253315187
 20
10.194415676254977
 11
117.83829253315187
 21
12.294415676254971
  0
LINE
  8
_1-4_1-4___
  6
CONTINUOUS
 62
   18
 10
105.83829253315187
 20
22.194415676254977
 11
105.83829253315187
 21
12.294415676254971
  0
LINE
  8
_1-4_1-4___
  6
CONTINUOUS
 62
   18
 10
117.83829253315187
 20
12.294415676254971
 11
105.83829253315187
 21
12.294415676254971
  0
LINE
  8
_1-4_1-4___
  6
CONTINUOUS
 62
   18
 10
105.83829253315187
 20
32.194415676254977
 11
107.93829253315189
 21
32.194415676254977
  0
LINE
  8
_1-4_1-4___
  6
CONTINUOUS
 62
   18
 10
105.83829253315187
 20
22.194415676254977
 11
107.93829253315189
 21
22.194415676254977
  0
LINE
  8
_1-4_1-4___
  6
CONTINUOUS
 62
   18
 10
107.93829253315189
 20
32.194415676254977
 11
107.93829253315189
 21
22.194415676254977
  0
LINE
  8
_1-4_1-4___
  6
CONTINUOUS
 62
   18
 10
105.83829253315187
 20
52.194415676254977
 11
107.93829253315189
 21
52.194415676254977
  0
LINE
  8
_1-4_1-4___
  6
CONTINUOUS
 62
   18
 10
105.83829253315187
 20
42.194415676254977
 11
107.93829253315189
 21
42.194415676254977
  0
LINE
  8
_1-4_1-4___
  6
CONTINUOUS
 62
   18
 10
107.93829253315189
 20
52.194415676254977
 11
107.93829253315189
 21
42.194415676254977
  0
LINE
  8
_1-4_1-4___
  6
CONTINUOUS
 62
   18
 10
105.83829253315187
 20
62.194415676254977
 11
107.93829253315189
 21
62.194415676254977
  0
LINE
  8
_1-4_1-4___
  6
CONTINUOUS
 62
   18
 10
173.73829253315188
 20
72.194415676254977
 11
107.93829253315189
 21
72.194415676254977
  0
LINE
  8
_1-4_1-4___
  6
CONTINUOUS
 62
   18
 10
107.93829253315189
 20
72.194415676254977
 11
107.93829253315189
 21
62.194415676254977
  0
LINE
  8
_1-4_1-4___
  6
CONTINUOUS
 62
   18
 10
10.568041388294176
 20
124.99996936886114
 11
10.568041388294176
 21
134.99996936886114
  0
LINE
  8
_1-4_1-4___
  6
CONTINUOUS
 62
   18
 10
105.56804138829418
 20
134.99996936886114
 11
10.568041388294176
 21
134.99996936886114
  0
LINE
  8
_1-4_1-4___
  6
CONTINUOUS
 62
   18
 10
93.568041388294176
 20
72.99996936886113
 11
22.568041388294176
 21
72.99996936886113
  0
LINE
  8
_1-4_1-4___
  6
CONTINUOUS
 62
   18
 10
10.568041388294176
 20
104.99996936886114
 11
10.568041388294176
 21
114.99996936886114
  0
LINE
  8
_1-4_1-4___
  6
CONTINUOUS
 62
   18
 10
10.568041388294176
 20
84.99996936886113
 11
10.568041388294176
 21
94.999969368861144
  0
LINE
  8
_1-4_1-4___
  6
CONTINUOUS
 62
   18
 10
105.56804138829418
 20
124.99996936886114
 11
105.56804138829418
 21
134.99996936886114
  0
LINE
  8
_1-4_1-4___
  6
CONTINUOUS
 62
   18
 10
105.56804138829418
 20
104.99996936886114
 11
105.56804138829418
 21
114.99996936886114
  0
LINE
  8
_1-4_1-4___
  6
CONTINUOUS
 62
   18
 10
105.56804138829418
 20
84.99996936886113
 11
105.56804138829418
 21
94.999969368861144
  0
LINE
  8
_1-4_1-4___
  6
CONTINUOUS
 62
   18
 10
60.568041388294176
 20
132.99996936886114
 11
55.568041388294176
 21
132.99996936886114
  0
LINE
  8
_1-4_1-4___
  6
CONTINUOUS
 62
   18
 10
105.56804138829418
 20
124.99996936886114
 11
103.46804138829418
 21
124.99996936886114
  0
LINE
  8
_1-4_1-4___
  6
CONTINUOUS
 62
   18
 10
105.56804138829418
 20
114.99996936886114
 11
103.46804138829418
 21
114.99996936886114
  0
LINE
  8
_1-4_1-4___
  6
CONTINUOUS
 62
   18
 10
103.46804138829418
 20
124.99996936886114
 11
103.46804138829418
 21
114.99996936886114
  0
LINE
  8
_1-4_1-4___
  6
CONTINUOUS
 62
   18
 10
105.56804138829418
 20
104.99996936886114
 11
103.46804138829418
 21
104.99996936886114
  0
LINE
  8
_1-4_1-4___
  6
CONTINUOUS
 62
   18
 10
105.56804138829418
 20
94.999969368861144
 11
103.46804138829418
 21
94.999969368861144
  0
LINE
  8
_1-4_1-4___
  6
CONTINUOUS
 62
   18
 10
103.46804138829418
 20
104.99996936886114
 11
103.46804138829418
 21
94.999969368861144
  0
LINE
  8
_1-4_1-4___
  6
CONTINUOUS
 62
   18
 10
105.56804138829418
 20
84.99996936886113
 11
103.46804138829418
 21
84.99996936886113
  0
LINE
  8
_1-4_1-4___
  6
CONTINUOUS
 62
   18
 10
93.568041388294176
 20
72.99996936886113
 11
93.568041388294176
 21
75.099969368861125
  0
LINE
  8
_1-4_1-4___
  6
CONTINUOUS
 62
   18
 10
103.46804138829418
 20
84.99996936886113
 11
103.46804138829418
 21
75.099969368861125
  0
LINE
  8
_1-4_1-4___
  6
CONTINUOUS
 62
   18
 10
93.568041388294176
 20
75.099969368861125
 11
103.46804138829418
 21
75.099969368861125
  0
LINE
  8
_1-4_1-4___
  6
CONTINUOUS
 62
   18
 10
10.568041388294176
 20
124.99996936886114
 11
12.668041388294171
 21
124.99996936886114
  0
LINE
  8
_1-4_1-4___
  6
CONTINUOUS
 62
   18
 10
10.568041388294176
 20
114.99996936886114
 11
12.668041388294171
 21
114.99996936886114
  0
LINE
  8
_1-4_1-4___
  6
CONTINUOUS
 62
   18
 10
12.668041388294171
 20
124.99996936886114
 11
12.668041388294171
 21
114.99996936886114
  0
LINE
  8
_1-4_1-4___
  6
CONTINUOUS
 62
   18
 10
10.568041388294176
 20
104.99996936886114
 11
12.668041388294171
 21
104.99996936886114
  0
LINE
  8
_1-4_1-4___
  6
CONTINUOUS
 62
   18
 10
10.568041388294176
 20
94.999969368861144
 11
12.668041388294171
 21
94.999969368861144
  0
LINE
  8
_1-4_1-4___
  6
CONTINUOUS
 62
   18
 10
12.668041388294171
 20
104.99996936886114
 11
12.668041388294171
 21
94.999969368861144
  0
LINE
  8
_1-4_1-4___
  6
CONTINUOUS
 62
   18
 10
10.568041388294176
 20
84.99996936886113
 11
12.668041388294171
 21
84.99996936886113
  0
LINE
  8
_1-4_1-4___
  6
CONTINUOUS
 62
   18
 10
22.568041388294176
 20
72.99996936886113
 11
22.568041388294176
 21
75.099969368861125
  0
LINE
  8
_1-4_1-4___
  6
CONTINUOUS
 62
   18
 10
12.668041388294171
 20
84.99996936886113
 11
12.668041388294171
 21
75.099969368861125
  0
LINE
  8
_1-4_1-4___
  6
CONTINUOUS
 62
   18
 10
22.568041388294176
 20
75.099969368861125
 11
12.668041388294171
 21
75.099969368861125
  0
LINE
  8
_1-4_1-4___
  6
CONTINUOUS
 62
   18
 10
98.568041388294176
 20
132.99996936886114
 11
98.568041388294176
 21
130.79996936886113
  0
LINE
  8
_1-4_1-4___
  6
CONTINUOUS
 62
   18
 10
60.568041388294176
 20
132.99996936886114
 11
60.568041388294176
 21
130.79996936886113
  0
LINE
  8
_1-4_1-4___
  6
CONTINUOUS
 62
   18
 10
55.568041388294176
 20
132.99996936886114
 11
55.568041388294176
 21
130.79996936886113
  0
LINE
  8
_1-4_1-4___
  6
CONTINUOUS
 62
   18
 10
55.568041388294176
 20
130.79996936886113
 11
60.568041388294176
 21
130.79996936886113
  0
LINE
  8
_1-4_1-4___
  6
CONTINUOUS
 62
   18
 10
17.568041388294176
 20
132.99996936886114
 11
17.568041388294176
 21
130.79996936886113
  0
LINE
  8
_1-4_1-4___
  6
CONTINUOUS
 62
   18
 10
98.568041388294176
 20
132.99996936886114
 11
93.968041388294182
 21
132.99996936886114
  0
LINE
  8
_1-4_1-4___
  6
CONTINUOUS
 62
   18
 10
98.568041388294176
 20
130.79996936886113
 11
93.968041388294182
 21
130.79996936886113
  0
LINE
  8
_1-4_1-4___
  6
CONTINUOUS
 62
   18
 10
93.968041388294182
 20
132.99996936886114
 11
93.968041388294182
 21
130.79996936886113
  0
LINE
  8
_1-4_1-4___
  6
CONTINUOUS
 62
   18
 10
17.568041388294176
 20
130.79996936886113
 11
22.168041388294171
 21
130.79996936886113
  0
LINE
  8
_1-4_1-4___
  6
CONTINUOUS
 62
   18
 10
17.568041388294176
 20
132.99996936886114
 11
22.168041388294171
 21
132.99996936886114
  0
LINE
  8
_1-4_1-4___
  6
CONTINUOUS
 62
   18
 10
22.168041388294171
 20
130.79996936886113
 11
22.168041388294171
 21
132.99996936886114
  0
LINE
  8
_1-4_1-4___
  6
CONTINUOUS
 62
   18
 10
117.94966374945747
 20
132.85025918868703
 11
117.94966374945747
 21
130.65025918868704
  0
LINE
  8
_1-4_1-4___
  6
CONTINUOUS
 62
   18
 10
113.24966374945748
 20
130.65025918868704
 11
117.94966374945747
 21
130.65025918868704
  0
LINE
  8
_1-4_1-4___
  6
CONTINUOUS
 62
   18
 10
113.24966374945748
 20
132.85025918868703
 11
117.94966374945747
 21
132.85025918868703
  0
LINE
  8
_1-4_1-4___
  6
CONTINUOUS
 62
   18
 10
164.54966374945749
 20
132.85025918868703
 11
164.54966374945749
 21
130.65025918868704
  0
LINE
  8
_1-4_1-4___
  6
CONTINUOUS
 62
   18
 10
169.24966374945748
 20
130.65025918868704
 11
164.54966374945749
 21
130.65025918868704
  0
LINE
  8
_1-4_1-4___
  6
CONTINUOUS
 62
   18
 10
169.24966374945748
 20
132.85025918868703
 11
164.54966374945749
 21
132.85025918868703
  0
LINE
  8
_1-4_1-4___
  6
CONTINUOUS
 62
   18
 10
164.24966374945748
 20
72.850259188687033
 11
118.24966374945748
 21
72.850259188687033
  0
LINE
  8
_1-4_1-4___
  6
CONTINUOUS
 62
   18
 10
176.24966374945748
 20
114.85025918868703
 11
176.24966374945748
 21
124.85025918868703
  0
LINE
  8
_1-4_1-4___
  6
CONTINUOUS
 62
   18
 10
176.24966374945748
 20
94.850259188687033
 11
176.24966374945748
 21
104.85025918868703
  0
LINE
  8
_1-4_1-4___
  6
CONTINUOUS
 62
   18
 10
106.24966374945748
 20
114.85025918868703
 11
106.24966374945748
 21
124.85025918868703
  0
LINE
  8
_1-4_1-4___
  6
CONTINUOUS
 62
   18
 10
106.24966374945748
 20
94.850259188687033
 11
106.24966374945748
 21
104.85025918868703
  0
LINE
  8
_1-4_1-4___
  6
CONTINUOUS
 62
   18
 10
169.24966374945748
 20
132.85025918868703
 11
169.24966374945748
 21
130.65025918868704
  0
LINE
  8
_1-4_1-4___
  6
CONTINUOUS
 62
   18
 10
113.24966374945748
 20
132.85025918868703
 11
113.24966374945748
 21
130.65025918868704
  0
LINE
  8
_1-4_1-4___
  6
CONTINUOUS
 62
   18
 10
176.24966374945748
 20
124.85025918868703
 11
174.14966374945749
 21
124.85025918868703
  0
LINE
  8
_1-4_1-4___
  6
CONTINUOUS
 62
   18
 10
174.14966374945749
 20
134.85025918868703
 11
174.14966374945749
 21
124.85025918868703
  0
LINE
  8
_1-4_1-4___
  6
CONTINUOUS
 62
   18
 10
176.24966374945748
 20
114.85025918868703
 11
174.14966374945749
 21
114.85025918868703
  0
LINE
  8
_1-4_1-4___
  6
CONTINUOUS
 62
   18
 10
176.24966374945748
 20
104.85025918868703
 11
174.14966374945749
 21
104.85025918868703
  0
LINE
  8
_1-4_1-4___
  6
CONTINUOUS
 62
   18
 10
174.14966374945749
 20
114.85025918868703
 11
174.14966374945749
 21
104.85025918868703
  0
LINE
  8
_1-4_1-4___
  6
CONTINUOUS
 62
   18
 10
176.24966374945748
 20
94.850259188687033
 11
174.14966374945749
 21
94.850259188687033
  0
LINE
  8
_1-4_1-4___
  6
CONTINUOUS
 62
   18
 10
176.24966374945748
 20
84.850259188687033
 11
174.14966374945749
 21
84.850259188687033
  0
LINE
  8
_1-4_1-4___
  6
CONTINUOUS
 62
   18
 10
174.14966374945749
 20
94.850259188687033
 11
174.14966374945749
 21
84.850259188687033
  0
LINE
  8
_1-4_1-4___
  6
CONTINUOUS
 62
   18
 10
164.24966374945748
 20
72.850259188687033
 11
164.24966374945748
 21
74.950259188687028
  0
LINE
  8
_1-4_1-4___
  6
CONTINUOUS
 62
   18
 10
176.24966374945748
 20
84.850259188687033
 11
176.24966374945748
 21
74.950259188687028
  0
LINE
  8
_1-4_1-4___
  6
CONTINUOUS
 62
   18
 10
176.24966374945748
 20
74.950259188687028
 11
164.24966374945748
 21
74.950259188687028
  0
LINE
  8
_1-4_1-4___
  6
CONTINUOUS
 62
   18
 10
118.24966374945748
 20
72.850259188687033
 11
118.24966374945748
 21
74.950259188687028
  0
LINE
  8
_1-4_1-4___
  6
CONTINUOUS
 62
   18
 10
106.24966374945748
 20
84.850259188687033
 11
106.24966374945748
 21
74.950259188687028
  0
LINE
  8
_1-4_1-4___
  6
CONTINUOUS
 62
   18
 10
118.24966374945748
 20
74.950259188687028
 11
106.24966374945748
 21
74.950259188687028
  0
LINE
  8
_1-4_1-4___
  6
CONTINUOUS
 62
   18
 10
106.24966374945748
 20
94.850259188687033
 11
108.34966374945751
 21
94.850259188687033
  0
LINE
  8
_1-4_1-4___
  6
CONTINUOUS
 62
   18
 10
106.24966374945748
 20
84.850259188687033
 11
108.34966374945751
 21
84.850259188687033
  0
LINE
  8
_1-4_1-4___
  6
CONTINUOUS
 62
   18
 10
108.34966374945751
 20
94.850259188687033
 11
108.34966374945751
 21
84.850259188687033
  0
LINE
  8
_1-4_1-4___
  6
CONTINUOUS
 62
   18
 10
106.24966374945748
 20
114.85025918868703
 11
108.34966374945751
 21
114.85025918868703
  0
LINE
  8
_1-4_1-4___
  6
CONTINUOUS
 62
   18
 10
106.24966374945748
 20
104.85025918868703
 11
108.34966374945751
 21
104.85025918868703
  0
LINE
  8
_1-4_1-4___
  6
CONTINUOUS
 62
   18
 10
108.34966374945751
 20
114.85025918868703
 11
108.34966374945751
 21
104.85025918868703
  0
LINE
  8
_1-4_1-4___
  6
CONTINUOUS
 62
   18
 10
106.24966374945748
 20
124.85025918868703
 11
108.34966374945751
 21
124.85025918868703
  0
LINE
  8
_1-4_1-4___
  6
CONTINUOUS
 62
   18
 10
174.14966374945749
 20
134.85025918868703
 11
108.34966374945751
 21
134.85025918868703
  0
LINE
  8
_1-4_1-4___
  6
CONTINUOUS
 62
   18
 10
108.34966374945751
 20
134.85025918868703
 11
108.34966374945751
 21
124.85025918868703
  0
LINE
  8
_1-4_1-4___
  6
CONTINUOUS
 62
   18
 10
10.252009379387744
 20
62.188319666860991
 11
10.252009379387744
 21
72.188319666860991
  0
LINE
  8
_1-4_1-4___
  6
CONTINUOUS
 62
   18
 10
105.25200937938774
 20
72.188319666860991
 11
10.252009379387744
 21
72.188319666860991
  0
LINE
  8
_1-4_1-4___
  6
CONTINUOUS
 62
   18
 10
93.252009379387744
 20
10.188319666860991
 11
22.252009379387744
 21
10.188319666860991
  0
LINE
  8
_1-4_1-4___
  6
CONTINUOUS
 62
   18
 10
10.252009379387744
 20
42.188319666860991
 11
10.252009379387744
 21
52.188319666860991
  0
LINE
  8
_1-4_1-4___
  6
CONTINUOUS
 62
   18
 10
10.252009379387744
 20
22.188319666860991
 11
10.252009379387744
 21
32.188319666860991
  0
LINE
  8
_1-4_1-4___
  6
CONTINUOUS
 62
   18
 10
105.25200937938774
 20
62.188319666860991
 11
105.25200937938774
 21
72.188319666860991
  0
LINE
  8
_1-4_1-4___
  6
CONTINUOUS
 62
   18
 10
105.25200937938774
 20
42.188319666860991
 11
105.25200937938774
 21
52.188319666860991
  0
LINE
  8
_1-4_1-4___
  6
CONTINUOUS
 62
   18
 10
105.25200937938774
 20
22.188319666860991
 11
105.25200937938774
 21
32.188319666860991
  0
LINE
  8
_1-4_1-4___
  6
CONTINUOUS
 62
   18
 10
60.252009379387744
 20
70.188319666860991
 11
55.252009379387744
 21
70.188319666860991
  0
LINE
  8
_1-4_1-4___
  6
CONTINUOUS
 62
   18
 10
105.25200937938774
 20
62.188319666860991
 11
103.15200937938775
 21
62.188319666860991
  0
LINE
  8
_1-4_1-4___
  6
CONTINUOUS
 62
   18
 10
105.25200937938774
 20
52.188319666860991
 11
103.15200937938775
 21
52.188319666860991
  0
LINE
  8
_1-4_1-4___
  6
CONTINUOUS
 62
   18
 10
103.15200937938775
 20
62.188319666860991
 11
103.15200937938775
 21
52.188319666860991
  0
LINE
  8
_1-4_1-4___
  6
CONTINUOUS
 62
   18
 10
105.25200937938774
 20
42.188319666860991
 11
103.15200937938775
 21
42.188319666860991
  0
LINE
  8
_1-4_1-4___
  6
CONTINUOUS
 62
   18
 10
105.25200937938774
 20
32.188319666860991
 11
103.15200937938775
 21
32.188319666860991
  0
LINE
  8
_1-4_1-4___
  6
CONTINUOUS
 62
   18
 10
103.15200937938775
 20
42.188319666860991
 11
103.15200937938775
 21
32.188319666860991
  0
LINE
  8
_1-4_1-4___
  6
CONTINUOUS
 62
   18
 10
105.25200937938774
 20
22.188319666860991
 11
103.15200937938775
 21
22.188319666860991
  0
LINE
  8
_1-4_1-4___
  6
CONTINUOUS
 62
   18
 10
93.252009379387744
 20
10.188319666860991
 11
93.252009379387744
 21
12.288319666860986
  0
LINE
  8
_1-4_1-4___
  6
CONTINUOUS
 62
   18
 10
103.15200937938775
 20
22.188319666860991
 11
103.15200937938775
 21
12.288319666860986
  0
LINE
  8
_1-4_1-4___
  6
CONTINUOUS
 62
   18
 10
93.252009379387744
 20
12.288319666860986
 11
103.15200937938775
 21
12.288319666860986
  0
LINE
  8
_1-4_1-4___
  6
CONTINUOUS
 62
   18
 10
10.252009379387744
 20
62.188319666860991
 11
12.352009379387738
 21
62.188319666860991
  0
LINE
  8
_1-4_1-4___
  6
CONTINUOUS
 62
   18
 10
10.252009379387744
 20
52.188319666860991
 11
12.352009379387738
 21
52.188319666860991
  0
LINE
  8
_1-4_1-4___
  6
CONTINUOUS
 62
   18
 10
12.352009379387738
 20
62.188319666860991
 11
12.352009379387738
 21
52.188319666860991
  0
LINE
  8
_1-4_1-4___
  6
CONTINUOUS
 62
   18
 10
10.252009379387744
 20
42.188319666860991
 11
12.352009379387738
 21
42.188319666860991
  0
LINE
  8
_1-4_1-4___
  6
CONTINUOUS
 62
   18
 10
10.252009379387744
 20
32.188319666860991
 11
12.352009379387738
 21
32.188319666860991
  0
LINE
  8
_1-4_1-4___
  6
CONTINUOUS
 62
   18
 10
12.352009379387738
 20
42.188319666860991
 11
12.352009379387738
 21
32.188319666860991
  0
LINE
  8
_1-4_1-4___
  6
CONTINUOUS
 62
   18
 10
10.252009379387744
 20
22.188319666860991
 11
12.352009379387738
 21
22.188319666860991
  0
LINE
  8
_1-4_1-4___
  6
CONTINUOUS
 62
   18
 10
22.252009379387744
 20
10.188319666860991
 11
22.252009379387744
 21
12.288319666860986
  0
LINE
  8
_1-4_1-4___
  6
CONTINUOUS
 62
   18
 10
12.352009379387738
 20
22.188319666860991
 11
12.352009379387738
 21
12.288319666860986
  0
LINE
  8
_1-4_1-4___
  6
CONTINUOUS
 62
   18
 10
22.252009379387744
 20
12.288319666860986
 11
12.352009379387738
 21
12.288319666860986
  0
LINE
  8
_1-4_1-4___
  6
CONTINUOUS
 62
   18
 10
98.252009379387744
 20
70.188319666860991
 11
98.252009379387744
 21
67.988319666861003
  0
LINE
  8
_1-4_1-4___
  6
CONTINUOUS
 62
   18
 10
60.252009379387744
 20
70.188319666860991
 11
60.252009379387744
 21
67.988319666861003
  0
LINE
  8
_1-4_1-4___
  6
CONTINUOUS
 62
   18
 10
55.252009379387744
 20
70.188319666860991
 11
55.252009379387744
 21
67.988319666861003
  0
LINE
  8
_1-4_1-4___
  6
CONTINUOUS
 62
   18
 10
55.252009379387744
 20
67.988319666861003
 11
60.252009379387744
 21
67.988319666861003
  0
LINE
  8
_1-4_1-4___
  6
CONTINUOUS
 62
   18
 10
17.252009379387744
 20
70.188319666860991
 11
17.252009379387744
 21
67.988319666861003
  0
LINE
  8
_1-4_1-4___
  6
CONTINUOUS
 62
   18
 10
98.252009379387744
 20
70.188319666860991
 11
93.652009379387749
 21
70.188319666860991
  0
LINE
  8
_1-4_1-4___
  6
CONTINUOUS
 62
   18
 10
98.252009379387744
 20
67.988319666861003
 11
93.652009379387749
 21
67.988319666861003
  0
LINE
  8
_1-4_1-4___
  6
CONTINUOUS
 62
   18
 10
93.652009379387749
 20
70.188319666860991
 11
93.652009379387749
 21
67.988319666861003
  0
LINE
  8
_1-4_1-4___
  6
CONTINUOUS
 62
   18
 10
17.252009379387744
 20
67.988319666861003
 11
21.852009379387738
 21
67.988319666861003
  0
LINE
  8
_1-4_1-4___
  6
CONTINUOUS
 62
   18
 10
17.252009379387744
 20
70.188319666860991
 11
21.852009379387738
 21
70.188319666860991
  0
LINE
  8
_1-4_1-4___
  6
CONTINUOUS
 62
   18
 10
21.852009379387738
 20
67.988319666861003
 11
21.852009379387738
 21
70.188319666860991
  0
LINE
  8
_1-4_1-4___
  6
CONTINUOUS
 62
   18
 10
172.43521212258605
 20
176.32891791148842
 11
172.43521212258605
 21
173.32891791148842
  0
CIRCLE
  8
_1-4_1-4___
  6
CONTINUOUS
 62
   18
 10
164.93521212258605
 20
169.32891791148842
 40
3.2000000000000002
  0
ARC
  8
_1-4_1-4___
  6
CONTINUOUS
 62
   18
 10
115.93521212258602
 20
183.32891791148842
 40
1
 50
90
 51
180
  0
LINE
  8
_1-4_1-4___
  6
CONTINUOUS
 62
   18
 10
143.93521212258602
 20
184.32891791148842
 11
115.93521212258602
 21
184.32891791148842
  0
ARC
  8
_1-4_1-4___
  6
CONTINUOUS
 62
   18
 10
143.93521212258602
 20
183.32891791148842
 40
1
 50
0.0000000000000127
 51
90.000000000000014
  0
LINE
  8
_1-4_1-4___
  6
CONTINUOUS
 62
   18
 10
144.93521212258602
 20
155.32891791148842
 11
144.93521212258602
 21
183.32891791148842
  0
ARC
  8
_1-4_1-4___
  6
CONTINUOUS
 62
   18
 10
143.93521212258602
 20
155.32891791148842
 40
1
 50
270
 51
0
  0
LINE
  8
_1-4_1-4___
  6
CONTINUOUS
 62
   18
 10
115.93521212258602
 20
154.32891791148842
 11
143.93521212258602
 21
154.32891791148842
  0
LINE
  8
_1-4_1-4___
  6
CONTINUOUS
 62
   18
 10
114.93521212258602
 20
155.32891791148842
 11
114.93521212258602
 21
183.32891791148842
  0
ARC
  8
_1-4_1-4___
  6
CONTINUOUS
 62
   18
 10
115.93521212258602
 20
155.32891791148842
 40
1
 50
180
 51
270
  0
LINE
  8
_1-4_1-4___
  6
CONTINUOUS
 62
   18
 10
144.73521212258601
 20
155.32891791148842
 11
144.73521212258601
 21
183.32891791148842
  0
ARC
  8
_1-4_1-4___
  6
CONTINUOUS
 62
   18
 10
143.93521212258602
 20
155.32891791148842
 40
0.8
 50
270
 51
0
  0
ARC
  8
_1-4_1-4___
  6
CONTINUOUS
 62
   18
 10
143.93521212258602
 20
183.32891791148842
 40
0.8
 50
0.0000000000000127
 51
90.000000000000014
  0
LINE
  8
_1-4_1-4___
  6
CONTINUOUS
 62
   18
 10
116.93521212258602
 20
184.1289179114884
 11
143.93521212258602
 21
184.1289179114884
  0
ARC
  8
_1-4_1-4___
  6
CONTINUOUS
 62
   18
 10
116.93521212258602
 20
183.1289179114884
 40
1
 50
90
 51
180
  0
LINE
  8
_1-4_1-4___
  6
CONTINUOUS
 62
   18
 10
116.93521212258602
 20
154.52891791148841
 11
143.93521212258602
 21
154.52891791148841
  0
LINE
  8
_1-4_1-4___
  6
CONTINUOUS
 62
   18
 10
115.93521212258602
 20
155.52891791148841
 11
115.93521212258602
 21
183.1289179114884
  0
ARC
  8
_1-4_1-4___
  6
CONTINUOUS
 62
   18
 10
116.93521212258602
 20
155.52891791148841
 40
1
 50
180
 51
270
  0
LINE
  8
_1-4_1-4___
  6
CONTINUOUS
 62
   18
 10
121.93521212258602
 20
180.32891791148842
 11
117.93521212258602
 21
180.32891791148842
  0
LINE
  8
_1-4_1-4___
  6
CONTINUOUS
 62
   18
 10
121.93521212258602
 20
158.32891791148842
 11
117.93521212258602
 21
158.32891791148842
  0
LINE
  8
_1-4_1-4___
  6
CONTINUOUS
 62
   18
 10
121.93521212258602
 20
150.32891791148842
 11
117.93521212258602
 21
150.32891791148842
  0
LINE
  8
_1-4_1-4___
  6
CONTINUOUS
 62
   18
 10
121.93521212258602
 20
186.32891791148842
 11
121.93521212258602
 21
188.32891791148842
  0
LINE
  8
_1-4_1-4___
  6
CONTINUOUS
 62
   18
 10
121.93521212258602
 20
188.32891791148842
 11
117.93521212258602
 21
188.32891791148842
  0
LINE
  8
_1-4_1-4___
  6
CONTINUOUS
 62
   18
 10
121.93521212258602
 20
188.32891791148842
 11
117.93521212258602
 21
188.32891791148842
  0
LINE
  8
_1-4_1-4___
  6
CONTINUOUS
 62
   18
 10
117.93521212258602
 20
188.32891791148842
 11
117.93521212258602
 21
186.32891791148842
  0
LINE
  8
_1-4_1-4___
  6
CONTINUOUS
 62
   18
 10
162.93521212258602
 20
176.32891791148842
 11
166.93521212258602
 21
176.32891791148842
  0
CIRCLE
  8
_1-4_1-4___
  6
CONTINUOUS
 62
   18
 10
111.93521212258602
 20
197.32891791148842
 40
1.6000000000000001
  0
CIRCLE
  8
_1-4_1-4___
  6
CONTINUOUS
 62
   18
 10
192.93521212258602
 20
197.32891791148842
 40
1.6000000000000001
  0
CIRCLE
  8
_1-4_1-4___
  6
CONTINUOUS
 62
   18
 10
192.93521212258602
 20
141.32891791148842
 40
1.6000000000000001
  0
CIRCLE
  8
_1-4_1-4___
  6
CONTINUOUS
 62
   18
 10
111.93521212258602
 20
141.32891791148842
 40
1.6000000000000001
  0
LINE
  8
_1-4_1-4___
  6
CONTINUOUS
 62
   18
 10
117.93521212258602
 20
188.32891791148842
 11
117.93521212258602
 21
186.22891791148842
  0
LINE
  8
_1-4_1-4___
  6
CONTINUOUS
 62
   18
 10
117.93521212258602
 20
186.22891791148842
 11
121.93521212258602
 21
186.22891791148842
  0
LINE
  8
_1-4_1-4___
  6
CONTINUOUS
 62
   18
 10
121.93521212258602
 20
186.22891791148842
 11
121.93521212258602
 21
188.32891791148842
  0
LINE
  8
_1-4_1-4___
  6
CONTINUOUS
 62
   18
 10
117.93521212258602
 20
180.32891791148842
 11
117.93521212258602
 21
182.42891791148841
  0
LINE
  8
_1-4_1-4___
  6
CONTINUOUS
 62
   18
 10
117.93521212258602
 20
182.42891791148841
 11
121.93521212258602
 21
182.42891791148841
  0
LINE
  8
_1-4_1-4___
  6
CONTINUOUS
 62
   18
 10
121.93521212258602
 20
182.42891791148841
 11
121.93521212258602
 21
180.32891791148842
  0
LINE
  8
_1-4_1-4___
  6
CONTINUOUS
 62
   18
 10
117.93521212258602
 20
158.32891791148842
 11
117.93521212258602
 21
156.2289179114884
  0
LINE
  8
_1-4_1-4___
  6
CONTINUOUS
 62
   18
 10
117.93521212258602
 20
156.2289179114884
 11
121.93521212258602
 21
156.2289179114884
  0
LINE
  8
_1-4_1-4___
  6
CONTINUOUS
 62
   18
 10
121.93521212258602
 20
156.2289179114884
 11
121.93521212258602
 21
158.32891791148842
  0
LINE
  8
_1-4_1-4___
  6
CONTINUOUS
 62
   18
 10
117.93521212258602
 20
150.32891791148842
 11
117.93521212258602
 21
152.42891791148841
  0
LINE
  8
_1-4_1-4___
  6
CONTINUOUS
 62
   18
 10
117.93521212258602
 20
152.42891791148841
 11
121.93521212258602
 21
152.42891791148841
  0
LINE
  8
_1-4_1-4___
  6
CONTINUOUS
 62
   18
 10
121.93521212258602
 20
152.42891791148841
 11
121.93521212258602
 21
150.32891791148842
  0
LINE
  8
_1-4_1-4___
  6
CONTINUOUS
 62
   18
 10
136.43521212258602
 20
176.22891791148842
 11
139.43521212258602
 21
176.22891791148842
  0
LINE
  8
_1-4_1-4___
  6
CONTINUOUS
 62
   18
 10
136.43521212258602
 20
178.32891791148842
 11
136.43521212258602
 21
176.22891791148842
  0
LINE
  8
_1-4_1-4___
  6
CONTINUOUS
 62
   18
 10
139.43521212258602
 20
178.32891791148842
 11
136.43521212258602
 21
178.32891791148842
  0
LINE
  8
_1-4_1-4___
  6
CONTINUOUS
 62
   18
 10
139.43521212258602
 20
176.22891791148842
 11
139.43521212258602
 21
178.32891791148842
  0
LINE
  8
_1-4_1-4___
  6
CONTINUOUS
 62
   18
 10
121.43521212258602
 20
191.6289179114884
 11
118.43521212258602
 21
191.6289179114884
  0
LINE
  8
_1-4_1-4___
  6
CONTINUOUS
 62
   18
 10
118.43521212258602
 20
191.6289179114884
 11
118.43521212258602
 21
189.52891791148841
  0
LINE
  8
_1-4_1-4___
  6
CONTINUOUS
 62
   18
 10
118.43521212258602
 20
189.52891791148841
 11
121.43521212258602
 21
189.52891791148841
  0
LINE
  8
_1-4_1-4___
  6
CONTINUOUS
 62
   18
 10
121.43521212258602
 20
189.52891791148841
 11
121.43521212258602
 21
191.6289179114884
  0
LINE
  8
_1-4_1-4___
  6
CONTINUOUS
 62
   18
 10
172.43521212258605
 20
173.32891791148842
 11
174.63521212258604
 21
173.32891791148842
  0
LINE
  8
_1-4_1-4___
  6
CONTINUOUS
 62
   18
 10
172.43521212258605
 20
176.32891791148842
 11
174.63521212258604
 21
176.32891791148842
  0
LINE
  8
_1-4_1-4___
  6
CONTINUOUS
 62
   18
 10
174.63521212258604
 20
173.32891791148842
 11
174.63521212258604
 21
176.32891791148842
  0
LINE
  8
_1-4_1-4___
  6
CONTINUOUS
 62
   18
 10
162.93521212258602
 20
176.32891791148842
 11
162.93521212258602
 21
178.52891791148841
  0
LINE
  8
_1-4_1-4___
  6
CONTINUOUS
 62
   18
 10
166.93521212258602
 20
176.32891791148842
 11
166.93521212258602
 21
178.52891791148841
  0
LINE
  8
_1-4_1-4___
  6
CONTINUOUS
 62
   18
 10
162.93521212258602
 20
178.52891791148841
 11
166.93521212258602
 21
178.52891791148841
  0
LINE
  8
_1-4_1-4___
  6
CONTINUOUS
 62
   18
 10
157.43521212258605
 20
176.32891791148842
 11
157.43521212258605
 21
173.32891791148842
  0
LINE
  8
_1-4_1-4___
  6
CONTINUOUS
 62
   18
 10
155.23521212258603
 20
176.32891791148842
 11
157.43521212258605
 21
176.32891791148842
  0
LINE
  8
_1-4_1-4___
  6
CONTINUOUS
 62
   18
 10
155.23521212258603
 20
173.32891791148842
 11
157.43521212258605
 21
173.32891791148842
  0
LINE
  8
_1-4_1-4___
  6
CONTINUOUS
 62
   18
 10
155.23521212258603
 20
176.32891791148842
 11
155.23521212258603
 21
173.32891791148842
  0
LINE
  8
_1-4_1-4___
  6
CONTINUOUS
 62
   18
 10
157.43521212258605
 20
163.32891791148842
 11
157.43521212258605
 21
166.32891791148842
  0
LINE
  8
_1-4_1-4___
  6
CONTINUOUS
 62
   18
 10
155.23521212258603
 20
166.32891791148842
 11
157.43521212258605
 21
166.32891791148842
  0
LINE
  8
_1-4_1-4___
  6
CONTINUOUS
 62
   18
 10
155.23521212258603
 20
163.32891791148842
 11
157.43521212258605
 21
163.32891791148842
  0
LINE
  8
_1-4_1-4___
  6
CONTINUOUS
 62
   18
 10
155.23521212258603
 20
166.32891791148842
 11
155.23521212258603
 21
163.32891791148842
  0
LINE
  8
_1-4_1-4___
  6
CONTINUOUS
 62
   18
 10
172.43521212258605
 20
166.32891791148842
 11
172.43521212258605
 21
163.32891791148842
  0
LINE
  8
_1-4_1-4___
  6
CONTINUOUS
 62
   18
 10
172.43521212258605
 20
163.32891791148842
 11
174.63521212258604
 21
163.32891791148842
  0
LINE
  8
_1-4_1-4___
  6
CONTINUOUS
 62
   18
 10
172.43521212258605
 20
166.32891791148842
 11
174.63521212258604
 21
166.32891791148842
  0
LINE
  8
_1-4_1-4___
  6
CONTINUOUS
 62
   18
 10
174.63521212258604
 20
163.32891791148842
 11
174.63521212258604
 21
166.32891791148842
  0
LINE
  8
_1-4_1-4___
  6
CONTINUOUS
 62
   18
 10
171.95298193612362
 20
157.02891791148841
 11
171.95298193612362
 21
159.22891791148842
  0
LINE
  8
_1-4_1-4___
  6
CONTINUOUS
 62
   18
 10
171.95298193612362
 20
159.22891791148842
 11
175.95298193612362
 21
159.22891791148842
  0
LINE
  8
_1-4_1-4___
  6
CONTINUOUS
 62
   18
 10
175.95298193612362
 20
159.22891791148842
 11
175.95298193612362
 21
157.02891791148841
  0
LINE
  8
_1-4_1-4___
  6
CONTINUOUS
 62
   18
 10
175.95298193612362
 20
157.02891791148841
 11
171.95298193612362
 21
157.02891791148841
  0
LINE
  8
_1-4_1-4___
  6
CONTINUOUS
 62
   18
 10
175.95298193612362
 20
153.32891791148842
 11
175.95298193612362
 21
149.32891791148842
  0
LINE
  8
_1-4_1-4___
  6
CONTINUOUS
 62
   18
 10
178.15298193612364
 20
153.32891791148842
 11
175.95298193612362
 21
153.32891791148842
  0
LINE
  8
_1-4_1-4___
  6
CONTINUOUS
 62
   18
 10
175.95298193612362
 20
149.32891791148842
 11
178.15298193612364
 21
149.32891791148842
  0
LINE
  8
_1-4_1-4___
  6
CONTINUOUS
 62
   18
 10
178.15298193612364
 20
149.32891791148842
 11
178.15298193612364
 21
153.32891791148842
  0
LINE
  8
_1-4_1-4___
  6
CONTINUOUS
 62
   18
 10
175.95298239235109
 20
142.62891791148843
 11
171.95298239235109
 21
142.62891791148843
  0
LINE
  8
_1-4_1-4___
  6
CONTINUOUS
 62
   18
 10
171.95298239235109
 20
142.62891791148843
 11
171.95298239235109
 21
140.42891791148841
  0
LINE
  8
_1-4_1-4___
  6
CONTINUOUS
 62
   18
 10
175.95298239235109
 20
140.42891791148841
 11
175.95298239235109
 21
142.62891791148843
  0
LINE
  8
_1-4_1-4___
  6
CONTINUOUS
 62
   18
 10
171.95298239235109
 20
140.42891791148841
 11
175.95298239235109
 21
140.42891791148841
  0
LINE
  8
_1-4_1-4___
  6
CONTINUOUS
 62
   18
 10
149.93521212258602
 20
142.62891791148843
 11
153.93521212258602
 21
142.62891791148843
  0
LINE
  8
_1-4_1-4___
  6
CONTINUOUS
 62
   18
 10
149.93521212258602
 20
140.42891791148841
 11
149.93521212258602
 21
142.62891791148843
  0
LINE
  8
_1-4_1-4___
  6
CONTINUOUS
 62
   18
 10
153.93521212258602
 20
142.62891791148843
 11
153.93521212258602
 21
140.42891791148841
  0
LINE
  8
_1-4_1-4___
  6
CONTINUOUS
 62
   18
 10
153.93521212258602
 20
140.42891791148841
 11
149.93521212258602
 21
140.42891791148841
  0
LINE
  8
_1-4_1-4___
  6
CONTINUOUS
 62
   18
 10
149.93521212258602
 20
159.22891791148842
 11
149.93521212258602
 21
157.02891791148841
  0
LINE
  8
_1-4_1-4___
  6
CONTINUOUS
 62
   18
 10
153.93521212258602
 20
159.22891791148842
 11
149.93521212258602
 21
159.22891791148842
  0
LINE
  8
_1-4_1-4___
  6
CONTINUOUS
 62
   18
 10
153.93521212258602
 20
157.02891791148841
 11
153.93521212258602
 21
159.22891791148842
  0
LINE
  8
_1-4_1-4___
  6
CONTINUOUS
 62
   18
 10
149.93521212258602
 20
157.02891791148841
 11
153.93521212258602
 21
157.02891791148841
  0
LINE
  8
_1-4_1-4___
  6
CONTINUOUS
 62
   18
 10
149.93521212258602
 20
151.87891791148843
 11
149.93521212258602
 21
147.87891791148843
  0
LINE
  8
_1-4_1-4___
  6
CONTINUOUS
 62
   18
 10
147.73521212258603
 20
151.87891791148843
 11
149.93521212258602
 21
151.87891791148843
  0
LINE
  8
_1-4_1-4___
  6
CONTINUOUS
 62
   18
 10
149.93521212258602
 20
147.87891791148843
 11
147.73521212258603
 21
147.87891791148843
  0
LINE
  8
_1-4_1-4___
  6
CONTINUOUS
 62
   18
 10
147.73521212258603
 20
147.87891791148843
 11
147.73521212258603
 21
151.87891791148843
  0
LINE
  8
_1-4_1-4___
  6
CONTINUOUS
 62
   18
 10
197.73521212258601
 20
202.1289179114884
 11
197.73521212258601
 21
136.52891791148841
  0
LINE
  8
_1-4_1-4___
  6
CONTINUOUS
 62
   18
 10
197.73521212258601
 20
136.52891791148841
 11
107.13521212258603
 21
136.52891791148841
  0
LINE
  8
_1-4_1-4___
  6
CONTINUOUS
 62
   18
 10
197.73521212258601
 20
202.1289179114884
 11
107.13521212258603
 21
202.1289179114884
  0
LINE
  8
_1-4_1-4___
  6
CONTINUOUS
 62
   18
 10
107.13521212258603
 20
136.52891791148841
 11
107.13521212258603
 21
202.1289179114884
  0
LINE
  8
_1-4_1-4___
  6
CONTINUOUS
 62
   18
 10
10.425553310827524
 20
193.93733693375043
 11
10.425553310827524
 21
205.93733693375043
  0
LINE
  8
_1-4_1-4___
  6
CONTINUOUS
 62
   18
 10
105.42555331082752
 20
205.93733693375043
 11
93.425553310827524
 21
205.93733693375043
  0
LINE
  8
_1-4_1-4___
  6
CONTINUOUS
 62
   18
 10
105.42555331082752
 20
193.93733693375043
 11
105.42555331082752
 21
205.93733693375043
  0
LINE
  8
_1-4_1-4___
  6
CONTINUOUS
 62
   18
 10
93.425553310827524
 20
135.93733693375043
 11
105.42555331082752
 21
135.93733693375043
  0
LINE
  8
_1-4_1-4___
  6
CONTINUOUS
 62
   18
 10
105.42555331082752
 20
135.93733693375043
 11
105.42555331082752
 21
147.93733693375043
  0
LINE
  8
_1-4_1-4___
  6
CONTINUOUS
 62
   18
 10
10.425553310827524
 20
135.93733693375043
 11
10.425553310827524
 21
147.93733693375043
  0
LINE
  8
_1-4_1-4___
  6
CONTINUOUS
 62
   18
 10
10.425553310827524
 20
135.93733693375043
 11
22.425553310827524
 21
135.93733693375043
  0
LINE
  8
_1-4_1-4___
  6
CONTINUOUS
 62
   18
 10
10.425553310827524
 20
193.93733693375043
 11
12.525553310827519
 21
193.93733693375043
  0
LINE
  8
_1-4_1-4___
  6
CONTINUOUS
 62
   18
 10
10.425553310827524
 20
147.93733693375043
 11
12.525553310827519
 21
147.93733693375043
  0
LINE
  8
_1-4_1-4___
  6
CONTINUOUS
 62
   18
 10
12.525553310827519
 20
193.93733693375043
 11
12.525553310827519
 21
147.93733693375043
  0
LINE
  8
_1-4_1-4___
  6
CONTINUOUS
 62
   18
 10
22.425553310827524
 20
135.93733693375043
 11
22.425553310827524
 21
138.03733693375042
  0
LINE
  8
_1-4_1-4___
  6
CONTINUOUS
 62
   18
 10
93.425553310827524
 20
135.93733693375043
 11
93.425553310827524
 21
138.03733693375042
  0
LINE
  8
_1-4_1-4___
  6
CONTINUOUS
 62
   18
 10
22.425553310827524
 20
138.03733693375042
 11
93.425553310827524
 21
138.03733693375042
  0
LINE
  8
_1-4_1-4___
  6
CONTINUOUS
 62
   18
 10
105.42555331082752
 20
147.93733693375043
 11
103.32555331082753
 21
147.93733693375043
  0
LINE
  8
_1-4_1-4___
  6
CONTINUOUS
 62
   18
 10
105.42555331082752
 20
193.93733693375043
 11
103.32555331082753
 21
193.93733693375043
  0
LINE
  8
_1-4_1-4___
  6
CONTINUOUS
 62
   18
 10
103.32555331082753
 20
147.93733693375043
 11
103.32555331082753
 21
193.93733693375043
  0
LINE
  8
_1-4_1-4___
  6
CONTINUOUS
 62
   18
 10
93.425553310827524
 20
205.93733693375043
 11
93.425553310827524
 21
203.83733693375041
  0
LINE
  8
_1-4_1-4___
  6
CONTINUOUS
 62
   18
 10
22.425553310827524
 20
203.83733693375041
 11
93.425553310827524
 21
203.83733693375041
  0
LINE
  8
_1-4_1-4___
  6
CONTINUOUS
 62
   18
 10
10.425553310827524
 20
205.93733693375043
 11
22.425553310827524
 21
205.93733693375043
  0
LINE
  8
_1-4_1-4___
  6
CONTINUOUS
 62
   18
 10
22.425553310827524
 20
203.83733693375041
 11
22.425553310827524
 21
205.93733693375043
  0
ARC
  8
_1-4_1-4___
  6
CONTINUOUS
 62
   18
 10
208.21335951775859
 20
38.087285641458706
 40
25
 50
135.25118653103115
 51
143.77845338016496
  0
ARC
  8
_1-4_1-4___
  6
CONTINUOUS
 62
   18
 10
208.21335951775868
 20
38.087285641458692
 40
50
 50
350.00000000000011
 51
20.000000000000078
  0
ARC
  8
_1-4_1-4___
  6
CONTINUOUS
 62
   18
 10
208.21335951775859
 20
38.087285641458706
 40
25
 50
213.55730976192072
 51
270
  0
ARC
  8
_1-4_1-4___
  6
CONTINUOUS
 62
   18
 10
247.60566963824701
 20
31.141358534781531
 40
10
 50
290.33771061832067
 51
350.00000000000006
  0
LINE
  8
_1-4_1-4___
  6
CONTINUOUS
 62
   18
 10
229.35217309575438
 20
13.710681768437979
 11
251.08119834744431
 21
21.76475466176089
  0
LINE
  8
_1-4_1-4___
  6
CONTINUOUS
 62
   18
 10
225.87664438655719
 20
13.087285641458692
 11
208.21335951775848
 21
13.087285641458692
  0
ARC
  8
_1-4_1-4___
  6
CONTINUOUS
 62
   18
 10
225.87664438655719
 20
23.087285641458692
 40
10
 50
270
 51
290.33771061832073
  0
LINE
  8
_1-4_1-4___
  6
CONTINUOUS
 62
   18
 10
208.21335951775859
 20
48.087285641458692
 11
190.46512016845963
 21
48.087285641458692
  0
ARC
  8
_1-4_1-4___
  6
CONTINUOUS
 62
   18
 10
190.46512016845975
 20
51.087285641458692
 40
3
 50
143.77845338016496
 51
270
  0
LINE
  8
_1-4_1-4___
  6
CONTINUOUS
 62
   18
 10
180.06755586159838
 20
35.291979477746992
 11
187.38002618442525
 21
24.268015681644442
  0
ARC
  8
_1-4_1-4___
  6
CONTINUOUS
 62
   18
 10
208.21335951775859
 20
38.087285641458706
 40
30
 50
144.07917915037092
 51
172.14768765264989
  0
ARC
  8
_1-4_1-4___
  6
CONTINUOUS
 62
   18
 10
188.40088919493184
 20
40.819687461672657
 40
10
 50
172.14768765264995
 51
213.55730976192072
  0
ARC
  8
_1-4_1-4___
  6
CONTINUOUS
 62
   18
 10
208.21335951775856
 20
38.087285641458692
 40
40
 50
358.57821428229045
 51
19.999999999998451
  0
ARC
  8
_1-4_1-4___
  6
CONTINUOUS
 62
   18
 10
241.20319972876754
 20
37.268479893985187
 40
7
 50
278.43494882292208
 51
358.5782142822905
  0
ARC
  8
_1-4_1-4___
  6
CONTINUOUS
 62
   18
 10
208.21335951775868
 20
38.087285641458692
 40
10
 50
337.77506831801338
 51
90.000000000000512
  0
ARC
  8
_1-4_1-4___
  6
CONTINUOUS
 62
   18
 10
222.09895077090457
 20
32.413631126901208
 40
5
 50
157.77506831801338
 51
278.43494882292202
  0
LINE
  8
_1-4_1-4___
  6
CONTINUOUS
 62
   18
 10
255.19799055705408
 20
55.188292807741789
 11
246.95211424428285
 21
66.429985837306916
  0
LINE
  8
_1-4_1-4___
  6
CONTINUOUS
 62
   18
 10
245.80106434919526
 20
51.768091374484328
 11
241.69678701249893
 21
63.678213884883007
  0
ARC
  8
_1-4_1-4___
  6
CONTINUOUS
 62
   18
 10
244.53310122967582
 20
64.655619461621825
 40
3
 50
36.185925165709627
 51
105.69861005098971
  0
ARC
  8
_1-4_1-4___
  6
CONTINUOUS
 62
   18
 10
244.53310122967582
 20
64.655619461621825
 40
3
 50
146.67324028043532
 51
199.0141624388055
  0
LINE
  8
_1-4_1-4___
  6
CONTINUOUS
 62
   18
 10
245.38056186962044
 20
65.275547250758891
 11
243.72136995434343
 21
67.54371439369163
  0
LINE
  8
_1-4_1-4___
  6
CONTINUOUS
 62
   18
 10
245.38056186962044
 20
65.275547250758891
 11
243.68564058973098
 21
64.035691672484603
  0
LINE
  8
_1-4_1-4___
  6
CONTINUOUS
 62
   18
 10
243.68564058973098
 20
64.035691672484603
 11
242.026448674454
 21
66.303858815417271
  0
ARC
  8
_1-4_1-4___
  6
CONTINUOUS
 62
   18
 10
208.21335951775848
 20
38.087285641458706
 40
25
 50
133.61427549987977
 51
143.77845338016496
  0
LINE
  8
_1-4_1-4___
  6
CONTINUOUS
 62
   18
 10
213.21335951775859
 20
39.137285641458689
 11
213.21335951775859
 21
37.037285641458695
  0
LINE
  8
_1-4_1-4___
  6
CONTINUOUS
 62
   18
 10
213.21335951775859
 20
39.137285641458689
 11
210.70082811052509
 21
39.137285641458689
  0
ARC
  8
_1-4_1-4___
  6
CONTINUOUS
 62
   18
 10
208.21335951775848
 20
38.087285641458834
 40
2.7000000000000002
 50
22.88538047615517
 51
43.250172654221039
  0
LINE
  8
_1-4_1-4___
  6
CONTINUOUS
 62
   18
 10
209.26335951775849
 20
39.937285641458686
 11
210.17995556168833
 21
39.937285641458686
  0
LINE
  8
_1-4_1-4___
  6
CONTINUOUS
 62
   18
 10
206.24676347382862
 20
39.937285641458686
 11
207.16335951775847
 21
39.937285641458686
  0
ARC
  8
_1-4_1-4___
  6
CONTINUOUS
 62
   18
 10
208.21335951775848
 20
38.087285641458834
 40
2.7000000000000002
 50
136.74982734577898
 51
157.11461952384482
  0
LINE
  8
_1-4_1-4___
  6
CONTINUOUS
 62
   18
 10
205.72589092499186
 20
39.137285641458689
 11
203.21335951775859
 21
39.137285641458689
  0
LINE
  8
_1-4_1-4___
  6
CONTINUOUS
 62
   18
 10
203.21335951775859
 20
39.137285641458689
 11
203.21335951775859
 21
37.037285641458695
  0
LINE
  8
_1-4_1-4___
  6
CONTINUOUS
 62
   18
 10
206.24676347382888
 20
36.237285641458698
 11
207.16335951775847
 21
36.237285641458698
  0
LINE
  8
_1-4_1-4___
  6
CONTINUOUS
 62
   18
 10
205.72589092499197
 20
37.037285641458695
 11
203.21335951775859
 21
37.037285641458695
  0
ARC
  8
_1-4_1-4___
  6
CONTINUOUS
 62
   18
 10
208.21335951775848
 20
38.087285641458834
 40
2.7000000000000002
 50
202.88538047616169
 51
223.25017265422937
  0
LINE
  8
_1-4_1-4___
  6
CONTINUOUS
 62
   18
 10
209.26335951775849
 20
36.237285641458698
 11
210.17995556168808
 21
36.237285641458698
  0
LINE
  8
_1-4_1-4___
  6
CONTINUOUS
 62
   18
 10
213.21335951775859
 20
37.037285641458695
 11
210.70082811052498
 21
37.037285641458695
  0
ARC
  8
_1-4_1-4___
  6
CONTINUOUS
 62
   18
 10
208.21335951775848
 20
38.087285641458834
 40
2.7000000000000002
 50
316.7498273457706
 51
337.11461952383831
  0
LINE
  8
_1-4_1-4___
  6
CONTINUOUS
 62
   18
 10
207.16335951775847
 20
36.237285641458698
 11
207.16335951775847
 21
34.087285641458692
  0
LINE
  8
_1-4_1-4___
  6
CONTINUOUS
 62
   18
 10
209.26335951775849
 20
34.087285641458692
 11
207.16335951775847
 21
34.087285641458692
  0
LINE
  8
_1-4_1-4___
  6
CONTINUOUS
 62
   18
 10
209.26335951775849
 20
36.237285641458698
 11
209.26335951775849
 21
34.087285641458692
  0
LINE
  8
_1-4_1-4___
  6
CONTINUOUS
 62
   18
 10
209.26335951775849
 20
42.087285641458692
 11
209.26335951775849
 21
39.937285641458686
  0
LINE
  8
_1-4_1-4___
  6
CONTINUOUS
 62
   18
 10
209.26335951775849
 20
42.087285641458692
 11
207.16335951775847
 21
42.087285641458692
  0
LINE
  8
_1-4_1-4___
  6
CONTINUOUS
 62
   18
 10
207.16335951775847
 20
42.087285641458692
 11
207.16335951775847
 21
39.937285641458686
  0
ARC
  8
_1-4_1-4___
  6
CONTINUOUS
 62
   18
 10
240.28555298753633
 20
31.066790154547974
 40
1
 50
188.4349488229208
 51
278.43494882292191
  0
LINE
  8
_1-4_1-4___
  6
CONTINUOUS
 62
   18
 10
240.43223941733791
 20
30.077607112178129
 11
242.23000473737866
 21
30.344198597396172
  0
LINE
  8
_1-4_1-4___
  6
CONTINUOUS
 62
   18
 10
239.29636994516648
 20
30.920103724746411
 11
239.12878760612119
 21
32.050198773133161
  0
ARC
  8
_1-4_1-4___
  6
CONTINUOUS
 62
   18
 10
235.16123847901162
 20
31.61013948372846
 40
0.4
 50
90
 51
270
  0
LINE
  8
_1-4_1-4___
  6
CONTINUOUS
 62
   18
 10
235.16123847901162
 20
31.210139483728582
 11
237.16123847901139
 21
31.210139483728582
  0
LINE
  8
_1-4_1-4___
  6
CONTINUOUS
 62
   18
 10
237.16123847901139
 20
32.010139483728622
 11
235.16123847901162
 21
32.010139483728622
  0
ARC
  8
_1-4_1-4___
  6
CONTINUOUS
 62
   18
 10
237.16123847901139
 20
31.61013948372856
 40
0.3999999999999999
 50
269.99999999999858
 51
89.999999999997158
  0
ARC
  8
_1-4_1-4___
  6
CONTINUOUS
 62
   18
 10
232.3720886485776
 20
29.893298716135277
 40
1
 50
278.43494882292197
 51
8.434948822923138
  0
ARC
  8
_1-4_1-4___
  6
CONTINUOUS
 62
   18
 10
236.16123847901162
 20
31.61013948372846
 40
3
 50
8.4349488229208234
 51
188.4349488229233
  0
LINE
  8
_1-4_1-4___
  6
CONTINUOUS
 62
   18
 10
233.36127169094743
 20
30.039985145936882
 11
233.19368935190209
 21
31.170080194323631
  0
LINE
  8
_1-4_1-4___
  6
CONTINUOUS
 62
   18
 10
232.51877507837918
 20
28.904115673765432
 11
222.83238291991239
 21
27.467715915051883
  0
LINE
  8
_1-4_1-4___
  6
CONTINUOUS
 62
   18
 10
190.96836069303697
 20
56.187286070612132
 11
185.78868638593408
 21
56.187286070612132
  0
LINE
  8
_1-4_1-4___
  6
CONTINUOUS
 62
   18
 10
185.78868638593408
 20
56.187286070612132
 11
185.78868638593386
 21
57.187286070611947
  0
LINE
  8
_1-4_1-4___
  6
CONTINUOUS
 62
   18
 10
185.0791860160675
 20
57.18728607061206
 11
185.78868638593386
 21
57.187286070611947
  0
ARC
  8
_1-4_1-4___
  6
CONTINUOUS
 62
   18
 10
208.21335951775848
 20
38.087285641458706
 40
30
 50
140.45629102170497
 51
172.14768765264989
  0
ARC
  8
_1-4_1-4___
  6
CONTINUOUS
 62
   18
 10
242.19974592031215
 20
48.54622140998481
 40
3
 50
326.67324028042896
 51
36.185925165709477
  0
ARC
  8
_1-4_1-4___
  6
CONTINUOUS
 62
   18
 10
242.19974592031215
 20
48.54622140998481
 40
3
 50
216.18592516570962
 51
285.69861005098409
  0
LINE
  8
_1-4_1-4___
  6
CONTINUOUS
 62
   18
 10
244.62106203443986
 20
50.317443664662264
 11
241.66902494331066
 21
54.352970521541948
  0
LINE
  8
_1-4_1-4___
  6
CONTINUOUS
 62
   18
 10
241.66902494331066
 20
54.352970521541948
 11
236.82639271505496
 21
50.810526012186884
  0
LINE
  8
_1-4_1-4___
  6
CONTINUOUS
 62
   18
 10
239.77842980618422
 20
46.774999155307185
 11
236.82639271505496
 21
50.810526012186884
  0
LINE
  8
_1-4_1-4___
  6
CONTINUOUS
 62
   18
 10
243.01147719564426
 20
45.658126477914948
 11
240.17147044391561
 21
49.540504363599453
  0
LINE
  8
_1-4_1-4___
  6
CONTINUOUS
 62
   18
 10
241.86639172380509
 20
50.780359941873741
 11
240.17147044391561
 21
49.540504363599453
  0
LINE
  8
_1-4_1-4___
  6
CONTINUOUS
 62
   18
 10
244.70639847553377
 20
46.897982056189107
 11
241.86639172380509
 21
50.780359941873741
  0
LINE
  8
_1-4_1-4___
  6
CONTINUOUS
 62
   18
 10
223.80100641441783
 20
43.984276560614163
 11
223.80100641441783
 21
41.884276560614168
  0
LINE
  8
_1-4_1-4___
  6
CONTINUOUS
 62
   18
 10
233.80100641441783
 20
43.984276560614163
 11
233.80100641441783
 21
41.884276560614168
  0
CIRCLE
  8
_1-4_1-4___
  6
CONTINUOUS
 62
   18
 10
228.80100641441771
 20
42.934276560614151
 40
10
  0
LINE
  8
_1-4_1-4___
  6
CONTINUOUS
 62
   18
 10
229.8510064144177
 20
38.934276560614151
 11
227.7510064144177
 21
38.934276560614151
  0
LINE
  8
_1-4_1-4___
  6
CONTINUOUS
 62
   18
 10
229.8510064144177
 20
46.934276560614151
 11
227.7510064144177
 21
46.934276560614151
  0
LINE
  8
_1-4_1-4___
  6
CONTINUOUS
 62
   18
 10
229.90100641441782
 20
46.934276560614151
 11
227.70100641441783
 21
46.934276560614151
  0
LINE
  8
_1-4_1-4___
  6
CONTINUOUS
 62
   18
 10
229.90100641441782
 20
38.934276560614151
 11
227.70100641441783
 21
38.934276560614151
  0
LINE
  8
_1-4_1-4___
  6
CONTINUOUS
 62
   18
 10
233.80100641441783
 20
44.034276560614146
 11
233.80100641441783
 21
41.834276560614157
  0
LINE
  8
_1-4_1-4___
  6
CONTINUOUS
 62
   18
 10
223.80100641441783
 20
44.034276560614146
 11
223.80100641441783
 21
41.834276560614157
  0
LINE
  8
_1-4_1-4___
  6
CONTINUOUS
 62
   18
 10
233.80100641441783
 20
44.034276560614146
 11
231.26677201560534
 21
44.034276560614146
  0
LINE
  8
_1-4_1-4___
  6
CONTINUOUS
 62
   18
 10
233.80100641441783
 20
41.834276560614157
 11
231.26677201560523
 21
41.834276560614157
  0
ARC
  8
_1-4_1-4___
  6
CONTINUOUS
 62
   18
 10
228.80100641441771
 20
42.934276560614293
 40
2.7000000000000002
 50
316.7498273457706
 51
335.95792409424058
  0
LINE
  8
_1-4_1-4___
  6
CONTINUOUS
 62
   18
 10
229.90100641441782
 20
41.084276560614157
 11
230.76760245834726
 21
41.084276560614157
  0
LINE
  8
_1-4_1-4___
  6
CONTINUOUS
 62
   18
 10
229.90100641441782
 20
41.084276560614157
 11
229.90100641441782
 21
38.934276560614151
  0
LINE
  8
_1-4_1-4___
  6
CONTINUOUS
 62
   18
 10
227.70100641441783
 20
38.934276560614151
 11
227.70100641441783
 21
41.084276560614157
  0
LINE
  8
_1-4_1-4___
  6
CONTINUOUS
 62
   18
 10
226.83441037048811
 20
41.084276560614157
 11
227.70100641441783
 21
41.084276560614157
  0
ARC
  8
_1-4_1-4___
  6
CONTINUOUS
 62
   18
 10
228.80100641441771
 20
42.934276560614293
 40
2.7000000000000002
 50
204.04207590575942
 51
223.25017265422937
  0
LINE
  8
_1-4_1-4___
  6
CONTINUOUS
 62
   18
 10
223.80100641441783
 20
41.834276560614157
 11
226.33524081323017
 21
41.834276560614157
  0
ARC
  8
_1-4_1-4___
  6
CONTINUOUS
 62
   18
 10
228.80100641441771
 20
42.934276560614293
 40
2.7000000000000002
 50
136.74982734577895
 51
155.95792409424718
  0
LINE
  8
_1-4_1-4___
  6
CONTINUOUS
 62
   18
 10
226.33524081323003
 20
44.034276560614146
 11
223.80100641441783
 21
44.034276560614146
  0
LINE
  8
_1-4_1-4___
  6
CONTINUOUS
 62
   18
 10
227.70100641441783
 20
46.934276560614151
 11
227.70100641441783
 21
44.784276560614146
  0
LINE
  8
_1-4_1-4___
  6
CONTINUOUS
 62
   18
 10
226.83441037048783
 20
44.784276560614146
 11
227.70100641441783
 21
44.784276560614146
  0
LINE
  8
_1-4_1-4___
  6
CONTINUOUS
 62
   18
 10
229.90100641441782
 20
44.784276560614146
 11
229.90100641441782
 21
46.934276560614151
  0
ARC
  8
_1-4_1-4___
  6
CONTINUOUS
 62
   18
 10
228.80100641441771
 20
42.934276560614293
 40
2.7000000000000002
 50
24.042075905752782
 51
43.250172654221039
  0
LINE
  8
_1-4_1-4___
  6
CONTINUOUS
 62
   18
 10
229.90100641441782
 20
44.784276560614146
 11
230.76760245834754
 21
44.784276560614146
  0
LINE
  8
_1-4_1-4___
  6
CONTINUOUS
 62
   18
 10
235.13340343840096
 20
64.213139236935206
 11
235.13340343840096
 21
62.113139236935211
  0
LINE
  8
_1-4_1-4___
  6
CONTINUOUS
 62
   18
 10
230.18340343840094
 20
57.163139236935194
 11
228.08340343840098
 21
57.163139236935194
  0
LINE
  8
_1-4_1-4___
  6
CONTINUOUS
 62
   18
 10
223.13340343840096
 20
62.113139236935211
 11
223.13340343840096
 21
64.213139236935206
  0
LINE
  8
_1-4_1-4___
  6
CONTINUOUS
 62
   18
 10
228.08340343840098
 20
69.163139236935194
 11
230.18340343840094
 21
69.163139236935194
  0
CIRCLE
  8
_1-4_1-4___
  6
CONTINUOUS
 62
   18
 10
229.13340343840096
 20
63.163139236935194
 40
9
  0
LINE
  8
_1-4_1-4___
  6
CONTINUOUS
 62
   18
 10
235.13340343840096
 20
64.263139236935189
 11
235.13340343840096
 21
62.0631392369352
  0
LINE
  8
_1-4_1-4___
  6
CONTINUOUS
 62
   18
 10
223.13340343840096
 20
64.263139236935189
 11
223.13340343840096
 21
62.0631392369352
  0
LINE
  8
_1-4_1-4___
  6
CONTINUOUS
 62
   18
 10
230.23340343840096
 20
69.163139236935194
 11
228.03340343840097
 21
69.163139236935194
  0
LINE
  8
_1-4_1-4___
  6
CONTINUOUS
 62
   18
 10
230.23340343840096
 20
57.163139236935194
 11
228.03340343840097
 21
57.163139236935194
  0
LINE
  8
_1-4_1-4___
  6
CONTINUOUS
 62
   18
 10
230.23340343840096
 20
65.628904838122793
 11
230.23340343840096
 21
69.163139236935194
  0
ARC
  8
_1-4_1-4___
  6
CONTINUOUS
 62
   18
 10
229.13340343840096
 20
63.163139236935194
 40
2.7000000000000002
 50
24.04207590575604
 51
65.957924094243552
  0
LINE
  8
_1-4_1-4___
  6
CONTINUOUS
 62
   18
 10
231.59916903958856
 20
64.263139236935189
 11
235.13340343840096
 21
64.263139236935189
  0
LINE
  8
_1-4_1-4___
  6
CONTINUOUS
 62
   18
 10
235.13340343840096
 20
62.0631392369352
 11
231.59916903958856
 21
62.0631392369352
  0
ARC
  8
_1-4_1-4___
  6
CONTINUOUS
 62
   18
 10
229.13340343840096
 20
63.163139236935194
 40
2.7000000000000002
 50
294.04207590575629
 51
335.95792409424394
  0
LINE
  8
_1-4_1-4___
  6
CONTINUOUS
 62
   18
 10
230.23340343840096
 20
60.697373635747596
 11
230.23340343840096
 21
57.163139236935194
  0
LINE
  8
_1-4_1-4___
  6
CONTINUOUS
 62
   18
 10
228.03340343840097
 20
57.163139236935194
 11
228.03340343840097
 21
60.697373635747596
  0
ARC
  8
_1-4_1-4___
  6
CONTINUOUS
 62
   18
 10
229.13340343840096
 20
63.163139236935194
 40
2.7000000000000002
 50
204.04207590575604
 51
245.95792409424422
  0
LINE
  8
_1-4_1-4___
  6
CONTINUOUS
 62
   18
 10
223.13340343840096
 20
62.0631392369352
 11
226.66763783721336
 21
62.0631392369352
  0
LINE
  8
_1-4_1-4___
  6
CONTINUOUS
 62
   18
 10
226.66763783721336
 20
64.263139236935189
 11
223.13340343840096
 21
64.263139236935189
  0
ARC
  8
_1-4_1-4___
  6
CONTINUOUS
 62
   18
 10
229.13340343840096
 20
63.163139236935194
 40
2.7000000000000002
 50
114.04207590575577
 51
155.95792409424396
  0
LINE
  8
_1-4_1-4___
  6
CONTINUOUS
 62
   18
 10
228.03340343840097
 20
69.163139236935194
 11
228.03340343840097
 21
65.628904838122793
  0
ARC
  8
_1-4_1-4___
  6
CONTINUOUS
 62
   18
 10
248.8690726492477
 20
85.965324205863439
 40
2
 50
0
 51
90
  0
LINE
  8
_1-4_1-4___
  6
CONTINUOUS
 62
   18
 10
242.8690726492477
 20
87.965324205863439
 11
248.8690726492477
 21
87.965324205863439
  0
ARC
  8
_1-4_1-4___
  6
CONTINUOUS
 62
   18
 10
242.8690726492477
 20
85.965324205863439
 40
2
 50
90
 51
180
  0
LINE
  8
_1-4_1-4___
  6
CONTINUOUS
 62
   18
 10
250.8690726492477
 20
85.965324205863439
 11
250.8690726492477
 21
75.965324205863439
  0
LINE
  8
_1-4_1-4___
  6
CONTINUOUS
 62
   18
 10
240.8690726492477
 20
75.965324205863439
 11
240.8690726492477
 21
85.965324205863439
  0
LINE
  8
_1-4_1-4___
  6
CONTINUOUS
 62
   18
 10
254.86907264924758
 20
75.965324205863439
 11
250.8690726492477
 21
75.965324205863439
  0
LINE
  8
_1-4_1-4___
  6
CONTINUOUS
 62
   18
 10
240.8690726492477
 20
75.965324205863439
 11
236.86907264924758
 21
75.965324205863439
  0
ARC
  8
_1-4_1-4___
  6
CONTINUOUS
 62
   18
 10
251.34607941654426
 20
69.965324205863439
 40
0.5
 50
270
 51
356.82016988013572
  0
ARC
  8
_1-4_1-4___
  6
CONTINUOUS
 62
   18
 10
240.39206588195094
 20
69.965324205863439
 40
0.5
 50
183.17983011986425
 51
270
  0
LINE
  8
_1-4_1-4___
  6
CONTINUOUS
 62
   18
 10
254.86907264924758
 20
74.465324205863439
 11
254.86907264924758
 21
75.965324205863439
  0
ARC
  8
_1-4_1-4___
  6
CONTINUOUS
 62
   18
 10
254.36907264924758
 20
74.465324205863439
 40
0.5
 50
270
 51
0
  0
LINE
  8
_1-4_1-4___
  6
CONTINUOUS
 62
   18
 10
236.86907264924758
 20
74.465324205863439
 11
236.86907264924758
 21
75.965324205863439
  0
ARC
  8
_1-4_1-4___
  6
CONTINUOUS
 62
   18
 10
237.36907264924758
 20
74.465324205863439
 40
0.5
 50
180
 51
270
  0
LINE
  8
_1-4_1-4___
  6
CONTINUOUS
 62
   18
 10
253.01505911465426
 20
73.965324205863439
 11
254.36907264924758
 21
73.965324205863439
  0
ARC
  8
_1-4_1-4___
  6
CONTINUOUS
 62
   18
 10
253.01505911465426
 20
72.965324205863439
 40
1
 50
89.999999999999943
 51
176.82016988013575
  0
LINE
  8
_1-4_1-4___
  6
CONTINUOUS
 62
   18
 10
238.72308618384093
 20
73.965324205863439
 11
237.36907264924758
 21
73.965324205863439
  0
ARC
  8
_1-4_1-4___
  6
CONTINUOUS
 62
   18
 10
238.72308618384093
 20
72.965324205863439
 40
1
 50
3.1798301198644143
 51
90
  0
LINE
  8
_1-4_1-4___
  6
CONTINUOUS
 62
   18
 10
243.26907264924759
 20
77.965324205863439
 11
243.1690726492476
 21
75.965324205863439
  0
LINE
  8
_1-4_1-4___
  6
CONTINUOUS
 62
   18
 10
248.46907264924758
 20
77.965324205863439
 11
248.56907264924757
 21
75.965324205863439
  0
LINE
  8
_1-4_1-4___
  6
CONTINUOUS
 62
   18
 10
239.72154653704635
 20
73.020794225485972
 11
239.83612422945197
 21
70.958395762185049
  0
LINE
  8
_1-4_1-4___
  6
CONTINUOUS
 62
   18
 10
239.89125183827403
 20
69.966098803387993
 11
239.89283570534823
 21
69.937589196052201
  0
ARC
  8
_1-4_1-4___
  6
CONTINUOUS
 62
   18
 10
239.9190726492476
 20
70.465324205863439
 40
0.5
 50
266.82016988013521
 51
99.549337656895659
  0
LINE
  8
_1-4_1-4___
  6
CONTINUOUS
 62
   18
 10
252.01659876144885
 20
73.020794225485972
 11
251.90202106904323
 21
70.958395762185049
  0
LINE
  8
_1-4_1-4___
  6
CONTINUOUS
 62
   18
 10
251.8468934602212
 20
69.966098803388022
 11
251.84530959314696
 21
69.937589196052201
  0
ARC
  8
_1-4_1-4___
  6
CONTINUOUS
 62
   18
 10
251.8190726492476
 20
70.465324205863439
 40
0.5
 50
80.450662343102749
 51
273.17983011986479
  0
LINE
  8
_1-4_1-4___
  6
CONTINUOUS
 62
   18
 10
244.7690726492477
 20
82.965324205863439
 11
246.96907264924772
 21
82.965324205863439
  0
LINE
  8
_1-4_1-4___
  6
CONTINUOUS
 62
   18
 10
248.46907264924758
 20
77.965324205863439
 11
246.96907264924772
 21
77.965324205863439
  0
LINE
  8
_1-4_1-4___
  6
CONTINUOUS
 62
   18
 10
246.96907264924772
 20
82.965324205863439
 11
246.96907264924772
 21
77.965324205863439
  0
LINE
  8
_1-4_1-4___
  6
CONTINUOUS
 62
   18
 10
243.26907264924759
 20
77.965324205863439
 11
244.7690726492477
 21
77.965324205863439
  0
LINE
  8
_1-4_1-4___
  6
CONTINUOUS
 62
   18
 10
244.7690726492477
 20
82.965324205863439
 11
244.7690726492477
 21
77.965324205863439
  0
LINE
  8
_1-4_1-4___
  6
CONTINUOUS
 62
   18
 10
248.56907264924754
 20
71.065324205863433
 11
248.26907264924759
 21
71.065324205863433
  0
LINE
  8
_1-4_1-4___
  6
CONTINUOUS
 62
   18
 10
243.16907264924757
 20
71.065324205863433
 11
243.46907264924761
 21
71.065324205863433
  0
LINE
  8
_1-4_1-4___
  6
CONTINUOUS
 62
   18
 10
248.26907264924756
 20
72.165324205863428
 11
248.56907264924757
 21
72.165324205863428
  0
LINE
  8
_1-4_1-4___
  6
CONTINUOUS
 62
   18
 10
248.26907264924756
 20
72.165324205863428
 11
248.56907264924757
 21
72.165324205863428
  0
LINE
  8
_1-4_1-4___
  6
CONTINUOUS
 62
   18
 10
243.46907264924761
 20
72.165324205863456
 11
243.1690726492476
 21
72.165324205863456
  0
LINE
  8
_1-4_1-4___
  6
CONTINUOUS
 62
   18
 10
248.56907264924757
 20
75.965324205863439
 11
248.56907264924757
 21
72.165324205863428
  0
LINE
  8
_1-4_1-4___
  6
CONTINUOUS
 62
   18
 10
243.1690726492476
 20
75.965324205863439
 11
243.1690726492476
 21
72.165324205863428
  0
LINE
  8
_1-4_1-4___
  6
CONTINUOUS
 62
   18
 10
248.26907264924756
 20
72.165324205863428
 11
248.56907264924754
 21
71.065324205863433
  0
LINE
  8
_1-4_1-4___
  6
CONTINUOUS
 62
   18
 10
243.46907264924761
 20
72.165324205863456
 11
243.16907264924757
 21
71.065324205863433
  0
LINE
  8
_1-4_1-4___
  6
CONTINUOUS
 62
   18
 10
243.46907264924761
 20
70.465324205863439
 11
243.46907264924761
 21
71.065324205863433
  0
LINE
  8
_1-4_1-4___
  6
CONTINUOUS
 62
   18
 10
242.46907264924761
 20
69.465324205863439
 11
240.39206588195094
 21
69.465324205863439
  0
ARC
  8
_1-4_1-4___
  6
CONTINUOUS
 62
   18
 10
242.46907264924761
 20
70.465324205863439
 40
1
 50
270
 51
0
  0
LINE
  8
_1-4_1-4___
  6
CONTINUOUS
 62
   18
 10
248.26907264924759
 20
70.465324205863439
 11
248.26907264924759
 21
71.065324205863433
  0
LINE
  8
_1-4_1-4___
  6
CONTINUOUS
 62
   18
 10
249.26907264924759
 20
69.465324205863439
 11
251.34607941654426
 21
69.465324205863439
  0
ARC
  8
_1-4_1-4___
  6
CONTINUOUS
 62
   18
 10
249.26907264924759
 20
70.465324205863439
 40
1
 50
180
 51
270
  0
LINE
  8
_1-4_1-4___
  6
CONTINUOUS
 62
   18
 10
232.10756607957603
 20
76.977923026248476
 11
232.10756607957603
 21
81.977923026248476
  0
LINE
  8
_1-4_1-4___
  6
CONTINUOUS
 62
   18
 10
230.04756607957603
 20
81.977923026248476
 11
232.10756607957603
 21
81.977923026248476
  0
LINE
  8
_1-4_1-4___
  6
CONTINUOUS
 62
   18
 10
230.04756607957603
 20
81.977923026248476
 11
230.04756607957603
 21
76.977923026248476
  0
LINE
  8
_1-4_1-4___
  6
CONTINUOUS
 62
   18
 10
222.07756607957603
 20
90.477923026248476
 11
222.07756607957603
 21
88.977923026248476
  0
ARC
  8
_1-4_1-4___
  6
CONTINUOUS
 62
   18
 10
222.57756607957603
 20
90.477923026248476
 40
0.5
 50
90
 51
180
  0
LINE
  8
_1-4_1-4___
  6
CONTINUOUS
 62
   18
 10
240.07756607957603
 20
90.477923026248476
 11
240.07756607957603
 21
88.977923026248476
  0
ARC
  8
_1-4_1-4___
  6
CONTINUOUS
 62
   18
 10
239.57756607957603
 20
90.477923026248476
 40
0.5
 50
0
 51
90
  0
LINE
  8
_1-4_1-4___
  6
CONTINUOUS
 62
   18
 10
223.8516975930024
 20
90.977923026248476
 11
222.57756607957603
 21
90.977923026248476
  0
ARC
  8
_1-4_1-4___
  6
CONTINUOUS
 62
   18
 10
223.8516975930024
 20
91.977923026248476
 40
1
 50
270
 51
355.59125976012149
  0
LINE
  8
_1-4_1-4___
  6
CONTINUOUS
 62
   18
 10
238.30280843256133
 20
90.977923026248476
 11
239.57756607957603
 21
90.977923026248476
  0
ARC
  8
_1-4_1-4___
  6
CONTINUOUS
 62
   18
 10
238.30280843256133
 20
91.977923026248476
 40
1
 50
184.44738485009043
 51
270
  0
ARC
  8
_1-4_1-4___
  6
CONTINUOUS
 62
   18
 10
225.58744698126017
 20
94.977923026248476
 40
0.5
 50
90
 51
175.59125976012135
  0
ARC
  8
_1-4_1-4___
  6
CONTINUOUS
 62
   18
 10
236.56494490308336
 20
94.977923026248476
 40
0.5
 50
4.4473848500904269
 51
90
  0
LINE
  8
_1-4_1-4___
  6
CONTINUOUS
 62
   18
 10
229.37756607957604
 20
86.977923026248476
 11
229.27756607957608
 21
88.977923026248476
  0
LINE
  8
_1-4_1-4___
  6
CONTINUOUS
 62
   18
 10
229.37756607957604
 20
86.977923026248476
 11
232.77756607957602
 21
86.977923026248476
  0
LINE
  8
_1-4_1-4___
  6
CONTINUOUS
 62
   18
 10
232.77756607957602
 20
86.977923026248476
 11
232.87756607957604
 21
88.977923026248476
  0
LINE
  8
_1-4_1-4___
  6
CONTINUOUS
 62
   18
 10
225.08892646253616
 20
95.016358588051531
 11
225.08582856602453
 21
94.976177960958125
  0
LINE
  8
_1-4_1-4___
  6
CONTINUOUS
 62
   18
 10
225.00994566568912
 20
93.99195446940854
 11
224.84873863045047
 21
91.901051902642337
  0
ARC
  8
_1-4_1-4___
  6
CONTINUOUS
 62
   18
 10
225.12756607957604
 20
94.477923026248476
 40
0.5
 50
256.39418083283999
 51
94.788338687400568
  0
LINE
  8
_1-4_1-4___
  6
CONTINUOUS
 62
   18
 10
237.06343938456459
 20
95.016694819252564
 11
237.06657349407172
 21
94.976399125589609
  0
LINE
  8
_1-4_1-4___
  6
CONTINUOUS
 62
   18
 10
237.14317886387772
 20
93.991472942369342
 11
237.30581946959887
 21
91.900379440240272
  0
ARC
  8
_1-4_1-4___
  6
CONTINUOUS
 62
   18
 10
237.02756607957602
 20
94.477923026248476
 40
0.5
 50
85.525532872779593
 51
283.36923682739939
  0
LINE
  8
_1-4_1-4___
  6
CONTINUOUS
 62
   18
 10
229.07756607957592
 20
76.977923026248476
 11
230.04756607957603
 21
76.977923026248476
  0
ARC
  8
_1-4_1-4___
  6
CONTINUOUS
 62
   18
 10
229.07756607957592
 20
78.977923026248476
 40
2
 50
180
 51
270
  0
LINE
  8
_1-4_1-4___
  6
CONTINUOUS
 62
   18
 10
233.07756607957592
 20
76.977923026248476
 11
232.10756607957603
 21
76.977923026248476
  0
ARC
  8
_1-4_1-4___
  6
CONTINUOUS
 62
   18
 10
233.07756607957592
 20
78.977923026248476
 40
2
 50
270
 51
0
  0
LINE
  8
_1-4_1-4___
  6
CONTINUOUS
 62
   18
 10
222.07756607957603
 20
88.977923026248476
 11
227.07756607957592
 21
88.977923026248476
  0
LINE
  8
_1-4_1-4___
  6
CONTINUOUS
 62
   18
 10
227.07756607957592
 20
78.977923026248476
 11
227.07756607957592
 21
88.977923026248476
  0
LINE
  8
_1-4_1-4___
  6
CONTINUOUS
 62
   18
 10
235.07756607957592
 20
78.977923026248476
 11
235.07756607957592
 21
88.977923026248476
  0
LINE
  8
_1-4_1-4___
  6
CONTINUOUS
 62
   18
 10
235.07756607957592
 20
88.977923026248476
 11
240.07756607957603
 21
88.977923026248476
  0
LINE
  8
_1-4_1-4___
  6
CONTINUOUS
 62
   18
 10
229.27756607957608
 20
93.877923026248482
 11
229.57756607957603
 21
93.877923026248482
  0
LINE
  8
_1-4_1-4___
  6
CONTINUOUS
 62
   18
 10
232.87756607957604
 20
93.877923026248482
 11
232.577566079576
 21
93.877923026248482
  0
LINE
  8
_1-4_1-4___
  6
CONTINUOUS
 62
   18
 10
229.57756607957606
 20
92.777923026248459
 11
229.27756607957608
 21
92.777923026248459
  0
LINE
  8
_1-4_1-4___
  6
CONTINUOUS
 62
   18
 10
232.57756607957603
 20
92.777923026248459
 11
232.87756607957604
 21
92.777923026248459
  0
LINE
  8
_1-4_1-4___
  6
CONTINUOUS
 62
   18
 10
229.27756607957608
 20
88.977923026248476
 11
229.27756607957608
 21
92.777923026248487
  0
LINE
  8
_1-4_1-4___
  6
CONTINUOUS
 62
   18
 10
232.87756607957604
 20
88.977923026248476
 11
232.87756607957604
 21
92.777923026248487
  0
LINE
  8
_1-4_1-4___
  6
CONTINUOUS
 62
   18
 10
229.57756607957606
 20
92.777923026248459
 11
229.27756607957608
 21
93.877923026248482
  0
LINE
  8
_1-4_1-4___
  6
CONTINUOUS
 62
   18
 10
232.57756607957603
 20
92.777923026248459
 11
232.87756607957604
 21
93.877923026248482
  0
LINE
  8
_1-4_1-4___
  6
CONTINUOUS
 62
   18
 10
229.57756607957603
 20
94.477923026248476
 11
229.57756607957603
 21
93.877923026248482
  0
LINE
  8
_1-4_1-4___
  6
CONTINUOUS
 62
   18
 10
228.57756607957603
 20
95.477923026248476
 11
225.58744698126017
 21
95.477923026248476
  0
ARC
  8
_1-4_1-4___
  6
CONTINUOUS
 62
   18
 10
228.57756607957603
 20
94.477923026248476
 40
1
 50
0.0000000000000127
 51
90
  0
LINE
  8
_1-4_1-4___
  6
CONTINUOUS
 62
   18
 10
232.577566079576
 20
94.477923026248476
 11
232.577566079576
 21
93.877923026248482
  0
LINE
  8
_1-4_1-4___
  6
CONTINUOUS
 62
   18
 10
233.577566079576
 20
95.477923026248476
 11
236.56494490308336
 21
95.477923026248476
  0
ARC
  8
_1-4_1-4___
  6
CONTINUOUS
 62
   18
 10
233.577566079576
 20
94.477923026248476
 40
1
 50
90
 51
180
  0
CIRCLE
  8
_1-4_1-4___
  6
CONTINUOUS
 62
   18
 10
185.2047194392469
 20
63.763735178072437
 40
2.5
  0
LINE
  8
_1-4_1-4___
  6
CONTINUOUS
 62
   18
 10
183.1869496257093
 20
77.563735416490999
 11
183.1869496257093
 21
79.563735416490999
  0
LINE
  8
_1-4_1-4___
  6
CONTINUOUS
 62
   18
 10
177.1869496257093
 20
63.763735178072409
 11
177.1869496257093
 21
58.763735178072409
  0
LINE
  8
_1-4_1-4___
  6
CONTINUOUS
 62
   18
 10
201.2047194392469
 20
77.563735416490999
 11
183.1869496257093
 21
77.563735416490999
  0
LINE
  8
_1-4_1-4___
  6
CONTINUOUS
 62
   18
 10
183.1869496257093
 20
79.563735416490999
 11
179.2869496257093
 21
79.563735416490999
  0
LINE
  8
_1-4_1-4___
  6
CONTINUOUS
 62
   18
 10
177.1869496257093
 20
63.763735178072409
 11
179.2869496257093
 21
63.763735178072409
  0
LINE
  8
_1-4_1-4___
  6
CONTINUOUS
 62
   18
 10
179.2869496257093
 20
79.563735416490999
 11
179.2869496257093
 21
63.763735178072409
  0
LINE
  8
_1-4_1-4___
  6
CONTINUOUS
 62
   18
 10
212.18691910813118
 20
77.563735416490999
 11
205.18691910813118
 21
77.563735416490999
  0
CIRCLE
  8
_1-4_1-4___
  6
CONTINUOUS
 62
   18
 10
210.82479371140266
 20
63.763735178072437
 40
2.5
  0
LINE
  8
_1-4_1-4___
  6
CONTINUOUS
 62
   18
 10
219.1869496257093
 20
68.563735416490999
 11
219.1869496257093
 21
56.763735178072437
  0
LINE
  8
_1-4_1-4___
  6
CONTINUOUS
 62
   18
 10
214.18691910813118
 20
68.763735178072437
 11
214.1869496257093
 21
68.763735178072437
  0
LINE
  8
_1-4_1-4___
  6
CONTINUOUS
 62
   18
 10
201.18691910813118
 20
77.563735416490999
 11
201.18691910813118
 21
79.563735416490999
  0
LINE
  8
_1-4_1-4___
  6
CONTINUOUS
 62
   18
 10
201.18691910813118
 20
79.563735416490999
 11
205.18691910813118
 21
79.563735416490999
  0
LINE
  8
_1-4_1-4___
  6
CONTINUOUS
 62
   18
 10
205.18691910813118
 20
79.563735416490999
 11
205.18691910813118
 21
77.563735416490999
  0
LINE
  8
_1-4_1-4___
  6
CONTINUOUS
 62
   18
 10
216.2869496257093
 20
58.763735178072437
 11
207.28691910813117
 21
58.763735178072437
  0
LINE
  8
_1-4_1-4___
  6
CONTINUOUS
 62
   18
 10
212.18691910813118
 20
74.563735416490999
 11
212.18691910813118
 21
77.563735416490999
  0
ARC
  8
_1-4_1-4___
  6
CONTINUOUS
 62
   18
 10
213.18691910813118
 20
74.563735416490999
 40
1
 50
180
 51
270
  0
LINE
  8
_1-4_1-4___
  6
CONTINUOUS
 62
   18
 10
214.1869496257093
 20
73.563735416490999
 11
213.18691910813118
 21
73.563735416490999
  0
ARC
  8
_1-4_1-4___
  6
CONTINUOUS
 62
   18
 10
214.1869496257093
 20
68.563735416490999
 40
5
 50
0
 51
90
  0
LINE
  8
_1-4_1-4___
  6
CONTINUOUS
 62
   18
 10
216.2869496257093
 20
58.763735178072437
 11
216.2869496257093
 21
56.763735178072437
  0
LINE
  8
_1-4_1-4___
  6
CONTINUOUS
 62
   18
 10
219.1869496257093
 20
56.763735178072437
 11
216.2869496257093
 21
56.763735178072437
  0
LINE
  8
_1-4_1-4___
  6
CONTINUOUS
 62
   18
 10
207.28691910813117
 20
58.763735178072437
 11
207.28691910813117
 21
63.763735178072437
  0
LINE
  8
_1-4_1-4___
  6
CONTINUOUS
 62
   18
 10
207.28691910813117
 20
63.763735178072437
 11
205.08691910813118
 21
63.763735178072437
  0
LINE
  8
_1-4_1-4___
  6
CONTINUOUS
 62
   18
 10
177.1869496257093
 20
58.763735178072409
 11
205.08691910813118
 21
58.763735178072437
  0
LINE
  8
_1-4_1-4___
  6
CONTINUOUS
 62
   18
 10
205.08691910813118
 20
63.763735178072437
 11
205.08691910813118
 21
58.763735178072437
  0
CIRCLE
  8
_1-4_1-4___
  6
CONTINUOUS
 62
   18
 10
185.34153205736334
 20
86.060366107796312
 40
2.5
  0
LINE
  8
_1-4_1-4___
  6
CONTINUOUS
 62
   18
 10
183.32376224382574
 20
99.860366346214875
 11
183.32376224382574
 21
101.86036634621487
  0
LINE
  8
_1-4_1-4___
  6
CONTINUOUS
 62
   18
 10
177.32376224382574
 20
86.060366107796284
 11
177.32376224382574
 21
81.060366107796284
  0
LINE
  8
_1-4_1-4___
  6
CONTINUOUS
 62
   18
 10
201.34153205736334
 20
99.860366346214875
 11
183.32376224382574
 21
99.860366346214875
  0
LINE
  8
_1-4_1-4___
  6
CONTINUOUS
 62
   18
 10
183.32376224382574
 20
101.86036634621487
 11
179.42376224382573
 21
101.86036634621487
  0
LINE
  8
_1-4_1-4___
  6
CONTINUOUS
 62
   18
 10
177.32376224382574
 20
86.060366107796284
 11
179.42376224382573
 21
86.060366107796284
  0
LINE
  8
_1-4_1-4___
  6
CONTINUOUS
 62
   18
 10
179.42376224382573
 20
101.86036634621487
 11
179.42376224382573
 21
86.060366107796284
  0
LINE
  8
_1-4_1-4___
  6
CONTINUOUS
 62
   18
 10
212.32373172624762
 20
99.860366346214875
 11
205.32373172624762
 21
99.860366346214875
  0
CIRCLE
  8
_1-4_1-4___
  6
CONTINUOUS
 62
   18
 10
210.9616063295191
 20
86.060366107796312
 40
2.5
  0
LINE
  8
_1-4_1-4___
  6
CONTINUOUS
 62
   18
 10
219.32376224382574
 20
90.860366346214875
 11
219.32376224382574
 21
79.060366107796312
  0
LINE
  8
_1-4_1-4___
  6
CONTINUOUS
 62
   18
 10
214.32373172624762
 20
91.060366107796312
 11
214.32376224382574
 21
91.060366107796312
  0
LINE
  8
_1-4_1-4___
  6
CONTINUOUS
 62
   18
 10
201.32373172624762
 20
99.860366346214875
 11
201.32373172624762
 21
101.86036634621487
  0
LINE
  8
_1-4_1-4___
  6
CONTINUOUS
 62
   18
 10
201.32373172624762
 20
101.86036634621487
 11
205.32373172624762
 21
101.86036634621487
  0
LINE
  8
_1-4_1-4___
  6
CONTINUOUS
 62
   18
 10
205.32373172624762
 20
101.86036634621487
 11
205.32373172624762
 21
99.860366346214875
  0
LINE
  8
_1-4_1-4___
  6
CONTINUOUS
 62
   18
 10
216.42376224382573
 20
81.060366107796312
 11
207.42373172624761
 21
81.060366107796312
  0
LINE
  8
_1-4_1-4___
  6
CONTINUOUS
 62
   18
 10
212.32373172624762
 20
96.860366346214875
 11
212.32373172624762
 21
99.860366346214875
  0
ARC
  8
_1-4_1-4___
  6
CONTINUOUS
 62
   18
 10
213.32373172624762
 20
96.860366346214875
 40
1
 50
180
 51
270
  0
LINE
  8
_1-4_1-4___
  6
CONTINUOUS
 62
   18
 10
214.32376224382574
 20
95.860366346214875
 11
213.32373172624762
 21
95.860366346214875
  0
ARC
  8
_1-4_1-4___
  6
CONTINUOUS
 62
   18
 10
214.32376224382574
 20
90.860366346214875
 40
5
 50
0
 51
90
  0
LINE
  8
_1-4_1-4___
  6
CONTINUOUS
 62
   18
 10
216.42376224382573
 20
81.060366107796312
 11
216.42376224382573
 21
79.060366107796312
  0
LINE
  8
_1-4_1-4___
  6
CONTINUOUS
 62
   18
 10
219.32376224382574
 20
79.060366107796312
 11
216.42376224382573
 21
79.060366107796312
  0
LINE
  8
_1-4_1-4___
  6
CONTINUOUS
 62
   18
 10
207.42373172624761
 20
81.060366107796312
 11
207.42373172624761
 21
86.060366107796312
  0
LINE
  8
_1-4_1-4___
  6
CONTINUOUS
 62
   18
 10
207.42373172624761
 20
86.060366107796312
 11
205.22373172624762
 21
86.060366107796312
  0
LINE
  8
_1-4_1-4___
  6
CONTINUOUS
 62
   18
 10
177.32376224382574
 20
81.060366107796284
 11
205.22373172624762
 21
81.060366107796312
  0
LINE
  8
_1-4_1-4___
  6
CONTINUOUS
 62
   18
 10
205.22373172624762
 20
86.060366107796312
 11
205.22373172624762
 21
81.060366107796312
  0
CIRCLE
  8
_1-4_1-4___
  6
CONTINUOUS
 62
   18
 10
215.11623571617562
 20
52.914709474866001
 40
0.4
  0
ARC
  8
_1-4_1-4___
  6
CONTINUOUS
 62
   18
 10
215.11623571617562
 20
52.914709474866001
 40
3
 50
180
 51
0
  0
LINE
  8
_1-4_1-4___
  6
CONTINUOUS
 62
   18
 10
212.11623571617562
 20
52.914709474866001
 11
212.11623571617562
 21
53.914709474866001
  0
LINE
  8
_1-4_1-4___
  6
CONTINUOUS
 62
   18
 10
218.11623571617562
 20
52.914709474866001
 11
218.11623571617562
 21
53.914709474866001
  0
LINE
  8
_1-4_1-4___
  6
CONTINUOUS
 62
   18
 10
218.11623571617562
 20
53.914709474866001
 11
217.11623571617562
 21
53.914709474866001
  0
LINE
  8
_1-4_1-4___
  6
CONTINUOUS
 62
   18
 10
213.11623571617562
 20
53.914709474866001
 11
212.11623571617562
 21
53.914709474866001
  0
LINE
  8
_1-4_1-4___
  6
CONTINUOUS
 62
   18
 10
217.11623571617562
 20
55.914709474866001
 11
213.11623571617562
 21
55.914709474866001
  0
LINE
  8
_1-4_1-4___
  6
CONTINUOUS
 62
   18
 10
217.11623571617562
 20
55.914709474866001
 11
217.11623571617562
 21
53.914709474866001
  0
LINE
  8
_1-4_1-4___
  6
CONTINUOUS
 62
   18
 10
213.11623571617562
 20
55.914709474866001
 11
213.11623571617562
 21
53.914709474866001
  0
CIRCLE
  8
_1-4_1-4___
  6
CONTINUOUS
 62
   18
 10
208.35601876005143
 20
52.938786824021605
 40
0.4
  0
ARC
  8
_1-4_1-4___
  6
CONTINUOUS
 62
   18
 10
208.35601876005143
 20
52.938786824021605
 40
3
 50
180
 51
0
  0
LINE
  8
_1-4_1-4___
  6
CONTINUOUS
 62
   18
 10
205.35601876005143
 20
52.938786824021605
 11
205.35601876005143
 21
53.938786824021605
  0
LINE
  8
_1-4_1-4___
  6
CONTINUOUS
 62
   18
 10
211.35601876005143
 20
52.938786824021605
 11
211.35601876005143
 21
53.938786824021605
  0
LINE
  8
_1-4_1-4___
  6
CONTINUOUS
 62
   18
 10
211.35601876005143
 20
53.938786824021605
 11
210.35601876005143
 21
53.938786824021605
  0
LINE
  8
_1-4_1-4___
  6
CONTINUOUS
 62
   18
 10
206.35601876005143
 20
53.938786824021605
 11
205.35601876005143
 21
53.938786824021605
  0
LINE
  8
_1-4_1-4___
  6
CONTINUOUS
 62
   18
 10
210.35601876005143
 20
55.938786824021605
 11
206.35601876005143
 21
55.938786824021605
  0
LINE
  8
_1-4_1-4___
  6
CONTINUOUS
 62
   18
 10
210.35601876005143
 20
55.938786824021605
 11
210.35601876005143
 21
53.938786824021605
  0
LINE
  8
_1-4_1-4___
  6
CONTINUOUS
 62
   18
 10
206.35601876005143
 20
55.938786824021605
 11
206.35601876005143
 21
53.938786824021605
  0
CIRCLE
  8
_1-4_1-4___
  6
CONTINUOUS
 62
   18
 10
201.69401608964151
 20
52.975855292300949
 40
0.4
  0
ARC
  8
_1-4_1-4___
  6
CONTINUOUS
 62
   18
 10
201.69401608964151
 20
52.975855292300949
 40
3
 50
180
 51
0
  0
LINE
  8
_1-4_1-4___
  6
CONTINUOUS
 62
   18
 10
198.69401608964151
 20
52.975855292300949
 11
198.69401608964151
 21
53.975855292300949
  0
LINE
  8
_1-4_1-4___
  6
CONTINUOUS
 62
   18
 10
204.69401608964151
 20
52.975855292300949
 11
204.69401608964151
 21
53.975855292300949
  0
LINE
  8
_1-4_1-4___
  6
CONTINUOUS
 62
   18
 10
204.69401608964151
 20
53.975855292300949
 11
203.69401608964151
 21
53.975855292300949
  0
LINE
  8
_1-4_1-4___
  6
CONTINUOUS
 62
   18
 10
199.69401608964151
 20
53.975855292300949
 11
198.69401608964151
 21
53.975855292300949
  0
LINE
  8
_1-4_1-4___
  6
CONTINUOUS
 62
   18
 10
203.69401608964151
 20
55.975855292300949
 11
199.69401608964151
 21
55.975855292300949
  0
LINE
  8
_1-4_1-4___
  6
CONTINUOUS
 62
   18
 10
203.69401608964151
 20
55.975855292300949
 11
203.69401608964151
 21
53.975855292300949
  0
LINE
  8
_1-4_1-4___
  6
CONTINUOUS
 62
   18
 10
199.69401608964151
 20
55.975855292300949
 11
199.69401608964151
 21
53.975855292300949
  0
CIRCLE
  8
_1-4_1-4___
  6
CONTINUOUS
 62
   18
 10
194.89673066523795
 20
52.938786824021605
 40
0.4
  0
ARC
  8
_1-4_1-4___
  6
CONTINUOUS
 62
   18
 10
194.89673066523795
 20
52.938786824021605
 40
3
 50
180
 51
0
  0
LINE
  8
_1-4_1-4___
  6
CONTINUOUS
 62
   18
 10
191.89673066523795
 20
52.938786824021605
 11
191.89673066523795
 21
53.938786824021605
  0
LINE
  8
_1-4_1-4___
  6
CONTINUOUS
 62
   18
 10
197.89673066523795
 20
52.938786824021605
 11
197.89673066523795
 21
53.938786824021605
  0
LINE
  8
_1-4_1-4___
  6
CONTINUOUS
 62
   18
 10
197.89673066523795
 20
53.938786824021605
 11
196.89673066523795
 21
53.938786824021605
  0
LINE
  8
_1-4_1-4___
  6
CONTINUOUS
 62
   18
 10
192.89673066523795
 20
53.938786824021605
 11
191.89673066523795
 21
53.938786824021605
  0
LINE
  8
_1-4_1-4___
  6
CONTINUOUS
 62
   18
 10
196.89673066523795
 20
55.938786824021605
 11
192.89673066523795
 21
55.938786824021605
  0
LINE
  8
_1-4_1-4___
  6
CONTINUOUS
 62
   18
 10
196.89673066523795
 20
55.938786824021605
 11
196.89673066523795
 21
53.938786824021605
  0
LINE
  8
_1-4_1-4___
  6
CONTINUOUS
 62
   18
 10
192.89673066523795
 20
55.938786824021605
 11
192.89673066523795
 21
53.938786824021605
  0
LINE
  8
_1-4_1-4___
  6
CONTINUOUS
 62
   18
 10
198.7630453559936
 20
124.16036319308282
 11
193.5130453559936
 21
124.16036319308282
  0
LINE
  8
_1-4_1-4___
  6
CONTINUOUS
 62
   18
 10
189.5130453559936
 20
124.16036319308282
 11
184.2630453559936
 21
124.16036319308282
  0
LINE
  8
_1-4_1-4___
  6
CONTINUOUS
 62
   18
 10
189.5130453559936
 20
124.16036319308282
 11
189.5130453559936
 21
126.16036319308282
  0
LINE
  8
_1-4_1-4___
  6
CONTINUOUS
 62
   18
 10
189.5130453559936
 20
126.16036319308282
 11
193.5130453559936
 21
126.16036319308282
  0
LINE
  8
_1-4_1-4___
  6
CONTINUOUS
 62
   18
 10
193.5130453559936
 20
126.16036319308282
 11
193.5130453559936
 21
124.16036319308282
  0
LINE
  8
_1-4_1-4___
  6
CONTINUOUS
 62
   18
 10
179.2630453559936
 20
109.16036319308282
 11
179.2630453559936
 21
103.36036295466423
  0
LINE
  8
_1-4_1-4___
  6
CONTINUOUS
 62
   18
 10
200.86304535599359
 20
105.36036295466423
 11
200.86304535599359
 21
103.36036295466423
  0
LINE
  8
_1-4_1-4___
  6
CONTINUOUS
 62
   18
 10
203.7630453559936
 20
103.36036295466423
 11
200.86304535599359
 21
103.36036295466423
  0
LINE
  8
_1-4_1-4___
  6
CONTINUOUS
 62
   18
 10
179.2630453559936
 20
103.36036295466423
 11
182.16304535599357
 21
103.36036295466423
  0
LINE
  8
_1-4_1-4___
  6
CONTINUOUS
 62
   18
 10
182.16304535599357
 20
105.36036295466423
 11
182.16304535599357
 21
103.36036295466423
  0
LINE
  8
_1-4_1-4___
  6
CONTINUOUS
 62
   18
 10
182.16304535599357
 20
105.36036295466423
 11
200.86304535599359
 21
105.36036295466423
  0
LINE
  8
_1-4_1-4___
  6
CONTINUOUS
 62
   18
 10
198.7630453559936
 20
124.16036319308282
 11
198.7630453559936
 21
110.36036295466425
  0
LINE
  8
_1-4_1-4___
  6
CONTINUOUS
 62
   18
 10
184.2630453559936
 20
124.16036319308282
 11
184.2630453559936
 21
110.36036295466425
  0
LINE
  8
_1-4_1-4___
  6
CONTINUOUS
 62
   18
 10
179.7630453559936
 20
112.76036357455254
 11
179.2630453559936
 21
112.76036357455254
  0
LINE
  8
_1-4_1-4___
  6
CONTINUOUS
 62
   18
 10
179.7630453559936
 20
109.16036319308282
 11
179.2630453559936
 21
109.16036319308282
  0
LINE
  8
_1-4_1-4___
  6
CONTINUOUS
 62
   18
 10
179.7630453559936
 20
112.76036357455254
 11
179.7630453559936
 21
109.16036319308282
  0
LINE
  8
_1-4_1-4___
  6
CONTINUOUS
 62
   18
 10
203.7630453559936
 20
114.36036295466425
 11
203.7630453559936
 21
103.36036295466423
  0
LINE
  8
_1-4_1-4___
  6
CONTINUOUS
 62
   18
 10
179.2630453559936
 20
114.36036295466425
 11
179.2630453559936
 21
112.76036357455254
  0
LINE
  8
_1-4_1-4___
  6
CONTINUOUS
 62
   18
 10
198.7630453559936
 20
110.36036295466425
 11
200.96304535599359
 21
110.36036295466425
  0
LINE
  8
_1-4_1-4___
  6
CONTINUOUS
 62
   18
 10
203.7630453559936
 20
114.36036295466425
 11
200.96304535599359
 21
114.36036295466425
  0
LINE
  8
_1-4_1-4___
  6
CONTINUOUS
 62
   18
 10
200.96304535599359
 20
110.36036295466425
 11
200.96304535599359
 21
114.36036295466425
  0
LINE
  8
_1-4_1-4___
  6
CONTINUOUS
 62
   18
 10
184.2630453559936
 20
110.36036295466425
 11
182.06304535599361
 21
110.36036295466425
  0
LINE
  8
_1-4_1-4___
  6
CONTINUOUS
 62
   18
 10
179.2630453559936
 20
114.36036295466425
 11
182.06304535599361
 21
114.36036295466425
  0
LINE
  8
_1-4_1-4___
  6
CONTINUOUS
 62
   18
 10
182.06304535599361
 20
110.36036295466425
 11
182.06304535599361
 21
114.36036295466425
  0
CIRCLE
  8
_1-4_1-4___
  6
CONTINUOUS
 62
   18
 10
214.08331567296523
 20
152.24742879497285
 40
1.2
  0
LINE
  8
_1-4_1-4___
  6
CONTINUOUS
 62
   18
 10
214.08331567296523
 20
157.24742879497285
 11
214.08331567296523
 21
159.24742879497285
  0
LINE
  8
_1-4_1-4___
  6
CONTINUOUS
 62
   18
 10
209.08331567296523
 20
157.24742879497285
 11
214.08331567296523
 21
157.24742879497285
  0
LINE
  8
_1-4_1-4___
  6
CONTINUOUS
 62
   18
 10
209.08331567296523
 20
152.24742879497285
 11
209.08331567296523
 21
157.24742879497285
  0
LINE
  8
_1-4_1-4___
  6
CONTINUOUS
 62
   18
 10
209.08331567296523
 20
152.24742879497285
 11
207.08331567296523
 21
152.24742879497285
  0
LINE
  8
_1-4_1-4___
  6
CONTINUOUS
 62
   18
 10
218.58331567296523
 20
159.24742879497285
 11
214.08331567296523
 21
159.24742879497285
  0
LINE
  8
_1-4_1-4___
  6
CONTINUOUS
 62
   18
 10
218.58331567296523
 20
157.24742879497285
 11
218.58331567296523
 21
159.24742879497285
  0
LINE
  8
_1-4_1-4___
  6
CONTINUOUS
 62
   18
 10
218.58331567296523
 20
157.24742879497285
 11
220.08331567296523
 21
157.24742879497285
  0
LINE
  8
_1-4_1-4___
  6
CONTINUOUS
 62
   18
 10
209.08331567296523
 20
147.74742879497285
 11
207.08331567296523
 21
147.74742879497285
  0
LINE
  8
_1-4_1-4___
  6
CONTINUOUS
 62
   18
 10
207.08331567296523
 20
152.24742879497285
 11
207.08331567296523
 21
147.74742879497285
  0
LINE
  8
_1-4_1-4___
  6
CONTINUOUS
 62
   18
 10
209.08331567296523
 20
147.74742879497285
 11
209.08331567296523
 21
146.24742879497285
  0
ARC
  8
_1-4_1-4___
  6
CONTINUOUS
 62
   18
 10
214.08331567296523
 20
152.24742879497285
 40
6
 50
270
 51
0
  0
LINE
  8
_1-4_1-4___
  6
CONTINUOUS
 62
   18
 10
220.08331567296523
 20
152.24742879497285
 11
220.08331567296523
 21
157.24742879497285
  0
LINE
  8
_1-4_1-4___
  6
CONTINUOUS
 62
   18
 10
214.08331567296523
 20
146.24742879497285
 11
209.08331567296523
 21
146.24742879497285
  0
CIRCLE
  8
_1-4_1-4___
  6
CONTINUOUS
 62
   18
 10
214.79134421197617
 20
177.93105691288667
 40
1.2
  0
LINE
  8
_1-4_1-4___
  6
CONTINUOUS
 62
   18
 10
214.79134421197617
 20
182.93105691288667
 11
214.79134421197617
 21
184.93105691288667
  0
LINE
  8
_1-4_1-4___
  6
CONTINUOUS
 62
   18
 10
209.79134421197617
 20
182.93105691288667
 11
214.79134421197617
 21
182.93105691288667
  0
LINE
  8
_1-4_1-4___
  6
CONTINUOUS
 62
   18
 10
209.79134421197617
 20
177.93105691288667
 11
209.79134421197617
 21
182.93105691288667
  0
LINE
  8
_1-4_1-4___
  6
CONTINUOUS
 62
   18
 10
209.79134421197617
 20
177.93105691288667
 11
207.79134421197617
 21
177.93105691288667
  0
LINE
  8
_1-4_1-4___
  6
CONTINUOUS
 62
   18
 10
219.29134421197617
 20
184.93105691288667
 11
214.79134421197617
 21
184.93105691288667
  0
LINE
  8
_1-4_1-4___
  6
CONTINUOUS
 62
   18
 10
219.29134421197617
 20
182.93105691288667
 11
219.29134421197617
 21
184.93105691288667
  0
LINE
  8
_1-4_1-4___
  6
CONTINUOUS
 62
   18
 10
219.29134421197617
 20
182.93105691288667
 11
220.79134421197617
 21
182.93105691288667
  0
LINE
  8
_1-4_1-4___
  6
CONTINUOUS
 62
   18
 10
209.79134421197617
 20
173.43105691288667
 11
207.79134421197617
 21
173.43105691288667
  0
LINE
  8
_1-4_1-4___
  6
CONTINUOUS
 62
   18
 10
207.79134421197617
 20
177.93105691288667
 11
207.79134421197617
 21
173.43105691288667
  0
LINE
  8
_1-4_1-4___
  6
CONTINUOUS
 62
   18
 10
209.79134421197617
 20
173.43105691288667
 11
209.79134421197617
 21
171.93105691288667
  0
ARC
  8
_1-4_1-4___
  6
CONTINUOUS
 62
   18
 10
214.79134421197617
 20
177.93105691288667
 40
6
 50
270
 51
0
  0
LINE
  8
_1-4_1-4___
  6
CONTINUOUS
 62
   18
 10
220.79134421197617
 20
177.93105691288667
 11
220.79134421197617
 21
182.93105691288667
  0
LINE
  8
_1-4_1-4___
  6
CONTINUOUS
 62
   18
 10
214.79134421197617
 20
171.93105691288667
 11
209.79134421197617
 21
171.93105691288667
  0
CIRCLE
  8
_1-4_1-4___
  6
CONTINUOUS
 62
   18
 10
212.95474699393847
 20
190.71211769028793
 40
1.2
  0
LINE
  8
_1-4_1-4___
  6
CONTINUOUS
 62
   18
 10
212.95474699393847
 20
185.71211769028793
 11
212.95474699393847
 21
183.71211769028793
  0
LINE
  8
_1-4_1-4___
  6
CONTINUOUS
 62
   18
 10
217.95474699393847
 20
185.71211769028793
 11
212.95474699393847
 21
185.71211769028793
  0
LINE
  8
_1-4_1-4___
  6
CONTINUOUS
 62
   18
 10
217.95474699393847
 20
190.71211769028793
 11
217.95474699393847
 21
185.71211769028793
  0
LINE
  8
_1-4_1-4___
  6
CONTINUOUS
 62
   18
 10
217.95474699393847
 20
190.71211769028793
 11
219.95474699393847
 21
190.71211769028793
  0
LINE
  8
_1-4_1-4___
  6
CONTINUOUS
 62
   18
 10
208.45474699393847
 20
183.71211769028793
 11
212.95474699393847
 21
183.71211769028793
  0
LINE
  8
_1-4_1-4___
  6
CONTINUOUS
 62
   18
 10
208.45474699393847
 20
185.71211769028793
 11
208.45474699393847
 21
183.71211769028793
  0
LINE
  8
_1-4_1-4___
  6
CONTINUOUS
 62
   18
 10
208.45474699393847
 20
185.71211769028793
 11
206.95474699393847
 21
185.71211769028793
  0
LINE
  8
_1-4_1-4___
  6
CONTINUOUS
 62
   18
 10
217.95474699393847
 20
195.21211769028793
 11
219.95474699393847
 21
195.21211769028793
  0
LINE
  8
_1-4_1-4___
  6
CONTINUOUS
 62
   18
 10
219.95474699393847
 20
190.71211769028793
 11
219.95474699393847
 21
195.21211769028793
  0
LINE
  8
_1-4_1-4___
  6
CONTINUOUS
 62
   18
 10
217.95474699393847
 20
195.21211769028793
 11
217.95474699393847
 21
196.71211769028793
  0
ARC
  8
_1-4_1-4___
  6
CONTINUOUS
 62
   18
 10
212.95474699393847
 20
190.71211769028793
 40
6
 50
90
 51
180
  0
LINE
  8
_1-4_1-4___
  6
CONTINUOUS
 62
   18
 10
206.95474699393847
 20
190.71211769028793
 11
206.95474699393847
 21
185.71211769028793
  0
LINE
  8
_1-4_1-4___
  6
CONTINUOUS
 62
   18
 10
212.95474699393847
 20
196.71211769028793
 11
217.95474699393847
 21
196.71211769028793
  0
CIRCLE
  8
_1-4_1-4___
  6
CONTINUOUS
 62
   18
 10
212.96610148004663
 20
165.23827020124065
 40
1.2
  0
LINE
  8
_1-4_1-4___
  6
CONTINUOUS
 62
   18
 10
212.96610148004663
 20
160.23827020124065
 11
212.96610148004663
 21
158.23827020124065
  0
LINE
  8
_1-4_1-4___
  6
CONTINUOUS
 62
   18
 10
217.96610148004663
 20
160.23827020124065
 11
212.96610148004663
 21
160.23827020124065
  0
LINE
  8
_1-4_1-4___
  6
CONTINUOUS
 62
   18
 10
217.96610148004663
 20
165.23827020124065
 11
217.96610148004663
 21
160.23827020124065
  0
LINE
  8
_1-4_1-4___
  6
CONTINUOUS
 62
   18
 10
217.96610148004663
 20
165.23827020124065
 11
219.96610148004663
 21
165.23827020124065
  0
LINE
  8
_1-4_1-4___
  6
CONTINUOUS
 62
   18
 10
208.46610148004663
 20
158.23827020124065
 11
212.96610148004663
 21
158.23827020124065
  0
LINE
  8
_1-4_1-4___
  6
CONTINUOUS
 62
   18
 10
208.46610148004663
 20
160.23827020124065
 11
208.46610148004663
 21
158.23827020124065
  0
LINE
  8
_1-4_1-4___
  6
CONTINUOUS
 62
   18
 10
208.46610148004663
 20
160.23827020124065
 11
206.96610148004663
 21
160.23827020124065
  0
LINE
  8
_1-4_1-4___
  6
CONTINUOUS
 62
   18
 10
217.96610148004663
 20
169.73827020124065
 11
219.96610148004663
 21
169.73827020124065
  0
LINE
  8
_1-4_1-4___
  6
CONTINUOUS
 62
   18
 10
219.96610148004663
 20
165.23827020124065
 11
219.96610148004663
 21
169.73827020124065
  0
LINE
  8
_1-4_1-4___
  6
CONTINUOUS
 62
   18
 10
217.96610148004663
 20
169.73827020124065
 11
217.96610148004663
 21
171.23827020124065
  0
ARC
  8
_1-4_1-4___
  6
CONTINUOUS
 62
   18
 10
212.96610148004663
 20
165.23827020124065
 40
6
 50
90
 51
180
  0
LINE
  8
_1-4_1-4___
  6
CONTINUOUS
 62
   18
 10
206.96610148004663
 20
165.23827020124065
 11
206.96610148004663
 21
160.23827020124065
  0
LINE
  8
_1-4_1-4___
  6
CONTINUOUS
 62
   18
 10
212.96610148004663
 20
171.23827020124065
 11
217.96610148004663
 21
171.23827020124065
  0
LINE
  8
_1-4_1-4___
  6
CONTINUOUS
 62
   18
 10
205.09481716382322
 20
132.99588138716399
 11
205.09481716382322
 21
121.59588176863372
  0
LINE
  8
_1-4_1-4___
  6
CONTINUOUS
 62
   18
 10
229.59481716382322
 20
132.99588138716399
 11
229.59481716382322
 21
112.1958811487454
  0
LINE
  8
_1-4_1-4___
  6
CONTINUOUS
 62
   18
 10
229.59481716382322
 20
112.1958811487454
 11
223.19015378064418
 21
100.17463832716004
  0
LINE
  8
_1-4_1-4___
  6
CONTINUOUS
 62
   18
 10
205.09481716382322
 20
112.1958811487454
 11
212.80211983585272
 21
99.823432445806475
  0
ARC
  8
_1-4_1-4___
  6
CONTINUOUS
 62
   18
 10
217.89481735455809
 20
102.99588133948029
 40
6
 50
211.92046122803865
 51
331.95225485643152
  0
LINE
  8
_1-4_1-4___
  6
CONTINUOUS
 62
   18
 10
205.09481716382322
 20
117.99588138716399
 11
205.09481716382322
 21
112.1958811487454
  0
LINE
  8
_1-4_1-4___
  6
CONTINUOUS
 62
   18
 10
213.89481735455809
 20
132.99588138716399
 11
213.89481735455809
 21
134.99588138716399
  0
LINE
  8
_1-4_1-4___
  6
CONTINUOUS
 62
   18
 10
213.89481735455809
 20
134.99588138716399
 11
217.89481735455809
 21
134.99588138716399
  0
LINE
  8
_1-4_1-4___
  6
CONTINUOUS
 62
   18
 10
217.89481735455809
 20
134.99588138716399
 11
217.89481735455809
 21
132.99588138716399
  0
LINE
  8
_1-4_1-4___
  6
CONTINUOUS
 62
   18
 10
229.59481716382322
 20
132.99588138716399
 11
217.89481735455809
 21
132.99588138716399
  0
LINE
  8
_1-4_1-4___
  6
CONTINUOUS
 62
   18
 10
213.89481735455809
 20
132.99588138716399
 11
205.09481716382322
 21
132.99588138716399
  0
LINE
  8
_1-4_1-4___
  6
CONTINUOUS
 62
   18
 10
219.49481735455808
 20
105.54588133948027
 11
216.29481735455809
 21
105.54588133948027
  0
LINE
  8
_1-4_1-4___
  6
CONTINUOUS
 62
   18
 10
216.29481735455809
 20
105.54588133948027
 11
216.29481735455809
 21
100.44588133948028
  0
LINE
  8
_1-4_1-4___
  6
CONTINUOUS
 62
   18
 10
216.29481735455809
 20
100.44588133948028
 11
219.49481735455808
 21
100.44588133948028
  0
LINE
  8
_1-4_1-4___
  6
CONTINUOUS
 62
   18
 10
219.49481735455808
 20
100.44588133948028
 11
219.49481735455808
 21
105.54588133948027
  0
LINE
  8
_1-4_1-4___
  6
CONTINUOUS
 62
   18
 10
205.59481716382322
 20
121.59588176863372
 11
205.09481716382322
 21
121.59588176863372
  0
LINE
  8
_1-4_1-4___
  6
CONTINUOUS
 62
   18
 10
205.59481716382322
 20
121.59588176863372
 11
205.59481716382322
 21
117.99588138716399
  0
LINE
  8
_1-4_1-4___
  6
CONTINUOUS
 62
   18
 10
205.59481716382322
 20
117.99588138716399
 11
205.09481716382322
 21
117.99588138716399
  0
LINE
  8
_1-4_1-4___
  6
CONTINUOUS
 62
   18
 10
224.59481716382322
 20
119.1958811487454
 11
224.59481716382322
 21
114.1958811487454
  0
LINE
  8
_1-4_1-4___
  6
CONTINUOUS
 62
   18
 10
226.79481716382321
 20
119.1958811487454
 11
224.59481716382322
 21
119.1958811487454
  0
LINE
  8
_1-4_1-4___
  6
CONTINUOUS
 62
   18
 10
224.59481716382322
 20
114.1958811487454
 11
226.79481716382321
 21
114.1958811487454
  0
LINE
  8
_1-4_1-4___
  6
CONTINUOUS
 62
   18
 10
226.79481716382321
 20
114.1958811487454
 11
226.79481716382321
 21
119.1958811487454
  0
LINE
  8
_1-4_1-4___
  6
CONTINUOUS
 62
   18
 10
210.09481716382322
 20
114.1958811487454
 11
210.09481716382322
 21
119.1958811487454
  0
LINE
  8
_1-4_1-4___
  6
CONTINUOUS
 62
   18
 10
207.89481716382323
 20
114.1958811487454
 11
210.09481716382322
 21
114.1958811487454
  0
LINE
  8
_1-4_1-4___
  6
CONTINUOUS
 62
   18
 10
210.09481716382322
 20
119.1958811487454
 11
207.89481716382323
 21
119.1958811487454
  0
LINE
  8
_1-4_1-4___
  6
CONTINUOUS
 62
   18
 10
207.89481716382323
 20
119.1958811487454
 11
207.89481716382323
 21
114.1958811487454
  0
LINE
  8
_1-4_1-4___
  6
CONTINUOUS
 62
   18
 10
177.64666093322242
 20
130.2839249394367
 11
177.64666093322242
 21
132.2839249394367
  0
LINE
  8
_1-4_1-4___
  6
CONTINUOUS
 62
   18
 10
177.64666093322242
 20
132.2839249394367
 11
187.64666093322242
 21
132.2839249394367
  0
LINE
  8
_1-4_1-4___
  6
CONTINUOUS
 62
   18
 10
187.64666093322242
 20
132.2839249394367
 11
187.64666093322242
 21
130.2839249394367
  0
LINE
  8
_1-4_1-4___
  6
CONTINUOUS
 62
   18
 10
180.14666093322242
 20
128.2839249394367
 11
180.14666093322242
 21
130.2839249394367
  0
LINE
  8
_1-4_1-4___
  6
CONTINUOUS
 62
   18
 10
185.14666093322242
 20
128.2839249394367
 11
180.14666093322242
 21
128.2839249394367
  0
LINE
  8
_1-4_1-4___
  6
CONTINUOUS
 62
   18
 10
187.64666093322242
 20
130.2839249394367
 11
185.14666093322242
 21
130.2839249394367
  0
LINE
  8
_1-4_1-4___
  6
CONTINUOUS
 62
   18
 10
185.14666093322242
 20
130.2839249394367
 11
185.14666093322242
 21
128.2839249394367
  0
LINE
  8
_1-4_1-4___
  6
CONTINUOUS
 62
   18
 10
180.14666093322242
 20
130.2839249394367
 11
177.64666093322242
 21
130.2839249394367
  0
LINE
  8
_1-4_1-4___
  6
CONTINUOUS
 62
   18
 10
192.64666093322242
 20
130.2839249394367
 11
192.64666093322242
 21
132.2839249394367
  0
LINE
  8
_1-4_1-4___
  6
CONTINUOUS
 62
   18
 10
192.64666093322242
 20
132.2839249394367
 11
202.64666093322242
 21
132.2839249394367
  0
LINE
  8
_1-4_1-4___
  6
CONTINUOUS
 62
   18
 10
202.64666093322242
 20
132.2839249394367
 11
202.64666093322242
 21
130.2839249394367
  0
LINE
  8
_1-4_1-4___
  6
CONTINUOUS
 62
   18
 10
195.14666093322242
 20
128.2839249394367
 11
195.14666093322242
 21
130.2839249394367
  0
LINE
  8
_1-4_1-4___
  6
CONTINUOUS
 62
   18
 10
200.14666093322242
 20
128.2839249394367
 11
195.14666093322242
 21
128.2839249394367
  0
LINE
  8
_1-4_1-4___
  6
CONTINUOUS
 62
   18
 10
202.64666093322242
 20
130.2839249394367
 11
200.14666093322242
 21
130.2839249394367
  0
LINE
  8
_1-4_1-4___
  6
CONTINUOUS
 62
   18
 10
200.14666093322242
 20
130.2839249394367
 11
200.14666093322242
 21
128.2839249394367
  0
LINE
  8
_1-4_1-4___
  6
CONTINUOUS
 62
   18
 10
195.14666093322242
 20
130.2839249394367
 11
192.64666093322242
 21
130.2839249394367
  0
LINE
  8
_1-4_1-4___
  6
CONTINUOUS
 62
   18
 10
239.2563721304189
 20
122.52702964589997
 11
236.2563721304189
 21
122.52702964589997
  0
LINE
  8
_1-4_1-4___
  6
CONTINUOUS
 62
   18
 10
234.2563721304189
 20
116.52702964589997
 11
234.2563721304189
 21
120.52702964589997
  0
LINE
  8
_1-4_1-4___
  6
CONTINUOUS
 62
   18
 10
236.2563721304189
 20
120.52702964589997
 11
234.2563721304189
 21
120.52702964589997
  0
LINE
  8
_1-4_1-4___
  6
CONTINUOUS
 62
   18
 10
236.2563721304189
 20
122.52702964589997
 11
236.2563721304189
 21
120.52702964589997
  0
LINE
  8
_1-4_1-4___
  6
CONTINUOUS
 62
   18
 10
246.2563721304189
 20
122.52702964589997
 11
249.2563721304189
 21
122.52702964589997
  0
LINE
  8
_1-4_1-4___
  6
CONTINUOUS
 62
   18
 10
236.2563721304189
 20
116.52702964589997
 11
234.2563721304189
 21
116.52702964589997
  0
LINE
  8
_1-4_1-4___
  6
CONTINUOUS
 62
   18
 10
246.2563721304189
 20
120.52702964589997
 11
246.2563721304189
 21
122.52702964589997
  0
LINE
  8
_1-4_1-4___
  6
CONTINUOUS
 62
   18
 10
246.2563721304189
 20
120.52702964589997
 11
239.2563721304189
 21
120.52702964589997
  0
LINE
  8
_1-4_1-4___
  6
CONTINUOUS
 62
   18
 10
239.2563721304189
 20
120.52702964589997
 11
239.2563721304189
 21
122.52702964589997
  0
LINE
  8
_1-4_1-4___
  6
CONTINUOUS
 62
   18
 10
236.2563721304189
 20
108.1270300273697
 11
236.2563721304189
 21
116.52702964589997
  0
LINE
  8
_1-4_1-4___
  6
CONTINUOUS
 62
   18
 10
253.45637213041888
 20
120.52702964589997
 11
253.45637213041888
 21
108.1270300273697
  0
LINE
  8
_1-4_1-4___
  6
CONTINUOUS
 62
   18
 10
253.45637213041888
 20
108.1270300273697
 11
236.2563721304189
 21
108.1270300273697
  0
LINE
  8
_1-4_1-4___
  6
CONTINUOUS
 62
   18
 10
253.45637213041888
 20
120.52702964589997
 11
249.2563721304189
 21
120.52702964589997
  0
LINE
  8
_1-4_1-4___
  6
CONTINUOUS
 62
   18
 10
249.2563721304189
 20
122.52702964589997
 11
249.2563721304189
 21
120.52702964589997
  0
LINE
  8
_1-4_1-4___
  6
CONTINUOUS
 62
   18
 10
238.98486133047561
 20
138.76396295850333
 11
235.98486133047561
 21
138.76396295850333
  0
LINE
  8
_1-4_1-4___
  6
CONTINUOUS
 62
   18
 10
233.98486133047561
 20
132.76396295850333
 11
233.98486133047561
 21
136.76396295850333
  0
LINE
  8
_1-4_1-4___
  6
CONTINUOUS
 62
   18
 10
235.98486133047561
 20
136.76396295850333
 11
233.98486133047561
 21
136.76396295850333
  0
LINE
  8
_1-4_1-4___
  6
CONTINUOUS
 62
   18
 10
235.98486133047561
 20
138.76396295850333
 11
235.98486133047561
 21
136.76396295850333
  0
LINE
  8
_1-4_1-4___
  6
CONTINUOUS
 62
   18
 10
245.98486133047561
 20
138.76396295850333
 11
248.98486133047561
 21
138.76396295850333
  0
LINE
  8
_1-4_1-4___
  6
CONTINUOUS
 62
   18
 10
235.98486133047561
 20
132.76396295850333
 11
233.98486133047561
 21
132.76396295850333
  0
LINE
  8
_1-4_1-4___
  6
CONTINUOUS
 62
   18
 10
245.98486133047561
 20
136.76396295850333
 11
245.98486133047561
 21
138.76396295850333
  0
LINE
  8
_1-4_1-4___
  6
CONTINUOUS
 62
   18
 10
245.98486133047561
 20
136.76396295850333
 11
238.98486133047561
 21
136.76396295850333
  0
LINE
  8
_1-4_1-4___
  6
CONTINUOUS
 62
   18
 10
238.98486133047561
 20
136.76396295850333
 11
238.98486133047561
 21
138.76396295850333
  0
LINE
  8
_1-4_1-4___
  6
CONTINUOUS
 62
   18
 10
235.98486133047561
 20
124.36396333997304
 11
235.98486133047561
 21
132.76396295850333
  0
LINE
  8
_1-4_1-4___
  6
CONTINUOUS
 62
   18
 10
253.1848613304756
 20
136.76396295850333
 11
253.1848613304756
 21
124.36396333997304
  0
LINE
  8
_1-4_1-4___
  6
CONTINUOUS
 62
   18
 10
253.1848613304756
 20
124.36396333997304
 11
235.98486133047561
 21
124.36396333997304
  0
LINE
  8
_1-4_1-4___
  6
CONTINUOUS
 62
   18
 10
253.1848613304756
 20
136.76396295850333
 11
248.98486133047561
 21
136.76396295850333
  0
LINE
  8
_1-4_1-4___
  6
CONTINUOUS
 62
   18
 10
248.98486133047561
 20
138.76396295850333
 11
248.98486133047561
 21
136.76396295850333
  0
ARC
  8
_1-4_1-4___
  6
CONTINUOUS
 62
   18
 10
249.66766873330698
 20
149.14560788725947
 40
5
 50
270
 51
0
  0
LINE
  8
_1-4_1-4___
  6
CONTINUOUS
 62
   18
 10
249.66766873330698
 20
144.14560788725947
 11
242.16766873330698
 21
144.14560788725947
  0
LINE
  8
_1-4_1-4___
  6
CONTINUOUS
 62
   18
 10
254.66766873330698
 20
149.14560788725947
 11
254.66766873330698
 21
152.94560812567801
  0
LINE
  8
_1-4_1-4___
  6
CONTINUOUS
 62
   18
 10
242.16766873330698
 20
140.54560850714773
 11
223.16766873330698
 21
140.54560850714773
  0
LINE
  8
_1-4_1-4___
  6
CONTINUOUS
 62
   18
 10
234.66766873330698
 20
154.94560812567801
 11
230.66766873330698
 21
154.94560812567801
  0
LINE
  8
_1-4_1-4___
  6
CONTINUOUS
 62
   18
 10
230.66766873330698
 20
152.94560812567801
 11
230.66766873330698
 21
154.94560812567801
  0
LINE
  8
_1-4_1-4___
  6
CONTINUOUS
 62
   18
 10
234.66766873330698
 20
152.94560812567801
 11
234.66766873330698
 21
154.94560812567801
  0
LINE
  8
_1-4_1-4___
  6
CONTINUOUS
 62
   18
 10
223.16766873330698
 20
140.54560850714773
 11
223.16766873330698
 21
148.94560812567801
  0
LINE
  8
_1-4_1-4___
  6
CONTINUOUS
 62
   18
 10
242.16766873330698
 20
144.14560788725947
 11
242.16766873330698
 21
140.54560850714773
  0
LINE
  8
_1-4_1-4___
  6
CONTINUOUS
 62
   18
 10
254.66766873330698
 20
152.94560812567801
 11
242.267668733307
 21
152.94560812567801
  0
LINE
  8
_1-4_1-4___
  6
CONTINUOUS
 62
   18
 10
242.267668733307
 20
152.94560812567801
 11
242.267668733307
 21
148.94560812567801
  0
LINE
  8
_1-4_1-4___
  6
CONTINUOUS
 62
   18
 10
230.66766873330698
 20
152.94560812567801
 11
225.267668733307
 21
152.94560812567801
  0
LINE
  8
_1-4_1-4___
  6
CONTINUOUS
 62
   18
 10
223.16766873330698
 20
148.94560812567801
 11
225.267668733307
 21
148.94560812567801
  0
LINE
  8
_1-4_1-4___
  6
CONTINUOUS
 62
   18
 10
225.267668733307
 20
152.94560812567801
 11
225.267668733307
 21
148.94560812567801
  0
LINE
  8
_1-4_1-4___
  6
CONTINUOUS
 62
   18
 10
234.66766873330698
 20
152.94560812567801
 11
240.06766873330702
 21
152.94560812567801
  0
LINE
  8
_1-4_1-4___
  6
CONTINUOUS
 62
   18
 10
242.267668733307
 20
148.94560812567801
 11
240.06766873330702
 21
148.94560812567801
  0
LINE
  8
_1-4_1-4___
  6
CONTINUOUS
 62
   18
 10
240.06766873330702
 20
148.94560812567801
 11
240.06766873330702
 21
152.94560812567801
  0
LINE
  8
_1-4_1-4___
  6
CONTINUOUS
 62
   18
 10
241.82896066712956
 20
102.04013763812702
 11
241.82896066712956
 21
102.24013763812701
  0
LINE
  8
_1-4_1-4___
  6
CONTINUOUS
 62
   18
 10
239.82896066712956
 20
102.04013763812702
 11
241.82896066712956
 21
102.04013763812702
  0
LINE
  8
_1-4_1-4___
  6
CONTINUOUS
 62
   18
 10
241.32896066712956
 20
99.640137638127015
 11
241.32896066712956
 21
100.64013763812702
  0
LINE
  8
_1-4_1-4___
  6
CONTINUOUS
 62
   18
 10
252.82896066712956
 20
96.340137638127004
 11
238.82896066712956
 21
96.340137638127004
  0
LINE
  8
_1-4_1-4___
  6
CONTINUOUS
 62
   18
 10
238.82896066712956
 20
106.340137638127
 11
252.82896066712956
 21
106.340137638127
  0
LINE
  8
_1-4_1-4___
  6
CONTINUOUS
 62
   18
 10
252.82896066712956
 20
106.340137638127
 11
252.82896066712956
 21
96.340137638127004
  0
ARC
  8
_1-4_1-4___
  6
CONTINUOUS
 62
   18
 10
240.82896066712956
 20
102.04013763812702
 40
0.2
 50
0
 51
180
  0
LINE
  8
_1-4_1-4___
  6
CONTINUOUS
 62
   18
 10
238.82896066712956
 20
103.04013763812702
 11
238.82896066712956
 21
106.340137638127
  0
ARC
  8
_1-4_1-4___
  6
CONTINUOUS
 62
   18
 10
239.82896066712956
 20
103.04013763812702
 40
1
 50
180
 51
270
  0
LINE
  8
_1-4_1-4___
  6
CONTINUOUS
 62
   18
 10
238.82896066712956
 20
99.640137638127015
 11
238.82896066712956
 21
96.340137638127004
  0
ARC
  8
_1-4_1-4___
  6
CONTINUOUS
 62
   18
 10
239.82896066712956
 20
99.640137638127015
 40
1
 50
90
 51
180
  0
ARC
  8
_1-4_1-4___
  6
CONTINUOUS
 62
   18
 10
240.82896066712956
 20
99.640137638127015
 40
0.5
 50
270
 51
0
  0
LINE
  8
_1-4_1-4___
  6
CONTINUOUS
 62
   18
 10
240.32896066712956
 20
99.640137638127015
 11
240.32896066712956
 21
100.64013763812702
  0
ARC
  8
_1-4_1-4___
  6
CONTINUOUS
 62
   18
 10
240.82896066712956
 20
99.640137638127015
 40
0.5
 50
180
 51
270
  0
LINE
  8
_1-4_1-4___
  6
CONTINUOUS
 62
   18
 10
245.82896066712956
 20
100.64013763812702
 11
241.32896066712956
 21
100.64013763812702
  0
LINE
  8
_1-4_1-4___
  6
CONTINUOUS
 62
   18
 10
240.32896066712956
 20
100.64013763812702
 11
239.82896066712956
 21
100.64013763812702
  0
LINE
  8
_1-4_1-4___
  6
CONTINUOUS
 62
   18
 10
241.82896066712956
 20
102.24013763812701
 11
245.82896066712956
 21
102.24013763812701
  0
LINE
  8
_1-4_1-4___
  6
CONTINUOUS
 62
   18
 10
245.82896066712956
 20
100.64013763812702
 11
245.82896066712956
 21
102.24013763812701
  0
LINE
  8
_1-4_1-4___
  6
CONTINUOUS
 62
   18
 10
237.08209090513864
 20
194.1311447029953
 11
235.58209090513864
 21
194.1311447029953
  0
LINE
  8
_1-4_1-4___
  6
CONTINUOUS
 62
   18
 10
232.58209090513864
 20
194.1311447029953
 11
231.08209090513864
 21
194.1311447029953
  0
LINE
  8
_1-4_1-4___
  6
CONTINUOUS
 62
   18
 10
235.58209090513864
 20
196.1311447029953
 11
232.58209090513864
 21
196.1311447029953
  0
LINE
  8
_1-4_1-4___
  6
CONTINUOUS
 62
   18
 10
235.58209090513864
 20
196.1311447029953
 11
235.58209090513864
 21
194.1311447029953
  0
LINE
  8
_1-4_1-4___
  6
CONTINUOUS
 62
   18
 10
232.58209090513864
 20
196.1311447029953
 11
232.58209090513864
 21
194.1311447029953
  0
LINE
  8
_1-4_1-4___
  6
CONTINUOUS
 62
   18
 10
249.08209090513864
 20
193.1311447029953
 11
249.08209090513864
 21
194.1311447029953
  0
LINE
  8
_1-4_1-4___
  6
CONTINUOUS
 62
   18
 10
247.58209090513864
 20
196.1311447029953
 11
247.58209090513864
 21
194.1311447029953
  0
LINE
  8
_1-4_1-4___
  6
CONTINUOUS
 62
   18
 10
247.58209090513864
 20
196.1311447029953
 11
244.58209090513864
 21
196.1311447029953
  0
LINE
  8
_1-4_1-4___
  6
CONTINUOUS
 62
   18
 10
244.58209090513864
 20
194.1311447029953
 11
243.08209090513864
 21
194.1311447029953
  0
LINE
  8
_1-4_1-4___
  6
CONTINUOUS
 62
   18
 10
244.58209090513864
 20
196.1311447029953
 11
244.58209090513864
 21
194.1311447029953
  0
LINE
  8
_1-4_1-4___
  6
CONTINUOUS
 62
   18
 10
249.08209090513864
 20
194.1311447029953
 11
247.58209090513864
 21
194.1311447029953
  0
LINE
  8
_1-4_1-4___
  6
CONTINUOUS
 62
   18
 10
243.08209090513864
 20
193.43114470299531
 11
243.08209090513864
 21
194.1311447029953
  0
ARC
  8
_1-4_1-4___
  6
CONTINUOUS
 62
   18
 10
246.08209090513864
 20
190.1311447029953
 40
0.5
 50
4.7801918471989051
 51
175.21980815280111
  0
ARC
  8
_1-4_1-4___
  6
CONTINUOUS
 62
   18
 10
246.08209090513864
 20
193.1311447029953
 40
3
 50
279.56038369439847
 51
0
  0
ARC
  8
_1-4_1-4___
  6
CONTINUOUS
 62
   18
 10
234.08209090513864
 20
191.6311447029953
 40
3
 50
180
 51
0
  0
ARC
  8
_1-4_1-4___
  6
CONTINUOUS
 62
   18
 10
232.88209090513865
 20
191.6311447029953
 40
0.4
 50
90
 51
270
  0
LINE
  8
_1-4_1-4___
  6
CONTINUOUS
 62
   18
 10
235.28209090513863
 20
192.03114470299531
 11
232.88209090513865
 21
192.03114470299531
  0
LINE
  8
_1-4_1-4___
  6
CONTINUOUS
 62
   18
 10
232.88209090513865
 20
191.23114470299529
 11
235.28209090513863
 21
191.23114470299529
  0
ARC
  8
_1-4_1-4___
  6
CONTINUOUS
 62
   18
 10
235.28209090513863
 20
191.6311447029953
 40
0.4
 50
270
 51
90
  0
LINE
  8
_1-4_1-4___
  6
CONTINUOUS
 62
   18
 10
237.08209090513864
 20
191.6311447029953
 11
237.08209090513864
 21
194.1311447029953
  0
LINE
  8
_1-4_1-4___
  6
CONTINUOUS
 62
   18
 10
231.08209090513864
 20
191.6311447029953
 11
231.08209090513864
 21
194.1311447029953
  0
LINE
  8
_1-4_1-4___
  6
CONTINUOUS
 62
   18
 10
254.31840152438946
 20
191.3302571634301
 11
254.31840152438946
 21
193.43025716343013
  0
LINE
  8
_1-4_1-4___
  6
CONTINUOUS
 62
   18
 10
228.31840152438943
 20
172.88025716343012
 11
230.31840152438943
 21
173.88025716343012
  0
LINE
  8
_1-4_1-4___
  6
CONTINUOUS
 62
   18
 10
228.31840152438943
 20
161.88025716343012
 11
230.31840152438943
 21
160.88025716343012
  0
LINE
  8
_1-4_1-4___
  6
CONTINUOUS
 62
   18
 10
254.31840152438946
 20
166.3302571634301
 11
254.31840152438946
 21
168.43025716343013
  0
ARC
  8
_1-4_1-4___
  6
CONTINUOUS
 62
   18
 10
256.31840152438946
 20
176.88025716343012
 40
1
 50
0
 51
90
  0
LINE
  8
_1-4_1-4___
  6
CONTINUOUS
 62
   18
 10
257.31840152438946
 20
157.88025716343012
 11
257.31840152438946
 21
176.88025716343012
  0
ARC
  8
_1-4_1-4___
  6
CONTINUOUS
 62
   18
 10
256.31840152438946
 20
157.88025716343012
 40
1
 50
270
 51
0
  0
LINE
  8
_1-4_1-4___
  6
CONTINUOUS
 62
   18
 10
230.31840152438943
 20
173.88025716343012
 11
251.31840152438946
 21
173.88025716343012
  0
LINE
  8
_1-4_1-4___
  6
CONTINUOUS
 62
   18
 10
251.31840152438946
 20
160.88025716343012
 11
230.31840152438943
 21
160.88025716343012
  0
LINE
  8
_1-4_1-4___
  6
CONTINUOUS
 62
   18
 10
225.42397433338951
 20
174.32747075893008
 11
228.31840152438943
 21
172.88025716343012
  0
ARC
  8
_1-4_1-4___
  6
CONTINUOUS
 62
   18
 10
226.31840152438943
 20
176.11632514092989
 40
2
 50
179.99999999999994
 51
243.43494882292197
  0
LINE
  8
_1-4_1-4___
  6
CONTINUOUS
 62
   18
 10
225.42397433338951
 20
160.43304356793016
 11
228.31840152438943
 21
161.88025716343012
  0
ARC
  8
_1-4_1-4___
  6
CONTINUOUS
 62
   18
 10
226.31840152438943
 20
158.64418918593032
 40
2
 50
116.56505117707799
 51
180
  0
LINE
  8
_1-4_1-4___
  6
CONTINUOUS
 62
   18
 10
224.31840152438943
 20
176.88025716343012
 11
224.31840152438943
 21
176.11632514092989
  0
LINE
  8
_1-4_1-4___
  6
CONTINUOUS
 62
   18
 10
225.31840152438943
 20
177.88025716343012
 11
256.31840152438946
 21
177.88025716343012
  0
ARC
  8
_1-4_1-4___
  6
CONTINUOUS
 62
   18
 10
225.31840152438943
 20
176.88025716343012
 40
1
 50
90
 51
180
  0
LINE
  8
_1-4_1-4___
  6
CONTINUOUS
 62
   18
 10
224.31840152438943
 20
157.88025716343012
 11
224.31840152438943
 21
158.64418918593032
  0
LINE
  8
_1-4_1-4___
  6
CONTINUOUS
 62
   18
 10
225.31840152438943
 20
156.88025716343012
 11
256.31840152438946
 21
156.88025716343012
  0
ARC
  8
_1-4_1-4___
  6
CONTINUOUS
 62
   18
 10
225.31840152438943
 20
157.88025716343012
 40
1
 50
180
 51
270
  0
LINE
  8
_1-4_1-4___
  6
CONTINUOUS
 62
   18
 10
228.31840152438943
 20
197.88025716343012
 11
230.31840152438943
 21
198.88025716343012
  0
LINE
  8
_1-4_1-4___
  6
CONTINUOUS
 62
   18
 10
228.31840152438943
 20
186.88025716343012
 11
230.31840152438943
 21
185.88025716343012
  0
ARC
  8
_1-4_1-4___
  6
CONTINUOUS
 62
   18
 10
256.31840152438946
 20
201.88025716343012
 40
1
 50
0
 51
90
  0
LINE
  8
_1-4_1-4___
  6
CONTINUOUS
 62
   18
 10
257.31840152438946
 20
182.88025716343012
 11
257.31840152438946
 21
201.88025716343012
  0
ARC
  8
_1-4_1-4___
  6
CONTINUOUS
 62
   18
 10
256.31840152438946
 20
182.88025716343012
 40
1
 50
270
 51
0
  0
LINE
  8
_1-4_1-4___
  6
CONTINUOUS
 62
   18
 10
230.31840152438943
 20
198.88025716343012
 11
251.31840152438946
 21
198.88025716343012
  0
LINE
  8
_1-4_1-4___
  6
CONTINUOUS
 62
   18
 10
251.31840152438946
 20
185.88025716343012
 11
230.31840152438943
 21
185.88025716343012
  0
LINE
  8
_1-4_1-4___
  6
CONTINUOUS
 62
   18
 10
225.42397433338951
 20
199.32747075893008
 11
228.31840152438943
 21
197.88025716343012
  0
ARC
  8
_1-4_1-4___
  6
CONTINUOUS
 62
   18
 10
226.31840152438943
 20
201.11632514092989
 40
2
 50
179.99999999999994
 51
243.43494882292197
  0
LINE
  8
_1-4_1-4___
  6
CONTINUOUS
 62
   18
 10
225.42397433338951
 20
185.43304356793016
 11
228.31840152438943
 21
186.88025716343012
  0
ARC
  8
_1-4_1-4___
  6
CONTINUOUS
 62
   18
 10
226.31840152438943
 20
183.64418918593032
 40
2
 50
116.56505117707799
 51
180
  0
LINE
  8
_1-4_1-4___
  6
CONTINUOUS
 62
   18
 10
224.31840152438943
 20
201.88025716343012
 11
224.31840152438943
 21
201.11632514092989
  0
LINE
  8
_1-4_1-4___
  6
CONTINUOUS
 62
   18
 10
225.31840152438943
 20
202.88025716343012
 11
256.31840152438946
 21
202.88025716343012
  0
ARC
  8
_1-4_1-4___
  6
CONTINUOUS
 62
   18
 10
225.31840152438943
 20
201.88025716343012
 40
1
 50
90
 51
180
  0
LINE
  8
_1-4_1-4___
  6
CONTINUOUS
 62
   18
 10
224.31840152438943
 20
182.88025716343012
 11
224.31840152438943
 21
183.64418918593032
  0
LINE
  8
_1-4_1-4___
  6
CONTINUOUS
 62
   18
 10
225.31840152438943
 20
181.88025716343012
 11
256.31840152438946
 21
181.88025716343012
  0
ARC
  8
_1-4_1-4___
  6
CONTINUOUS
 62
   18
 10
225.31840152438943
 20
182.88025716343012
 40
1
 50
180
 51
270
  0
LINE
  8
_1-4_1-4___
  6
CONTINUOUS
 62
   18
 10
254.31840152438946
 20
191.28025716343012
 11
254.31840152438946
 21
193.48025716343011
  0
LINE
  8
_1-4_1-4___
  6
CONTINUOUS
 62
   18
 10
254.31840152438946
 20
166.28025716343012
 11
254.31840152438946
 21
168.48025716343011
  0
LINE
  8
_1-4_1-4___
  6
CONTINUOUS
 62
   18
 10
254.31840152438946
 20
191.28025716343012
 11
251.31840152438946
 21
191.28025716343012
  0
LINE
  8
_1-4_1-4___
  6
CONTINUOUS
 62
   18
 10
254.31840152438946
 20
193.48025716343011
 11
251.31840152438946
 21
193.48025716343011
  0
LINE
  8
_1-4_1-4___
  6
CONTINUOUS
 62
   18
 10
251.31840152438946
 20
198.88025716343012
 11
251.31840152438946
 21
193.48025716343011
  0
LINE
  8
_1-4_1-4___
  6
CONTINUOUS
 62
   18
 10
251.31840152438946
 20
191.28025716343012
 11
251.31840152438946
 21
185.88025716343012
  0
LINE
  8
_1-4_1-4___
  6
CONTINUOUS
 62
   18
 10
254.31840152438946
 20
166.28025716343012
 11
251.31840152438946
 21
166.28025716343012
  0
LINE
  8
_1-4_1-4___
  6
CONTINUOUS
 62
   18
 10
254.31840152438946
 20
168.48025716343011
 11
251.31840152438946
 21
168.48025716343011
  0
LINE
  8
_1-4_1-4___
  6
CONTINUOUS
 62
   18
 10
251.31840152438946
 20
173.88025716343012
 11
251.31840152438946
 21
168.48025716343011
  0
LINE
  8
_1-4_1-4___
  6
CONTINUOUS
 62
   18
 10
251.31840152438946
 20
166.28025716343012
 11
251.31840152438946
 21
160.88025716343012
  0
LINE
  8
_1-4_1-4___
  6
CONTINUOUS
 62
   18
 10
205.6936780389828
 20
144.28876520827947
 11
205.6936780389828
 21
197.28876520827947
  0
LINE
  8
_1-4_1-4___
  6
CONTINUOUS
 62
   18
 10
202.6936780389828
 20
155.28876520827947
 11
202.6936780389828
 21
153.28876520827947
  0
LINE
  8
_1-4_1-4___
  6
CONTINUOUS
 62
   18
 10
202.6936780389828
 20
188.28876520827947
 11
202.6936780389828
 21
186.28876520827947
  0
ARC
  8
_1-4_1-4___
  6
CONTINUOUS
 62
   18
 10
200.6936780389828
 20
141.28876520827947
 40
1
 50
180
 51
270
  0
ARC
  8
_1-4_1-4___
  6
CONTINUOUS
 62
   18
 10
200.6936780389828
 20
200.28876520827947
 40
1
 50
90.000000000000014
 51
180
  0
LINE
  8
_1-4_1-4___
  6
CONTINUOUS
 62
   18
 10
200.6936780389828
 20
140.28876520827947
 11
215.69367803898282
 21
140.28876520827947
  0
LINE
  8
_1-4_1-4___
  6
CONTINUOUS
 62
   18
 10
200.6936780389828
 20
201.28876520827947
 11
215.69367803898282
 21
201.28876520827947
  0
LINE
  8
_1-4_1-4___
  6
CONTINUOUS
 62
   18
 10
215.69367803898282
 20
142.28876520827947
 11
215.69367803898282
 21
140.28876520827947
  0
LINE
  8
_1-4_1-4___
  6
CONTINUOUS
 62
   18
 10
213.6936780389828
 20
144.28876520827947
 11
205.6936780389828
 21
144.28876520827947
  0
ARC
  8
_1-4_1-4___
  6
CONTINUOUS
 62
   18
 10
213.6936780389828
 20
142.28876520827947
 40
2
 50
0
 51
90
  0
LINE
  8
_1-4_1-4___
  6
CONTINUOUS
 62
   18
 10
215.69367803898282
 20
199.28876520827947
 11
215.69367803898282
 21
201.28876520827947
  0
LINE
  8
_1-4_1-4___
  6
CONTINUOUS
 62
   18
 10
213.6936780389828
 20
197.28876520827947
 11
205.6936780389828
 21
197.28876520827947
  0
ARC
  8
_1-4_1-4___
  6
CONTINUOUS
 62
   18
 10
213.6936780389828
 20
199.28876520827947
 40
2
 50
270
 51
0
  0
LINE
  8
_1-4_1-4___
  6
CONTINUOUS
 62
   18
 10
202.6936780389828
 20
155.38876520827947
 11
202.6936780389828
 21
153.18876520827948
  0
LINE
  8
_1-4_1-4___
  6
CONTINUOUS
 62
   18
 10
202.6936780389828
 20
188.38876520827947
 11
202.6936780389828
 21
186.18876520827948
  0
LINE
  8
_1-4_1-4___
  6
CONTINUOUS
 62
   18
 10
202.6936780389828
 20
155.38876520827947
 11
199.6936780389828
 21
155.38876520827947
  0
LINE
  8
_1-4_1-4___
  6
CONTINUOUS
 62
   18
 10
202.6936780389828
 20
153.18876520827948
 11
199.6936780389828
 21
153.18876520827948
  0
LINE
  8
_1-4_1-4___
  6
CONTINUOUS
 62
   18
 10
199.6936780389828
 20
153.18876520827948
 11
199.6936780389828
 21
141.28876520827947
  0
LINE
  8
_1-4_1-4___
  6
CONTINUOUS
 62
   18
 10
202.6936780389828
 20
188.38876520827947
 11
199.6936780389828
 21
188.38876520827947
  0
LINE
  8
_1-4_1-4___
  6
CONTINUOUS
 62
   18
 10
202.6936780389828
 20
186.18876520827948
 11
199.6936780389828
 21
186.18876520827948
  0
LINE
  8
_1-4_1-4___
  6
CONTINUOUS
 62
   18
 10
199.6936780389828
 20
200.28876520827947
 11
199.6936780389828
 21
188.38876520827947
  0
LINE
  8
_1-4_1-4___
  6
CONTINUOUS
 62
   18
 10
199.6936780389828
 20
186.18876520827948
 11
199.6936780389828
 21
155.38876520827947
  0
LINE
  8
_1-4_1-4___
  6
CONTINUOUS
 62
   18
 10
245.68209090513864
 20
193.43114470299531
 11
243.08209090513864
 21
193.43114470299531
  0
ARC
  8
_1-4_1-4___
  6
CONTINUOUS
 62
   18
 10
246.08209090513864
 20
193.1311447029953
 40
0.5
 50
270
 51
143.13010235415663
  0
LINE
  8
_1-4_1-4___
  6
CONTINUOUS
 62
   18
 10
246.08209090513864
 20
192.6311447029953
 11
243.12405101358883
 21
192.6311447029953
  0
ARC
  8
_1-4_1-4___
  6
CONTINUOUS
 62
   18
 10
246.08209090513864
 20
193.1311447029953
 40
3
 50
189.59406822686043
 51
260.43961630560153
  0
ENDSEC
  0
EOF
