  0
SECTION
  2
HEADER
  9
$ACADVER
  1
AC1009
  9
$INSBASE
 10
0
 20
0
 30
0
  9
$EXTMIN
 10
0
 20
0
  9
$EXTMAX
 10
420
 20
297
  9
$LIMMIN
 10
0
 20
0
  9
$LIMMAX
 10
420
 20
297
  9
$LTSCALE
 40
1
  0
ENDSEC
  0
SECTION
  2
TABLES
  0
TABLE
  2
LTYPE
 70
     9
  0
LTYPE
  2
CONTINUOUS
 70
    64
  3
実線
 72
    65
 73
     0
 40
0.0
  0
LTYPE
  2
DASHED1
 70
    64
  3
--  --  --  --  --  --  --  --  
 72
    65
 73
     2
 40
2.5
 49
1.25
 49
-1.25
  0
LTYPE
  2
DASHED2
 70
    64
  3
----    ----    ----    ----    
 72
    65
 73
     2
 40
5.0
 49
2.5
 49
-2.5
  0
LTYPE
  2
DASHED3
 70
    64
  3
------  ------  ------  ------  
 72
    65
 73
     2
 40
5.0
 49
3.75
 49
-1.25
  0
LTYPE
  2
CENTER1
 70
    64
  3
----- - ----- - ----- - ----- - 
 72
    65
 73
     4
 40
10.0
 49
6.25
 49
-1.25
 49
1.25
 49
-1.25
  0
LTYPE
  2
CENTER2
 70
    64
  3
----------  --  ----------  --  
 72
    65
 73
     4
 40
20.0
 49
12.5
 49
-2.5
 49
2.5
 49
-2.5
  0
LTYPE
  2
PHANTOM1
 70
    64
  3
--- - - --- - - --- - - --- - - 
 72
    65
 73
     6
 40
10.0
 49
3.25
 49
-1.25
 49
1.25
 49
-1.25
 49
1.25
 49
-1.25
  0
LTYPE
  2
PHANTOM2
 70
    64
  3
--------  -  -  --------  -  -  
 72
    65
 73
     6
 40
20.0
 49
10.0
 49
-2.5
 49
1.25
 49
-2.5
 49
1.25
 49
-2.5
  0
LTYPE
  2
DOT
 70
    64
  3
-   -   -   -   -   -   -   -   
 72
    65
 73
     2
 40
2.5
 49
0.625
 49
-1.875
  0
LTYPE
  2
DUMMY
 70
    64
  3
ダミー
 72
    65
 73
     0
 40
0.0
  0
LTYPE
  2
RAND1
 70
    64
  3
ランダム線1
 72
    65
 73
     4
 40
10.0
 49
1.0
 49
-2.0
 49
3.0
 49
-4.0
  0
LTYPE
  2
RAND2
 70
    64
  3
ランダム線2
 72
    65
 73
     4
 40
14.0
 49
2.0
 49
-3.0
 49
4.0
 49
-5.0
  0
LTYPE
  2
RAND3
 70
    64
  3
ランダム線3
 72
    65
 73
     4
 40
18.0
 49
3.0
 49
-4.0
 49
5.0
 49
-6.0
  0
LTYPE
  2
RAND4
 70
    64
  3
ランダム線4
 72
    65
 73
     4
 40
22.0
 49
4.0
 49
-5.0
 49
6.0
 49
-7.0
  0
LTYPE
  2
RAND5
 70
    64
  3
ランダム線5
 72
    65
 73
     4
 40
26.0
 49
5.0
 49
-6.0
 49
7.0
 49
-8.0
  0
LTYPE
  2
LONG1
 70
    64
  3
----------  --  ----------  --  
 72
    65
 73
     4
 40
40.0
 49
32.5
 49
-2.5
 49
2.5
 49
-2.5
  0
LTYPE
  2
LONG2
 70
    64
  3
--------  -  -  --------  -  -  
 72
    65
 73
     6
 40
40.0
 49
30.0
 49
-2.5
 49
1.25
 49
-2.5
 49
1.25
 49
-2.5
  0
LTYPE
  2
LONG3
 70
    64
  3
+++++++++++++++..+++++++++++++++
 72
    65
 73
     2
 40
40.0
 49
37.5
 49
-2.5
  0
LTYPE
  2
LONG4
 70
    64
  3
+++++++++++++++..+++++++++++++++
 72
    65
 73
     2
 40
80.0
 49
75.0
 49
-5.0
  0
LTYPE
  2
LONG5
 70
    64
  3
----------  --  ----------  --  
 72
    65
 73
     4
 40
60.0
 49
37.5
 49
-7.5
 49
7.5
 49
-7.5
  0
LTYPE
  2
dashed
 70
   64
  3
-------   -------------   ------
 72
   65
 73
    2
 40
7.5
 49
6
 49
-1.5
  0
LTYPE
  2
dashed_spaced
 70
   64
  3
----        --------        ----
 72
   65
 73
    2
 40
12
 49
6
 49
-6
  0
LTYPE
  2
long_dashed_dotted
 70
   64
  3
------------- --- --------------
 72
   65
 73
    4
 40
15.25
 49
12
 49
-1.5
 49
0.25
 49
-1.5
  0
LTYPE
  2
long_dashed_double-dotted
 70
   64
  3
----------- --- --- ------------
 72
   65
 73
    6
 40
17
 49
12
 49
-1.5
 49
0.25
 49
-1.5
 49
0.25
 49
-1.5
  0
LTYPE
  2
long_dashed_triplicate-dotted
 70
   64
  3
--------- --- --- --- ----------
 72
   65
 73
    8
 40
18.75
 49
12
 49
-1.5
 49
0.25
 49
-1.5
 49
0.25
 49
-1.5
 49
0.25
 49
-1.5
  0
LTYPE
  2
dotted
 70
   64
  3
   -       -       -       -    
 72
   65
 73
    2
 40
1.75
 49
0.25
 49
-1.5
  0
LTYPE
  2
chain
 70
   64
  3
-------------- -- --------------
 72
   65
 73
    4
 40
18.5
 49
12
 49
-1.5
 49
3.5
 49
-1.5
  0
LTYPE
  2
chain_double_dash
 70
   64
  3
------------ -- -- -------------
 72
   65
 73
    6
 40
23.5
 49
12
 49
-1.5
 49
3.5
 49
-1.5
 49
3.5
 49
-1.5
  0
LTYPE
  2
dashed_dotted
 70
   64
  3
-----------     -     ----------
 72
   65
 73
    4
 40
9.25
 49
6
 49
-1.5
 49
0.25
 49
-1.5
  0
LTYPE
  2
double-dashed_dotted
 70
   64
  3
------   -----------   -   -----
 72
   65
 73
    6
 40
16.75
 49
6
 49
-1.5
 49
6
 49
-1.5
 49
0.25
 49
-1.5
  0
LTYPE
  2
dashed_double-dotted
 70
   64
  3
---------    -    -    ---------
 72
   65
 73
    6
 40
11
 49
6
 49
-1.5
 49
0.25
 49
-1.5
 49
0.25
 49
-1.5
  0
LTYPE
  2
double-dashed_double-dotted
 70
   64
  3
-----   ---------   -   -   ----
 72
   65
 73
    8
 40
18.5
 49
6
 49
-1.5
 49
6
 49
-1.5
 49
0.25
 49
-1.5
 49
0.25
 49
-1.5
  0
LTYPE
  2
dashed_triplicate-dotted
 70
   64
  3
-------    -    -    -    ------
 72
   65
 73
    8
 40
12.75
 49
6
 49
-1.5
 49
0.25
 49
-1.5
 49
0.25
 49
-1.5
 49
0.25
 49
-1.5
  0
LTYPE
  2
double-dashed_triplicate-dotted
 70
   64
  3
-----  ---------  -  -  -  -----
 72
   65
 73
   10
 40
20.25
 49
6
 49
-1.5
 49
6
 49
-1.5
 49
0.25
 49
-1.5
 49
0.25
 49
-1.5
 49
0.25
 49
-1.5
  0
LTYPE
  2
undefined
 70
   64
  3
--------------------------------
 72
   65
 73
    0
 40
0
  0
ENDTAB
  0
TABLE
  2
STYLE
  5
3
100
AcDbSymbolTable
 70
     1
  0
STYLE
  5
10
100
AcDbSymbolTableRecord
100
AcDbTextStyleTableRecord
  2
STANDARD
 70
     0
 40
0.0
 41
1.0
 50
0.0
 71
     0
 42
0.2
  3
txt
  4
bigfont.shx
  0
STYLE
  5
26
100
AcDbSymbolTableRecord
100
AcDbTextStyleTableRecord
  2
TATEGAKI
 70
    68
 40
0.0
 41
1.0
 50
0.0
 71
     0
 42
1.0
  3
txt
  4
bigfont.shx
  0
ENDTAB
  0
TABLE
  2
LAYER
 70
    2
  0
LAYER
  2
_1-5_1-5___
 70
   64
 62
    7
  6
CONTINUOUS
  0
LAYER
  2
ADD_LINE
 70
   64
 62
    7
  6
CONTINUOUS
  0
ENDTAB
  0
ENDSEC
  0
SECTION
  2
BLOCKS
  0
ENDSEC
  0
SECTION
  2
ENTITIES
  0
LINE
  8
_1-5_1-5___
  6
CONTINUOUS
 62
    6
 10
141.89500551819063
 20
39.035850822586781
 11
141.89500551819063
 21
39.379600822586781
  0
LINE
  8
_1-5_1-5___
  6
CONTINUOUS
 62
    6
 10
141.55125551819063
 20
38.692100822586781
 11
141.89500551819063
 21
39.035850822586781
  0
LINE
  8
_1-5_1-5___
  6
CONTINUOUS
 62
    6
 10
140.52000548838831
 20
38.692100822586781
 11
141.55125551819063
 21
38.692100822586781
  0
LINE
  8
_1-5_1-5___
  6
CONTINUOUS
 62
    6
 10
139.83250551819063
 20
39.379600822586781
 11
140.52000548838831
 21
38.692100822586781
  0
LINE
  8
_1-5_1-5___
  6
CONTINUOUS
 62
    6
 10
139.83250551819063
 20
39.723350822586781
 11
139.83250551819063
 21
39.379600822586781
  0
LINE
  8
_1-5_1-5___
  6
CONTINUOUS
 62
    6
 10
140.52000548838831
 20
40.41085080768562
 11
139.83250551819063
 21
39.723350822586781
  0
LINE
  8
_1-5_1-5___
  6
CONTINUOUS
 62
    6
 10
140.52000548838831
 20
40.41085080768562
 11
141.20750548838831
 21
40.41085080768562
  0
LINE
  8
_1-5_1-5___
  6
CONTINUOUS
 62
    6
 10
139.83250551819063
 20
41.098350822586781
 11
140.52000548838831
 21
40.41085080768562
  0
LINE
  8
_1-5_1-5___
  6
CONTINUOUS
 62
    6
 10
140.52000548838831
 20
41.785850822586781
 11
139.83250551819063
 21
41.098350822586781
  0
LINE
  8
_1-5_1-5___
  6
CONTINUOUS
 62
    6
 10
141.55125551819063
 20
41.785850822586781
 11
140.52000548838831
 21
41.785850822586781
  0
LINE
  8
_1-5_1-5___
  6
CONTINUOUS
 62
    6
 10
141.89500551819063
 20
41.442100822586781
 11
141.55125551819063
 21
41.785850822586781
  0
LINE
  8
_1-5_1-5___
  6
CONTINUOUS
 62
    6
 10
140.17625551819063
 20
42.817100822586781
 11
141.55125551819063
 21
42.817100822586781
  0
LINE
  8
_1-5_1-5___
  6
CONTINUOUS
 62
    6
 10
139.48875551819063
 20
42.473350822586781
 11
140.17625551819063
 21
42.817100822586781
  0
LINE
  8
_1-5_1-5___
  6
CONTINUOUS
 62
    6
 10
138.80125539898134
 20
41.785850822586781
 11
139.48875551819063
 21
42.473350822586781
  0
LINE
  8
_1-5_1-5___
  6
CONTINUOUS
 62
    6
 10
138.45750539898134
 20
41.098350822586781
 11
138.80125539898134
 21
41.785850822586781
  0
LINE
  8
_1-5_1-5___
  6
CONTINUOUS
 62
    6
 10
138.45750539898134
 20
39.379600822586781
 11
138.45750539898134
 21
41.098350822586781
  0
LINE
  8
_1-5_1-5___
  6
CONTINUOUS
 62
    6
 10
138.80125539898134
 20
38.692100822586781
 11
138.45750539898134
 21
39.379600822586781
  0
LINE
  8
_1-5_1-5___
  6
CONTINUOUS
 62
    6
 10
139.48875551819063
 20
38.004600822586781
 11
138.80125539898134
 21
38.692100822586781
  0
LINE
  8
_1-5_1-5___
  6
CONTINUOUS
 62
    6
 10
140.17625551819063
 20
37.660850822586781
 11
139.48875551819063
 21
38.004600822586781
  0
LINE
  8
_1-5_1-5___
  6
CONTINUOUS
 62
    6
 10
141.55125551819063
 20
37.660850822586781
 11
140.17625551819063
 21
37.660850822586781
  0
LINE
  8
_1-5_1-5___
  6
CONTINUOUS
 62
    6
 10
142.23875551819063
 20
38.004600822586781
 11
141.55125551819063
 21
37.660850822586781
  0
LINE
  8
_1-5_1-5___
  6
CONTINUOUS
 62
    6
 10
142.92625539898134
 20
38.692100822586781
 11
142.23875551819063
 21
38.004600822586781
  0
LINE
  8
_1-5_1-5___
  6
CONTINUOUS
 62
    6
 10
143.27000539898134
 20
39.379600822586781
 11
142.92625539898134
 21
38.692100822586781
  0
LINE
  8
_1-5_1-5___
  6
CONTINUOUS
 62
    6
 10
143.27000539898134
 20
41.098350822586781
 11
143.27000539898134
 21
39.379600822586781
  0
LINE
  8
_1-5_1-5___
  6
CONTINUOUS
 62
    6
 10
142.92625539898134
 20
41.785850822586781
 11
143.27000539898134
 21
41.098350822586781
  0
LINE
  8
_1-5_1-5___
  6
CONTINUOUS
 62
    6
 10
142.23875551819063
 20
42.473350822586781
 11
142.92625539898134
 21
41.785850822586781
  0
LINE
  8
_1-5_1-5___
  6
CONTINUOUS
 62
    6
 10
141.55125551819063
 20
42.817100822586781
 11
142.23875551819063
 21
42.473350822586781
  0
LINE
  8
_1-5_1-5___
  6
CONTINUOUS
 62
    6
 10
58.798510138294176
 20
105.57093294231694
 11
59.486010138294176
 21
105.22718294231694
  0
LINE
  8
_1-5_1-5___
  6
CONTINUOUS
 62
    6
 10
59.486010138294176
 20
105.22718294231694
 11
60.173510138294176
 21
104.53968282310765
  0
LINE
  8
_1-5_1-5___
  6
CONTINUOUS
 62
    6
 10
60.173510138294176
 20
104.53968282310765
 11
60.517260138294176
 21
103.8521828827123
  0
LINE
  8
_1-5_1-5___
  6
CONTINUOUS
 62
    6
 10
60.517260138294176
 20
103.8521828827123
 11
60.517260138294176
 21
102.1334328827123
  0
LINE
  8
_1-5_1-5___
  6
CONTINUOUS
 62
    6
 10
60.517260138294176
 20
102.1334328827123
 11
60.173510138294176
 21
101.44593282310765
  0
LINE
  8
_1-5_1-5___
  6
CONTINUOUS
 62
    6
 10
60.173510138294176
 20
101.44593282310765
 11
59.486010138294176
 21
100.75843294231694
  0
LINE
  8
_1-5_1-5___
  6
CONTINUOUS
 62
    6
 10
59.486010138294176
 20
100.75843294231694
 11
58.798510138294176
 21
100.41468294231694
  0
LINE
  8
_1-5_1-5___
  6
CONTINUOUS
 62
    6
 10
58.798510138294176
 20
100.41468294231694
 11
57.423510138294176
 21
100.41468294231694
  0
LINE
  8
_1-5_1-5___
  6
CONTINUOUS
 62
    6
 10
57.423510138294176
 20
100.41468294231694
 11
56.736010138294176
 21
100.75843294231694
  0
LINE
  8
_1-5_1-5___
  6
CONTINUOUS
 62
    6
 10
56.736010138294176
 20
100.75843294231694
 11
56.048510138294176
 21
101.44593282310765
  0
LINE
  8
_1-5_1-5___
  6
CONTINUOUS
 62
    6
 10
56.048510138294176
 20
101.44593282310765
 11
55.704760138294176
 21
102.1334328827123
  0
LINE
  8
_1-5_1-5___
  6
CONTINUOUS
 62
    6
 10
55.704760138294176
 20
102.1334328827123
 11
55.704760138294176
 21
103.8521828827123
  0
LINE
  8
_1-5_1-5___
  6
CONTINUOUS
 62
    6
 10
55.704760138294176
 20
103.8521828827123
 11
56.048510138294176
 21
104.53968282310765
  0
LINE
  8
_1-5_1-5___
  6
CONTINUOUS
 62
    6
 10
56.048510138294176
 20
104.53968282310765
 11
56.736010138294176
 21
105.22718294231694
  0
LINE
  8
_1-5_1-5___
  6
CONTINUOUS
 62
    6
 10
56.736010138294176
 20
105.22718294231694
 11
57.423510138294176
 21
105.57093294231694
  0
LINE
  8
_1-5_1-5___
  6
CONTINUOUS
 62
    6
 10
57.423510138294176
 20
105.57093294231694
 11
58.798510138294176
 21
105.57093294231694
  0
LINE
  8
_1-5_1-5___
  6
CONTINUOUS
 62
    6
 10
59.142260138294176
 20
103.8521828827123
 11
58.454760138294176
 21
104.53968282310765
  0
LINE
  8
_1-5_1-5___
  6
CONTINUOUS
 62
    6
 10
58.454760138294176
 20
104.53968282310765
 11
57.767260138294176
 21
104.53968282310765
  0
LINE
  8
_1-5_1-5___
  6
CONTINUOUS
 62
    6
 10
57.767260138294176
 20
104.53968282310765
 11
57.079760138294176
 21
103.8521828827123
  0
LINE
  8
_1-5_1-5___
  6
CONTINUOUS
 62
    6
 10
57.079760138294176
 20
103.8521828827123
 11
57.079760138294176
 21
103.5084328827123
  0
LINE
  8
_1-5_1-5___
  6
CONTINUOUS
 62
    6
 10
57.079760138294176
 20
103.5084328827123
 11
59.142260138294176
 21
101.78968282310765
  0
LINE
  8
_1-5_1-5___
  6
CONTINUOUS
 62
    6
 10
59.142260138294176
 20
101.78968282310765
 11
59.142260138294176
 21
101.44593282310765
  0
LINE
  8
_1-5_1-5___
  6
CONTINUOUS
 62
    6
 10
59.142260138294176
 20
101.44593282310765
 11
57.079760138294176
 21
101.44593282310765
  0
LINE
  8
_1-5_1-5___
  6
CONTINUOUS
 62
    6
 10
57.079760138294176
 20
101.44593282310765
 11
57.079760138294176
 21
102.1334328827123
  0
LINE
  8
_1-5_1-5___
  6
CONTINUOUS
 62
    6
 10
142.30637673449624
 20
101.69169433501884
 11
142.30637673449624
 21
102.03544433501884
  0
LINE
  8
_1-5_1-5___
  6
CONTINUOUS
 62
    6
 10
141.96262673449624
 20
101.34794433501884
 11
142.30637673449624
 21
101.69169433501884
  0
LINE
  8
_1-5_1-5___
  6
CONTINUOUS
 62
    6
 10
140.93137670469392
 20
101.34794433501884
 11
141.96262673449624
 21
101.34794433501884
  0
LINE
  8
_1-5_1-5___
  6
CONTINUOUS
 62
    6
 10
140.24387673449624
 20
102.03544433501884
 11
140.93137670469392
 21
101.34794433501884
  0
LINE
  8
_1-5_1-5___
  6
CONTINUOUS
 62
    6
 10
140.24387673449624
 20
102.37919433501884
 11
140.24387673449624
 21
102.03544433501884
  0
LINE
  8
_1-5_1-5___
  6
CONTINUOUS
 62
    6
 10
140.93137670469392
 20
103.06669432011768
 11
140.24387673449624
 21
102.37919433501884
  0
LINE
  8
_1-5_1-5___
  6
CONTINUOUS
 62
    6
 10
140.93137670469392
 20
103.06669432011768
 11
141.61887670469392
 21
103.06669432011768
  0
LINE
  8
_1-5_1-5___
  6
CONTINUOUS
 62
    6
 10
140.24387673449624
 20
103.75419433501884
 11
140.93137670469392
 21
103.06669432011768
  0
LINE
  8
_1-5_1-5___
  6
CONTINUOUS
 62
    6
 10
140.93137670469392
 20
104.44169433501884
 11
140.24387673449624
 21
103.75419433501884
  0
LINE
  8
_1-5_1-5___
  6
CONTINUOUS
 62
    6
 10
141.96262673449624
 20
104.44169433501884
 11
140.93137670469392
 21
104.44169433501884
  0
LINE
  8
_1-5_1-5___
  6
CONTINUOUS
 62
    6
 10
142.30637673449624
 20
104.09794433501884
 11
141.96262673449624
 21
104.44169433501884
  0
LINE
  8
_1-5_1-5___
  6
CONTINUOUS
 62
    6
 10
140.58762673449624
 20
105.47294433501884
 11
141.96262673449624
 21
105.47294433501884
  0
LINE
  8
_1-5_1-5___
  6
CONTINUOUS
 62
    6
 10
139.90012673449624
 20
105.12919433501884
 11
140.58762673449624
 21
105.47294433501884
  0
LINE
  8
_1-5_1-5___
  6
CONTINUOUS
 62
    6
 10
139.21262661528695
 20
104.44169433501884
 11
139.90012673449624
 21
105.12919433501884
  0
LINE
  8
_1-5_1-5___
  6
CONTINUOUS
 62
    6
 10
138.86887661528695
 20
103.75419433501884
 11
139.21262661528695
 21
104.44169433501884
  0
LINE
  8
_1-5_1-5___
  6
CONTINUOUS
 62
    6
 10
138.86887661528695
 20
102.03544433501884
 11
138.86887661528695
 21
103.75419433501884
  0
LINE
  8
_1-5_1-5___
  6
CONTINUOUS
 62
    6
 10
139.21262661528695
 20
101.34794433501884
 11
138.86887661528695
 21
102.03544433501884
  0
LINE
  8
_1-5_1-5___
  6
CONTINUOUS
 62
    6
 10
139.90012673449624
 20
100.66044433501884
 11
139.21262661528695
 21
101.34794433501884
  0
LINE
  8
_1-5_1-5___
  6
CONTINUOUS
 62
    6
 10
140.58762673449624
 20
100.31669433501884
 11
139.90012673449624
 21
100.66044433501884
  0
LINE
  8
_1-5_1-5___
  6
CONTINUOUS
 62
    6
 10
141.96262673449624
 20
100.31669433501884
 11
140.58762673449624
 21
100.31669433501884
  0
LINE
  8
_1-5_1-5___
  6
CONTINUOUS
 62
    6
 10
142.65012673449624
 20
100.66044433501884
 11
141.96262673449624
 21
100.31669433501884
  0
LINE
  8
_1-5_1-5___
  6
CONTINUOUS
 62
    6
 10
143.33762661528695
 20
101.34794433501884
 11
142.65012673449624
 21
100.66044433501884
  0
LINE
  8
_1-5_1-5___
  6
CONTINUOUS
 62
    6
 10
143.68137661528695
 20
102.03544433501884
 11
143.33762661528695
 21
101.34794433501884
  0
LINE
  8
_1-5_1-5___
  6
CONTINUOUS
 62
    6
 10
143.68137661528695
 20
103.75419433501884
 11
143.68137661528695
 21
102.03544433501884
  0
LINE
  8
_1-5_1-5___
  6
CONTINUOUS
 62
    6
 10
143.33762661528695
 20
104.44169433501884
 11
143.68137661528695
 21
103.75419433501884
  0
LINE
  8
_1-5_1-5___
  6
CONTINUOUS
 62
    6
 10
142.65012673449624
 20
105.12919433501884
 11
143.33762661528695
 21
104.44169433501884
  0
LINE
  8
_1-5_1-5___
  6
CONTINUOUS
 62
    6
 10
141.96262673449624
 20
105.47294433501884
 11
142.65012673449624
 21
105.12919433501884
  0
LINE
  8
_1-5_1-5___
  6
CONTINUOUS
 62
    6
 10
58.482478129387744
 20
42.759283240316819
 11
59.169978129387744
 21
42.415533240316819
  0
LINE
  8
_1-5_1-5___
  6
CONTINUOUS
 62
    6
 10
59.169978129387744
 20
42.415533240316819
 11
59.857478129387744
 21
41.728033121107529
  0
LINE
  8
_1-5_1-5___
  6
CONTINUOUS
 62
    6
 10
59.857478129387744
 20
41.728033121107529
 11
60.201228129387744
 21
41.040533180712174
  0
LINE
  8
_1-5_1-5___
  6
CONTINUOUS
 62
    6
 10
60.201228129387744
 20
41.040533180712174
 11
60.201228129387744
 21
39.321783180712174
  0
LINE
  8
_1-5_1-5___
  6
CONTINUOUS
 62
    6
 10
60.201228129387744
 20
39.321783180712174
 11
59.857478129387744
 21
38.634283121107529
  0
LINE
  8
_1-5_1-5___
  6
CONTINUOUS
 62
    6
 10
59.857478129387744
 20
38.634283121107529
 11
59.169978129387744
 21
37.946783240316819
  0
LINE
  8
_1-5_1-5___
  6
CONTINUOUS
 62
    6
 10
59.169978129387744
 20
37.946783240316819
 11
58.482478129387744
 21
37.603033240316819
  0
LINE
  8
_1-5_1-5___
  6
CONTINUOUS
 62
    6
 10
58.482478129387744
 20
37.603033240316819
 11
57.107478129387744
 21
37.603033240316819
  0
LINE
  8
_1-5_1-5___
  6
CONTINUOUS
 62
    6
 10
57.107478129387744
 20
37.603033240316819
 11
56.419978129387744
 21
37.946783240316819
  0
LINE
  8
_1-5_1-5___
  6
CONTINUOUS
 62
    6
 10
56.419978129387744
 20
37.946783240316819
 11
55.732478129387744
 21
38.634283121107529
  0
LINE
  8
_1-5_1-5___
  6
CONTINUOUS
 62
    6
 10
55.732478129387744
 20
38.634283121107529
 11
55.388728129387744
 21
39.321783180712174
  0
LINE
  8
_1-5_1-5___
  6
CONTINUOUS
 62
    6
 10
55.388728129387744
 20
39.321783180712174
 11
55.388728129387744
 21
41.040533180712174
  0
LINE
  8
_1-5_1-5___
  6
CONTINUOUS
 62
    6
 10
55.388728129387744
 20
41.040533180712174
 11
55.732478129387744
 21
41.728033121107529
  0
LINE
  8
_1-5_1-5___
  6
CONTINUOUS
 62
    6
 10
55.732478129387744
 20
41.728033121107529
 11
56.419978129387744
 21
42.415533240316819
  0
LINE
  8
_1-5_1-5___
  6
CONTINUOUS
 62
    6
 10
56.419978129387744
 20
42.415533240316819
 11
57.107478129387744
 21
42.759283240316819
  0
LINE
  8
_1-5_1-5___
  6
CONTINUOUS
 62
    6
 10
57.107478129387744
 20
42.759283240316819
 11
58.482478129387744
 21
42.759283240316819
  0
LINE
  8
_1-5_1-5___
  6
CONTINUOUS
 62
    6
 10
58.826228129387744
 20
41.040533180712174
 11
58.138728129387744
 21
41.728033121107529
  0
LINE
  8
_1-5_1-5___
  6
CONTINUOUS
 62
    6
 10
58.138728129387744
 20
41.728033121107529
 11
57.451228129387744
 21
41.728033121107529
  0
LINE
  8
_1-5_1-5___
  6
CONTINUOUS
 62
    6
 10
57.451228129387744
 20
41.728033121107529
 11
56.763728129387744
 21
41.040533180712174
  0
LINE
  8
_1-5_1-5___
  6
CONTINUOUS
 62
    6
 10
56.763728129387744
 20
41.040533180712174
 11
56.763728129387744
 21
40.696783180712174
  0
LINE
  8
_1-5_1-5___
  6
CONTINUOUS
 62
    6
 10
56.763728129387744
 20
40.696783180712174
 11
58.826228129387744
 21
38.978033121107529
  0
LINE
  8
_1-5_1-5___
  6
CONTINUOUS
 62
    6
 10
58.826228129387744
 20
38.978033121107529
 11
58.826228129387744
 21
38.634283121107529
  0
LINE
  8
_1-5_1-5___
  6
CONTINUOUS
 62
    6
 10
58.826228129387744
 20
38.634283121107529
 11
56.763728129387744
 21
38.634283121107529
  0
LINE
  8
_1-5_1-5___
  6
CONTINUOUS
 62
    6
 10
56.763728129387744
 20
38.634283121107529
 11
56.763728129387744
 21
39.321783180712174
  0
LINE
  8
_1-5_1-5___
  6
CONTINUOUS
 62
    6
 10
71.743411702299966
 20
170.23794395946362
 11
71.399661702299966
 21
169.55044401906827
  0
LINE
  8
_1-5_1-5___
  6
CONTINUOUS
 62
    6
 10
71.399661702299966
 20
169.55044401906827
 11
70.712161702299966
 21
168.86294401906827
  0
LINE
  8
_1-5_1-5___
  6
CONTINUOUS
 62
    6
 10
70.712161702299966
 20
168.86294401906827
 11
70.024661702299966
 21
168.51919401906827
  0
LINE
  8
_1-5_1-5___
  6
CONTINUOUS
 62
    6
 10
70.024661702299966
 20
168.51919401906827
 11
68.305911702299966
 21
168.51919401906827
  0
LINE
  8
_1-5_1-5___
  6
CONTINUOUS
 62
    6
 10
68.305911702299966
 20
168.51919401906827
 11
67.618411702299966
 21
168.86294401906827
  0
LINE
  8
_1-5_1-5___
  6
CONTINUOUS
 62
    6
 10
67.618411702299966
 20
168.86294401906827
 11
66.930911702299966
 21
169.55044401906827
  0
LINE
  8
_1-5_1-5___
  6
CONTINUOUS
 62
    6
 10
66.930911702299966
 20
169.55044401906827
 11
66.587161702299966
 21
170.23794395946362
  0
LINE
  8
_1-5_1-5___
  6
CONTINUOUS
 62
    6
 10
66.587161702299966
 20
170.23794395946362
 11
66.587161702299966
 21
171.61294395946362
  0
LINE
  8
_1-5_1-5___
  6
CONTINUOUS
 62
    6
 10
66.587161702299966
 20
171.61294395946362
 11
66.930911702299966
 21
172.30044401906827
  0
LINE
  8
_1-5_1-5___
  6
CONTINUOUS
 62
    6
 10
66.930911702299966
 20
172.30044401906827
 11
67.618411702299966
 21
172.98794401906827
  0
LINE
  8
_1-5_1-5___
  6
CONTINUOUS
 62
    6
 10
67.618411702299966
 20
172.98794401906827
 11
68.305911702299966
 21
173.33169401906827
  0
LINE
  8
_1-5_1-5___
  6
CONTINUOUS
 62
    6
 10
68.305911702299966
 20
173.33169401906827
 11
70.024661702299966
 21
173.33169401906827
  0
LINE
  8
_1-5_1-5___
  6
CONTINUOUS
 62
    6
 10
70.024661702299966
 20
173.33169401906827
 11
70.712161702299966
 21
172.98794401906827
  0
LINE
  8
_1-5_1-5___
  6
CONTINUOUS
 62
    6
 10
70.712161702299966
 20
172.98794401906827
 11
71.399661702299966
 21
172.30044401906827
  0
LINE
  8
_1-5_1-5___
  6
CONTINUOUS
 62
    6
 10
71.399661702299966
 20
172.30044401906827
 11
71.743411702299966
 21
171.61294395946362
  0
LINE
  8
_1-5_1-5___
  6
CONTINUOUS
 62
    6
 10
71.743411702299966
 20
171.61294395946362
 11
71.743411702299966
 21
170.23794395946362
  0
LINE
  8
_1-5_1-5___
  6
CONTINUOUS
 62
    6
 10
70.368411702299966
 20
170.23794395946362
 11
70.712161702299966
 21
170.92544396877685
  0
LINE
  8
_1-5_1-5___
  6
CONTINUOUS
 62
    6
 10
70.712161702299966
 20
170.92544396877685
 11
67.618411702299966
 21
170.92544396877685
  0
LINE
  8
_1-5_1-5___
  6
CONTINUOUS
 62
    6
 10
67.618411702299966
 20
169.89419401906827
 11
67.618411702299966
 21
171.95669401906827
  0
LINE
  8
_1-5_1-5___
  6
CONTINUOUS
 62
    6
 10
60.20772510407744
 20
142.74782808978418
 11
56.185850104077417
 21
142.74782808978418
  0
LINE
  8
_1-5_1-5___
  6
CONTINUOUS
 62
    6
 10
58.196787604077429
 20
142.74782808978418
 11
58.867100104077451
 21
143.19470308978418
  0
LINE
  8
_1-5_1-5___
  6
CONTINUOUS
 62
    6
 10
58.867100104077451
 20
143.19470308978418
 11
58.867100104077451
 21
143.41814058978417
  0
LINE
  8
_1-5_1-5___
  6
CONTINUOUS
 62
    6
 10
58.867100104077451
 20
143.41814058978417
 11
58.196787604077429
 21
143.86501558978418
  0
LINE
  8
_1-5_1-5___
  6
CONTINUOUS
 62
    6
 10
58.196787604077429
 20
143.86501558978418
 11
56.185850104077417
 21
143.86501558978418
  0
LINE
  8
_1-5_1-5___
  6
CONTINUOUS
 62
    6
 10
58.867100104077451
 20
144.53532808978417
 11
58.867100104077451
 21
145.42907808978418
  0
LINE
  8
_1-5_1-5___
  6
CONTINUOUS
 62
    6
 10
59.537412604077417
 20
144.98220308978418
 11
56.521006354077429
 21
144.98220308978418
  0
LINE
  8
_1-5_1-5___
  6
CONTINUOUS
 62
    6
 10
56.521006354077429
 20
144.98220308978418
 11
56.185850104077417
 21
145.20564058978417
  0
LINE
  8
_1-5_1-5___
  6
CONTINUOUS
 62
    6
 10
56.185850104077417
 20
145.20564058978417
 11
56.185850104077417
 21
145.42907808978418
  0
LINE
  8
_1-5_1-5___
  6
CONTINUOUS
 62
    6
 10
56.185850104077417
 20
145.42907808978418
 11
56.521006354077429
 21
145.65251558978417
  0
LINE
  8
_1-5_1-5___
  6
CONTINUOUS
 62
    6
 10
56.521006354077429
 20
145.65251558978417
 11
56.85616260407744
 21
145.65251558978417
  0
LINE
  8
_1-5_1-5___
  6
CONTINUOUS
 62
    6
 10
58.867100104077451
 20
146.32282808978417
 11
58.867100104077451
 21
147.21657808978418
  0
LINE
  8
_1-5_1-5___
  6
CONTINUOUS
 62
    6
 10
59.537412604077417
 20
146.76970308978417
 11
56.521006354077429
 21
146.76970308978417
  0
LINE
  8
_1-5_1-5___
  6
CONTINUOUS
 62
    6
 10
56.521006354077429
 20
146.76970308978417
 11
56.185850104077417
 21
146.99314058978419
  0
LINE
  8
_1-5_1-5___
  6
CONTINUOUS
 62
    6
 10
56.185850104077417
 20
146.99314058978419
 11
56.185850104077417
 21
147.21657808978418
  0
LINE
  8
_1-5_1-5___
  6
CONTINUOUS
 62
    6
 10
56.185850104077417
 20
147.21657808978418
 11
56.521006354077429
 21
147.4400155897842
  0
LINE
  8
_1-5_1-5___
  6
CONTINUOUS
 62
    6
 10
56.521006354077429
 20
147.4400155897842
 11
56.85616260407744
 21
147.4400155897842
  0
LINE
  8
_1-5_1-5___
  6
CONTINUOUS
 62
    6
 10
58.867100104077451
 20
148.11032808978416
 11
55.515537604077451
 21
148.11032808978416
  0
LINE
  8
_1-5_1-5___
  6
CONTINUOUS
 62
    6
 10
58.196787604077429
 20
148.11032808978416
 11
58.867100104077451
 21
148.5572030897842
  0
LINE
  8
_1-5_1-5___
  6
CONTINUOUS
 62
    6
 10
58.867100104077451
 20
148.5572030897842
 11
58.867100104077451
 21
148.78064058978418
  0
LINE
  8
_1-5_1-5___
  6
CONTINUOUS
 62
    6
 10
58.867100104077451
 20
148.78064058978418
 11
58.196787604077429
 21
149.22751558978416
  0
LINE
  8
_1-5_1-5___
  6
CONTINUOUS
 62
    6
 10
58.196787604077429
 20
149.22751558978416
 11
57.191318854077451
 21
149.22751558978416
  0
LINE
  8
_1-5_1-5___
  6
CONTINUOUS
 62
    6
 10
57.191318854077451
 20
149.22751558978416
 11
56.521006354077429
 21
148.78064058978418
  0
LINE
  8
_1-5_1-5___
  6
CONTINUOUS
 62
    6
 10
56.521006354077429
 20
148.78064058978418
 11
56.521006354077429
 21
148.5572030897842
  0
LINE
  8
_1-5_1-5___
  6
CONTINUOUS
 62
    6
 10
56.521006354077429
 20
148.5572030897842
 11
57.191318854077451
 21
148.11032808978416
  0
LINE
  8
_1-5_1-5___
  6
CONTINUOUS
 62
    6
 10
59.202256354077463
 20
150.56814058978418
 11
59.202256354077463
 21
150.34470308978416
  0
LINE
  8
_1-5_1-5___
  6
CONTINUOUS
 62
    6
 10
59.202256354077463
 20
150.34470308978416
 11
58.867100104077451
 21
150.34470308978416
  0
LINE
  8
_1-5_1-5___
  6
CONTINUOUS
 62
    6
 10
58.867100104077451
 20
150.34470308978416
 11
58.867100104077451
 21
150.56814058978418
  0
LINE
  8
_1-5_1-5___
  6
CONTINUOUS
 62
    6
 10
58.867100104077451
 20
150.56814058978418
 11
59.202256354077463
 21
150.56814058978418
  0
LINE
  8
_1-5_1-5___
  6
CONTINUOUS
 62
    6
 10
56.521006354077429
 20
150.56814058978418
 11
56.521006354077429
 21
150.34470308978416
  0
LINE
  8
_1-5_1-5___
  6
CONTINUOUS
 62
    6
 10
56.521006354077429
 20
150.34470308978416
 11
56.185850104077417
 21
150.34470308978416
  0
LINE
  8
_1-5_1-5___
  6
CONTINUOUS
 62
    6
 10
56.185850104077417
 20
150.34470308978416
 11
56.185850104077417
 21
150.56814058978418
  0
LINE
  8
_1-5_1-5___
  6
CONTINUOUS
 62
    6
 10
56.185850104077417
 20
150.56814058978418
 11
56.521006354077429
 21
150.56814058978418
  0
LINE
  8
_1-5_1-5___
  6
CONTINUOUS
 62
    6
 10
60.20772510407744
 20
152.80251558978418
 11
55.850693854077434
 21
151.68532808978418
  0
LINE
  8
_1-5_1-5___
  6
CONTINUOUS
 62
    6
 10
60.20772510407744
 20
154.59001558978417
 11
55.850693854077434
 21
153.47282808978417
  0
LINE
  8
_1-5_1-5___
  6
CONTINUOUS
 62
    6
 10
58.196787604077429
 20
156.3775155897842
 11
58.867100104077451
 21
155.93064058978416
  0
LINE
  8
_1-5_1-5___
  6
CONTINUOUS
 62
    6
 10
58.867100104077451
 20
155.93064058978416
 11
58.867100104077451
 21
155.70720308978417
  0
LINE
  8
_1-5_1-5___
  6
CONTINUOUS
 62
    6
 10
58.867100104077451
 20
155.70720308978417
 11
58.196787604077429
 21
155.2603280897842
  0
LINE
  8
_1-5_1-5___
  6
CONTINUOUS
 62
    6
 10
58.196787604077429
 20
155.2603280897842
 11
56.85616260407744
 21
155.2603280897842
  0
LINE
  8
_1-5_1-5___
  6
CONTINUOUS
 62
    6
 10
56.85616260407744
 20
155.2603280897842
 11
56.185850104077417
 21
155.70720308978417
  0
LINE
  8
_1-5_1-5___
  6
CONTINUOUS
 62
    6
 10
56.185850104077417
 20
155.70720308978417
 11
56.185850104077417
 21
155.93064058978416
  0
LINE
  8
_1-5_1-5___
  6
CONTINUOUS
 62
    6
 10
56.185850104077417
 20
155.93064058978416
 11
56.85616260407744
 21
156.3775155897842
  0
LINE
  8
_1-5_1-5___
  6
CONTINUOUS
 62
    6
 10
60.20772510407744
 20
157.27126558978418
 11
60.20772510407744
 21
157.4947030897842
  0
LINE
  8
_1-5_1-5___
  6
CONTINUOUS
 62
    6
 10
60.20772510407744
 20
157.4947030897842
 11
56.185850104077417
 21
157.4947030897842
  0
LINE
  8
_1-5_1-5___
  6
CONTINUOUS
 62
    6
 10
58.867100104077451
 20
159.50564058978418
 11
58.867100104077451
 21
159.28220308978416
  0
LINE
  8
_1-5_1-5___
  6
CONTINUOUS
 62
    6
 10
58.867100104077451
 20
159.28220308978416
 11
58.196787604077429
 21
158.83532808978418
  0
LINE
  8
_1-5_1-5___
  6
CONTINUOUS
 62
    6
 10
58.196787604077429
 20
158.83532808978418
 11
56.85616260407744
 21
158.83532808978418
  0
LINE
  8
_1-5_1-5___
  6
CONTINUOUS
 62
    6
 10
56.85616260407744
 20
158.83532808978418
 11
56.185850104077417
 21
159.28220308978416
  0
LINE
  8
_1-5_1-5___
  6
CONTINUOUS
 62
    6
 10
56.185850104077417
 20
159.28220308978416
 11
56.185850104077417
 21
159.50564058978418
  0
LINE
  8
_1-5_1-5___
  6
CONTINUOUS
 62
    6
 10
56.185850104077417
 20
159.50564058978418
 11
56.85616260407744
 21
159.95251558978418
  0
LINE
  8
_1-5_1-5___
  6
CONTINUOUS
 62
    6
 10
56.85616260407744
 20
159.95251558978418
 11
58.196787604077429
 21
159.95251558978418
  0
LINE
  8
_1-5_1-5___
  6
CONTINUOUS
 62
    6
 10
58.196787604077429
 20
159.95251558978418
 11
58.867100104077451
 21
159.50564058978418
  0
LINE
  8
_1-5_1-5___
  6
CONTINUOUS
 62
    6
 10
58.196787604077429
 20
161.74001558978418
 11
58.867100104077451
 21
161.29314058978417
  0
LINE
  8
_1-5_1-5___
  6
CONTINUOUS
 62
    6
 10
58.867100104077451
 20
161.29314058978417
 11
58.867100104077451
 21
161.06970308978418
  0
LINE
  8
_1-5_1-5___
  6
CONTINUOUS
 62
    6
 10
58.867100104077451
 20
161.06970308978418
 11
58.196787604077429
 21
160.62282808978418
  0
LINE
  8
_1-5_1-5___
  6
CONTINUOUS
 62
    6
 10
58.196787604077429
 20
160.62282808978418
 11
56.85616260407744
 21
160.62282808978418
  0
LINE
  8
_1-5_1-5___
  6
CONTINUOUS
 62
    6
 10
56.85616260407744
 20
160.62282808978418
 11
56.185850104077417
 21
161.06970308978418
  0
LINE
  8
_1-5_1-5___
  6
CONTINUOUS
 62
    6
 10
56.185850104077417
 20
161.06970308978418
 11
56.185850104077417
 21
161.29314058978417
  0
LINE
  8
_1-5_1-5___
  6
CONTINUOUS
 62
    6
 10
56.185850104077417
 20
161.29314058978417
 11
56.85616260407744
 21
161.74001558978418
  0
LINE
  8
_1-5_1-5___
  6
CONTINUOUS
 62
    6
 10
60.20772510407744
 20
162.41032746989589
 11
56.185850104077417
 21
162.41032746989589
  0
LINE
  8
_1-5_1-5___
  6
CONTINUOUS
 62
    6
 10
58.867100104077451
 20
163.52751496989589
 11
57.191318854077451
 21
162.41032746989589
  0
LINE
  8
_1-5_1-5___
  6
CONTINUOUS
 62
    6
 10
57.526475109525677
 20
162.63376496989588
 11
56.185850104077417
 21
163.52751496989589
  0
LINE
  8
_1-5_1-5___
  6
CONTINUOUS
 62
    6
 10
58.867100104077451
 20
164.19782746989586
 11
56.185850104077417
 21
164.42126496989587
  0
LINE
  8
_1-5_1-5___
  6
CONTINUOUS
 62
    6
 10
56.185850104077417
 20
164.42126496989587
 11
58.53194385407744
 21
164.86813996989588
  0
LINE
  8
_1-5_1-5___
  6
CONTINUOUS
 62
    6
 10
58.53194385407744
 20
164.86813996989588
 11
56.185850104077417
 21
165.31501496989586
  0
LINE
  8
_1-5_1-5___
  6
CONTINUOUS
 62
    6
 10
56.185850104077417
 20
165.31501496989586
 11
58.867100104077451
 21
165.53845246989587
  0
LINE
  8
_1-5_1-5___
  6
CONTINUOUS
 62
    6
 10
58.867100104077451
 20
166.6556399698959
 11
58.867100104077451
 21
166.43220246989586
  0
LINE
  8
_1-5_1-5___
  6
CONTINUOUS
 62
    6
 10
58.867100104077451
 20
166.43220246989586
 11
58.196787604077429
 21
165.98532746989588
  0
LINE
  8
_1-5_1-5___
  6
CONTINUOUS
 62
    6
 10
58.196787604077429
 20
165.98532746989588
 11
56.85616260407744
 21
165.98532746989588
  0
LINE
  8
_1-5_1-5___
  6
CONTINUOUS
 62
    6
 10
56.85616260407744
 20
165.98532746989588
 11
56.185850104077417
 21
166.43220246989586
  0
LINE
  8
_1-5_1-5___
  6
CONTINUOUS
 62
    6
 10
56.185850104077417
 20
166.43220246989586
 11
56.185850104077417
 21
166.6556399698959
  0
LINE
  8
_1-5_1-5___
  6
CONTINUOUS
 62
    6
 10
56.185850104077417
 20
166.6556399698959
 11
56.85616260407744
 21
167.10251496989588
  0
LINE
  8
_1-5_1-5___
  6
CONTINUOUS
 62
    6
 10
56.85616260407744
 20
167.10251496989588
 11
58.196787604077429
 21
167.10251496989588
  0
LINE
  8
_1-5_1-5___
  6
CONTINUOUS
 62
    6
 10
58.196787604077429
 20
167.10251496989588
 11
58.867100104077451
 21
166.6556399698959
  0
LINE
  8
_1-5_1-5___
  6
CONTINUOUS
 62
    6
 10
58.867100104077451
 20
167.99626496989589
 11
56.185850104077417
 21
167.99626496989589
  0
LINE
  8
_1-5_1-5___
  6
CONTINUOUS
 62
    6
 10
58.196787604077429
 20
167.99626496989589
 11
58.867100104077451
 21
168.44313996989587
  0
LINE
  8
_1-5_1-5___
  6
CONTINUOUS
 62
    6
 10
58.867100104077451
 20
168.44313996989587
 11
58.867100104077451
 21
168.66657746989586
  0
LINE
  8
_1-5_1-5___
  6
CONTINUOUS
 62
    6
 10
58.867100104077451
 20
168.66657746989586
 11
58.53194385407744
 21
168.8900149698959
  0
LINE
  8
_1-5_1-5___
  6
CONTINUOUS
 62
    6
 10
58.53194385407744
 20
168.8900149698959
 11
58.196787604077429
 21
168.8900149698959
  0
LINE
  8
_1-5_1-5___
  6
CONTINUOUS
 62
    6
 10
60.20772510407744
 20
169.56032746989587
 11
56.185850104077417
 21
169.56032746989587
  0
LINE
  8
_1-5_1-5___
  6
CONTINUOUS
 62
    6
 10
58.867100104077451
 20
170.67751512486797
 11
57.191318854077451
 21
169.56032746989587
  0
LINE
  8
_1-5_1-5___
  6
CONTINUOUS
 62
    6
 10
57.526475109525677
 20
169.78376512486795
 11
56.185850104077417
 21
170.67751512486797
  0
LINE
  8
_1-5_1-5___
  6
CONTINUOUS
 62
    6
 10
58.196787604077429
 20
172.46501508612494
 11
58.867100104077451
 21
172.01814008612496
  0
LINE
  8
_1-5_1-5___
  6
CONTINUOUS
 62
    6
 10
58.867100104077451
 20
172.01814008612496
 11
58.867100104077451
 21
171.79470258612491
  0
LINE
  8
_1-5_1-5___
  6
CONTINUOUS
 62
    6
 10
58.867100104077451
 20
171.79470258612491
 11
58.196787604077429
 21
171.34782762486793
  0
LINE
  8
_1-5_1-5___
  6
CONTINUOUS
 62
    6
 10
58.196787604077429
 20
171.34782762486793
 11
57.861631354077417
 21
171.34782762486793
  0
LINE
  8
_1-5_1-5___
  6
CONTINUOUS
 62
    6
 10
57.861631354077417
 20
171.34782762486793
 11
57.526475109525677
 21
171.57126508612492
  0
LINE
  8
_1-5_1-5___
  6
CONTINUOUS
 62
    6
 10
57.526475109525677
 20
171.57126508612492
 11
57.526475109525677
 21
172.24157759096784
  0
LINE
  8
_1-5_1-5___
  6
CONTINUOUS
 62
    6
 10
57.526475109525677
 20
172.24157759096784
 11
57.191318854077451
 21
172.46501508612494
  0
LINE
  8
_1-5_1-5___
  6
CONTINUOUS
 62
    6
 10
57.191318854077451
 20
172.46501508612494
 11
56.85616260407744
 21
172.46501508612494
  0
LINE
  8
_1-5_1-5___
  6
CONTINUOUS
 62
    6
 10
56.85616260407744
 20
172.46501508612494
 11
56.185850104077417
 21
172.01814008612496
  0
LINE
  8
_1-5_1-5___
  6
CONTINUOUS
 62
    6
 10
56.185850104077417
 20
172.01814008612496
 11
56.185850104077417
 21
171.79470258612491
  0
LINE
  8
_1-5_1-5___
  6
CONTINUOUS
 62
    6
 10
56.185850104077417
 20
171.79470258612491
 11
56.85616260407744
 21
171.34782762486793
  0
LINE
  8
_1-5_1-5___
  6
CONTINUOUS
 62
    6
 10
60.20772510407744
 20
173.35876512486794
 11
59.872568854077429
 21
173.13532762486795
  0
LINE
  8
_1-5_1-5___
  6
CONTINUOUS
 62
    6
 10
59.872568854077429
 20
173.13532762486795
 11
56.185850104077417
 21
173.13532762486795
  0
LINE
  8
_1-5_1-5___
  6
CONTINUOUS
 62
    6
 10
56.185850104077417
 20
173.13532762486795
 11
55.850693854077434
 21
173.35876512486794
  0
LINE
  8
_1-5_1-5___
  6
CONTINUOUS
 62
    6
 10
55.850693854077434
 20
173.35876512486794
 11
55.850693854077434
 21
174.02907762486797
  0
LINE
  8
_1-5_1-5___
  6
CONTINUOUS
 62
    6
 10
55.850693854077434
 20
174.02907762486797
 11
56.185850104077417
 21
174.25251512486795
  0
LINE
  8
_1-5_1-5___
  6
CONTINUOUS
 62
    6
 10
56.185850104077417
 20
174.25251512486795
 11
59.872568854077429
 21
174.25251512486795
  0
LINE
  8
_1-5_1-5___
  6
CONTINUOUS
 62
    6
 10
59.872568854077429
 20
174.25251512486795
 11
60.20772510407744
 21
174.02907762486797
  0
LINE
  8
_1-5_1-5___
  6
CONTINUOUS
 62
    6
 10
60.20772510407744
 20
174.02907762486797
 11
60.20772510407744
 21
173.35876512486794
  0
LINE
  8
_1-5_1-5___
  6
CONTINUOUS
 62
    6
 10
59.537412604077417
 20
175.14626496989587
 11
60.20772510407744
 21
175.5931399698959
  0
LINE
  8
_1-5_1-5___
  6
CONTINUOUS
 62
    6
 10
60.20772510407744
 20
175.5931399698959
 11
55.850693854077434
 21
175.5931399698959
  0
LINE
  8
_1-5_1-5___
  6
CONTINUOUS
 62
    6
 10
55.850693854077434
 20
175.36970246989586
 11
55.850693854077434
 21
175.81657746989589
  0
LINE
  8
_1-5_1-5___
  6
CONTINUOUS
 62
    6
 10
56.185850104077417
 20
176.93376496989589
 11
56.185850104077417
 21
176.7103274698959
  0
LINE
  8
_1-5_1-5___
  6
CONTINUOUS
 62
    6
 10
56.185850104077417
 20
176.7103274698959
 11
55.850693854077434
 21
176.7103274698959
  0
LINE
  8
_1-5_1-5___
  6
CONTINUOUS
 62
    6
 10
55.850693854077434
 20
176.7103274698959
 11
55.850693854077434
 21
176.93376496989589
  0
LINE
  8
_1-5_1-5___
  6
CONTINUOUS
 62
    6
 10
55.850693854077434
 20
176.93376496989589
 11
56.185850104077417
 21
176.93376496989589
  0
LINE
  8
_1-5_1-5___
  6
CONTINUOUS
 62
    6
 10
60.20772510407744
 20
178.49782746989587
 11
56.185850104077417
 21
178.49782746989587
  0
LINE
  8
_1-5_1-5___
  6
CONTINUOUS
 62
    6
 10
58.196787604077429
 20
178.49782746989587
 11
58.867100104077451
 21
178.9447024698959
  0
LINE
  8
_1-5_1-5___
  6
CONTINUOUS
 62
    6
 10
58.867100104077451
 20
178.9447024698959
 11
58.867100104077451
 21
179.16813996989589
  0
LINE
  8
_1-5_1-5___
  6
CONTINUOUS
 62
    6
 10
58.867100104077451
 20
179.16813996989589
 11
58.196787604077429
 21
179.61501496989587
  0
LINE
  8
_1-5_1-5___
  6
CONTINUOUS
 62
    6
 10
58.196787604077429
 20
179.61501496989587
 11
56.85616260407744
 21
179.61501496989587
  0
LINE
  8
_1-5_1-5___
  6
CONTINUOUS
 62
    6
 10
56.85616260407744
 20
179.61501496989587
 11
56.185850104077417
 21
179.16813996989589
  0
LINE
  8
_1-5_1-5___
  6
CONTINUOUS
 62
    6
 10
56.185850104077417
 20
179.16813996989589
 11
56.185850104077417
 21
178.9447024698959
  0
LINE
  8
_1-5_1-5___
  6
CONTINUOUS
 62
    6
 10
56.185850104077417
 20
178.9447024698959
 11
56.85616260407744
 21
178.49782746989587
  0
LINE
  8
_1-5_1-5___
  6
CONTINUOUS
 62
    6
 10
60.20772510407744
 20
180.50876496989588
 11
60.20772510407744
 21
180.73220246989587
  0
LINE
  8
_1-5_1-5___
  6
CONTINUOUS
 62
    6
 10
60.20772510407744
 20
180.73220246989587
 11
56.185850104077417
 21
180.73220246989587
  0
LINE
  8
_1-5_1-5___
  6
CONTINUOUS
 62
    6
 10
58.867100104077451
 20
182.74314058978416
 11
58.867100104077451
 21
182.51970246989589
  0
LINE
  8
_1-5_1-5___
  6
CONTINUOUS
 62
    6
 10
58.867100104077451
 20
182.51970246989589
 11
58.196787604077429
 21
182.07282746989586
  0
LINE
  8
_1-5_1-5___
  6
CONTINUOUS
 62
    6
 10
58.196787604077429
 20
182.07282746989586
 11
56.85616260407744
 21
182.07282746989586
  0
LINE
  8
_1-5_1-5___
  6
CONTINUOUS
 62
    6
 10
56.85616260407744
 20
182.07282746989586
 11
56.185850104077417
 21
182.51970246989589
  0
LINE
  8
_1-5_1-5___
  6
CONTINUOUS
 62
    6
 10
56.185850104077417
 20
182.51970246989589
 11
56.185850104077417
 21
182.74314058978416
  0
LINE
  8
_1-5_1-5___
  6
CONTINUOUS
 62
    6
 10
56.185850104077417
 20
182.74314058978416
 11
56.85616260407744
 21
183.1900155897842
  0
LINE
  8
_1-5_1-5___
  6
CONTINUOUS
 62
    6
 10
56.85616260407744
 20
183.1900155897842
 11
58.196787604077429
 21
183.1900155897842
  0
LINE
  8
_1-5_1-5___
  6
CONTINUOUS
 62
    6
 10
58.196787604077429
 20
183.1900155897842
 11
58.867100104077451
 21
182.74314058978416
  0
LINE
  8
_1-5_1-5___
  6
CONTINUOUS
 62
    6
 10
58.196787604077429
 20
184.97751558978416
 11
58.867100104077451
 21
184.53064058978418
  0
LINE
  8
_1-5_1-5___
  6
CONTINUOUS
 62
    6
 10
58.867100104077451
 20
184.53064058978418
 11
58.867100104077451
 21
184.3072030897842
  0
LINE
  8
_1-5_1-5___
  6
CONTINUOUS
 62
    6
 10
58.867100104077451
 20
184.3072030897842
 11
58.196787604077429
 21
183.86032808978416
  0
LINE
  8
_1-5_1-5___
  6
CONTINUOUS
 62
    6
 10
58.196787604077429
 20
183.86032808978416
 11
57.191318854077451
 21
183.86032808978416
  0
LINE
  8
_1-5_1-5___
  6
CONTINUOUS
 62
    6
 10
57.191318854077451
 20
183.86032808978416
 11
56.521006354077429
 21
184.3072030897842
  0
LINE
  8
_1-5_1-5___
  6
CONTINUOUS
 62
    6
 10
56.521006354077429
 20
184.3072030897842
 11
56.521006354077429
 21
184.53064058978418
  0
LINE
  8
_1-5_1-5___
  6
CONTINUOUS
 62
    6
 10
56.521006354077429
 20
184.53064058978418
 11
57.191318854077451
 21
184.97751558978416
  0
LINE
  8
_1-5_1-5___
  6
CONTINUOUS
 62
    6
 10
58.867100104077451
 20
184.97751558978416
 11
56.185850104077417
 21
184.97751558978416
  0
LINE
  8
_1-5_1-5___
  6
CONTINUOUS
 62
    6
 10
56.185850104077417
 20
184.97751558978416
 11
55.515537604077451
 21
184.53064058978418
  0
LINE
  8
_1-5_1-5___
  6
CONTINUOUS
 62
    6
 10
55.515537604077451
 20
184.53064058978418
 11
55.515537604077451
 21
184.08376558978421
  0
LINE
  8
_1-5_1-5___
  6
CONTINUOUS
 62
    6
 10
55.515537604077451
 20
184.08376558978421
 11
55.850693854077434
 21
183.86032808978416
  0
LINE
  8
_1-5_1-5___
  6
CONTINUOUS
 62
    6
 10
58.196787604077429
 20
186.76501558978418
 11
58.867100104077451
 21
186.31814058978421
  0
LINE
  8
_1-5_1-5___
  6
CONTINUOUS
 62
    6
 10
58.867100104077451
 20
186.31814058978421
 11
58.867100104077451
 21
186.09470308978416
  0
LINE
  8
_1-5_1-5___
  6
CONTINUOUS
 62
    6
 10
58.867100104077451
 20
186.09470308978416
 11
58.196787604077429
 21
185.64782808978418
  0
LINE
  8
_1-5_1-5___
  6
CONTINUOUS
 62
    6
 10
58.196787604077429
 20
185.64782808978418
 11
57.861631354077417
 21
185.64782808978418
  0
LINE
  8
_1-5_1-5___
  6
CONTINUOUS
 62
    6
 10
57.861631354077417
 20
185.64782808978418
 11
57.526475109525677
 21
185.87126558978417
  0
LINE
  8
_1-5_1-5___
  6
CONTINUOUS
 62
    6
 10
57.526475109525677
 20
185.87126558978417
 11
57.526475109525677
 21
186.5415780897842
  0
LINE
  8
_1-5_1-5___
  6
CONTINUOUS
 62
    6
 10
57.526475109525677
 20
186.5415780897842
 11
57.191318854077451
 21
186.76501558978418
  0
LINE
  8
_1-5_1-5___
  6
CONTINUOUS
 62
    6
 10
57.191318854077451
 20
186.76501558978418
 11
56.85616260407744
 21
186.76501558978418
  0
LINE
  8
_1-5_1-5___
  6
CONTINUOUS
 62
    6
 10
56.85616260407744
 20
186.76501558978418
 11
56.185850104077417
 21
186.31814058978421
  0
LINE
  8
_1-5_1-5___
  6
CONTINUOUS
 62
    6
 10
56.185850104077417
 20
186.31814058978421
 11
56.185850104077417
 21
186.09470308978416
  0
LINE
  8
_1-5_1-5___
  6
CONTINUOUS
 62
    6
 10
56.185850104077417
 20
186.09470308978416
 11
56.85616260407744
 21
185.64782808978418
  0
LINE
  8
_1-5_1-5___
  6
CONTINUOUS
 62
    6
 10
58.867100104077451
 20
187.43532808978421
 11
55.515537604077451
 21
187.43532808978421
  0
LINE
  8
_1-5_1-5___
  6
CONTINUOUS
 62
    6
 10
58.196787604077429
 20
187.43532808978421
 11
58.867100104077451
 21
187.88220308978418
  0
LINE
  8
_1-5_1-5___
  6
CONTINUOUS
 62
    6
 10
58.867100104077451
 20
187.88220308978418
 11
58.867100104077451
 21
188.10564058978417
  0
LINE
  8
_1-5_1-5___
  6
CONTINUOUS
 62
    6
 10
58.867100104077451
 20
188.10564058978417
 11
58.196787604077429
 21
188.55251558978421
  0
LINE
  8
_1-5_1-5___
  6
CONTINUOUS
 62
    6
 10
58.196787604077429
 20
188.55251558978421
 11
57.191318854077451
 21
188.55251558978421
  0
LINE
  8
_1-5_1-5___
  6
CONTINUOUS
 62
    6
 10
57.191318854077451
 20
188.55251558978421
 11
56.521006354077429
 21
188.10564058978417
  0
LINE
  8
_1-5_1-5___
  6
CONTINUOUS
 62
    6
 10
56.521006354077429
 20
188.10564058978417
 11
56.521006354077429
 21
187.88220308978418
  0
LINE
  8
_1-5_1-5___
  6
CONTINUOUS
 62
    6
 10
56.521006354077429
 20
187.88220308978418
 11
57.191318854077451
 21
187.43532808978421
  0
LINE
  8
_1-5_1-5___
  6
CONTINUOUS
 62
    6
 10
58.867100104077451
 20
189.8931405897842
 11
58.867100104077451
 21
189.66970308978421
  0
LINE
  8
_1-5_1-5___
  6
CONTINUOUS
 62
    6
 10
58.867100104077451
 20
189.66970308978421
 11
58.196787604077429
 21
189.22282808978417
  0
LINE
  8
_1-5_1-5___
  6
CONTINUOUS
 62
    6
 10
58.196787604077429
 20
189.22282808978417
 11
56.85616260407744
 21
189.22282808978417
  0
LINE
  8
_1-5_1-5___
  6
CONTINUOUS
 62
    6
 10
56.85616260407744
 20
189.22282808978417
 11
56.185850104077417
 21
189.66970308978421
  0
LINE
  8
_1-5_1-5___
  6
CONTINUOUS
 62
    6
 10
56.185850104077417
 20
189.66970308978421
 11
56.185850104077417
 21
189.8931405897842
  0
LINE
  8
_1-5_1-5___
  6
CONTINUOUS
 62
    6
 10
56.185850104077417
 20
189.8931405897842
 11
56.85616260407744
 21
190.34001558978417
  0
LINE
  8
_1-5_1-5___
  6
CONTINUOUS
 62
    6
 10
56.85616260407744
 20
190.34001558978417
 11
58.196787604077429
 21
190.34001558978417
  0
LINE
  8
_1-5_1-5___
  6
CONTINUOUS
 62
    6
 10
58.196787604077429
 20
190.34001558978417
 11
58.867100104077451
 21
189.8931405897842
  0
LINE
  8
_1-5_1-5___
  6
CONTINUOUS
 62
    6
 10
58.867100104077451
 20
191.0103280897842
 11
58.867100104077451
 21
191.90407808978421
  0
LINE
  8
_1-5_1-5___
  6
CONTINUOUS
 62
    6
 10
59.537412604077417
 20
191.45720308978417
 11
56.521006354077429
 21
191.45720308978417
  0
LINE
  8
_1-5_1-5___
  6
CONTINUOUS
 62
    6
 10
56.521006354077429
 20
191.45720308978417
 11
56.185850104077417
 21
191.68064058978416
  0
LINE
  8
_1-5_1-5___
  6
CONTINUOUS
 62
    6
 10
56.185850104077417
 20
191.68064058978416
 11
56.185850104077417
 21
191.90407808978421
  0
LINE
  8
_1-5_1-5___
  6
CONTINUOUS
 62
    6
 10
56.185850104077417
 20
191.90407808978421
 11
56.521006354077429
 21
192.1275155897842
  0
LINE
  8
_1-5_1-5___
  6
CONTINUOUS
 62
    6
 10
56.521006354077429
 20
192.1275155897842
 11
56.85616260407744
 21
192.1275155897842
  0
LINE
  8
_1-5_1-5___
  6
CONTINUOUS
 62
    6
 10
56.185850104077417
 20
193.02126558978421
 11
56.185850104077417
 21
192.79782808978416
  0
LINE
  8
_1-5_1-5___
  6
CONTINUOUS
 62
    6
 10
56.185850104077417
 20
192.79782808978416
 11
55.850693854077434
 21
192.79782808978416
  0
LINE
  8
_1-5_1-5___
  6
CONTINUOUS
 62
    6
 10
55.850693854077434
 20
192.79782808978416
 11
55.850693854077434
 21
193.02126558978421
  0
LINE
  8
_1-5_1-5___
  6
CONTINUOUS
 62
    6
 10
55.850693854077434
 20
193.02126558978421
 11
56.185850104077417
 21
193.02126558978421
  0
LINE
  8
_1-5_1-5___
  6
CONTINUOUS
 62
    6
 10
59.872568854077429
 20
195.4790780897842
 11
59.537412604077417
 21
195.4790780897842
  0
LINE
  8
_1-5_1-5___
  6
CONTINUOUS
 62
    6
 10
58.53194385407744
 20
195.4790780897842
 11
55.850693854077434
 21
195.4790780897842
  0
LINE
  8
_1-5_1-5___
  6
CONTINUOUS
 62
    6
 10
55.850693854077434
 20
195.4790780897842
 11
55.515537604077423
 21
195.25564058978421
  0
LINE
  8
_1-5_1-5___
  6
CONTINUOUS
 62
    6
 10
55.515537604077423
 20
195.25564058978421
 11
55.515537604077423
 21
195.03220308978416
  0
LINE
  8
_1-5_1-5___
  6
CONTINUOUS
 62
    6
 10
55.515537604077423
 20
195.03220308978416
 11
55.850693854077434
 21
194.80876558978417
  0
LINE
  8
_1-5_1-5___
  6
CONTINUOUS
 62
    6
 10
55.850693854077434
 20
194.80876558978417
 11
56.185850104077417
 21
194.80876558978417
  0
LINE
  8
_1-5_1-5___
  6
CONTINUOUS
 62
    6
 10
58.867100104077451
 20
196.37282808978421
 11
55.515537604077423
 21
196.37282808978421
  0
LINE
  8
_1-5_1-5___
  6
CONTINUOUS
 62
    6
 10
58.196787604077429
 20
196.37282808978421
 11
58.867100104077423
 21
196.81970308978418
  0
LINE
  8
_1-5_1-5___
  6
CONTINUOUS
 62
    6
 10
58.867100104077423
 20
196.81970308978418
 11
58.867100104077423
 21
197.04314058978417
  0
LINE
  8
_1-5_1-5___
  6
CONTINUOUS
 62
    6
 10
58.867100104077423
 20
197.04314058978417
 11
58.196787604077429
 21
197.49001558978421
  0
LINE
  8
_1-5_1-5___
  6
CONTINUOUS
 62
    6
 10
58.196787604077429
 20
197.49001558978421
 11
57.191318854077423
 21
197.49001558978421
  0
LINE
  8
_1-5_1-5___
  6
CONTINUOUS
 62
    6
 10
57.191318854077423
 20
197.49001558978421
 11
56.521006354077429
 21
197.04314058978417
  0
LINE
  8
_1-5_1-5___
  6
CONTINUOUS
 62
    6
 10
56.521006354077429
 20
197.04314058978417
 11
56.521006354077429
 21
196.81970308978418
  0
LINE
  8
_1-5_1-5___
  6
CONTINUOUS
 62
    6
 10
56.521006354077429
 20
196.81970308978418
 11
57.191318854077423
 21
196.37282808978421
  0
LINE
  8
_1-5_1-5___
  6
CONTINUOUS
 62
    6
 10
60.20772510407744
 20
199.27751558978417
 11
55.850693854077434
 21
198.16032808978417
  0
LINE
  8
_1-5_1-5___
  6
CONTINUOUS
 62
    6
 10
160.92594148141643
 20
190.46599223308266
 11
160.92594148141643
 21
188.20893623523415
  0
LINE
  8
_1-5_1-5___
  6
CONTINUOUS
 62
    6
 10
156.4964345834901
 20
190.0892200677842
 11
156.8401845834901
 21
190.7767200677842
  0
LINE
  8
_1-5_1-5___
  6
CONTINUOUS
 62
    6
 10
156.8401845834901
 20
190.7767200677842
 11
157.5276845834901
 21
191.4642200677842
  0
LINE
  8
_1-5_1-5___
  6
CONTINUOUS
 62
    6
 10
157.5276845834901
 20
191.4642200677842
 11
158.21518464309474
 21
191.8079700677842
  0
LINE
  8
_1-5_1-5___
  6
CONTINUOUS
 62
    6
 10
158.21518464309474
 20
191.8079700677842
 11
159.93393464309474
 21
191.8079700677842
  0
LINE
  8
_1-5_1-5___
  6
CONTINUOUS
 62
    6
 10
159.93393464309474
 20
191.8079700677842
 11
160.6214345834901
 21
191.4642200677842
  0
LINE
  8
_1-5_1-5___
  6
CONTINUOUS
 62
    6
 10
160.6214345834901
 20
191.4642200677842
 11
161.3089345834901
 21
190.7767200677842
  0
LINE
  8
_1-5_1-5___
  6
CONTINUOUS
 62
    6
 10
161.3089345834901
 20
190.7767200677842
 11
161.6526845834901
 21
190.0892200677842
  0
LINE
  8
_1-5_1-5___
  6
CONTINUOUS
 62
    6
 10
161.6526845834901
 20
190.0892200677842
 11
161.6526845834901
 21
188.7142200677842
  0
LINE
  8
_1-5_1-5___
  6
CONTINUOUS
 62
    6
 10
161.6526845834901
 20
188.7142200677842
 11
161.3089345834901
 21
188.0267200677842
  0
LINE
  8
_1-5_1-5___
  6
CONTINUOUS
 62
    6
 10
161.3089345834901
 20
188.0267200677842
 11
160.6214345834901
 21
187.3392200677842
  0
LINE
  8
_1-5_1-5___
  6
CONTINUOUS
 62
    6
 10
160.6214345834901
 20
187.3392200677842
 11
159.93393464309474
 21
186.9954700677842
  0
LINE
  8
_1-5_1-5___
  6
CONTINUOUS
 62
    6
 10
159.93393464309474
 20
186.9954700677842
 11
158.21518464309474
 21
186.9954700677842
  0
LINE
  8
_1-5_1-5___
  6
CONTINUOUS
 62
    6
 10
158.21518464309474
 20
186.9954700677842
 11
157.5276845834901
 21
187.3392200677842
  0
LINE
  8
_1-5_1-5___
  6
CONTINUOUS
 62
    6
 10
157.5276845834901
 20
187.3392200677842
 11
156.8401845834901
 21
188.0267200677842
  0
LINE
  8
_1-5_1-5___
  6
CONTINUOUS
 62
    6
 10
156.8401845834901
 20
188.0267200677842
 11
156.4964345834901
 21
188.7142200677842
  0
LINE
  8
_1-5_1-5___
  6
CONTINUOUS
 62
    6
 10
156.4964345834901
 20
188.7142200677842
 11
156.4964345834901
 21
190.0892200677842
  0
LINE
  8
_1-5_1-5___
  6
CONTINUOUS
 62
    6
 10
157.5276845834901
 20
188.7142200677842
 11
157.5276845834901
 21
189.40172003798187
  0
LINE
  8
_1-5_1-5___
  6
CONTINUOUS
 62
    6
 10
157.5276845834901
 20
189.40172003798187
 11
158.21518464309474
 21
190.0892200677842
  0
LINE
  8
_1-5_1-5___
  6
CONTINUOUS
 62
    6
 10
158.21518464309474
 20
190.0892200677842
 11
158.90268464309474
 21
190.4329700677842
  0
LINE
  8
_1-5_1-5___
  6
CONTINUOUS
 62
    6
 10
158.90268464309474
 20
190.4329700677842
 11
159.93393464309474
 21
190.4329700677842
  0
LINE
  8
_1-5_1-5___
  6
CONTINUOUS
 62
    6
 10
159.93393464309474
 20
190.4329700677842
 11
160.6214345834901
 21
189.74547003798187
  0
LINE
  8
_1-5_1-5___
  6
CONTINUOUS
 62
    6
 10
160.6214345834901
 20
189.74547003798187
 11
160.6214345834901
 21
189.05797003798187
  0
LINE
  8
_1-5_1-5___
  6
CONTINUOUS
 62
    6
 10
160.6214345834901
 20
189.05797003798187
 11
159.93393464309474
 21
188.3704700677842
  0
LINE
  8
_1-5_1-5___
  6
CONTINUOUS
 62
    6
 10
159.93393464309474
 20
188.3704700677842
 11
159.59018464309474
 21
188.3704700677842
  0
LINE
  8
_1-5_1-5___
  6
CONTINUOUS
 62
    6
 10
159.59018464309474
 20
188.3704700677842
 11
158.90268464309474
 21
189.05797003798187
  0
LINE
  8
_1-5_1-5___
  6
CONTINUOUS
 62
    6
 10
158.90268464309474
 20
189.05797003798187
 11
158.90268464309474
 21
189.74547003798187
  0
LINE
  8
_1-5_1-5___
  6
CONTINUOUS
 62
    6
 10
158.90268464309474
 20
189.74547003798187
 11
159.59018464309474
 21
190.4329700677842
  0
LINE
  8
_1-5_1-5___
  6
CONTINUOUS
 62
    6
 10
170.44449379079794
 20
193.70408467704357
 11
170.44449379079794
 21
184.95408467704357
  0
LINE
  8
_1-5_1-5___
  6
CONTINUOUS
 62
    6
 10
169.81949379079794
 20
189.32908487262131
 11
170.44449379079794
 21
189.32908487262131
  0
LINE
  8
_1-5_1-5___
  6
CONTINUOUS
 62
    6
 10
171.69449402921651
 20
189.32908487262131
 11
176.69449402921651
 21
189.32908487262131
  0
LINE
  8
_1-5_1-5___
  6
CONTINUOUS
 62
    6
 10
174.19449402921651
 20
186.20408491546215
 11
171.69449402921651
 21
186.20408491546215
  0
LINE
  8
_1-5_1-5___
  6
CONTINUOUS
 62
    6
 10
171.69449402921651
 20
186.20408491546215
 11
171.69449402921651
 21
192.45408491546215
  0
LINE
  8
_1-5_1-5___
  6
CONTINUOUS
 62
    6
 10
171.69449402921651
 20
192.45408491546215
 11
174.19449402921651
 21
192.45408491546215
  0
LINE
  8
_1-5_1-5___
  6
CONTINUOUS
 62
    6
 10
174.19449402921651
 20
192.45408491546215
 11
174.19449402921651
 21
186.20408491546215
  0
LINE
  8
_1-5_1-5___
  6
CONTINUOUS
 62
    6
 10
172.94449402921651
 20
186.20408491546215
 11
172.94449402921651
 21
192.45408491546215
  0
LINE
  8
_1-5_1-5___
  6
CONTINUOUS
 62
    6
 10
175.44449401431535
 20
193.07908491546215
 11
175.44449401431535
 21
185.57908491546215
  0
LINE
  8
_1-5_1-5___
  6
CONTINUOUS
 62
    6
 10
176.69449402921651
 20
184.95408467704357
 11
176.69449402921651
 21
193.70408467704357
  0
LINE
  8
_1-5_1-5___
  6
CONTINUOUS
 62
    6
 10
178.56949402921651
 20
193.70408467704357
 11
176.69449402921651
 21
189.9540848558575
  0
LINE
  8
_1-5_1-5___
  6
CONTINUOUS
 62
    6
 10
177.31949402921651
 20
191.20408491546215
 11
179.19449402921651
 21
191.20408491546215
  0
LINE
  8
_1-5_1-5___
  6
CONTINUOUS
 62
    6
 10
179.19449402921651
 20
192.45408491546215
 11
179.19449402921651
 21
191.20408491546215
  0
LINE
  8
_1-5_1-5___
  6
CONTINUOUS
 62
    6
 10
179.19449402921651
 20
191.20408491546215
 11
178.56949402921651
 21
188.7040848558575
  0
LINE
  8
_1-5_1-5___
  6
CONTINUOUS
 62
    6
 10
176.69449402921651
 20
188.7040848558575
 11
177.94449402921651
 21
187.45408491546215
  0
LINE
  8
_1-5_1-5___
  6
CONTINUOUS
 62
    6
 10
177.94449402921651
 20
187.45408491546215
 11
179.19449402921651
 21
184.95408467704357
  0
LINE
  8
_1-5_1-5___
  6
CONTINUOUS
 62
    6
 10
177.31949402921651
 20
185.57908491546215
 11
177.94449402921651
 21
187.45408491546215
  0
LINE
  8
_1-5_1-5___
  6
CONTINUOUS
 62
    6
 10
123.68521224179531
 20
167.45391793290884
 11
123.99771224179531
 21
168.39141793290884
  0
LINE
  8
_1-5_1-5___
  6
CONTINUOUS
 62
    6
 10
123.99771224179531
 20
168.39141793290884
 11
124.62271224179531
 21
167.14141781369955
  0
LINE
  8
_1-5_1-5___
  6
CONTINUOUS
 62
    6
 10
123.37271224179531
 20
169.01641790310651
 11
123.99771224179531
 21
168.39141793290884
  0
LINE
  8
_1-5_1-5___
  6
CONTINUOUS
 62
    6
 10
124.62271224179531
 20
170.26641793290884
 11
124.31021224179531
 21
169.01641790310651
  0
LINE
  8
_1-5_1-5___
  6
CONTINUOUS
 62
    6
 10
124.62271224179531
 20
170.89141793290884
 11
124.62271224179531
 21
170.26641793290884
  0
LINE
  8
_1-5_1-5___
  6
CONTINUOUS
 62
    6
 10
123.68521224179531
 20
170.26641793290884
 11
124.62271224179531
 21
170.26641793290884
  0
LINE
  8
_1-5_1-5___
  6
CONTINUOUS
 62
    6
 10
124.31021224179531
 20
171.51641781369955
 11
123.37271224179531
 21
169.64141790310651
  0
LINE
  8
_1-5_1-5___
  6
CONTINUOUS
 62
    6
 10
123.37271224179531
 20
167.14141781369955
 11
123.37271224179531
 21
171.51641781369955
  0
LINE
  8
_1-5_1-5___
  6
CONTINUOUS
 62
    6
 10
122.74771223434473
 20
171.20391793290884
 11
122.74771223434473
 21
167.45391793290884
  0
LINE
  8
_1-5_1-5___
  6
CONTINUOUS
 62
    6
 10
121.49771224179531
 20
167.76641793290884
 11
121.49771224179531
 21
170.89141793290884
  0
LINE
  8
_1-5_1-5___
  6
CONTINUOUS
 62
    6
 10
122.12271224179531
 20
170.89141793290884
 11
122.12271224179531
 21
167.76641793290884
  0
LINE
  8
_1-5_1-5___
  6
CONTINUOUS
 62
    6
 10
120.87271224179531
 20
170.89141793290884
 11
122.12271224179531
 21
170.89141793290884
  0
LINE
  8
_1-5_1-5___
  6
CONTINUOUS
 62
    6
 10
120.87271224179531
 20
167.76641793290884
 11
120.87271224179531
 21
170.89141793290884
  0
LINE
  8
_1-5_1-5___
  6
CONTINUOUS
 62
    6
 10
122.12271224179531
 20
167.76641793290884
 11
120.87271224179531
 21
167.76641793290884
  0
LINE
  8
_1-5_1-5___
  6
CONTINUOUS
 62
    6
 10
120.87271224179531
 20
169.32891791148842
 11
123.37271224179531
 21
169.32891791148842
  0
LINE
  8
_1-5_1-5___
  6
CONTINUOUS
 62
    6
 10
119.93521212258602
 20
169.32891791148842
 11
120.24771212258602
 21
169.32891791148842
  0
LINE
  8
_1-5_1-5___
  6
CONTINUOUS
 62
    6
 10
120.24771212258602
 20
171.51641781369955
 11
120.24771212258602
 21
167.14141781369955
  0
LINE
  8
_1-5_1-5___
  6
CONTINUOUS
 62
    6
 10
132.94900969566658
 20
168.18690955844949
 11
132.60525969566658
 21
168.18690955844949
  0
LINE
  8
_1-5_1-5___
  6
CONTINUOUS
 62
    6
 10
132.94900969566658
 20
169.21815956590007
 11
132.94900969566658
 21
168.18690955844949
  0
LINE
  8
_1-5_1-5___
  6
CONTINUOUS
 62
    6
 10
132.60525969566658
 20
169.21815956590007
 11
132.94900969566658
 21
169.21815956590007
  0
LINE
  8
_1-5_1-5___
  6
CONTINUOUS
 62
    6
 10
130.88650963606193
 20
168.18690955844949
 11
132.60525969566658
 21
169.21815956590007
  0
LINE
  8
_1-5_1-5___
  6
CONTINUOUS
 62
    6
 10
130.19900969566658
 20
168.18690955844949
 11
130.88650963606193
 21
168.18690955844949
  0
LINE
  8
_1-5_1-5___
  6
CONTINUOUS
 62
    6
 10
129.85525969566658
 20
168.53065955844949
 11
130.19900969566658
 21
168.18690955844949
  0
LINE
  8
_1-5_1-5___
  6
CONTINUOUS
 62
    6
 10
129.85525969566658
 20
168.87440955844949
 11
129.85525969566658
 21
168.53065955844949
  0
LINE
  8
_1-5_1-5___
  6
CONTINUOUS
 62
    6
 10
130.19900969566658
 20
169.21815956590007
 11
129.85525969566658
 21
168.87440955844949
  0
LINE
  8
_1-5_1-5___
  6
CONTINUOUS
 62
    6
 10
130.54275963606193
 20
169.21815956590007
 11
130.19900969566658
 21
169.21815956590007
  0
LINE
  8
_1-5_1-5___
  6
CONTINUOUS
 62
    6
 10
132.94900969566658
 20
170.59315961805413
 11
132.94900969566658
 21
169.90565955844949
  0
LINE
  8
_1-5_1-5___
  6
CONTINUOUS
 62
    6
 10
129.85525969566658
 20
170.24940961805413
 11
132.94900969566658
 21
170.24940961805413
  0
LINE
  8
_1-5_1-5___
  6
CONTINUOUS
 62
    6
 10
130.19900969566658
 20
170.59315961805413
 11
129.85525969566658
 21
170.24940961805413
  0
LINE
  8
_1-5_1-5___
  6
CONTINUOUS
 62
    6
 10
128.82400957645729
 20
168.53065955844949
 11
128.82400957645729
 21
169.90565955844949
  0
LINE
  8
_1-5_1-5___
  6
CONTINUOUS
 62
    6
 10
129.16775957645729
 20
167.84315961805413
 11
128.82400957645729
 21
168.53065955844949
  0
LINE
  8
_1-5_1-5___
  6
CONTINUOUS
 62
    6
 10
129.85525969566658
 20
167.15565949884484
 11
129.16775957645729
 21
167.84315961805413
  0
LINE
  8
_1-5_1-5___
  6
CONTINUOUS
 62
    6
 10
130.54275963606193
 20
166.81190949884484
 11
129.85525969566658
 21
167.15565949884484
  0
LINE
  8
_1-5_1-5___
  6
CONTINUOUS
 62
    6
 10
132.26150963606193
 20
166.81190949884484
 11
130.54275963606193
 21
166.81190949884484
  0
LINE
  8
_1-5_1-5___
  6
CONTINUOUS
 62
    6
 10
132.94900969566658
 20
167.15565949884484
 11
132.26150963606193
 21
166.81190949884484
  0
LINE
  8
_1-5_1-5___
  6
CONTINUOUS
 62
    6
 10
133.63650957645729
 20
167.84315961805413
 11
132.94900969566658
 21
167.15565949884484
  0
LINE
  8
_1-5_1-5___
  6
CONTINUOUS
 62
    6
 10
133.98025957645729
 20
168.53065955844949
 11
133.63650957645729
 21
167.84315961805413
  0
LINE
  8
_1-5_1-5___
  6
CONTINUOUS
 62
    6
 10
133.98025957645729
 20
169.90565955844949
 11
133.98025957645729
 21
168.53065955844949
  0
LINE
  8
_1-5_1-5___
  6
CONTINUOUS
 62
    6
 10
133.63650957645729
 20
170.59315961805413
 11
133.98025957645729
 21
169.90565955844949
  0
LINE
  8
_1-5_1-5___
  6
CONTINUOUS
 62
    6
 10
132.94900969566658
 20
171.28065949884484
 11
133.63650957645729
 21
170.59315961805413
  0
LINE
  8
_1-5_1-5___
  6
CONTINUOUS
 62
    6
 10
132.26150963606193
 20
171.62440949884484
 11
132.94900969566658
 21
171.28065949884484
  0
LINE
  8
_1-5_1-5___
  6
CONTINUOUS
 62
    6
 10
130.54275963606193
 20
171.62440949884484
 11
132.26150963606193
 21
171.62440949884484
  0
LINE
  8
_1-5_1-5___
  6
CONTINUOUS
 62
    6
 10
129.85525969566658
 20
171.28065949884484
 11
130.54275963606193
 21
171.62440949884484
  0
LINE
  8
_1-5_1-5___
  6
CONTINUOUS
 62
    6
 10
129.16775957645729
 20
170.59315961805413
 11
129.85525969566658
 21
171.28065949884484
  0
LINE
  8
_1-5_1-5___
  6
CONTINUOUS
 62
    6
 10
128.82400957645729
 20
169.90565955844949
 11
129.16775957645729
 21
170.59315961805413
  0
LINE
  8
_1-5_1-5___
  6
CONTINUOUS
 62
    6
 10
198.35906572923872
 20
32.681757920733119
 11
199.04656578884337
 21
32.338007920733119
  0
LINE
  8
_1-5_1-5___
  6
CONTINUOUS
 62
    6
 10
199.04656578884337
 20
32.338007920733119
 11
199.73406566963408
 21
31.650507920733119
  0
LINE
  8
_1-5_1-5___
  6
CONTINUOUS
 62
    6
 10
199.73406566963408
 20
31.650507920733119
 11
200.07781566963408
 21
30.963007920733119
  0
LINE
  8
_1-5_1-5___
  6
CONTINUOUS
 62
    6
 10
200.07781566963408
 20
30.963007920733119
 11
200.07781566963408
 21
29.244257920733119
  0
LINE
  8
_1-5_1-5___
  6
CONTINUOUS
 62
    6
 10
200.07781566963408
 20
29.244257920733119
 11
199.73406566963408
 21
28.556757920733119
  0
LINE
  8
_1-5_1-5___
  6
CONTINUOUS
 62
    6
 10
199.73406566963408
 20
28.556757920733119
 11
199.04656578884337
 21
27.869257920733119
  0
LINE
  8
_1-5_1-5___
  6
CONTINUOUS
 62
    6
 10
199.04656578884337
 20
27.869257920733119
 11
198.35906572923872
 21
27.525507920733119
  0
LINE
  8
_1-5_1-5___
  6
CONTINUOUS
 62
    6
 10
198.35906572923872
 20
27.525507920733119
 11
196.98406572923872
 21
27.525507920733119
  0
LINE
  8
_1-5_1-5___
  6
CONTINUOUS
 62
    6
 10
196.98406572923872
 20
27.525507920733119
 11
196.29656578884337
 21
27.869257920733119
  0
LINE
  8
_1-5_1-5___
  6
CONTINUOUS
 62
    6
 10
196.29656578884337
 20
27.869257920733119
 11
195.60906566963408
 21
28.556757920733119
  0
LINE
  8
_1-5_1-5___
  6
CONTINUOUS
 62
    6
 10
195.60906566963408
 20
28.556757920733119
 11
195.26531566963408
 21
29.244257920733119
  0
LINE
  8
_1-5_1-5___
  6
CONTINUOUS
 62
    6
 10
195.26531566963408
 20
29.244257920733119
 11
195.26531566963408
 21
30.963007920733119
  0
LINE
  8
_1-5_1-5___
  6
CONTINUOUS
 62
    6
 10
195.26531566963408
 20
30.963007920733119
 11
195.60906566963408
 21
31.650507920733119
  0
LINE
  8
_1-5_1-5___
  6
CONTINUOUS
 62
    6
 10
195.60906566963408
 20
31.650507920733119
 11
196.29656578884337
 21
32.338007920733119
  0
LINE
  8
_1-5_1-5___
  6
CONTINUOUS
 62
    6
 10
196.29656578884337
 20
32.338007920733119
 11
196.98406572923872
 21
32.681757920733119
  0
LINE
  8
_1-5_1-5___
  6
CONTINUOUS
 62
    6
 10
196.98406572923872
 20
32.681757920733119
 11
198.35906572923872
 21
32.681757920733119
  0
LINE
  8
_1-5_1-5___
  6
CONTINUOUS
 62
    6
 10
199.04656578884337
 20
30.963007920733119
 11
199.04656578884337
 21
31.306757920733119
  0
LINE
  8
_1-5_1-5___
  6
CONTINUOUS
 62
    6
 10
199.04656578884337
 20
31.306757920733119
 11
198.70281578884337
 21
31.650507920733119
  0
LINE
  8
_1-5_1-5___
  6
CONTINUOUS
 62
    6
 10
198.70281578884337
 20
31.650507920733119
 11
198.35906572923872
 21
31.650507920733119
  0
LINE
  8
_1-5_1-5___
  6
CONTINUOUS
 62
    6
 10
198.35906572923872
 20
31.650507920733119
 11
198.01531575904104
 21
31.306757920733119
  0
LINE
  8
_1-5_1-5___
  6
CONTINUOUS
 62
    6
 10
198.01531575904104
 20
31.306757920733119
 11
198.01531575904104
 21
30.619257920733119
  0
LINE
  8
_1-5_1-5___
  6
CONTINUOUS
 62
    6
 10
198.01531575904104
 20
30.619257920733119
 11
199.04656578884337
 21
28.900507920733119
  0
LINE
  8
_1-5_1-5___
  6
CONTINUOUS
 62
    6
 10
199.04656578884337
 20
28.900507920733119
 11
199.04656578884337
 21
28.556757920733119
  0
LINE
  8
_1-5_1-5___
  6
CONTINUOUS
 62
    6
 10
199.04656578884337
 20
28.556757920733119
 11
198.01531575904104
 21
28.556757920733119
  0
LINE
  8
_1-5_1-5___
  6
CONTINUOUS
 62
    6
 10
198.01531575904104
 20
28.556757920733119
 11
198.01531575904104
 21
28.900507920733119
  0
LINE
  8
_1-5_1-5___
  6
CONTINUOUS
 62
    6
 10
197.32781575904104
 20
28.900507920733119
 11
196.98406572923872
 21
28.556757920733119
  0
LINE
  8
_1-5_1-5___
  6
CONTINUOUS
 62
    6
 10
196.98406572923872
 20
28.556757920733119
 11
196.64031578884337
 21
28.556757920733119
  0
LINE
  8
_1-5_1-5___
  6
CONTINUOUS
 62
    6
 10
196.64031578884337
 20
28.556757920733119
 11
196.29656578884337
 21
28.900507920733119
  0
LINE
  8
_1-5_1-5___
  6
CONTINUOUS
 62
    6
 10
196.29656578884337
 20
28.900507920733119
 11
196.29656578884337
 21
31.306757920733119
  0
LINE
  8
_1-5_1-5___
  6
CONTINUOUS
 62
    6
 10
196.29656578884337
 20
31.306757920733119
 11
196.64031578884337
 21
31.650507920733119
  0
LINE
  8
_1-5_1-5___
  6
CONTINUOUS
 62
    6
 10
196.64031578884337
 20
31.650507920733119
 11
196.98406572923872
 21
31.650507920733119
  0
LINE
  8
_1-5_1-5___
  6
CONTINUOUS
 62
    6
 10
196.98406572923872
 20
31.650507920733119
 11
197.32781575904104
 21
31.306757920733119
  0
LINE
  8
_1-5_1-5___
  6
CONTINUOUS
 62
    6
 10
197.32781575904104
 20
31.306757920733119
 11
197.32781575904104
 21
28.900507920733119
  0
LINE
  8
_1-5_1-5___
  6
CONTINUOUS
 62
    6
 10
241.90555622486758
 20
52.382746236712265
 11
241.90555622486758
 21
52.650871222407147
  0
LINE
  8
_1-5_1-5___
  6
CONTINUOUS
 62
    6
 10
241.90555622486758
 20
52.650871222407147
 11
241.6374312034099
 21
52.918996243864811
  0
LINE
  8
_1-5_1-5___
  6
CONTINUOUS
 62
    6
 10
241.6374312034099
 20
52.918996243864811
 11
241.50336872844386
 21
52.918996243864811
  0
LINE
  8
_1-5_1-5___
  6
CONTINUOUS
 62
    6
 10
241.50336872844386
 20
52.918996243864811
 11
241.23524372486759
 21
52.650871222407147
  0
LINE
  8
_1-5_1-5___
  6
CONTINUOUS
 62
    6
 10
241.23524372486759
 20
52.650871222407147
 11
241.23524372486759
 21
52.248683734924114
  0
LINE
  8
_1-5_1-5___
  6
CONTINUOUS
 62
    6
 10
241.23524372486759
 20
52.248683734924114
 11
241.77149373202013
 21
51.712433736712256
  0
LINE
  8
_1-5_1-5___
  6
CONTINUOUS
 62
    6
 10
241.77149373202013
 20
51.712433736712256
 11
241.90555622486758
 21
51.444308715254593
  0
LINE
  8
_1-5_1-5___
  6
CONTINUOUS
 62
    6
 10
241.90555622486758
 20
51.444308715254593
 11
241.90555622486758
 21
51.176183729559696
  0
LINE
  8
_1-5_1-5___
  6
CONTINUOUS
 62
    6
 10
241.90555622486758
 20
51.176183729559696
 11
241.23524372486759
 21
51.176183729559696
  0
LINE
  8
_1-5_1-5___
  6
CONTINUOUS
 62
    6
 10
240.69899375347782
 20
52.650871222407147
 11
240.43086869625736
 21
52.918996243864811
  0
LINE
  8
_1-5_1-5___
  6
CONTINUOUS
 62
    6
 10
240.43086869625736
 20
52.918996243864811
 11
240.43086869625736
 21
51.176183729559696
  0
LINE
  8
_1-5_1-5___
  6
CONTINUOUS
 62
    6
 10
240.56493122486759
 20
51.176183729559696
 11
240.2968062391727
 21
51.176183729559696
  0
CIRCLE
  8
_1-5_1-5___
  6
CONTINUOUS
 62
    6
 10
241.08398848681139
 20
51.966532861382291
 40
1.638000011444092
  0
LINE
  8
_1-5_1-5___
  6
CONTINUOUS
 62
    6
 10
225.03223346995895
 20
50.002388467661902
 11
225.71973346995895
 21
49.658638467661902
  0
LINE
  8
_1-5_1-5___
  6
CONTINUOUS
 62
    6
 10
225.71973346995895
 20
49.658638467661902
 11
226.40723335074966
 21
48.971138467661902
  0
LINE
  8
_1-5_1-5___
  6
CONTINUOUS
 62
    6
 10
226.40723335074966
 20
48.971138467661902
 11
226.75098335074966
 21
48.283638467661902
  0
LINE
  8
_1-5_1-5___
  6
CONTINUOUS
 62
    6
 10
226.75098335074966
 20
48.283638467661902
 11
226.75098335074966
 21
46.564888467661902
  0
LINE
  8
_1-5_1-5___
  6
CONTINUOUS
 62
    6
 10
226.75098335074966
 20
46.564888467661902
 11
226.40723335074966
 21
45.877388467661902
  0
LINE
  8
_1-5_1-5___
  6
CONTINUOUS
 62
    6
 10
226.40723335074966
 20
45.877388467661902
 11
225.71973346995895
 21
45.189888467661902
  0
LINE
  8
_1-5_1-5___
  6
CONTINUOUS
 62
    6
 10
225.71973346995895
 20
45.189888467661902
 11
225.03223346995895
 21
44.846138467661902
  0
LINE
  8
_1-5_1-5___
  6
CONTINUOUS
 62
    6
 10
225.03223346995895
 20
44.846138467661902
 11
223.65723346995895
 21
44.846138467661902
  0
LINE
  8
_1-5_1-5___
  6
CONTINUOUS
 62
    6
 10
223.65723346995895
 20
44.846138467661902
 11
222.96973346995895
 21
45.189888467661902
  0
LINE
  8
_1-5_1-5___
  6
CONTINUOUS
 62
    6
 10
222.96973346995895
 20
45.189888467661902
 11
222.28223346995895
 21
45.877388467661902
  0
LINE
  8
_1-5_1-5___
  6
CONTINUOUS
 62
    6
 10
222.28223346995895
 20
45.877388467661902
 11
221.93848335074966
 21
46.564888467661902
  0
LINE
  8
_1-5_1-5___
  6
CONTINUOUS
 62
    6
 10
221.93848335074966
 20
46.564888467661902
 11
221.93848335074966
 21
48.283638467661902
  0
LINE
  8
_1-5_1-5___
  6
CONTINUOUS
 62
    6
 10
221.93848335074966
 20
48.283638467661902
 11
222.28223346995895
 21
48.971138467661902
  0
LINE
  8
_1-5_1-5___
  6
CONTINUOUS
 62
    6
 10
222.28223346995895
 20
48.971138467661902
 11
222.96973346995895
 21
49.658638467661902
  0
LINE
  8
_1-5_1-5___
  6
CONTINUOUS
 62
    6
 10
222.96973346995895
 20
49.658638467661902
 11
223.65723346995895
 21
50.002388467661902
  0
LINE
  8
_1-5_1-5___
  6
CONTINUOUS
 62
    6
 10
223.65723346995895
 20
50.002388467661902
 11
225.03223346995895
 21
50.002388467661902
  0
LINE
  8
_1-5_1-5___
  6
CONTINUOUS
 62
    6
 10
225.71973346995895
 20
48.627388467661902
 11
225.37598346995895
 21
48.971138467661902
  0
LINE
  8
_1-5_1-5___
  6
CONTINUOUS
 62
    6
 10
225.37598346995895
 20
48.971138467661902
 11
225.37598346995895
 21
45.877388467661902
  0
LINE
  8
_1-5_1-5___
  6
CONTINUOUS
 62
    6
 10
225.71973346995895
 20
45.877388467661902
 11
225.03223346995895
 21
45.877388467661902
  0
LINE
  8
_1-5_1-5___
  6
CONTINUOUS
 62
    6
 10
224.00098345505779
 20
48.971138467661902
 11
224.34473345505779
 21
48.627388467661902
  0
LINE
  8
_1-5_1-5___
  6
CONTINUOUS
 62
    6
 10
224.34473345505779
 20
48.627388467661902
 11
224.34473345505779
 21
47.939888467661902
  0
LINE
  8
_1-5_1-5___
  6
CONTINUOUS
 62
    6
 10
224.34473345505779
 20
47.939888467661902
 11
224.00098345505779
 21
47.596138482563063
  0
LINE
  8
_1-5_1-5___
  6
CONTINUOUS
 62
    6
 10
224.00098345505779
 20
47.596138482563063
 11
223.65723346995895
 21
47.596138482563063
  0
LINE
  8
_1-5_1-5___
  6
CONTINUOUS
 62
    6
 10
223.65723346995895
 20
47.596138482563063
 11
223.31348346995895
 21
47.252388482563063
  0
LINE
  8
_1-5_1-5___
  6
CONTINUOUS
 62
    6
 10
223.31348346995895
 20
47.252388482563063
 11
223.31348346995895
 21
46.221138467661902
  0
LINE
  8
_1-5_1-5___
  6
CONTINUOUS
 62
    6
 10
223.31348346995895
 20
46.221138467661902
 11
223.65723346995895
 21
45.877388467661902
  0
LINE
  8
_1-5_1-5___
  6
CONTINUOUS
 62
    6
 10
223.65723346995895
 20
45.877388467661902
 11
224.00098345505779
 21
45.877388467661902
  0
LINE
  8
_1-5_1-5___
  6
CONTINUOUS
 62
    6
 10
224.00098345505779
 20
45.877388467661902
 11
224.34473345505779
 21
46.221138467661902
  0
LINE
  8
_1-5_1-5___
  6
CONTINUOUS
 62
    6
 10
224.34473345505779
 20
46.221138467661902
 11
224.34473345505779
 21
47.252388482563063
  0
LINE
  8
_1-5_1-5___
  6
CONTINUOUS
 62
    6
 10
224.34473345505779
 20
47.252388482563063
 11
224.00098345505779
 21
47.596138482563063
  0
LINE
  8
_1-5_1-5___
  6
CONTINUOUS
 62
    6
 10
223.65723346995895
 20
47.596138482563063
 11
223.31348346995895
 21
47.939888467661902
  0
LINE
  8
_1-5_1-5___
  6
CONTINUOUS
 62
    6
 10
223.31348346995895
 20
47.939888467661902
 11
223.31348346995895
 21
48.627388467661902
  0
LINE
  8
_1-5_1-5___
  6
CONTINUOUS
 62
    6
 10
223.31348346995895
 20
48.627388467661902
 11
223.65723346995895
 21
48.971138467661902
  0
LINE
  8
_1-5_1-5___
  6
CONTINUOUS
 62
    6
 10
223.65723346995895
 20
48.971138467661902
 11
224.00098345505779
 21
48.971138467661902
  0
LINE
  8
_1-5_1-5___
  6
CONTINUOUS
 62
    6
 10
225.75862973279592
 20
69.898363898912208
 11
226.44612967319128
 21
69.554613898912208
  0
LINE
  8
_1-5_1-5___
  6
CONTINUOUS
 62
    6
 10
226.44612967319128
 20
69.554613898912208
 11
227.13362967319128
 21
68.867113898912208
  0
LINE
  8
_1-5_1-5___
  6
CONTINUOUS
 62
    6
 10
227.13362967319128
 20
68.867113898912208
 11
227.47737967319128
 21
68.179613898912208
  0
LINE
  8
_1-5_1-5___
  6
CONTINUOUS
 62
    6
 10
227.47737967319128
 20
68.179613898912208
 11
227.47737967319128
 21
66.460863898912208
  0
LINE
  8
_1-5_1-5___
  6
CONTINUOUS
 62
    6
 10
227.47737967319128
 20
66.460863898912208
 11
227.13362967319128
 21
65.773363898912208
  0
LINE
  8
_1-5_1-5___
  6
CONTINUOUS
 62
    6
 10
227.13362967319128
 20
65.773363898912208
 11
226.44612967319128
 21
65.085863898912208
  0
LINE
  8
_1-5_1-5___
  6
CONTINUOUS
 62
    6
 10
226.44612967319128
 20
65.085863898912208
 11
225.75862973279592
 21
64.742113898912208
  0
LINE
  8
_1-5_1-5___
  6
CONTINUOUS
 62
    6
 10
225.75862973279592
 20
64.742113898912208
 11
224.38362973279592
 21
64.742113898912208
  0
LINE
  8
_1-5_1-5___
  6
CONTINUOUS
 62
    6
 10
224.38362973279592
 20
64.742113898912208
 11
223.69612967319128
 21
65.085863898912208
  0
LINE
  8
_1-5_1-5___
  6
CONTINUOUS
 62
    6
 10
223.69612967319128
 20
65.085863898912208
 11
223.00862967319128
 21
65.773363898912208
  0
LINE
  8
_1-5_1-5___
  6
CONTINUOUS
 62
    6
 10
223.00862967319128
 20
65.773363898912208
 11
222.66487967319128
 21
66.460863898912208
  0
LINE
  8
_1-5_1-5___
  6
CONTINUOUS
 62
    6
 10
222.66487967319128
 20
66.460863898912208
 11
222.66487967319128
 21
68.179613898912208
  0
LINE
  8
_1-5_1-5___
  6
CONTINUOUS
 62
    6
 10
222.66487967319128
 20
68.179613898912208
 11
223.00862967319128
 21
68.867113898912208
  0
LINE
  8
_1-5_1-5___
  6
CONTINUOUS
 62
    6
 10
223.00862967319128
 20
68.867113898912208
 11
223.69612967319128
 21
69.554613898912208
  0
LINE
  8
_1-5_1-5___
  6
CONTINUOUS
 62
    6
 10
223.69612967319128
 20
69.554613898912208
 11
224.38362973279592
 21
69.898363898912208
  0
LINE
  8
_1-5_1-5___
  6
CONTINUOUS
 62
    6
 10
224.38362973279592
 20
69.898363898912208
 11
225.75862973279592
 21
69.898363898912208
  0
LINE
  8
_1-5_1-5___
  6
CONTINUOUS
 62
    6
 10
226.44612967319128
 20
68.523363898912208
 11
226.10237967319128
 21
68.867113898912208
  0
LINE
  8
_1-5_1-5___
  6
CONTINUOUS
 62
    6
 10
226.10237967319128
 20
68.867113898912208
 11
226.10237967319128
 21
65.773363898912208
  0
LINE
  8
_1-5_1-5___
  6
CONTINUOUS
 62
    6
 10
226.44612967319128
 20
65.773363898912208
 11
225.75862973279592
 21
65.773363898912208
  0
LINE
  8
_1-5_1-5___
  6
CONTINUOUS
 62
    6
 10
224.03987973279592
 20
67.492113884011047
 11
224.38362973279592
 21
67.148363884011047
  0
LINE
  8
_1-5_1-5___
  6
CONTINUOUS
 62
    6
 10
224.38362973279592
 20
67.148363884011047
 11
224.7273797029936
 21
67.148363884011047
  0
LINE
  8
_1-5_1-5___
  6
CONTINUOUS
 62
    6
 10
224.7273797029936
 20
67.148363884011047
 11
225.0711297029936
 21
67.492113884011047
  0
LINE
  8
_1-5_1-5___
  6
CONTINUOUS
 62
    6
 10
225.0711297029936
 20
67.492113884011047
 11
225.0711297029936
 21
68.523363898912208
  0
LINE
  8
_1-5_1-5___
  6
CONTINUOUS
 62
    6
 10
225.0711297029936
 20
68.523363898912208
 11
224.7273797029936
 21
68.867113898912208
  0
LINE
  8
_1-5_1-5___
  6
CONTINUOUS
 62
    6
 10
224.7273797029936
 20
68.867113898912208
 11
224.38362973279592
 21
68.867113898912208
  0
LINE
  8
_1-5_1-5___
  6
CONTINUOUS
 62
    6
 10
224.38362973279592
 20
68.867113898912208
 11
224.03987973279592
 21
68.523363898912208
  0
LINE
  8
_1-5_1-5___
  6
CONTINUOUS
 62
    6
 10
224.03987973279592
 20
68.523363898912208
 11
224.03987973279592
 21
66.804613898912208
  0
LINE
  8
_1-5_1-5___
  6
CONTINUOUS
 62
    6
 10
224.03987973279592
 20
66.804613898912208
 11
224.38362973279592
 21
66.117113898912208
  0
LINE
  8
_1-5_1-5___
  6
CONTINUOUS
 62
    6
 10
224.38362973279592
 20
66.117113898912208
 11
224.7273797029936
 21
65.773363898912208
  0
LINE
  8
_1-5_1-5___
  6
CONTINUOUS
 62
    6
 10
224.7273797029936
 20
65.773363898912208
 11
225.0711297029936
 21
65.773363898912208
  0
LINE
  8
_1-5_1-5___
  6
CONTINUOUS
 62
    6
 10
246.32805517453414
 20
87.572196744128334
 11
246.87805522221785
 21
87.297196744128328
  0
LINE
  8
_1-5_1-5___
  6
CONTINUOUS
 62
    6
 10
246.87805522221785
 20
87.297196744128328
 11
247.42805522221786
 21
86.747196744128317
  0
LINE
  8
_1-5_1-5___
  6
CONTINUOUS
 62
    6
 10
247.42805522221786
 20
86.747196744128317
 11
247.70305522221787
 21
86.197196696444607
  0
LINE
  8
_1-5_1-5___
  6
CONTINUOUS
 62
    6
 10
247.70305522221787
 20
86.197196696444607
 11
247.70305522221787
 21
84.822196696444607
  0
LINE
  8
_1-5_1-5___
  6
CONTINUOUS
 62
    6
 10
247.70305522221787
 20
84.822196696444607
 11
247.42805522221786
 21
84.272196744128323
  0
LINE
  8
_1-5_1-5___
  6
CONTINUOUS
 62
    6
 10
247.42805522221786
 20
84.272196744128323
 11
246.87805522221785
 21
83.72219674412834
  0
LINE
  8
_1-5_1-5___
  6
CONTINUOUS
 62
    6
 10
246.87805522221785
 20
83.72219674412834
 11
246.32805517453414
 21
83.447196744128334
  0
LINE
  8
_1-5_1-5___
  6
CONTINUOUS
 62
    6
 10
246.32805517453414
 20
83.447196744128334
 11
245.22805517453415
 21
83.447196744128334
  0
LINE
  8
_1-5_1-5___
  6
CONTINUOUS
 62
    6
 10
245.22805517453415
 20
83.447196744128334
 11
244.67805522221786
 21
83.72219674412834
  0
LINE
  8
_1-5_1-5___
  6
CONTINUOUS
 62
    6
 10
244.67805522221786
 20
83.72219674412834
 11
244.12805522221785
 21
84.272196744128323
  0
LINE
  8
_1-5_1-5___
  6
CONTINUOUS
 62
    6
 10
244.12805522221785
 20
84.272196744128323
 11
243.85305522221788
 21
84.822196696444607
  0
LINE
  8
_1-5_1-5___
  6
CONTINUOUS
 62
    6
 10
243.85305522221788
 20
84.822196696444607
 11
243.85305522221788
 21
86.197196696444607
  0
LINE
  8
_1-5_1-5___
  6
CONTINUOUS
 62
    6
 10
243.85305522221788
 20
86.197196696444607
 11
244.12805522221785
 21
86.747196744128317
  0
LINE
  8
_1-5_1-5___
  6
CONTINUOUS
 62
    6
 10
244.12805522221785
 20
86.747196744128317
 11
244.67805522221786
 21
87.297196744128328
  0
LINE
  8
_1-5_1-5___
  6
CONTINUOUS
 62
    6
 10
244.67805522221786
 20
87.297196744128328
 11
245.22805517453415
 21
87.572196744128334
  0
LINE
  8
_1-5_1-5___
  6
CONTINUOUS
 62
    6
 10
245.22805517453415
 20
87.572196744128334
 11
246.32805517453414
 21
87.572196744128334
  0
LINE
  8
_1-5_1-5___
  6
CONTINUOUS
 62
    6
 10
246.87805522221785
 20
86.47219674412834
 11
246.60305522221788
 21
86.747196744128317
  0
LINE
  8
_1-5_1-5___
  6
CONTINUOUS
 62
    6
 10
246.60305522221788
 20
86.747196744128317
 11
246.60305522221788
 21
84.272196744128323
  0
LINE
  8
_1-5_1-5___
  6
CONTINUOUS
 62
    6
 10
246.87805522221785
 20
84.272196744128323
 11
246.32805517453414
 21
84.272196744128323
  0
LINE
  8
_1-5_1-5___
  6
CONTINUOUS
 62
    6
 10
244.95305517453414
 20
86.747196744128317
 11
245.22805517453415
 21
86.747196744128317
  0
LINE
  8
_1-5_1-5___
  6
CONTINUOUS
 62
    6
 10
245.22805517453415
 20
86.747196744128317
 11
245.77805518049462
 21
86.197196696444607
  0
LINE
  8
_1-5_1-5___
  6
CONTINUOUS
 62
    6
 10
245.77805518049462
 20
86.197196696444607
 11
245.77805518049462
 21
84.547196744128328
  0
LINE
  8
_1-5_1-5___
  6
CONTINUOUS
 62
    6
 10
245.77805518049462
 20
84.547196744128328
 11
245.50305517453415
 21
84.272196744128323
  0
LINE
  8
_1-5_1-5___
  6
CONTINUOUS
 62
    6
 10
245.50305517453415
 20
84.272196744128323
 11
245.22805517453415
 21
84.272196744128323
  0
LINE
  8
_1-5_1-5___
  6
CONTINUOUS
 62
    6
 10
245.22805517453415
 20
84.272196744128323
 11
244.95305517453414
 21
84.547196744128328
  0
LINE
  8
_1-5_1-5___
  6
CONTINUOUS
 62
    6
 10
244.95305517453414
 20
84.547196744128328
 11
244.95305517453414
 21
85.372196696444618
  0
LINE
  8
_1-5_1-5___
  6
CONTINUOUS
 62
    6
 10
244.95305517453414
 20
85.372196696444618
 11
245.22805517453415
 21
85.647196696444624
  0
LINE
  8
_1-5_1-5___
  6
CONTINUOUS
 62
    6
 10
245.22805517453415
 20
85.647196696444624
 11
245.50305517453415
 21
85.647196696444624
  0
LINE
  8
_1-5_1-5___
  6
CONTINUOUS
 62
    6
 10
245.50305517453415
 20
85.647196696444624
 11
245.77805518049462
 21
85.372196696444618
  0
LINE
  8
_1-5_1-5___
  6
CONTINUOUS
 62
    6
 10
230.75938710903063
 20
82.5349361982679
 11
230.20938710903062
 21
82.809936198267906
  0
LINE
  8
_1-5_1-5___
  6
CONTINUOUS
 62
    6
 10
230.20938710903062
 20
82.809936198267906
 11
229.65938720439806
 21
83.359936198267889
  0
LINE
  8
_1-5_1-5___
  6
CONTINUOUS
 62
    6
 10
229.65938720439806
 20
83.359936198267889
 11
229.38438720439805
 21
83.9099361982679
  0
LINE
  8
_1-5_1-5___
  6
CONTINUOUS
 62
    6
 10
229.38438720439805
 20
83.9099361982679
 11
229.38438720439805
 21
85.2849361982679
  0
LINE
  8
_1-5_1-5___
  6
CONTINUOUS
 62
    6
 10
229.38438720439805
 20
85.2849361982679
 11
229.65938720439806
 21
85.834936198267911
  0
LINE
  8
_1-5_1-5___
  6
CONTINUOUS
 62
    6
 10
229.65938720439806
 20
85.834936198267911
 11
230.20938710903062
 21
86.384936198267894
  0
LINE
  8
_1-5_1-5___
  6
CONTINUOUS
 62
    6
 10
230.20938710903062
 20
86.384936198267894
 11
230.75938710903063
 21
86.6599361982679
  0
LINE
  8
_1-5_1-5___
  6
CONTINUOUS
 62
    6
 10
230.75938710903063
 20
86.6599361982679
 11
231.85938710903062
 21
86.6599361982679
  0
LINE
  8
_1-5_1-5___
  6
CONTINUOUS
 62
    6
 10
231.85938710903062
 20
86.6599361982679
 11
232.4093871090306
 21
86.384936198267894
  0
LINE
  8
_1-5_1-5___
  6
CONTINUOUS
 62
    6
 10
232.4093871090306
 20
86.384936198267894
 11
232.95938720439804
 21
85.834936198267911
  0
LINE
  8
_1-5_1-5___
  6
CONTINUOUS
 62
    6
 10
232.95938720439804
 20
85.834936198267911
 11
233.23438720439805
 21
85.2849361982679
  0
LINE
  8
_1-5_1-5___
  6
CONTINUOUS
 62
    6
 10
233.23438720439805
 20
85.2849361982679
 11
233.23438720439805
 21
83.9099361982679
  0
LINE
  8
_1-5_1-5___
  6
CONTINUOUS
 62
    6
 10
233.23438720439805
 20
83.9099361982679
 11
232.95938720439804
 21
83.359936198267889
  0
LINE
  8
_1-5_1-5___
  6
CONTINUOUS
 62
    6
 10
232.95938720439804
 20
83.359936198267889
 11
232.4093871090306
 21
82.809936198267906
  0
LINE
  8
_1-5_1-5___
  6
CONTINUOUS
 62
    6
 10
232.4093871090306
 20
82.809936198267906
 11
231.85938710903062
 21
82.5349361982679
  0
LINE
  8
_1-5_1-5___
  6
CONTINUOUS
 62
    6
 10
231.85938710903062
 20
82.5349361982679
 11
230.75938710903063
 21
82.5349361982679
  0
LINE
  8
_1-5_1-5___
  6
CONTINUOUS
 62
    6
 10
230.20938710903062
 20
83.634936198267894
 11
230.48438710903062
 21
83.359936198267889
  0
LINE
  8
_1-5_1-5___
  6
CONTINUOUS
 62
    6
 10
230.48438710903062
 20
83.359936198267889
 11
230.48438710903062
 21
85.834936198267911
  0
LINE
  8
_1-5_1-5___
  6
CONTINUOUS
 62
    6
 10
230.20938710903062
 20
85.834936198267911
 11
230.75938710903063
 21
85.834936198267911
  0
LINE
  8
_1-5_1-5___
  6
CONTINUOUS
 62
    6
 10
231.30938711201085
 20
83.9099361982679
 11
231.30938711201085
 21
83.359936198267889
  0
LINE
  8
_1-5_1-5___
  6
CONTINUOUS
 62
    6
 10
231.30938711201085
 20
83.359936198267889
 11
232.4093871090306
 21
83.359936198267889
  0
LINE
  8
_1-5_1-5___
  6
CONTINUOUS
 62
    6
 10
232.4093871090306
 20
83.359936198267889
 11
231.85938710903062
 21
85.2849361982679
  0
LINE
  8
_1-5_1-5___
  6
CONTINUOUS
 62
    6
 10
231.85938710903062
 20
85.2849361982679
 11
231.85938710903062
 21
85.834936198267911
  0
LINE
  8
_1-5_1-5___
  6
CONTINUOUS
 62
    6
 10
194.75693762911564
 20
70.010660586838739
 11
197.00969768179661
 21
70.010660586838739
  0
LINE
  8
_1-5_1-5___
  6
CONTINUOUS
 62
    6
 10
195.02805513752705
 20
65.575832186226862
 11
194.34055519713169
 21
65.919582186226862
  0
LINE
  8
_1-5_1-5___
  6
CONTINUOUS
 62
    6
 10
194.34055519713169
 20
65.919582186226862
 11
193.6530550779224
 21
66.607082305436151
  0
LINE
  8
_1-5_1-5___
  6
CONTINUOUS
 62
    6
 10
193.6530550779224
 20
66.607082305436151
 11
193.3093050779224
 21
67.294582245831506
  0
LINE
  8
_1-5_1-5___
  6
CONTINUOUS
 62
    6
 10
193.3093050779224
 20
67.294582245831506
 11
193.3093050779224
 21
69.013332245831506
  0
LINE
  8
_1-5_1-5___
  6
CONTINUOUS
 62
    6
 10
193.3093050779224
 20
69.013332245831506
 11
193.6530550779224
 21
69.700832305436151
  0
LINE
  8
_1-5_1-5___
  6
CONTINUOUS
 62
    6
 10
193.6530550779224
 20
69.700832305436151
 11
194.34055519713169
 21
70.388332186226862
  0
LINE
  8
_1-5_1-5___
  6
CONTINUOUS
 62
    6
 10
194.34055519713169
 20
70.388332186226862
 11
195.02805513752705
 21
70.732082186226862
  0
LINE
  8
_1-5_1-5___
  6
CONTINUOUS
 62
    6
 10
195.02805513752705
 20
70.732082186226862
 11
196.40305513752705
 21
70.732082186226862
  0
LINE
  8
_1-5_1-5___
  6
CONTINUOUS
 62
    6
 10
196.40305513752705
 20
70.732082186226862
 11
197.09055519713169
 21
70.388332186226862
  0
LINE
  8
_1-5_1-5___
  6
CONTINUOUS
 62
    6
 10
197.09055519713169
 20
70.388332186226862
 11
197.7780550779224
 21
69.700832305436151
  0
LINE
  8
_1-5_1-5___
  6
CONTINUOUS
 62
    6
 10
197.7780550779224
 20
69.700832305436151
 11
198.1218050779224
 21
69.013332245831506
  0
LINE
  8
_1-5_1-5___
  6
CONTINUOUS
 62
    6
 10
198.1218050779224
 20
69.013332245831506
 11
198.1218050779224
 21
67.294582245831506
  0
LINE
  8
_1-5_1-5___
  6
CONTINUOUS
 62
    6
 10
198.1218050779224
 20
67.294582245831506
 11
197.7780550779224
 21
66.607082305436151
  0
LINE
  8
_1-5_1-5___
  6
CONTINUOUS
 62
    6
 10
197.7780550779224
 20
66.607082305436151
 11
197.09055519713169
 21
65.919582186226862
  0
LINE
  8
_1-5_1-5___
  6
CONTINUOUS
 62
    6
 10
197.09055519713169
 20
65.919582186226862
 11
196.40305513752705
 21
65.575832186226862
  0
LINE
  8
_1-5_1-5___
  6
CONTINUOUS
 62
    6
 10
196.40305513752705
 20
65.575832186226862
 11
195.02805513752705
 21
65.575832186226862
  0
LINE
  8
_1-5_1-5___
  6
CONTINUOUS
 62
    6
 10
196.74680513752705
 20
67.638332245831506
 11
196.05930516732937
 21
68.325832275633829
  0
LINE
  8
_1-5_1-5___
  6
CONTINUOUS
 62
    6
 10
196.05930516732937
 20
68.325832275633829
 11
195.37180516732937
 21
68.325832275633829
  0
LINE
  8
_1-5_1-5___
  6
CONTINUOUS
 62
    6
 10
195.37180516732937
 20
68.325832275633829
 11
194.68430519713169
 21
67.638332245831506
  0
LINE
  8
_1-5_1-5___
  6
CONTINUOUS
 62
    6
 10
194.68430519713169
 20
67.638332245831506
 11
194.68430519713169
 21
67.294582245831506
  0
LINE
  8
_1-5_1-5___
  6
CONTINUOUS
 62
    6
 10
194.68430519713169
 20
67.294582245831506
 11
195.37180516732937
 21
66.607082305436151
  0
LINE
  8
_1-5_1-5___
  6
CONTINUOUS
 62
    6
 10
195.37180516732937
 20
66.607082305436151
 11
196.05930516732937
 21
66.607082305436151
  0
LINE
  8
_1-5_1-5___
  6
CONTINUOUS
 62
    6
 10
196.05930516732937
 20
66.607082305436151
 11
196.74680513752705
 21
67.294582245831506
  0
LINE
  8
_1-5_1-5___
  6
CONTINUOUS
 62
    6
 10
196.74680513752705
 20
67.294582245831506
 11
196.74680513752705
 21
68.325832275633829
  0
LINE
  8
_1-5_1-5___
  6
CONTINUOUS
 62
    6
 10
196.74680513752705
 20
68.325832275633829
 11
196.40305513752705
 21
69.013332245831506
  0
LINE
  8
_1-5_1-5___
  6
CONTINUOUS
 62
    6
 10
196.40305513752705
 20
69.013332245831506
 11
195.7155551561535
 21
69.700832305436151
  0
LINE
  8
_1-5_1-5___
  6
CONTINUOUS
 62
    6
 10
195.7155551561535
 20
69.700832305436151
 11
195.02805513752705
 21
69.700832305436151
  0
LINE
  8
_1-5_1-5___
  6
CONTINUOUS
 62
    6
 10
195.5247647965831
 20
91.470634331016868
 11
197.77752484926407
 21
91.470634331016868
  0
LINE
  8
_1-5_1-5___
  6
CONTINUOUS
 62
    6
 10
195.79588230499451
 20
87.03580593040499
 11
195.10838236459915
 21
87.37955593040499
  0
LINE
  8
_1-5_1-5___
  6
CONTINUOUS
 62
    6
 10
195.10838236459915
 20
87.37955593040499
 11
194.42088224538986
 21
88.06705604961428
  0
LINE
  8
_1-5_1-5___
  6
CONTINUOUS
 62
    6
 10
194.42088224538986
 20
88.06705604961428
 11
194.07713224538986
 21
88.754555990009635
  0
LINE
  8
_1-5_1-5___
  6
CONTINUOUS
 62
    6
 10
194.07713224538986
 20
88.754555990009635
 11
194.07713224538986
 21
90.473305990009635
  0
LINE
  8
_1-5_1-5___
  6
CONTINUOUS
 62
    6
 10
194.07713224538986
 20
90.473305990009635
 11
194.42088224538986
 21
91.16080604961428
  0
LINE
  8
_1-5_1-5___
  6
CONTINUOUS
 62
    6
 10
194.42088224538986
 20
91.16080604961428
 11
195.10838236459915
 21
91.84830593040499
  0
LINE
  8
_1-5_1-5___
  6
CONTINUOUS
 62
    6
 10
195.10838236459915
 20
91.84830593040499
 11
195.79588230499451
 21
92.19205593040499
  0
LINE
  8
_1-5_1-5___
  6
CONTINUOUS
 62
    6
 10
195.79588230499451
 20
92.19205593040499
 11
197.17088230499451
 21
92.19205593040499
  0
LINE
  8
_1-5_1-5___
  6
CONTINUOUS
 62
    6
 10
197.17088230499451
 20
92.19205593040499
 11
197.85838236459915
 21
91.84830593040499
  0
LINE
  8
_1-5_1-5___
  6
CONTINUOUS
 62
    6
 10
197.85838236459915
 20
91.84830593040499
 11
198.54588224538986
 21
91.16080604961428
  0
LINE
  8
_1-5_1-5___
  6
CONTINUOUS
 62
    6
 10
198.54588224538986
 20
91.16080604961428
 11
198.88963224538986
 21
90.473305990009635
  0
LINE
  8
_1-5_1-5___
  6
CONTINUOUS
 62
    6
 10
198.88963224538986
 20
90.473305990009635
 11
198.88963224538986
 21
88.754555990009635
  0
LINE
  8
_1-5_1-5___
  6
CONTINUOUS
 62
    6
 10
198.88963224538986
 20
88.754555990009635
 11
198.54588224538986
 21
88.06705604961428
  0
LINE
  8
_1-5_1-5___
  6
CONTINUOUS
 62
    6
 10
198.54588224538986
 20
88.06705604961428
 11
197.85838236459915
 21
87.37955593040499
  0
LINE
  8
_1-5_1-5___
  6
CONTINUOUS
 62
    6
 10
197.85838236459915
 20
87.37955593040499
 11
197.17088230499451
 21
87.03580593040499
  0
LINE
  8
_1-5_1-5___
  6
CONTINUOUS
 62
    6
 10
197.17088230499451
 20
87.03580593040499
 11
195.79588230499451
 21
87.03580593040499
  0
LINE
  8
_1-5_1-5___
  6
CONTINUOUS
 62
    6
 10
197.51463230499451
 20
89.098305990009635
 11
196.82713233479683
 21
89.785806019811957
  0
LINE
  8
_1-5_1-5___
  6
CONTINUOUS
 62
    6
 10
196.82713233479683
 20
89.785806019811957
 11
196.13963233479683
 21
89.785806019811957
  0
LINE
  8
_1-5_1-5___
  6
CONTINUOUS
 62
    6
 10
196.13963233479683
 20
89.785806019811957
 11
195.45213236459915
 21
89.098305990009635
  0
LINE
  8
_1-5_1-5___
  6
CONTINUOUS
 62
    6
 10
195.45213236459915
 20
89.098305990009635
 11
195.45213236459915
 21
88.754555990009635
  0
LINE
  8
_1-5_1-5___
  6
CONTINUOUS
 62
    6
 10
195.45213236459915
 20
88.754555990009635
 11
196.13963233479683
 21
88.06705604961428
  0
LINE
  8
_1-5_1-5___
  6
CONTINUOUS
 62
    6
 10
196.13963233479683
 20
88.06705604961428
 11
196.82713233479683
 21
88.06705604961428
  0
LINE
  8
_1-5_1-5___
  6
CONTINUOUS
 62
    6
 10
196.82713233479683
 20
88.06705604961428
 11
197.51463230499451
 21
88.754555990009635
  0
LINE
  8
_1-5_1-5___
  6
CONTINUOUS
 62
    6
 10
197.51463230499451
 20
88.754555990009635
 11
197.51463230499451
 21
89.785806019811957
  0
LINE
  8
_1-5_1-5___
  6
CONTINUOUS
 62
    6
 10
197.51463230499451
 20
89.785806019811957
 11
197.17088230499451
 21
90.473305990009635
  0
LINE
  8
_1-5_1-5___
  6
CONTINUOUS
 62
    6
 10
197.17088230499451
 20
90.473305990009635
 11
196.48338232362096
 21
91.16080604961428
  0
LINE
  8
_1-5_1-5___
  6
CONTINUOUS
 62
    6
 10
196.48338232362096
 20
91.16080604961428
 11
195.79588230499451
 21
91.16080604961428
  0
LINE
  8
_1-5_1-5___
  6
CONTINUOUS
 62
    6
 10
215.41211897268275
 20
52.477873283854606
 11
215.75586897268275
 21
52.305998283854606
  0
LINE
  8
_1-5_1-5___
  6
CONTINUOUS
 62
    6
 10
215.75586897268275
 20
52.305998283854606
 11
216.09961897268275
 21
51.962248283854606
  0
LINE
  8
_1-5_1-5___
  6
CONTINUOUS
 62
    6
 10
216.09961897268275
 20
51.962248283854606
 11
216.27149397268275
 21
51.618498283854606
  0
LINE
  8
_1-5_1-5___
  6
CONTINUOUS
 62
    6
 10
216.27149397268275
 20
51.618498283854606
 11
216.27149397268275
 21
50.759123283854606
  0
LINE
  8
_1-5_1-5___
  6
CONTINUOUS
 62
    6
 10
216.27149397268275
 20
50.759123283854606
 11
216.09961897268275
 21
50.415373283854606
  0
LINE
  8
_1-5_1-5___
  6
CONTINUOUS
 62
    6
 10
216.09961897268275
 20
50.415373283854606
 11
215.75586897268275
 21
50.071623283854606
  0
LINE
  8
_1-5_1-5___
  6
CONTINUOUS
 62
    6
 10
215.75586897268275
 20
50.071623283854606
 11
215.41211897268275
 21
49.899748283854606
  0
LINE
  8
_1-5_1-5___
  6
CONTINUOUS
 62
    6
 10
215.41211897268275
 20
49.899748283854606
 11
214.72461897268275
 21
49.899748283854606
  0
LINE
  8
_1-5_1-5___
  6
CONTINUOUS
 62
    6
 10
214.72461897268275
 20
49.899748283854606
 11
214.38086897268275
 21
50.071623283854606
  0
LINE
  8
_1-5_1-5___
  6
CONTINUOUS
 62
    6
 10
214.38086897268275
 20
50.071623283854606
 11
214.03711897268275
 21
50.415373283854606
  0
LINE
  8
_1-5_1-5___
  6
CONTINUOUS
 62
    6
 10
214.03711897268275
 20
50.415373283854606
 11
213.86524397268275
 21
50.759123283854606
  0
LINE
  8
_1-5_1-5___
  6
CONTINUOUS
 62
    6
 10
213.86524397268275
 20
50.759123283854606
 11
213.86524397268275
 21
51.618498283854606
  0
LINE
  8
_1-5_1-5___
  6
CONTINUOUS
 62
    6
 10
213.86524397268275
 20
51.618498283854606
 11
214.03711897268275
 21
51.962248283854606
  0
LINE
  8
_1-5_1-5___
  6
CONTINUOUS
 62
    6
 10
214.03711897268275
 20
51.962248283854606
 11
214.38086897268275
 21
52.305998283854606
  0
LINE
  8
_1-5_1-5___
  6
CONTINUOUS
 62
    6
 10
214.38086897268275
 20
52.305998283854606
 11
214.72461897268275
 21
52.477873283854606
  0
LINE
  8
_1-5_1-5___
  6
CONTINUOUS
 62
    6
 10
214.72461897268275
 20
52.477873283854606
 11
215.41211897268275
 21
52.477873283854606
  0
LINE
  8
_1-5_1-5___
  6
CONTINUOUS
 62
    6
 10
215.75586897268275
 20
51.790373283854606
 11
215.58399397268275
 21
51.962248283854606
  0
LINE
  8
_1-5_1-5___
  6
CONTINUOUS
 62
    6
 10
215.58399397268275
 20
51.962248283854606
 11
215.58399397268275
 21
50.415373283854606
  0
LINE
  8
_1-5_1-5___
  6
CONTINUOUS
 62
    6
 10
215.75586897268275
 20
50.415373283854606
 11
215.41211897268275
 21
50.415373283854606
  0
LINE
  8
_1-5_1-5___
  6
CONTINUOUS
 62
    6
 10
215.06836897268275
 20
51.618498283854606
 11
215.06836897268275
 21
51.790373283854606
  0
LINE
  8
_1-5_1-5___
  6
CONTINUOUS
 62
    6
 10
215.06836897268275
 20
51.790373283854606
 11
214.89649397268275
 21
51.962248283854606
  0
LINE
  8
_1-5_1-5___
  6
CONTINUOUS
 62
    6
 10
214.89649397268275
 20
51.962248283854606
 11
214.72461897268275
 21
51.962248283854606
  0
LINE
  8
_1-5_1-5___
  6
CONTINUOUS
 62
    6
 10
214.72461897268275
 20
51.962248283854606
 11
214.55274397268275
 21
51.790373283854606
  0
LINE
  8
_1-5_1-5___
  6
CONTINUOUS
 62
    6
 10
214.55274397268275
 20
51.790373283854606
 11
214.55274397268275
 21
51.446623283854606
  0
LINE
  8
_1-5_1-5___
  6
CONTINUOUS
 62
    6
 10
214.55274397268275
 20
51.446623283854606
 11
214.72461897268275
 21
51.274748283854606
  0
LINE
  8
_1-5_1-5___
  6
CONTINUOUS
 62
    6
 10
214.72461897268275
 20
51.274748283854606
 11
214.89649397268275
 21
51.274748283854606
  0
LINE
  8
_1-5_1-5___
  6
CONTINUOUS
 62
    6
 10
214.72461897268275
 20
51.274748283854606
 11
214.55274397268275
 21
51.102873283854606
  0
LINE
  8
_1-5_1-5___
  6
CONTINUOUS
 62
    6
 10
214.55274397268275
 20
51.102873283854606
 11
214.55274397268275
 21
50.587248283854606
  0
LINE
  8
_1-5_1-5___
  6
CONTINUOUS
 62
    6
 10
214.55274397268275
 20
50.587248283854606
 11
214.72461897268275
 21
50.415373283854606
  0
LINE
  8
_1-5_1-5___
  6
CONTINUOUS
 62
    6
 10
214.72461897268275
 20
50.415373283854606
 11
214.89649397268275
 21
50.415373283854606
  0
LINE
  8
_1-5_1-5___
  6
CONTINUOUS
 62
    6
 10
214.89649397268275
 20
50.415373283854606
 11
215.06836897268275
 21
50.587248283854606
  0
LINE
  8
_1-5_1-5___
  6
CONTINUOUS
 62
    6
 10
215.06836897268275
 20
50.587248283854606
 11
215.06836897268275
 21
50.759123283854606
  0
LINE
  8
_1-5_1-5___
  6
CONTINUOUS
 62
    6
 10
208.65190201655855
 20
52.50195063301021
 11
208.99565201655855
 21
52.33007563301021
  0
LINE
  8
_1-5_1-5___
  6
CONTINUOUS
 62
    6
 10
208.99565201655855
 20
52.33007563301021
 11
209.33940201655855
 21
51.98632563301021
  0
LINE
  8
_1-5_1-5___
  6
CONTINUOUS
 62
    6
 10
209.33940201655855
 20
51.98632563301021
 11
209.51127701655855
 21
51.64257563301021
  0
LINE
  8
_1-5_1-5___
  6
CONTINUOUS
 62
    6
 10
209.51127701655855
 20
51.64257563301021
 11
209.51127701655855
 21
50.78320063301021
  0
LINE
  8
_1-5_1-5___
  6
CONTINUOUS
 62
    6
 10
209.51127701655855
 20
50.78320063301021
 11
209.33940201655855
 21
50.43945063301021
  0
LINE
  8
_1-5_1-5___
  6
CONTINUOUS
 62
    6
 10
209.33940201655855
 20
50.43945063301021
 11
208.99565201655855
 21
50.09570063301021
  0
LINE
  8
_1-5_1-5___
  6
CONTINUOUS
 62
    6
 10
208.99565201655855
 20
50.09570063301021
 11
208.65190201655855
 21
49.92382563301021
  0
LINE
  8
_1-5_1-5___
  6
CONTINUOUS
 62
    6
 10
208.65190201655855
 20
49.92382563301021
 11
207.96440201655855
 21
49.92382563301021
  0
LINE
  8
_1-5_1-5___
  6
CONTINUOUS
 62
    6
 10
207.96440201655855
 20
49.92382563301021
 11
207.62065201655855
 21
50.09570063301021
  0
LINE
  8
_1-5_1-5___
  6
CONTINUOUS
 62
    6
 10
207.62065201655855
 20
50.09570063301021
 11
207.27690201655855
 21
50.43945063301021
  0
LINE
  8
_1-5_1-5___
  6
CONTINUOUS
 62
    6
 10
207.27690201655855
 20
50.43945063301021
 11
207.10502701655855
 21
50.78320063301021
  0
LINE
  8
_1-5_1-5___
  6
CONTINUOUS
 62
    6
 10
207.10502701655855
 20
50.78320063301021
 11
207.10502701655855
 21
51.64257563301021
  0
LINE
  8
_1-5_1-5___
  6
CONTINUOUS
 62
    6
 10
207.10502701655855
 20
51.64257563301021
 11
207.27690201655855
 21
51.98632563301021
  0
LINE
  8
_1-5_1-5___
  6
CONTINUOUS
 62
    6
 10
207.27690201655855
 20
51.98632563301021
 11
207.62065201655855
 21
52.33007563301021
  0
LINE
  8
_1-5_1-5___
  6
CONTINUOUS
 62
    6
 10
207.62065201655855
 20
52.33007563301021
 11
207.96440201655855
 21
52.50195063301021
  0
LINE
  8
_1-5_1-5___
  6
CONTINUOUS
 62
    6
 10
207.96440201655855
 20
52.50195063301021
 11
208.65190201655855
 21
52.50195063301021
  0
LINE
  8
_1-5_1-5___
  6
CONTINUOUS
 62
    6
 10
208.99565201655855
 20
51.81445063301021
 11
208.82377701655855
 21
51.98632563301021
  0
LINE
  8
_1-5_1-5___
  6
CONTINUOUS
 62
    6
 10
208.82377701655855
 20
51.98632563301021
 11
208.82377701655855
 21
50.43945063301021
  0
LINE
  8
_1-5_1-5___
  6
CONTINUOUS
 62
    6
 10
208.99565201655855
 20
50.43945063301021
 11
208.65190201655855
 21
50.43945063301021
  0
LINE
  8
_1-5_1-5___
  6
CONTINUOUS
 62
    6
 10
208.30815201655855
 20
51.64257563301021
 11
208.30815201655855
 21
51.81445063301021
  0
LINE
  8
_1-5_1-5___
  6
CONTINUOUS
 62
    6
 10
208.30815201655855
 20
51.81445063301021
 11
208.13627701655855
 21
51.98632563301021
  0
LINE
  8
_1-5_1-5___
  6
CONTINUOUS
 62
    6
 10
208.13627701655855
 20
51.98632563301021
 11
207.96440201655855
 21
51.98632563301021
  0
LINE
  8
_1-5_1-5___
  6
CONTINUOUS
 62
    6
 10
207.96440201655855
 20
51.98632563301021
 11
207.79252701655855
 21
51.81445063301021
  0
LINE
  8
_1-5_1-5___
  6
CONTINUOUS
 62
    6
 10
207.79252701655855
 20
51.81445063301021
 11
207.79252701655855
 21
51.47070063301021
  0
LINE
  8
_1-5_1-5___
  6
CONTINUOUS
 62
    6
 10
207.79252701655855
 20
51.47070063301021
 11
207.96440201655855
 21
51.29882563301021
  0
LINE
  8
_1-5_1-5___
  6
CONTINUOUS
 62
    6
 10
207.96440201655855
 20
51.29882563301021
 11
208.13627701655855
 21
51.29882563301021
  0
LINE
  8
_1-5_1-5___
  6
CONTINUOUS
 62
    6
 10
207.96440201655855
 20
51.29882563301021
 11
207.79252701655855
 21
51.12695063301021
  0
LINE
  8
_1-5_1-5___
  6
CONTINUOUS
 62
    6
 10
207.79252701655855
 20
51.12695063301021
 11
207.79252701655855
 21
50.61132563301021
  0
LINE
  8
_1-5_1-5___
  6
CONTINUOUS
 62
    6
 10
207.79252701655855
 20
50.61132563301021
 11
207.96440201655855
 21
50.43945063301021
  0
LINE
  8
_1-5_1-5___
  6
CONTINUOUS
 62
    6
 10
207.96440201655855
 20
50.43945063301021
 11
208.13627701655855
 21
50.43945063301021
  0
LINE
  8
_1-5_1-5___
  6
CONTINUOUS
 62
    6
 10
208.13627701655855
 20
50.43945063301021
 11
208.30815201655855
 21
50.61132563301021
  0
LINE
  8
_1-5_1-5___
  6
CONTINUOUS
 62
    6
 10
208.30815201655855
 20
50.61132563301021
 11
208.30815201655855
 21
50.78320063301021
  0
LINE
  8
_1-5_1-5___
  6
CONTINUOUS
 62
    6
 10
201.98989934614863
 20
52.539019101289554
 11
202.33364934614863
 21
52.367144101289554
  0
LINE
  8
_1-5_1-5___
  6
CONTINUOUS
 62
    6
 10
202.33364934614863
 20
52.367144101289554
 11
202.67739934614863
 21
52.023394101289554
  0
LINE
  8
_1-5_1-5___
  6
CONTINUOUS
 62
    6
 10
202.67739934614863
 20
52.023394101289554
 11
202.84927434614863
 21
51.679644101289554
  0
LINE
  8
_1-5_1-5___
  6
CONTINUOUS
 62
    6
 10
202.84927434614863
 20
51.679644101289554
 11
202.84927434614863
 21
50.820269101289554
  0
LINE
  8
_1-5_1-5___
  6
CONTINUOUS
 62
    6
 10
202.84927434614863
 20
50.820269101289554
 11
202.67739934614863
 21
50.476519101289554
  0
LINE
  8
_1-5_1-5___
  6
CONTINUOUS
 62
    6
 10
202.67739934614863
 20
50.476519101289554
 11
202.33364934614863
 21
50.132769101289554
  0
LINE
  8
_1-5_1-5___
  6
CONTINUOUS
 62
    6
 10
202.33364934614863
 20
50.132769101289554
 11
201.98989934614863
 21
49.960894101289554
  0
LINE
  8
_1-5_1-5___
  6
CONTINUOUS
 62
    6
 10
201.98989934614863
 20
49.960894101289554
 11
201.30239934614863
 21
49.960894101289554
  0
LINE
  8
_1-5_1-5___
  6
CONTINUOUS
 62
    6
 10
201.30239934614863
 20
49.960894101289554
 11
200.95864934614863
 21
50.132769101289554
  0
LINE
  8
_1-5_1-5___
  6
CONTINUOUS
 62
    6
 10
200.95864934614863
 20
50.132769101289554
 11
200.61489934614863
 21
50.476519101289554
  0
LINE
  8
_1-5_1-5___
  6
CONTINUOUS
 62
    6
 10
200.61489934614863
 20
50.476519101289554
 11
200.44302434614863
 21
50.820269101289554
  0
LINE
  8
_1-5_1-5___
  6
CONTINUOUS
 62
    6
 10
200.44302434614863
 20
50.820269101289554
 11
200.44302434614863
 21
51.679644101289554
  0
LINE
  8
_1-5_1-5___
  6
CONTINUOUS
 62
    6
 10
200.44302434614863
 20
51.679644101289554
 11
200.61489934614863
 21
52.023394101289554
  0
LINE
  8
_1-5_1-5___
  6
CONTINUOUS
 62
    6
 10
200.61489934614863
 20
52.023394101289554
 11
200.95864934614863
 21
52.367144101289554
  0
LINE
  8
_1-5_1-5___
  6
CONTINUOUS
 62
    6
 10
200.95864934614863
 20
52.367144101289554
 11
201.30239934614863
 21
52.539019101289554
  0
LINE
  8
_1-5_1-5___
  6
CONTINUOUS
 62
    6
 10
201.30239934614863
 20
52.539019101289554
 11
201.98989934614863
 21
52.539019101289554
  0
LINE
  8
_1-5_1-5___
  6
CONTINUOUS
 62
    6
 10
202.33364934614863
 20
51.851519101289554
 11
202.16177434614863
 21
52.023394101289554
  0
LINE
  8
_1-5_1-5___
  6
CONTINUOUS
 62
    6
 10
202.16177434614863
 20
52.023394101289554
 11
202.16177434614863
 21
50.476519101289554
  0
LINE
  8
_1-5_1-5___
  6
CONTINUOUS
 62
    6
 10
202.33364934614863
 20
50.476519101289554
 11
201.98989934614863
 21
50.476519101289554
  0
LINE
  8
_1-5_1-5___
  6
CONTINUOUS
 62
    6
 10
201.64614934614863
 20
51.679644101289554
 11
201.64614934614863
 21
51.851519101289554
  0
LINE
  8
_1-5_1-5___
  6
CONTINUOUS
 62
    6
 10
201.64614934614863
 20
51.851519101289554
 11
201.47427434614863
 21
52.023394101289554
  0
LINE
  8
_1-5_1-5___
  6
CONTINUOUS
 62
    6
 10
201.47427434614863
 20
52.023394101289554
 11
201.30239934614863
 21
52.023394101289554
  0
LINE
  8
_1-5_1-5___
  6
CONTINUOUS
 62
    6
 10
201.30239934614863
 20
52.023394101289554
 11
201.13052434614863
 21
51.851519101289554
  0
LINE
  8
_1-5_1-5___
  6
CONTINUOUS
 62
    6
 10
201.13052434614863
 20
51.851519101289554
 11
201.13052434614863
 21
51.507769101289554
  0
LINE
  8
_1-5_1-5___
  6
CONTINUOUS
 62
    6
 10
201.13052434614863
 20
51.507769101289554
 11
201.30239934614863
 21
51.335894101289554
  0
LINE
  8
_1-5_1-5___
  6
CONTINUOUS
 62
    6
 10
201.30239934614863
 20
51.335894101289554
 11
201.47427434614863
 21
51.335894101289554
  0
LINE
  8
_1-5_1-5___
  6
CONTINUOUS
 62
    6
 10
201.30239934614863
 20
51.335894101289554
 11
201.13052434614863
 21
51.164019101289554
  0
LINE
  8
_1-5_1-5___
  6
CONTINUOUS
 62
    6
 10
201.13052434614863
 20
51.164019101289554
 11
201.13052434614863
 21
50.648394101289554
  0
LINE
  8
_1-5_1-5___
  6
CONTINUOUS
 62
    6
 10
201.13052434614863
 20
50.648394101289554
 11
201.30239934614863
 21
50.476519101289554
  0
LINE
  8
_1-5_1-5___
  6
CONTINUOUS
 62
    6
 10
201.30239934614863
 20
50.476519101289554
 11
201.47427434614863
 21
50.476519101289554
  0
LINE
  8
_1-5_1-5___
  6
CONTINUOUS
 62
    6
 10
201.47427434614863
 20
50.476519101289554
 11
201.64614934614863
 21
50.648394101289554
  0
LINE
  8
_1-5_1-5___
  6
CONTINUOUS
 62
    6
 10
201.64614934614863
 20
50.648394101289554
 11
201.64614934614863
 21
50.820269101289554
  0
LINE
  8
_1-5_1-5___
  6
CONTINUOUS
 62
    6
 10
195.19261392174508
 20
52.50195063301021
 11
195.53636392174508
 21
52.33007563301021
  0
LINE
  8
_1-5_1-5___
  6
CONTINUOUS
 62
    6
 10
195.53636392174508
 20
52.33007563301021
 11
195.88011392174508
 21
51.98632563301021
  0
LINE
  8
_1-5_1-5___
  6
CONTINUOUS
 62
    6
 10
195.88011392174508
 20
51.98632563301021
 11
196.05198892174508
 21
51.64257563301021
  0
LINE
  8
_1-5_1-5___
  6
CONTINUOUS
 62
    6
 10
196.05198892174508
 20
51.64257563301021
 11
196.05198892174508
 21
50.78320063301021
  0
LINE
  8
_1-5_1-5___
  6
CONTINUOUS
 62
    6
 10
196.05198892174508
 20
50.78320063301021
 11
195.88011392174508
 21
50.43945063301021
  0
LINE
  8
_1-5_1-5___
  6
CONTINUOUS
 62
    6
 10
195.88011392174508
 20
50.43945063301021
 11
195.53636392174508
 21
50.09570063301021
  0
LINE
  8
_1-5_1-5___
  6
CONTINUOUS
 62
    6
 10
195.53636392174508
 20
50.09570063301021
 11
195.19261392174508
 21
49.92382563301021
  0
LINE
  8
_1-5_1-5___
  6
CONTINUOUS
 62
    6
 10
195.19261392174508
 20
49.92382563301021
 11
194.50511392174508
 21
49.92382563301021
  0
LINE
  8
_1-5_1-5___
  6
CONTINUOUS
 62
    6
 10
194.50511392174508
 20
49.92382563301021
 11
194.16136392174508
 21
50.09570063301021
  0
LINE
  8
_1-5_1-5___
  6
CONTINUOUS
 62
    6
 10
194.16136392174508
 20
50.09570063301021
 11
193.81761392174508
 21
50.43945063301021
  0
LINE
  8
_1-5_1-5___
  6
CONTINUOUS
 62
    6
 10
193.81761392174508
 20
50.43945063301021
 11
193.64573892174508
 21
50.78320063301021
  0
LINE
  8
_1-5_1-5___
  6
CONTINUOUS
 62
    6
 10
193.64573892174508
 20
50.78320063301021
 11
193.64573892174508
 21
51.64257563301021
  0
LINE
  8
_1-5_1-5___
  6
CONTINUOUS
 62
    6
 10
193.64573892174508
 20
51.64257563301021
 11
193.81761392174508
 21
51.98632563301021
  0
LINE
  8
_1-5_1-5___
  6
CONTINUOUS
 62
    6
 10
193.81761392174508
 20
51.98632563301021
 11
194.16136392174508
 21
52.33007563301021
  0
LINE
  8
_1-5_1-5___
  6
CONTINUOUS
 62
    6
 10
194.16136392174508
 20
52.33007563301021
 11
194.50511392174508
 21
52.50195063301021
  0
LINE
  8
_1-5_1-5___
  6
CONTINUOUS
 62
    6
 10
194.50511392174508
 20
52.50195063301021
 11
195.19261392174508
 21
52.50195063301021
  0
LINE
  8
_1-5_1-5___
  6
CONTINUOUS
 62
    6
 10
195.53636392174508
 20
51.81445063301021
 11
195.36448892174508
 21
51.98632563301021
  0
LINE
  8
_1-5_1-5___
  6
CONTINUOUS
 62
    6
 10
195.36448892174508
 20
51.98632563301021
 11
195.36448892174508
 21
50.43945063301021
  0
LINE
  8
_1-5_1-5___
  6
CONTINUOUS
 62
    6
 10
195.53636392174508
 20
50.43945063301021
 11
195.19261392174508
 21
50.43945063301021
  0
LINE
  8
_1-5_1-5___
  6
CONTINUOUS
 62
    6
 10
194.84886392174508
 20
51.64257563301021
 11
194.84886392174508
 21
51.81445063301021
  0
LINE
  8
_1-5_1-5___
  6
CONTINUOUS
 62
    6
 10
194.84886392174508
 20
51.81445063301021
 11
194.67698892174508
 21
51.98632563301021
  0
LINE
  8
_1-5_1-5___
  6
CONTINUOUS
 62
    6
 10
194.67698892174508
 20
51.98632563301021
 11
194.50511392174508
 21
51.98632563301021
  0
LINE
  8
_1-5_1-5___
  6
CONTINUOUS
 62
    6
 10
194.50511392174508
 20
51.98632563301021
 11
194.33323892174508
 21
51.81445063301021
  0
LINE
  8
_1-5_1-5___
  6
CONTINUOUS
 62
    6
 10
194.33323892174508
 20
51.81445063301021
 11
194.33323892174508
 21
51.47070063301021
  0
LINE
  8
_1-5_1-5___
  6
CONTINUOUS
 62
    6
 10
194.33323892174508
 20
51.47070063301021
 11
194.50511392174508
 21
51.29882563301021
  0
LINE
  8
_1-5_1-5___
  6
CONTINUOUS
 62
    6
 10
194.50511392174508
 20
51.29882563301021
 11
194.67698892174508
 21
51.29882563301021
  0
LINE
  8
_1-5_1-5___
  6
CONTINUOUS
 62
    6
 10
194.50511392174508
 20
51.29882563301021
 11
194.33323892174508
 21
51.12695063301021
  0
LINE
  8
_1-5_1-5___
  6
CONTINUOUS
 62
    6
 10
194.33323892174508
 20
51.12695063301021
 11
194.33323892174508
 21
50.61132563301021
  0
LINE
  8
_1-5_1-5___
  6
CONTINUOUS
 62
    6
 10
194.33323892174508
 20
50.61132563301021
 11
194.50511392174508
 21
50.43945063301021
  0
LINE
  8
_1-5_1-5___
  6
CONTINUOUS
 62
    6
 10
194.50511392174508
 20
50.43945063301021
 11
194.67698892174508
 21
50.43945063301021
  0
LINE
  8
_1-5_1-5___
  6
CONTINUOUS
 62
    6
 10
194.67698892174508
 20
50.43945063301021
 11
194.84886392174508
 21
50.61132563301021
  0
LINE
  8
_1-5_1-5___
  6
CONTINUOUS
 62
    6
 10
194.84886392174508
 20
50.61132563301021
 11
194.84886392174508
 21
50.78320063301021
  0
LINE
  8
_1-5_1-5___
  6
CONTINUOUS
 62
    6
 10
190.8181572975777
 20
113.67202589155161
 11
190.1306572975777
 21
114.01577589155161
  0
LINE
  8
_1-5_1-5___
  6
CONTINUOUS
 62
    6
 10
190.1306572975777
 20
114.01577589155161
 11
189.4431572975777
 21
114.70327589155161
  0
LINE
  8
_1-5_1-5___
  6
CONTINUOUS
 62
    6
 10
189.4431572975777
 20
114.70327589155161
 11
189.0994072975777
 21
115.39077589155161
  0
LINE
  8
_1-5_1-5___
  6
CONTINUOUS
 62
    6
 10
189.0994072975777
 20
115.39077589155161
 11
189.0994072975777
 21
117.10952589155161
  0
LINE
  8
_1-5_1-5___
  6
CONTINUOUS
 62
    6
 10
189.0994072975777
 20
117.10952589155161
 11
189.4431572975777
 21
117.79702589155161
  0
LINE
  8
_1-5_1-5___
  6
CONTINUOUS
 62
    6
 10
189.4431572975777
 20
117.79702589155161
 11
190.1306572975777
 21
118.48452589155161
  0
LINE
  8
_1-5_1-5___
  6
CONTINUOUS
 62
    6
 10
190.1306572975777
 20
118.48452589155161
 11
190.8181572975777
 21
118.82827589155161
  0
LINE
  8
_1-5_1-5___
  6
CONTINUOUS
 62
    6
 10
190.8181572975777
 20
118.82827589155161
 11
192.1931572975777
 21
118.82827589155161
  0
LINE
  8
_1-5_1-5___
  6
CONTINUOUS
 62
    6
 10
192.1931572975777
 20
118.82827589155161
 11
192.8806572975777
 21
118.48452589155161
  0
LINE
  8
_1-5_1-5___
  6
CONTINUOUS
 62
    6
 10
192.8806572975777
 20
118.48452589155161
 11
193.5681572975777
 21
117.79702589155161
  0
LINE
  8
_1-5_1-5___
  6
CONTINUOUS
 62
    6
 10
193.5681572975777
 20
117.79702589155161
 11
193.9119072975777
 21
117.10952589155161
  0
LINE
  8
_1-5_1-5___
  6
CONTINUOUS
 62
    6
 10
193.9119072975777
 20
117.10952589155161
 11
193.9119072975777
 21
115.39077589155161
  0
LINE
  8
_1-5_1-5___
  6
CONTINUOUS
 62
    6
 10
193.9119072975777
 20
115.39077589155161
 11
193.5681572975777
 21
114.70327589155161
  0
LINE
  8
_1-5_1-5___
  6
CONTINUOUS
 62
    6
 10
193.5681572975777
 20
114.70327589155161
 11
192.8806572975777
 21
114.01577589155161
  0
LINE
  8
_1-5_1-5___
  6
CONTINUOUS
 62
    6
 10
192.8806572975777
 20
114.01577589155161
 11
192.1931572975777
 21
113.67202589155161
  0
LINE
  8
_1-5_1-5___
  6
CONTINUOUS
 62
    6
 10
192.1931572975777
 20
113.67202589155161
 11
190.8181572975777
 21
113.67202589155161
  0
LINE
  8
_1-5_1-5___
  6
CONTINUOUS
 62
    6
 10
190.4744072975777
 20
115.04702589155161
 11
190.8181572975777
 21
114.70327589155161
  0
LINE
  8
_1-5_1-5___
  6
CONTINUOUS
 62
    6
 10
190.8181572975777
 20
114.70327589155161
 11
190.8181572975777
 21
117.79702589155161
  0
LINE
  8
_1-5_1-5___
  6
CONTINUOUS
 62
    6
 10
190.4744072975777
 20
117.79702589155161
 11
191.1619072975777
 21
117.79702589155161
  0
LINE
  8
_1-5_1-5___
  6
CONTINUOUS
 62
    6
 10
191.8494072975777
 20
117.79702589155161
 11
192.5369072975777
 21
117.79702589155161
  0
LINE
  8
_1-5_1-5___
  6
CONTINUOUS
 62
    6
 10
192.1931572975777
 20
117.79702589155161
 11
192.1931572975777
 21
114.70327589155161
  0
LINE
  8
_1-5_1-5___
  6
CONTINUOUS
 62
    6
 10
192.1931572975777
 20
114.70327589155161
 11
191.8494072975777
 21
115.04702589155161
  0
LINE
  8
_1-5_1-5___
  6
CONTINUOUS
 62
    6
 10
211.35402967268891
 20
152.72547879917107
 11
212.04152967268891
 21
152.38172879917107
  0
LINE
  8
_1-5_1-5___
  6
CONTINUOUS
 62
    6
 10
212.04152967268891
 20
152.38172879917107
 11
212.72902967268891
 21
151.69422879917107
  0
LINE
  8
_1-5_1-5___
  6
CONTINUOUS
 62
    6
 10
212.72902967268891
 20
151.69422879917107
 11
213.07277967268891
 21
151.00672873956643
  0
LINE
  8
_1-5_1-5___
  6
CONTINUOUS
 62
    6
 10
213.07277967268891
 20
151.00672873956643
 11
213.07277967268891
 21
149.28797873956643
  0
LINE
  8
_1-5_1-5___
  6
CONTINUOUS
 62
    6
 10
213.07277967268891
 20
149.28797873956643
 11
212.72902967268891
 21
148.60047879917107
  0
LINE
  8
_1-5_1-5___
  6
CONTINUOUS
 62
    6
 10
212.72902967268891
 20
148.60047879917107
 11
212.04152967268891
 21
147.91297879917107
  0
LINE
  8
_1-5_1-5___
  6
CONTINUOUS
 62
    6
 10
212.04152967268891
 20
147.91297879917107
 11
211.35402967268891
 21
147.56922879917107
  0
LINE
  8
_1-5_1-5___
  6
CONTINUOUS
 62
    6
 10
211.35402967268891
 20
147.56922879917107
 11
209.97902967268891
 21
147.56922879917107
  0
LINE
  8
_1-5_1-5___
  6
CONTINUOUS
 62
    6
 10
209.97902967268891
 20
147.56922879917107
 11
209.29152967268891
 21
147.91297879917107
  0
LINE
  8
_1-5_1-5___
  6
CONTINUOUS
 62
    6
 10
209.29152967268891
 20
147.91297879917107
 11
208.60402967268891
 21
148.60047879917107
  0
LINE
  8
_1-5_1-5___
  6
CONTINUOUS
 62
    6
 10
208.60402967268891
 20
148.60047879917107
 11
208.26027967268891
 21
149.28797873956643
  0
LINE
  8
_1-5_1-5___
  6
CONTINUOUS
 62
    6
 10
208.26027967268891
 20
149.28797873956643
 11
208.26027967268891
 21
151.00672873956643
  0
LINE
  8
_1-5_1-5___
  6
CONTINUOUS
 62
    6
 10
208.26027967268891
 20
151.00672873956643
 11
208.60402967268891
 21
151.69422879917107
  0
LINE
  8
_1-5_1-5___
  6
CONTINUOUS
 62
    6
 10
208.60402967268891
 20
151.69422879917107
 11
209.29152967268891
 21
152.38172879917107
  0
LINE
  8
_1-5_1-5___
  6
CONTINUOUS
 62
    6
 10
209.29152967268891
 20
152.38172879917107
 11
209.97902967268891
 21
152.72547879917107
  0
LINE
  8
_1-5_1-5___
  6
CONTINUOUS
 62
    6
 10
209.97902967268891
 20
152.72547879917107
 11
211.35402967268891
 21
152.72547879917107
  0
LINE
  8
_1-5_1-5___
  6
CONTINUOUS
 62
    6
 10
209.63527967268891
 20
149.63172873956643
 11
212.04152967268891
 21
149.63172873956643
  0
LINE
  8
_1-5_1-5___
  6
CONTINUOUS
 62
    6
 10
212.04152967268891
 20
149.63172873956643
 11
212.04152967268891
 21
149.97547875446759
  0
LINE
  8
_1-5_1-5___
  6
CONTINUOUS
 62
    6
 10
212.04152967268891
 20
149.97547875446759
 11
210.32277967268891
 21
151.69422879917107
  0
LINE
  8
_1-5_1-5___
  6
CONTINUOUS
 62
    6
 10
210.32277967268891
 20
151.69422879917107
 11
210.32277967268891
 21
148.60047879917107
  0
LINE
  8
_1-5_1-5___
  6
CONTINUOUS
 62
    6
 10
211.01027967268891
 20
148.60047879917107
 11
209.63527967268891
 21
148.60047879917107
  0
LINE
  8
_1-5_1-5___
  6
CONTINUOUS
 62
    6
 10
212.06205821169985
 20
178.4091069170849
 11
212.74955821169985
 21
178.0653569170849
  0
LINE
  8
_1-5_1-5___
  6
CONTINUOUS
 62
    6
 10
212.74955821169985
 20
178.0653569170849
 11
213.43705821169985
 21
177.3778569170849
  0
LINE
  8
_1-5_1-5___
  6
CONTINUOUS
 62
    6
 10
213.43705821169985
 20
177.3778569170849
 11
213.78080821169985
 21
176.69035685748025
  0
LINE
  8
_1-5_1-5___
  6
CONTINUOUS
 62
    6
 10
213.78080821169985
 20
176.69035685748025
 11
213.78080821169985
 21
174.97160685748025
  0
LINE
  8
_1-5_1-5___
  6
CONTINUOUS
 62
    6
 10
213.78080821169985
 20
174.97160685748025
 11
213.43705821169985
 21
174.2841069170849
  0
LINE
  8
_1-5_1-5___
  6
CONTINUOUS
 62
    6
 10
213.43705821169985
 20
174.2841069170849
 11
212.74955821169985
 21
173.5966069170849
  0
LINE
  8
_1-5_1-5___
  6
CONTINUOUS
 62
    6
 10
212.74955821169985
 20
173.5966069170849
 11
212.06205821169985
 21
173.2528569170849
  0
LINE
  8
_1-5_1-5___
  6
CONTINUOUS
 62
    6
 10
212.06205821169985
 20
173.2528569170849
 11
210.68705821169985
 21
173.2528569170849
  0
LINE
  8
_1-5_1-5___
  6
CONTINUOUS
 62
    6
 10
210.68705821169985
 20
173.2528569170849
 11
209.99955821169985
 21
173.5966069170849
  0
LINE
  8
_1-5_1-5___
  6
CONTINUOUS
 62
    6
 10
209.99955821169985
 20
173.5966069170849
 11
209.31205821169985
 21
174.2841069170849
  0
LINE
  8
_1-5_1-5___
  6
CONTINUOUS
 62
    6
 10
209.31205821169985
 20
174.2841069170849
 11
208.96830821169985
 21
174.97160685748025
  0
LINE
  8
_1-5_1-5___
  6
CONTINUOUS
 62
    6
 10
208.96830821169985
 20
174.97160685748025
 11
208.96830821169985
 21
176.69035685748025
  0
LINE
  8
_1-5_1-5___
  6
CONTINUOUS
 62
    6
 10
208.96830821169985
 20
176.69035685748025
 11
209.31205821169985
 21
177.3778569170849
  0
LINE
  8
_1-5_1-5___
  6
CONTINUOUS
 62
    6
 10
209.31205821169985
 20
177.3778569170849
 11
209.99955821169985
 21
178.0653569170849
  0
LINE
  8
_1-5_1-5___
  6
CONTINUOUS
 62
    6
 10
209.99955821169985
 20
178.0653569170849
 11
210.68705821169985
 21
178.4091069170849
  0
LINE
  8
_1-5_1-5___
  6
CONTINUOUS
 62
    6
 10
210.68705821169985
 20
178.4091069170849
 11
212.06205821169985
 21
178.4091069170849
  0
LINE
  8
_1-5_1-5___
  6
CONTINUOUS
 62
    6
 10
210.34330821169985
 20
175.31535685748025
 11
212.74955821169985
 21
175.31535685748025
  0
LINE
  8
_1-5_1-5___
  6
CONTINUOUS
 62
    6
 10
212.74955821169985
 20
175.31535685748025
 11
212.74955821169985
 21
175.65910687238141
  0
LINE
  8
_1-5_1-5___
  6
CONTINUOUS
 62
    6
 10
212.74955821169985
 20
175.65910687238141
 11
211.03080821169985
 21
177.3778569170849
  0
LINE
  8
_1-5_1-5___
  6
CONTINUOUS
 62
    6
 10
211.03080821169985
 20
177.3778569170849
 11
211.03080821169985
 21
174.2841069170849
  0
LINE
  8
_1-5_1-5___
  6
CONTINUOUS
 62
    6
 10
211.71830821169985
 20
174.2841069170849
 11
210.34330821169985
 21
174.2841069170849
  0
LINE
  8
_1-5_1-5___
  6
CONTINUOUS
 62
    6
 10
215.68403299421479
 20
190.2340676860897
 11
214.99653299421479
 21
190.5778176860897
  0
LINE
  8
_1-5_1-5___
  6
CONTINUOUS
 62
    6
 10
214.99653299421479
 20
190.5778176860897
 11
214.30903299421479
 21
191.2653176860897
  0
LINE
  8
_1-5_1-5___
  6
CONTINUOUS
 62
    6
 10
214.30903299421479
 20
191.2653176860897
 11
213.96528299421479
 21
191.95281774569435
  0
LINE
  8
_1-5_1-5___
  6
CONTINUOUS
 62
    6
 10
213.96528299421479
 20
191.95281774569435
 11
213.96528299421479
 21
193.67156774569435
  0
LINE
  8
_1-5_1-5___
  6
CONTINUOUS
 62
    6
 10
213.96528299421479
 20
193.67156774569435
 11
214.30903299421479
 21
194.3590676860897
  0
LINE
  8
_1-5_1-5___
  6
CONTINUOUS
 62
    6
 10
214.30903299421479
 20
194.3590676860897
 11
214.99653299421479
 21
195.0465676860897
  0
LINE
  8
_1-5_1-5___
  6
CONTINUOUS
 62
    6
 10
214.99653299421479
 20
195.0465676860897
 11
215.68403299421479
 21
195.3903176860897
  0
LINE
  8
_1-5_1-5___
  6
CONTINUOUS
 62
    6
 10
215.68403299421479
 20
195.3903176860897
 11
217.05903299421479
 21
195.3903176860897
  0
LINE
  8
_1-5_1-5___
  6
CONTINUOUS
 62
    6
 10
217.05903299421479
 20
195.3903176860897
 11
217.74653299421479
 21
195.0465676860897
  0
LINE
  8
_1-5_1-5___
  6
CONTINUOUS
 62
    6
 10
217.74653299421479
 20
195.0465676860897
 11
218.43403299421479
 21
194.3590676860897
  0
LINE
  8
_1-5_1-5___
  6
CONTINUOUS
 62
    6
 10
218.43403299421479
 20
194.3590676860897
 11
218.77778299421479
 21
193.67156774569435
  0
LINE
  8
_1-5_1-5___
  6
CONTINUOUS
 62
    6
 10
218.77778299421479
 20
193.67156774569435
 11
218.77778299421479
 21
191.95281774569435
  0
LINE
  8
_1-5_1-5___
  6
CONTINUOUS
 62
    6
 10
218.77778299421479
 20
191.95281774569435
 11
218.43403299421479
 21
191.2653176860897
  0
LINE
  8
_1-5_1-5___
  6
CONTINUOUS
 62
    6
 10
218.43403299421479
 20
191.2653176860897
 11
217.74653299421479
 21
190.5778176860897
  0
LINE
  8
_1-5_1-5___
  6
CONTINUOUS
 62
    6
 10
217.74653299421479
 20
190.5778176860897
 11
217.05903299421479
 21
190.2340676860897
  0
LINE
  8
_1-5_1-5___
  6
CONTINUOUS
 62
    6
 10
217.05903299421479
 20
190.2340676860897
 11
215.68403299421479
 21
190.2340676860897
  0
LINE
  8
_1-5_1-5___
  6
CONTINUOUS
 62
    6
 10
217.40278299421479
 20
193.32781774569435
 11
214.99653299421479
 21
193.32781774569435
  0
LINE
  8
_1-5_1-5___
  6
CONTINUOUS
 62
    6
 10
214.99653299421479
 20
193.32781774569435
 11
214.99653299421479
 21
192.98406773079319
  0
LINE
  8
_1-5_1-5___
  6
CONTINUOUS
 62
    6
 10
214.99653299421479
 20
192.98406773079319
 11
216.71528299421479
 21
191.2653176860897
  0
LINE
  8
_1-5_1-5___
  6
CONTINUOUS
 62
    6
 10
216.71528299421479
 20
191.2653176860897
 11
216.71528299421479
 21
194.3590676860897
  0
LINE
  8
_1-5_1-5___
  6
CONTINUOUS
 62
    6
 10
216.02778299421479
 20
194.3590676860897
 11
217.40278299421479
 21
194.3590676860897
  0
LINE
  8
_1-5_1-5___
  6
CONTINUOUS
 62
    6
 10
215.69538748032295
 20
164.76022019704243
 11
215.00788748032295
 21
165.10397019704243
  0
LINE
  8
_1-5_1-5___
  6
CONTINUOUS
 62
    6
 10
215.00788748032295
 20
165.10397019704243
 11
214.32038748032295
 21
165.79147019704243
  0
LINE
  8
_1-5_1-5___
  6
CONTINUOUS
 62
    6
 10
214.32038748032295
 20
165.79147019704243
 11
213.97663748032295
 21
166.47897025664707
  0
LINE
  8
_1-5_1-5___
  6
CONTINUOUS
 62
    6
 10
213.97663748032295
 20
166.47897025664707
 11
213.97663748032295
 21
168.19772025664707
  0
LINE
  8
_1-5_1-5___
  6
CONTINUOUS
 62
    6
 10
213.97663748032295
 20
168.19772025664707
 11
214.32038748032295
 21
168.88522019704243
  0
LINE
  8
_1-5_1-5___
  6
CONTINUOUS
 62
    6
 10
214.32038748032295
 20
168.88522019704243
 11
215.00788748032295
 21
169.57272019704243
  0
LINE
  8
_1-5_1-5___
  6
CONTINUOUS
 62
    6
 10
215.00788748032295
 20
169.57272019704243
 11
215.69538748032295
 21
169.91647019704243
  0
LINE
  8
_1-5_1-5___
  6
CONTINUOUS
 62
    6
 10
215.69538748032295
 20
169.91647019704243
 11
217.07038748032295
 21
169.91647019704243
  0
LINE
  8
_1-5_1-5___
  6
CONTINUOUS
 62
    6
 10
217.07038748032295
 20
169.91647019704243
 11
217.75788748032295
 21
169.57272019704243
  0
LINE
  8
_1-5_1-5___
  6
CONTINUOUS
 62
    6
 10
217.75788748032295
 20
169.57272019704243
 11
218.44538748032295
 21
168.88522019704243
  0
LINE
  8
_1-5_1-5___
  6
CONTINUOUS
 62
    6
 10
218.44538748032295
 20
168.88522019704243
 11
218.78913748032295
 21
168.19772025664707
  0
LINE
  8
_1-5_1-5___
  6
CONTINUOUS
 62
    6
 10
218.78913748032295
 20
168.19772025664707
 11
218.78913748032295
 21
166.47897025664707
  0
LINE
  8
_1-5_1-5___
  6
CONTINUOUS
 62
    6
 10
218.78913748032295
 20
166.47897025664707
 11
218.44538748032295
 21
165.79147019704243
  0
LINE
  8
_1-5_1-5___
  6
CONTINUOUS
 62
    6
 10
218.44538748032295
 20
165.79147019704243
 11
217.75788748032295
 21
165.10397019704243
  0
LINE
  8
_1-5_1-5___
  6
CONTINUOUS
 62
    6
 10
217.75788748032295
 20
165.10397019704243
 11
217.07038748032295
 21
164.76022019704243
  0
LINE
  8
_1-5_1-5___
  6
CONTINUOUS
 62
    6
 10
217.07038748032295
 20
164.76022019704243
 11
215.69538748032295
 21
164.76022019704243
  0
LINE
  8
_1-5_1-5___
  6
CONTINUOUS
 62
    6
 10
217.41413748032295
 20
167.85397025664707
 11
215.00788748032295
 21
167.85397025664707
  0
LINE
  8
_1-5_1-5___
  6
CONTINUOUS
 62
    6
 10
215.00788748032295
 20
167.85397025664707
 11
215.00788748032295
 21
167.51022024174591
  0
LINE
  8
_1-5_1-5___
  6
CONTINUOUS
 62
    6
 10
215.00788748032295
 20
167.51022024174591
 11
216.72663748032295
 21
165.79147019704243
  0
LINE
  8
_1-5_1-5___
  6
CONTINUOUS
 62
    6
 10
216.72663748032295
 20
165.79147019704243
 11
216.72663748032295
 21
168.88522019704243
  0
LINE
  8
_1-5_1-5___
  6
CONTINUOUS
 62
    6
 10
216.03913748032295
 20
168.88522019704243
 11
217.41413748032295
 21
168.88522019704243
  0
LINE
  8
_1-5_1-5___
  6
CONTINUOUS
 62
    6
 10
217.24859784764774
 20
122.72233621588035
 11
216.5610977880431
 21
123.06608621588035
  0
LINE
  8
_1-5_1-5___
  6
CONTINUOUS
 62
    6
 10
216.5610977880431
 20
123.06608621588035
 11
215.87359790725239
 21
123.75358621588035
  0
LINE
  8
_1-5_1-5___
  6
CONTINUOUS
 62
    6
 10
215.87359790725239
 20
123.75358621588035
 11
215.52984790725239
 21
124.44108627548499
  0
LINE
  8
_1-5_1-5___
  6
CONTINUOUS
 62
    6
 10
215.52984790725239
 20
124.44108627548499
 11
215.52984790725239
 21
126.15983627548499
  0
LINE
  8
_1-5_1-5___
  6
CONTINUOUS
 62
    6
 10
215.52984790725239
 20
126.15983627548499
 11
215.87359790725239
 21
126.84733621588035
  0
LINE
  8
_1-5_1-5___
  6
CONTINUOUS
 62
    6
 10
215.87359790725239
 20
126.84733621588035
 11
216.5610977880431
 21
127.53483621588035
  0
LINE
  8
_1-5_1-5___
  6
CONTINUOUS
 62
    6
 10
216.5610977880431
 20
127.53483621588035
 11
217.24859784764774
 21
127.87858621588035
  0
LINE
  8
_1-5_1-5___
  6
CONTINUOUS
 62
    6
 10
217.24859784764774
 20
127.87858621588035
 11
218.62359784764774
 21
127.87858621588035
  0
LINE
  8
_1-5_1-5___
  6
CONTINUOUS
 62
    6
 10
218.62359784764774
 20
127.87858621588035
 11
219.3110977880431
 21
127.53483621588035
  0
LINE
  8
_1-5_1-5___
  6
CONTINUOUS
 62
    6
 10
219.3110977880431
 20
127.53483621588035
 11
219.99859790725239
 21
126.84733621588035
  0
LINE
  8
_1-5_1-5___
  6
CONTINUOUS
 62
    6
 10
219.99859790725239
 20
126.84733621588035
 11
220.34234790725239
 21
126.15983627548499
  0
LINE
  8
_1-5_1-5___
  6
CONTINUOUS
 62
    6
 10
220.34234790725239
 20
126.15983627548499
 11
220.34234790725239
 21
124.44108627548499
  0
LINE
  8
_1-5_1-5___
  6
CONTINUOUS
 62
    6
 10
220.34234790725239
 20
124.44108627548499
 11
219.99859790725239
 21
123.75358621588035
  0
LINE
  8
_1-5_1-5___
  6
CONTINUOUS
 62
    6
 10
219.99859790725239
 20
123.75358621588035
 11
219.3110977880431
 21
123.06608621588035
  0
LINE
  8
_1-5_1-5___
  6
CONTINUOUS
 62
    6
 10
219.3110977880431
 20
123.06608621588035
 11
218.62359784764774
 21
122.72233621588035
  0
LINE
  8
_1-5_1-5___
  6
CONTINUOUS
 62
    6
 10
218.62359784764774
 20
122.72233621588035
 11
217.24859784764774
 21
122.72233621588035
  0
LINE
  8
_1-5_1-5___
  6
CONTINUOUS
 62
    6
 10
216.5610977880431
 20
124.09733621588035
 11
216.9048477880431
 21
123.75358621588035
  0
LINE
  8
_1-5_1-5___
  6
CONTINUOUS
 62
    6
 10
216.9048477880431
 20
123.75358621588035
 11
216.9048477880431
 21
126.84733621588035
  0
LINE
  8
_1-5_1-5___
  6
CONTINUOUS
 62
    6
 10
216.5610977880431
 20
126.84733621588035
 11
217.24859784764774
 21
126.84733621588035
  0
LINE
  8
_1-5_1-5___
  6
CONTINUOUS
 62
    6
 10
217.93609784392245
 20
126.50358621588035
 11
218.27984784764774
 21
126.84733621588035
  0
LINE
  8
_1-5_1-5___
  6
CONTINUOUS
 62
    6
 10
218.27984784764774
 20
126.84733621588035
 11
218.62359784764774
 21
126.84733621588035
  0
LINE
  8
_1-5_1-5___
  6
CONTINUOUS
 62
    6
 10
218.62359784764774
 20
126.84733621588035
 11
218.96734784764774
 21
126.50358621588035
  0
LINE
  8
_1-5_1-5___
  6
CONTINUOUS
 62
    6
 10
218.96734784764774
 20
126.50358621588035
 11
218.96734784764774
 21
124.09733621588035
  0
LINE
  8
_1-5_1-5___
  6
CONTINUOUS
 62
    6
 10
218.96734784764774
 20
124.09733621588035
 11
218.62359784764774
 21
123.75358621588035
  0
LINE
  8
_1-5_1-5___
  6
CONTINUOUS
 62
    6
 10
218.62359784764774
 20
123.75358621588035
 11
218.27984784764774
 21
123.75358621588035
  0
LINE
  8
_1-5_1-5___
  6
CONTINUOUS
 62
    6
 10
218.27984784764774
 20
123.75358621588035
 11
217.93609784392245
 21
124.09733621588035
  0
LINE
  8
_1-5_1-5___
  6
CONTINUOUS
 62
    6
 10
217.93609784392245
 20
124.09733621588035
 11
217.93609784392245
 21
126.50358621588035
  0
LINE
  8
_1-5_1-5___
  6
CONTINUOUS
 62
    6
 10
198.01133741700124
 20
132.12297664588493
 11
198.52696241700124
 21
131.86516414588493
  0
LINE
  8
_1-5_1-5___
  6
CONTINUOUS
 62
    6
 10
198.52696241700124
 20
131.86516414588493
 11
199.04258732759428
 21
131.34953914588493
  0
LINE
  8
_1-5_1-5___
  6
CONTINUOUS
 62
    6
 10
199.04258732759428
 20
131.34953914588493
 11
199.30039982759428
 21
130.83391414588493
  0
LINE
  8
_1-5_1-5___
  6
CONTINUOUS
 62
    6
 10
199.30039982759428
 20
130.83391414588493
 11
199.30039982759428
 21
129.54485164588493
  0
LINE
  8
_1-5_1-5___
  6
CONTINUOUS
 62
    6
 10
199.30039982759428
 20
129.54485164588493
 11
199.04258732759428
 21
129.02922664588493
  0
LINE
  8
_1-5_1-5___
  6
CONTINUOUS
 62
    6
 10
199.04258732759428
 20
129.02922664588493
 11
198.52696241700124
 21
128.51360164588493
  0
LINE
  8
_1-5_1-5___
  6
CONTINUOUS
 62
    6
 10
198.52696241700124
 20
128.51360164588493
 11
198.01133741700124
 21
128.25578914588493
  0
LINE
  8
_1-5_1-5___
  6
CONTINUOUS
 62
    6
 10
198.01133741700124
 20
128.25578914588493
 11
196.98008741700124
 21
128.25578914588493
  0
LINE
  8
_1-5_1-5___
  6
CONTINUOUS
 62
    6
 10
196.98008741700124
 20
128.25578914588493
 11
196.46446241700124
 21
128.51360164588493
  0
LINE
  8
_1-5_1-5___
  6
CONTINUOUS
 62
    6
 10
196.46446241700124
 20
128.51360164588493
 11
195.94883732759428
 21
129.02922664588493
  0
LINE
  8
_1-5_1-5___
  6
CONTINUOUS
 62
    6
 10
195.94883732759428
 20
129.02922664588493
 11
195.69102482759428
 21
129.54485164588493
  0
LINE
  8
_1-5_1-5___
  6
CONTINUOUS
 62
    6
 10
195.69102482759428
 20
129.54485164588493
 11
195.69102482759428
 21
130.83391414588493
  0
LINE
  8
_1-5_1-5___
  6
CONTINUOUS
 62
    6
 10
195.69102482759428
 20
130.83391414588493
 11
195.94883732759428
 21
131.34953914588493
  0
LINE
  8
_1-5_1-5___
  6
CONTINUOUS
 62
    6
 10
195.94883732759428
 20
131.34953914588493
 11
196.46446241700124
 21
131.86516414588493
  0
LINE
  8
_1-5_1-5___
  6
CONTINUOUS
 62
    6
 10
196.46446241700124
 20
131.86516414588493
 11
196.98008741700124
 21
132.12297664588493
  0
LINE
  8
_1-5_1-5___
  6
CONTINUOUS
 62
    6
 10
196.98008741700124
 20
132.12297664588493
 11
198.01133741700124
 21
132.12297664588493
  0
LINE
  8
_1-5_1-5___
  6
CONTINUOUS
 62
    6
 10
196.98008741700124
 20
131.34953914588493
 11
198.26914991700124
 21
131.34953914588493
  0
LINE
  8
_1-5_1-5___
  6
CONTINUOUS
 62
    6
 10
198.26914991700124
 20
131.34953914588493
 11
198.26914991700124
 21
130.31828912353319
  0
LINE
  8
_1-5_1-5___
  6
CONTINUOUS
 62
    6
 10
198.26914991700124
 20
130.31828912353319
 11
197.75352491700124
 21
130.57610164588493
  0
LINE
  8
_1-5_1-5___
  6
CONTINUOUS
 62
    6
 10
197.75352491700124
 20
130.57610164588493
 11
197.23789991700124
 21
130.57610164588493
  0
LINE
  8
_1-5_1-5___
  6
CONTINUOUS
 62
    6
 10
197.23789991700124
 20
130.57610164588493
 11
196.72227491700124
 21
130.06047662353319
  0
LINE
  8
_1-5_1-5___
  6
CONTINUOUS
 62
    6
 10
196.72227491700124
 20
130.06047662353319
 11
196.72227491700124
 21
129.54485164588493
  0
LINE
  8
_1-5_1-5___
  6
CONTINUOUS
 62
    6
 10
196.72227491700124
 20
129.54485164588493
 11
197.23789991700124
 21
129.02922664588493
  0
LINE
  8
_1-5_1-5___
  6
CONTINUOUS
 62
    6
 10
197.23789991700124
 20
129.02922664588493
 11
198.01133741700124
 21
129.02922664588493
  0
LINE
  8
_1-5_1-5___
  6
CONTINUOUS
 62
    6
 10
198.01133741700124
 20
129.02922664588493
 11
198.26914991700124
 21
129.28703914588493
  0
LINE
  8
_1-5_1-5___
  6
CONTINUOUS
 62
    6
 10
183.14215069170947
 20
132.12297664588493
 11
183.65777569170947
 21
131.86516414588493
  0
LINE
  8
_1-5_1-5___
  6
CONTINUOUS
 62
    6
 10
183.65777569170947
 20
131.86516414588493
 11
184.17340060230251
 21
131.34953914588493
  0
LINE
  8
_1-5_1-5___
  6
CONTINUOUS
 62
    6
 10
184.17340060230251
 20
131.34953914588493
 11
184.43121310230251
 21
130.83391414588493
  0
LINE
  8
_1-5_1-5___
  6
CONTINUOUS
 62
    6
 10
184.43121310230251
 20
130.83391414588493
 11
184.43121310230251
 21
129.54485164588493
  0
LINE
  8
_1-5_1-5___
  6
CONTINUOUS
 62
    6
 10
184.43121310230251
 20
129.54485164588493
 11
184.17340060230251
 21
129.02922664588493
  0
LINE
  8
_1-5_1-5___
  6
CONTINUOUS
 62
    6
 10
184.17340060230251
 20
129.02922664588493
 11
183.65777569170947
 21
128.51360164588493
  0
LINE
  8
_1-5_1-5___
  6
CONTINUOUS
 62
    6
 10
183.65777569170947
 20
128.51360164588493
 11
183.14215069170947
 21
128.25578914588493
  0
LINE
  8
_1-5_1-5___
  6
CONTINUOUS
 62
    6
 10
183.14215069170947
 20
128.25578914588493
 11
182.11090069170947
 21
128.25578914588493
  0
LINE
  8
_1-5_1-5___
  6
CONTINUOUS
 62
    6
 10
182.11090069170947
 20
128.25578914588493
 11
181.59527569170947
 21
128.51360164588493
  0
LINE
  8
_1-5_1-5___
  6
CONTINUOUS
 62
    6
 10
181.59527569170947
 20
128.51360164588493
 11
181.07965060230251
 21
129.02922664588493
  0
LINE
  8
_1-5_1-5___
  6
CONTINUOUS
 62
    6
 10
181.07965060230251
 20
129.02922664588493
 11
180.82183810230251
 21
129.54485164588493
  0
LINE
  8
_1-5_1-5___
  6
CONTINUOUS
 62
    6
 10
180.82183810230251
 20
129.54485164588493
 11
180.82183810230251
 21
130.83391414588493
  0
LINE
  8
_1-5_1-5___
  6
CONTINUOUS
 62
    6
 10
180.82183810230251
 20
130.83391414588493
 11
181.07965060230251
 21
131.34953914588493
  0
LINE
  8
_1-5_1-5___
  6
CONTINUOUS
 62
    6
 10
181.07965060230251
 20
131.34953914588493
 11
181.59527569170947
 21
131.86516414588493
  0
LINE
  8
_1-5_1-5___
  6
CONTINUOUS
 62
    6
 10
181.59527569170947
 20
131.86516414588493
 11
182.11090069170947
 21
132.12297664588493
  0
LINE
  8
_1-5_1-5___
  6
CONTINUOUS
 62
    6
 10
182.11090069170947
 20
132.12297664588493
 11
183.14215069170947
 21
132.12297664588493
  0
LINE
  8
_1-5_1-5___
  6
CONTINUOUS
 62
    6
 10
182.11090069170947
 20
131.34953914588493
 11
183.39996319170947
 21
131.34953914588493
  0
LINE
  8
_1-5_1-5___
  6
CONTINUOUS
 62
    6
 10
183.39996319170947
 20
131.34953914588493
 11
183.39996319170947
 21
130.31828912353319
  0
LINE
  8
_1-5_1-5___
  6
CONTINUOUS
 62
    6
 10
183.39996319170947
 20
130.31828912353319
 11
182.88433819170947
 21
130.57610164588493
  0
LINE
  8
_1-5_1-5___
  6
CONTINUOUS
 62
    6
 10
182.88433819170947
 20
130.57610164588493
 11
182.36871319170947
 21
130.57610164588493
  0
LINE
  8
_1-5_1-5___
  6
CONTINUOUS
 62
    6
 10
182.36871319170947
 20
130.57610164588493
 11
181.85308819170947
 21
130.06047662353319
  0
LINE
  8
_1-5_1-5___
  6
CONTINUOUS
 62
    6
 10
181.85308819170947
 20
130.06047662353319
 11
181.85308819170947
 21
129.54485164588493
  0
LINE
  8
_1-5_1-5___
  6
CONTINUOUS
 62
    6
 10
181.85308819170947
 20
129.54485164588493
 11
182.36871319170947
 21
129.02922664588493
  0
LINE
  8
_1-5_1-5___
  6
CONTINUOUS
 62
    6
 10
182.36871319170947
 20
129.02922664588493
 11
183.14215069170947
 21
129.02922664588493
  0
LINE
  8
_1-5_1-5___
  6
CONTINUOUS
 62
    6
 10
183.14215069170947
 20
129.02922664588493
 11
183.39996319170947
 21
129.28703914588493
  0
LINE
  8
_1-5_1-5___
  6
CONTINUOUS
 62
    6
 10
242.55445278086196
 20
111.03658175645074
 11
241.86695284046661
 21
111.38033175645074
  0
LINE
  8
_1-5_1-5___
  6
CONTINUOUS
 62
    6
 10
241.86695284046661
 20
111.38033175645074
 11
241.17945284046661
 21
112.06783175645074
  0
LINE
  8
_1-5_1-5___
  6
CONTINUOUS
 62
    6
 10
241.17945284046661
 20
112.06783175645074
 11
240.83570284046661
 21
112.75533175645074
  0
LINE
  8
_1-5_1-5___
  6
CONTINUOUS
 62
    6
 10
240.83570284046661
 20
112.75533175645074
 11
240.83570284046661
 21
114.47408175645074
  0
LINE
  8
_1-5_1-5___
  6
CONTINUOUS
 62
    6
 10
240.83570284046661
 20
114.47408175645074
 11
241.17945284046661
 21
115.16158175645074
  0
LINE
  8
_1-5_1-5___
  6
CONTINUOUS
 62
    6
 10
241.17945284046661
 20
115.16158175645074
 11
241.86695284046661
 21
115.84908175645074
  0
LINE
  8
_1-5_1-5___
  6
CONTINUOUS
 62
    6
 10
241.86695284046661
 20
115.84908175645074
 11
242.55445278086196
 21
116.19283175645074
  0
LINE
  8
_1-5_1-5___
  6
CONTINUOUS
 62
    6
 10
242.55445278086196
 20
116.19283175645074
 11
243.92945278086196
 21
116.19283175645074
  0
LINE
  8
_1-5_1-5___
  6
CONTINUOUS
 62
    6
 10
243.92945278086196
 20
116.19283175645074
 11
244.61695284046661
 21
115.84908175645074
  0
LINE
  8
_1-5_1-5___
  6
CONTINUOUS
 62
    6
 10
244.61695284046661
 20
115.84908175645074
 11
245.30445284046661
 21
115.16158175645074
  0
LINE
  8
_1-5_1-5___
  6
CONTINUOUS
 62
    6
 10
245.30445284046661
 20
115.16158175645074
 11
245.64820284046661
 21
114.47408175645074
  0
LINE
  8
_1-5_1-5___
  6
CONTINUOUS
 62
    6
 10
245.64820284046661
 20
114.47408175645074
 11
245.64820284046661
 21
112.75533175645074
  0
LINE
  8
_1-5_1-5___
  6
CONTINUOUS
 62
    6
 10
245.64820284046661
 20
112.75533175645074
 11
245.30445284046661
 21
112.06783175645074
  0
LINE
  8
_1-5_1-5___
  6
CONTINUOUS
 62
    6
 10
245.30445284046661
 20
112.06783175645074
 11
244.61695284046661
 21
111.38033175645074
  0
LINE
  8
_1-5_1-5___
  6
CONTINUOUS
 62
    6
 10
244.61695284046661
 20
111.38033175645074
 11
243.92945278086196
 21
111.03658175645074
  0
LINE
  8
_1-5_1-5___
  6
CONTINUOUS
 62
    6
 10
243.92945278086196
 20
111.03658175645074
 11
242.55445278086196
 21
111.03658175645074
  0
LINE
  8
_1-5_1-5___
  6
CONTINUOUS
 62
    6
 10
242.21070284046661
 20
113.09908175645074
 11
242.55445278086196
 21
112.06783175645074
  0
LINE
  8
_1-5_1-5___
  6
CONTINUOUS
 62
    6
 10
242.55445278086196
 20
112.06783175645074
 11
244.27320284046661
 21
112.06783175645074
  0
LINE
  8
_1-5_1-5___
  6
CONTINUOUS
 62
    6
 10
244.27320284046661
 20
112.06783175645074
 11
243.24195279296916
 21
114.47408175645074
  0
LINE
  8
_1-5_1-5___
  6
CONTINUOUS
 62
    6
 10
243.24195279296916
 20
114.47408175645074
 11
243.24195279296916
 21
115.16158175645074
  0
LINE
  8
_1-5_1-5___
  6
CONTINUOUS
 62
    6
 10
242.37906423916328
 20
127.37628150896336
 11
241.69156429876793
 21
127.72003150896336
  0
LINE
  8
_1-5_1-5___
  6
CONTINUOUS
 62
    6
 10
241.69156429876793
 20
127.72003150896336
 11
241.00406429876793
 21
128.40753150896336
  0
LINE
  8
_1-5_1-5___
  6
CONTINUOUS
 62
    6
 10
241.00406429876793
 20
128.40753150896336
 11
240.66031429876793
 21
129.09503150896336
  0
LINE
  8
_1-5_1-5___
  6
CONTINUOUS
 62
    6
 10
240.66031429876793
 20
129.09503150896336
 11
240.66031429876793
 21
130.81378150896336
  0
LINE
  8
_1-5_1-5___
  6
CONTINUOUS
 62
    6
 10
240.66031429876793
 20
130.81378150896336
 11
241.00406429876793
 21
131.50128150896336
  0
LINE
  8
_1-5_1-5___
  6
CONTINUOUS
 62
    6
 10
241.00406429876793
 20
131.50128150896336
 11
241.69156429876793
 21
132.18878150896336
  0
LINE
  8
_1-5_1-5___
  6
CONTINUOUS
 62
    6
 10
241.69156429876793
 20
132.18878150896336
 11
242.37906423916328
 21
132.53253150896336
  0
LINE
  8
_1-5_1-5___
  6
CONTINUOUS
 62
    6
 10
242.37906423916328
 20
132.53253150896336
 11
243.75406423916328
 21
132.53253150896336
  0
LINE
  8
_1-5_1-5___
  6
CONTINUOUS
 62
    6
 10
243.75406423916328
 20
132.53253150896336
 11
244.44156429876793
 21
132.18878150896336
  0
LINE
  8
_1-5_1-5___
  6
CONTINUOUS
 62
    6
 10
244.44156429876793
 20
132.18878150896336
 11
245.12906429876793
 21
131.50128150896336
  0
LINE
  8
_1-5_1-5___
  6
CONTINUOUS
 62
    6
 10
245.12906429876793
 20
131.50128150896336
 11
245.47281429876793
 21
130.81378150896336
  0
LINE
  8
_1-5_1-5___
  6
CONTINUOUS
 62
    6
 10
245.47281429876793
 20
130.81378150896336
 11
245.47281429876793
 21
129.09503150896336
  0
LINE
  8
_1-5_1-5___
  6
CONTINUOUS
 62
    6
 10
245.47281429876793
 20
129.09503150896336
 11
245.12906429876793
 21
128.40753150896336
  0
LINE
  8
_1-5_1-5___
  6
CONTINUOUS
 62
    6
 10
245.12906429876793
 20
128.40753150896336
 11
244.44156429876793
 21
127.72003150896336
  0
LINE
  8
_1-5_1-5___
  6
CONTINUOUS
 62
    6
 10
244.44156429876793
 20
127.72003150896336
 11
243.75406423916328
 21
127.37628150896336
  0
LINE
  8
_1-5_1-5___
  6
CONTINUOUS
 62
    6
 10
243.75406423916328
 20
127.37628150896336
 11
242.37906423916328
 21
127.37628150896336
  0
LINE
  8
_1-5_1-5___
  6
CONTINUOUS
 62
    6
 10
242.03531429876793
 20
129.43878150896336
 11
242.37906423916328
 21
128.40753150896336
  0
LINE
  8
_1-5_1-5___
  6
CONTINUOUS
 62
    6
 10
242.37906423916328
 20
128.40753150896336
 11
244.09781429876793
 21
128.40753150896336
  0
LINE
  8
_1-5_1-5___
  6
CONTINUOUS
 62
    6
 10
244.09781429876793
 20
128.40753150896336
 11
243.06656425127048
 21
130.81378150896336
  0
LINE
  8
_1-5_1-5___
  6
CONTINUOUS
 62
    6
 10
243.06656425127048
 20
130.81378150896336
 11
243.06656425127048
 21
131.50128150896336
  0
LINE
  8
_1-5_1-5___
  6
CONTINUOUS
 62
    6
 10
233.80945632301712
 20
143.28625291490511
 11
234.49695632301712
 21
143.63000291490511
  0
LINE
  8
_1-5_1-5___
  6
CONTINUOUS
 62
    6
 10
234.49695632301712
 20
143.63000291490511
 11
235.18445632301712
 21
144.31750279569582
  0
LINE
  8
_1-5_1-5___
  6
CONTINUOUS
 62
    6
 10
235.18445632301712
 20
144.31750279569582
 11
235.52820632301712
 21
145.00500279569582
  0
LINE
  8
_1-5_1-5___
  6
CONTINUOUS
 62
    6
 10
235.52820632301712
 20
145.00500279569582
 11
235.52820632301712
 21
146.72375279569582
  0
LINE
  8
_1-5_1-5___
  6
CONTINUOUS
 62
    6
 10
235.52820632301712
 20
146.72375279569582
 11
235.18445632301712
 21
147.41125279569582
  0
LINE
  8
_1-5_1-5___
  6
CONTINUOUS
 62
    6
 10
235.18445632301712
 20
147.41125279569582
 11
234.49695632301712
 21
148.09875291490511
  0
LINE
  8
_1-5_1-5___
  6
CONTINUOUS
 62
    6
 10
234.49695632301712
 20
148.09875291490511
 11
233.80945632301712
 21
148.44250291490511
  0
LINE
  8
_1-5_1-5___
  6
CONTINUOUS
 62
    6
 10
233.80945632301712
 20
148.44250291490511
 11
232.43445632301712
 21
148.44250291490511
  0
LINE
  8
_1-5_1-5___
  6
CONTINUOUS
 62
    6
 10
232.43445632301712
 20
148.44250291490511
 11
231.74695632301712
 21
148.09875291490511
  0
LINE
  8
_1-5_1-5___
  6
CONTINUOUS
 62
    6
 10
231.74695632301712
 20
148.09875291490511
 11
231.05945632301712
 21
147.41125279569582
  0
LINE
  8
_1-5_1-5___
  6
CONTINUOUS
 62
    6
 10
231.05945632301712
 20
147.41125279569582
 11
230.71570632301712
 21
146.72375279569582
  0
LINE
  8
_1-5_1-5___
  6
CONTINUOUS
 62
    6
 10
230.71570632301712
 20
146.72375279569582
 11
230.71570632301712
 21
145.00500279569582
  0
LINE
  8
_1-5_1-5___
  6
CONTINUOUS
 62
    6
 10
230.71570632301712
 20
145.00500279569582
 11
231.05945632301712
 21
144.31750279569582
  0
LINE
  8
_1-5_1-5___
  6
CONTINUOUS
 62
    6
 10
231.05945632301712
 20
144.31750279569582
 11
231.74695632301712
 21
143.63000291490511
  0
LINE
  8
_1-5_1-5___
  6
CONTINUOUS
 62
    6
 10
231.74695632301712
 20
143.63000291490511
 11
232.43445632301712
 21
143.28625291490511
  0
LINE
  8
_1-5_1-5___
  6
CONTINUOUS
 62
    6
 10
232.43445632301712
 20
143.28625291490511
 11
233.80945632301712
 21
143.28625291490511
  0
LINE
  8
_1-5_1-5___
  6
CONTINUOUS
 62
    6
 10
232.77820632301712
 20
144.31750279569582
 11
233.46570632301712
 21
144.31750279569582
  0
LINE
  8
_1-5_1-5___
  6
CONTINUOUS
 62
    6
 10
233.46570632301712
 20
144.31750279569582
 11
234.15320632301712
 21
145.00500279569582
  0
LINE
  8
_1-5_1-5___
  6
CONTINUOUS
 62
    6
 10
234.15320632301712
 20
145.00500279569582
 11
233.46570632301712
 21
145.69250281059698
  0
LINE
  8
_1-5_1-5___
  6
CONTINUOUS
 62
    6
 10
233.46570632301712
 20
145.69250281059698
 11
232.77820632301712
 21
145.69250281059698
  0
LINE
  8
_1-5_1-5___
  6
CONTINUOUS
 62
    6
 10
232.77820632301712
 20
145.69250281059698
 11
232.09070632301712
 21
146.38000279569582
  0
LINE
  8
_1-5_1-5___
  6
CONTINUOUS
 62
    6
 10
232.09070632301712
 20
146.38000279569582
 11
232.09070632301712
 21
146.72375279569582
  0
LINE
  8
_1-5_1-5___
  6
CONTINUOUS
 62
    6
 10
232.09070632301712
 20
146.72375279569582
 11
232.77820632301712
 21
147.41125279569582
  0
LINE
  8
_1-5_1-5___
  6
CONTINUOUS
 62
    6
 10
232.77820632301712
 20
147.41125279569582
 11
233.46570632301712
 21
147.41125279569582
  0
LINE
  8
_1-5_1-5___
  6
CONTINUOUS
 62
    6
 10
233.46570632301712
 20
147.41125279569582
 11
234.15320632301712
 21
146.72375279569582
  0
LINE
  8
_1-5_1-5___
  6
CONTINUOUS
 62
    6
 10
234.15320632301712
 20
146.72375279569582
 11
234.15320632301712
 21
146.38000279569582
  0
LINE
  8
_1-5_1-5___
  6
CONTINUOUS
 62
    6
 10
234.15320632301712
 20
146.38000279569582
 11
233.46570632301712
 21
145.69250281059698
  0
LINE
  8
_1-5_1-5___
  6
CONTINUOUS
 62
    6
 10
232.77820632301712
 20
145.69250281059698
 11
232.09070632301712
 21
145.00500279569582
  0
LINE
  8
_1-5_1-5___
  6
CONTINUOUS
 62
    6
 10
232.09070632301712
 20
145.00500279569582
 11
232.77820632301712
 21
144.31750279569582
  0
LINE
  8
_1-5_1-5___
  6
CONTINUOUS
 62
    6
 10
251.01515948877699
 20
100.87200099827069
 11
251.01515948877699
 21
101.31887600423116
  0
LINE
  8
_1-5_1-5___
  6
CONTINUOUS
 62
    6
 10
251.01515948877699
 20
101.31887600423116
 11
250.5682844530142
 21
101.76575103999394
  0
LINE
  8
_1-5_1-5___
  6
CONTINUOUS
 62
    6
 10
250.5682844530142
 20
101.76575103999394
 11
250.34484696493513
 21
101.76575103999394
  0
LINE
  8
_1-5_1-5___
  6
CONTINUOUS
 62
    6
 10
250.34484696493513
 20
101.76575103999394
 11
249.89797195897467
 21
101.31887600423116
  0
LINE
  8
_1-5_1-5___
  6
CONTINUOUS
 62
    6
 10
249.89797195897467
 20
101.31887600423116
 11
249.89797195897467
 21
100.64856349529047
  0
LINE
  8
_1-5_1-5___
  6
CONTINUOUS
 62
    6
 10
249.89797195897467
 20
100.64856349529047
 11
250.79172194109327
 21
99.754813468468384
  0
LINE
  8
_1-5_1-5___
  6
CONTINUOUS
 62
    6
 10
250.79172194109327
 20
99.754813468468384
 11
251.01515948877699
 21
99.307938492310242
  0
LINE
  8
_1-5_1-5___
  6
CONTINUOUS
 62
    6
 10
251.01515948877699
 20
99.307938492310242
 11
251.01515948877699
 21
98.8610635161521
  0
LINE
  8
_1-5_1-5___
  6
CONTINUOUS
 62
    6
 10
251.01515948877699
 20
98.8610635161521
 11
249.89797195897467
 21
98.8610635161521
  0
LINE
  8
_1-5_1-5___
  6
CONTINUOUS
 62
    6
 10
249.22765946493513
 20
100.87200099827069
 11
249.22765946493513
 21
101.31887600423116
  0
LINE
  8
_1-5_1-5___
  6
CONTINUOUS
 62
    6
 10
249.22765946493513
 20
101.31887600423116
 11
248.78078448877699
 21
101.76575103999394
  0
LINE
  8
_1-5_1-5___
  6
CONTINUOUS
 62
    6
 10
248.78078448877699
 20
101.76575103999394
 11
248.55734694109327
 21
101.76575103999394
  0
LINE
  8
_1-5_1-5___
  6
CONTINUOUS
 62
    6
 10
248.55734694109327
 20
101.76575103999394
 11
248.11047196493513
 21
101.31887600423116
  0
LINE
  8
_1-5_1-5___
  6
CONTINUOUS
 62
    6
 10
248.11047196493513
 20
101.31887600423116
 11
248.11047196493513
 21
100.64856349529047
  0
LINE
  8
_1-5_1-5___
  6
CONTINUOUS
 62
    6
 10
248.11047196493513
 20
100.64856349529047
 11
249.00422197685606
 21
99.754813468468384
  0
LINE
  8
_1-5_1-5___
  6
CONTINUOUS
 62
    6
 10
249.00422197685606
 20
99.754813468468384
 11
249.22765946493513
 21
99.307938492310242
  0
LINE
  8
_1-5_1-5___
  6
CONTINUOUS
 62
    6
 10
249.22765946493513
 20
99.307938492310242
 11
249.22765946493513
 21
98.8610635161521
  0
LINE
  8
_1-5_1-5___
  6
CONTINUOUS
 62
    6
 10
249.22765946493513
 20
98.8610635161521
 11
248.11047196493513
 21
98.8610635161521
  0
CIRCLE
  8
_1-5_1-5___
  6
CONTINUOUS
 62
    6
 10
249.574976855079
 20
100.19869509936591
 40
2.7300000190734863
  0
LINE
  8
_1-5_1-5___
  6
CONTINUOUS
 62
    6
 10
247.16003081172897
 20
192.9666128031366
 11
247.50378081172897
 21
192.7947378031366
  0
LINE
  8
_1-5_1-5___
  6
CONTINUOUS
 62
    6
 10
247.50378081172897
 20
192.7947378031366
 11
247.84753081172897
 21
192.4509878031366
  0
LINE
  8
_1-5_1-5___
  6
CONTINUOUS
 62
    6
 10
247.84753081172897
 20
192.4509878031366
 11
248.01940581172897
 21
192.1072378031366
  0
LINE
  8
_1-5_1-5___
  6
CONTINUOUS
 62
    6
 10
248.01940581172897
 20
192.1072378031366
 11
248.01940581172897
 21
191.2478628031366
  0
LINE
  8
_1-5_1-5___
  6
CONTINUOUS
 62
    6
 10
248.01940581172897
 20
191.2478628031366
 11
247.84753081172897
 21
190.9041128031366
  0
LINE
  8
_1-5_1-5___
  6
CONTINUOUS
 62
    6
 10
247.84753081172897
 20
190.9041128031366
 11
247.50378081172897
 21
190.5603628031366
  0
LINE
  8
_1-5_1-5___
  6
CONTINUOUS
 62
    6
 10
247.50378081172897
 20
190.5603628031366
 11
247.16003081172897
 21
190.3884878031366
  0
LINE
  8
_1-5_1-5___
  6
CONTINUOUS
 62
    6
 10
247.16003081172897
 20
190.3884878031366
 11
246.47253081172897
 21
190.3884878031366
  0
LINE
  8
_1-5_1-5___
  6
CONTINUOUS
 62
    6
 10
246.47253081172897
 20
190.3884878031366
 11
246.12878081172897
 21
190.5603628031366
  0
LINE
  8
_1-5_1-5___
  6
CONTINUOUS
 62
    6
 10
246.12878081172897
 20
190.5603628031366
 11
245.78503081172897
 21
190.9041128031366
  0
LINE
  8
_1-5_1-5___
  6
CONTINUOUS
 62
    6
 10
245.78503081172897
 20
190.9041128031366
 11
245.61315581172897
 21
191.2478628031366
  0
LINE
  8
_1-5_1-5___
  6
CONTINUOUS
 62
    6
 10
245.61315581172897
 20
191.2478628031366
 11
245.61315581172897
 21
192.1072378031366
  0
LINE
  8
_1-5_1-5___
  6
CONTINUOUS
 62
    6
 10
245.61315581172897
 20
192.1072378031366
 11
245.78503081172897
 21
192.4509878031366
  0
LINE
  8
_1-5_1-5___
  6
CONTINUOUS
 62
    6
 10
245.78503081172897
 20
192.4509878031366
 11
246.12878081172897
 21
192.7947378031366
  0
LINE
  8
_1-5_1-5___
  6
CONTINUOUS
 62
    6
 10
246.12878081172897
 20
192.7947378031366
 11
246.47253081172897
 21
192.9666128031366
  0
LINE
  8
_1-5_1-5___
  6
CONTINUOUS
 62
    6
 10
246.47253081172897
 20
192.9666128031366
 11
247.16003081172897
 21
192.9666128031366
  0
LINE
  8
_1-5_1-5___
  6
CONTINUOUS
 62
    6
 10
247.50378081172897
 20
192.2791128031366
 11
247.33190581172897
 21
192.4509878031366
  0
LINE
  8
_1-5_1-5___
  6
CONTINUOUS
 62
    6
 10
247.33190581172897
 20
192.4509878031366
 11
247.33190581172897
 21
190.9041128031366
  0
LINE
  8
_1-5_1-5___
  6
CONTINUOUS
 62
    6
 10
247.50378081172897
 20
190.9041128031366
 11
247.16003081172897
 21
190.9041128031366
  0
LINE
  8
_1-5_1-5___
  6
CONTINUOUS
 62
    6
 10
246.64440582663013
 20
190.9041128031366
 11
246.12878081172897
 21
190.9041128031366
  0
LINE
  8
_1-5_1-5___
  6
CONTINUOUS
 62
    6
 10
246.30065581172897
 20
190.9041128031366
 11
246.30065581172897
 21
192.4509878031366
  0
LINE
  8
_1-5_1-5___
  6
CONTINUOUS
 62
    6
 10
246.30065581172897
 20
192.4509878031366
 11
246.98815582663013
 21
191.4197378031366
  0
LINE
  8
_1-5_1-5___
  6
CONTINUOUS
 62
    6
 10
246.98815582663013
 20
191.4197378031366
 11
246.12878081172897
 21
191.4197378031366
  0
LINE
  8
_1-5_1-5___
  6
CONTINUOUS
 62
    6
 10
234.40788834340046
 20
191.1838978691826
 11
234.75163837320278
 21
191.0120228691826
  0
LINE
  8
_1-5_1-5___
  6
CONTINUOUS
 62
    6
 10
234.75163837320278
 20
191.0120228691826
 11
235.09538837320278
 21
190.6682728691826
  0
LINE
  8
_1-5_1-5___
  6
CONTINUOUS
 62
    6
 10
235.09538837320278
 20
190.6682728691826
 11
235.26726337320278
 21
190.32452283938028
  0
LINE
  8
_1-5_1-5___
  6
CONTINUOUS
 62
    6
 10
235.26726337320278
 20
190.32452283938028
 11
235.26726337320278
 21
189.46514783938028
  0
LINE
  8
_1-5_1-5___
  6
CONTINUOUS
 62
    6
 10
235.26726337320278
 20
189.46514783938028
 11
235.09538837320278
 21
189.1213978691826
  0
LINE
  8
_1-5_1-5___
  6
CONTINUOUS
 62
    6
 10
235.09538837320278
 20
189.1213978691826
 11
234.75163837320278
 21
188.7776478691826
  0
LINE
  8
_1-5_1-5___
  6
CONTINUOUS
 62
    6
 10
234.75163837320278
 20
188.7776478691826
 11
234.40788834340046
 21
188.6057728691826
  0
LINE
  8
_1-5_1-5___
  6
CONTINUOUS
 62
    6
 10
234.40788834340046
 20
188.6057728691826
 11
233.72038834340046
 21
188.6057728691826
  0
LINE
  8
_1-5_1-5___
  6
CONTINUOUS
 62
    6
 10
233.72038834340046
 20
188.6057728691826
 11
233.37663837320278
 21
188.7776478691826
  0
LINE
  8
_1-5_1-5___
  6
CONTINUOUS
 62
    6
 10
233.37663837320278
 20
188.7776478691826
 11
233.03288837320278
 21
189.1213978691826
  0
LINE
  8
_1-5_1-5___
  6
CONTINUOUS
 62
    6
 10
233.03288837320278
 20
189.1213978691826
 11
232.86101337320278
 21
189.46514783938028
  0
LINE
  8
_1-5_1-5___
  6
CONTINUOUS
 62
    6
 10
232.86101337320278
 20
189.46514783938028
 11
232.86101337320278
 21
190.32452283938028
  0
LINE
  8
_1-5_1-5___
  6
CONTINUOUS
 62
    6
 10
232.86101337320278
 20
190.32452283938028
 11
233.03288837320278
 21
190.6682728691826
  0
LINE
  8
_1-5_1-5___
  6
CONTINUOUS
 62
    6
 10
233.03288837320278
 20
190.6682728691826
 11
233.37663837320278
 21
191.0120228691826
  0
LINE
  8
_1-5_1-5___
  6
CONTINUOUS
 62
    6
 10
233.37663837320278
 20
191.0120228691826
 11
233.72038834340046
 21
191.1838978691826
  0
LINE
  8
_1-5_1-5___
  6
CONTINUOUS
 62
    6
 10
233.72038834340046
 20
191.1838978691826
 11
234.40788834340046
 21
191.1838978691826
  0
LINE
  8
_1-5_1-5___
  6
CONTINUOUS
 62
    6
 10
234.75163837320278
 20
190.4963978691826
 11
234.57976337320278
 21
190.6682728691826
  0
LINE
  8
_1-5_1-5___
  6
CONTINUOUS
 62
    6
 10
234.57976337320278
 20
190.6682728691826
 11
234.57976337320278
 21
189.1213978691826
  0
LINE
  8
_1-5_1-5___
  6
CONTINUOUS
 62
    6
 10
234.75163837320278
 20
189.1213978691826
 11
234.40788834340046
 21
189.1213978691826
  0
LINE
  8
_1-5_1-5___
  6
CONTINUOUS
 62
    6
 10
233.54851334340046
 20
190.6682728691826
 11
234.06413835643897
 21
190.6682728691826
  0
LINE
  8
_1-5_1-5___
  6
CONTINUOUS
 62
    6
 10
234.06413835643897
 20
190.6682728691826
 11
234.06413835643897
 21
189.98077283938028
  0
LINE
  8
_1-5_1-5___
  6
CONTINUOUS
 62
    6
 10
234.06413835643897
 20
189.98077283938028
 11
233.89226335830162
 21
190.15264783938028
  0
LINE
  8
_1-5_1-5___
  6
CONTINUOUS
 62
    6
 10
233.89226335830162
 20
190.15264783938028
 11
233.72038834340046
 21
190.15264783938028
  0
LINE
  8
_1-5_1-5___
  6
CONTINUOUS
 62
    6
 10
233.72038834340046
 20
190.15264783938028
 11
233.54851334340046
 21
189.98077283938028
  0
LINE
  8
_1-5_1-5___
  6
CONTINUOUS
 62
    6
 10
233.54851334340046
 20
189.98077283938028
 11
233.54851334340046
 21
189.2932728691826
  0
LINE
  8
_1-5_1-5___
  6
CONTINUOUS
 62
    6
 10
233.54851334340046
 20
189.2932728691826
 11
233.72038834340046
 21
189.1213978691826
  0
LINE
  8
_1-5_1-5___
  6
CONTINUOUS
 62
    6
 10
233.72038834340046
 20
189.1213978691826
 11
233.89226335830162
 21
189.1213978691826
  0
LINE
  8
_1-5_1-5___
  6
CONTINUOUS
 62
    6
 10
233.89226335830162
 20
189.1213978691826
 11
234.06413835643897
 21
189.2932728691826
  0
LINE
  8
_1-5_1-5___
  6
CONTINUOUS
 62
    6
 10
234.06413835643897
 20
189.2932728691826
 11
234.06413835643897
 21
189.46514783938028
  0
LINE
  8
_1-5_1-5___
  6
CONTINUOUS
 62
    6
 10
253.651052629285
 20
186.5866585941275
 11
253.20417765312686
 21
186.5866585941275
  0
LINE
  8
_1-5_1-5___
  6
CONTINUOUS
 62
    6
 10
253.20417765312686
 20
186.5866585941275
 11
252.75730267696872
 21
186.13978361796936
  0
LINE
  8
_1-5_1-5___
  6
CONTINUOUS
 62
    6
 10
252.75730267696872
 20
186.13978361796936
 11
252.75730267696872
 21
185.91634607028564
  0
LINE
  8
_1-5_1-5___
  6
CONTINUOUS
 62
    6
 10
252.75730267696872
 20
185.91634607028564
 11
253.20417765312686
 21
185.4694710941275
  0
LINE
  8
_1-5_1-5___
  6
CONTINUOUS
 62
    6
 10
253.20417765312686
 20
185.4694710941275
 11
253.87449013226524
 21
185.4694710941275
  0
LINE
  8
_1-5_1-5___
  6
CONTINUOUS
 62
    6
 10
253.87449013226524
 20
185.4694710941275
 11
254.768240129285
 21
186.36322104644378
  0
LINE
  8
_1-5_1-5___
  6
CONTINUOUS
 62
    6
 10
254.768240129285
 20
186.36322104644378
 11
255.21511510544315
 21
186.5866585941275
  0
LINE
  8
_1-5_1-5___
  6
CONTINUOUS
 62
    6
 10
255.21511510544315
 20
186.5866585941275
 11
255.66199008160129
 21
186.5866585941275
  0
LINE
  8
_1-5_1-5___
  6
CONTINUOUS
 62
    6
 10
255.66199008160129
 20
186.5866585941275
 11
255.66199008160129
 21
185.4694710941275
  0
LINE
  8
_1-5_1-5___
  6
CONTINUOUS
 62
    6
 10
253.42761514120593
 20
184.7991585851868
 11
253.20417765312686
 21
184.7991585851868
  0
LINE
  8
_1-5_1-5___
  6
CONTINUOUS
 62
    6
 10
253.20417765312686
 20
184.7991585851868
 11
252.75730267696872
 21
184.3522835941275
  0
LINE
  8
_1-5_1-5___
  6
CONTINUOUS
 62
    6
 10
252.75730267696872
 20
184.3522835941275
 11
252.75730267696872
 21
184.12884610604843
  0
LINE
  8
_1-5_1-5___
  6
CONTINUOUS
 62
    6
 10
252.75730267696872
 20
184.12884610604843
 11
253.20417765312686
 21
183.68197107028564
  0
LINE
  8
_1-5_1-5___
  6
CONTINUOUS
 62
    6
 10
253.20417765312686
 20
183.68197107028564
 11
253.651052629285
 21
183.68197107028564
  0
LINE
  8
_1-5_1-5___
  6
CONTINUOUS
 62
    6
 10
253.651052629285
 20
183.68197107028564
 11
254.09792762965753
 21
184.12884610604843
  0
LINE
  8
_1-5_1-5___
  6
CONTINUOUS
 62
    6
 10
254.09792762965753
 20
184.12884610604843
 11
254.09792762965753
 21
184.3522835941275
  0
LINE
  8
_1-5_1-5___
  6
CONTINUOUS
 62
    6
 10
254.09792762965753
 20
184.12884610604843
 11
254.54480264120593
 21
183.68197107028564
  0
LINE
  8
_1-5_1-5___
  6
CONTINUOUS
 62
    6
 10
254.54480264120593
 20
183.68197107028564
 11
255.21511510544315
 21
183.68197107028564
  0
LINE
  8
_1-5_1-5___
  6
CONTINUOUS
 62
    6
 10
255.21511510544315
 20
183.68197107028564
 11
255.66199008160129
 21
184.12884610604843
  0
LINE
  8
_1-5_1-5___
  6
CONTINUOUS
 62
    6
 10
255.66199008160129
 20
184.12884610604843
 11
255.66199008160129
 21
184.3522835941275
  0
LINE
  8
_1-5_1-5___
  6
CONTINUOUS
 62
    6
 10
255.66199008160129
 20
184.3522835941275
 11
255.21511510544315
 21
184.7991585851868
  0
LINE
  8
_1-5_1-5___
  6
CONTINUOUS
 62
    6
 10
255.21511510544315
 20
184.7991585851868
 11
254.768240129285
 21
184.7991585851868
  0
CIRCLE
  8
_1-5_1-5___
  6
CONTINUOUS
 62
    6
 10
254.3377527051498
 20
185.06629146349033
 40
2.7300000190734863
  0
LINE
  8
_1-5_1-5___
  6
CONTINUOUS
 62
    6
 10
253.651052629285
 20
161.61153820889473
 11
253.20417765312686
 21
161.61153820889473
  0
LINE
  8
_1-5_1-5___
  6
CONTINUOUS
 62
    6
 10
253.20417765312686
 20
161.61153820889473
 11
252.75730267696872
 21
161.16466323273659
  0
LINE
  8
_1-5_1-5___
  6
CONTINUOUS
 62
    6
 10
252.75730267696872
 20
161.16466323273659
 11
252.75730267696872
 21
160.94122568505287
  0
LINE
  8
_1-5_1-5___
  6
CONTINUOUS
 62
    6
 10
252.75730267696872
 20
160.94122568505287
 11
253.20417765312686
 21
160.49435070889473
  0
LINE
  8
_1-5_1-5___
  6
CONTINUOUS
 62
    6
 10
253.20417765312686
 20
160.49435070889473
 11
253.87449013226524
 21
160.49435070889473
  0
LINE
  8
_1-5_1-5___
  6
CONTINUOUS
 62
    6
 10
253.87449013226524
 20
160.49435070889473
 11
254.768240129285
 21
161.38810066121101
  0
LINE
  8
_1-5_1-5___
  6
CONTINUOUS
 62
    6
 10
254.768240129285
 20
161.38810066121101
 11
255.21511510544315
 21
161.61153820889473
  0
LINE
  8
_1-5_1-5___
  6
CONTINUOUS
 62
    6
 10
255.21511510544315
 20
161.61153820889473
 11
255.66199008160129
 21
161.61153820889473
  0
LINE
  8
_1-5_1-5___
  6
CONTINUOUS
 62
    6
 10
255.66199008160129
 20
161.61153820889473
 11
255.66199008160129
 21
160.49435070889473
  0
LINE
  8
_1-5_1-5___
  6
CONTINUOUS
 62
    6
 10
253.42761514120593
 20
159.82403819995403
 11
253.20417765312686
 21
159.82403819995403
  0
LINE
  8
_1-5_1-5___
  6
CONTINUOUS
 62
    6
 10
253.20417765312686
 20
159.82403819995403
 11
252.75730267696872
 21
159.37716320889473
  0
LINE
  8
_1-5_1-5___
  6
CONTINUOUS
 62
    6
 10
252.75730267696872
 20
159.37716320889473
 11
252.75730267696872
 21
159.15372572081566
  0
LINE
  8
_1-5_1-5___
  6
CONTINUOUS
 62
    6
 10
252.75730267696872
 20
159.15372572081566
 11
253.20417765312686
 21
158.70685068505287
  0
LINE
  8
_1-5_1-5___
  6
CONTINUOUS
 62
    6
 10
253.20417765312686
 20
158.70685068505287
 11
253.651052629285
 21
158.70685068505287
  0
LINE
  8
_1-5_1-5___
  6
CONTINUOUS
 62
    6
 10
253.651052629285
 20
158.70685068505287
 11
254.09792762965753
 21
159.15372572081566
  0
LINE
  8
_1-5_1-5___
  6
CONTINUOUS
 62
    6
 10
254.09792762965753
 20
159.15372572081566
 11
254.09792762965753
 21
159.37716320889473
  0
LINE
  8
_1-5_1-5___
  6
CONTINUOUS
 62
    6
 10
254.09792762965753
 20
159.15372572081566
 11
254.54480264120593
 21
158.70685068505287
  0
LINE
  8
_1-5_1-5___
  6
CONTINUOUS
 62
    6
 10
254.54480264120593
 20
158.70685068505287
 11
255.21511510544315
 21
158.70685068505287
  0
LINE
  8
_1-5_1-5___
  6
CONTINUOUS
 62
    6
 10
255.21511510544315
 20
158.70685068505287
 11
255.66199008160129
 21
159.15372572081566
  0
LINE
  8
_1-5_1-5___
  6
CONTINUOUS
 62
    6
 10
255.66199008160129
 20
159.15372572081566
 11
255.66199008160129
 21
159.37716320889473
  0
LINE
  8
_1-5_1-5___
  6
CONTINUOUS
 62
    6
 10
255.66199008160129
 20
159.37716320889473
 11
255.21511510544315
 21
159.82403819995403
  0
LINE
  8
_1-5_1-5___
  6
CONTINUOUS
 62
    6
 10
255.21511510544315
 20
159.82403819995403
 11
254.768240129285
 21
159.82403819995403
  0
CIRCLE
  8
_1-5_1-5___
  6
CONTINUOUS
 62
    6
 10
254.3377527051498
 20
160.09117107825756
 40
2.7300000190734863
  0
LINE
  8
_1-5_1-5___
  6
CONTINUOUS
 62
    6
 10
203.11921595576723
 20
169.03978336303663
 11
203.56609093192537
 21
169.03978336303663
  0
LINE
  8
_1-5_1-5___
  6
CONTINUOUS
 62
    6
 10
203.56609093192537
 20
169.03978336303663
 11
204.01296590808352
 21
169.48665839879942
  0
LINE
  8
_1-5_1-5___
  6
CONTINUOUS
 62
    6
 10
204.01296590808352
 20
169.48665839879942
 11
204.01296590808352
 21
169.71009591668081
  0
LINE
  8
_1-5_1-5___
  6
CONTINUOUS
 62
    6
 10
204.01296590808352
 20
169.71009591668081
 11
203.56609093192537
 21
170.15697092264128
  0
LINE
  8
_1-5_1-5___
  6
CONTINUOUS
 62
    6
 10
203.56609093192537
 20
170.15697092264128
 11
202.89577843788584
 21
170.15697092264128
  0
LINE
  8
_1-5_1-5___
  6
CONTINUOUS
 62
    6
 10
202.89577843788584
 20
170.15697092264128
 11
202.00202845576723
 21
169.26322091072035
  0
LINE
  8
_1-5_1-5___
  6
CONTINUOUS
 62
    6
 10
202.00202845576723
 20
169.26322091072035
 11
201.55515347960909
 21
169.03978336303663
  0
LINE
  8
_1-5_1-5___
  6
CONTINUOUS
 62
    6
 10
201.55515347960909
 20
169.03978336303663
 11
201.10827850345095
 21
169.03978336303663
  0
LINE
  8
_1-5_1-5___
  6
CONTINUOUS
 62
    6
 10
201.10827850345095
 20
169.03978336303663
 11
201.10827850345095
 21
170.15697092264128
  0
LINE
  8
_1-5_1-5___
  6
CONTINUOUS
 62
    6
 10
204.01296590808352
 20
171.72103345840407
 11
202.2254659438463
 21
170.82728344648314
  0
LINE
  8
_1-5_1-5___
  6
CONTINUOUS
 62
    6
 10
202.2254659438463
 20
170.82728344648314
 11
201.77859096768816
 21
170.82728344648314
  0
LINE
  8
_1-5_1-5___
  6
CONTINUOUS
 62
    6
 10
201.77859096768816
 20
170.82728344648314
 11
201.77859096768816
 21
171.94447088687849
  0
LINE
  8
_1-5_1-5___
  6
CONTINUOUS
 62
    6
 10
204.01296590808352
 20
171.72103345840407
 11
201.10827850345095
 21
171.72103345840407
  0
CIRCLE
  8
_1-5_1-5___
  6
CONTINUOUS
 62
    6
 10
202.49002473596056
 20
170.52469900696707
 40
2.7300000190734863
  0
ENDSEC
  0
EOF
